<svg width="34" height="34" viewBox="0 0 34 34" fill="none" xmlns="http://www.w3.org/2000/svg">
<path d="M12.3347 8.0324C12.1463 7.52345 12.0433 6.97407 12.0433 6.40174C12.0433 3.76793 14.2146 1.63281 16.893 1.63281C19.5715 1.63281 21.7428 3.76793 21.7428 6.40174C21.7428 7.17325 21.5553 7.90458 21.2229 8.55125C21.7012 8.58379 22.166 8.7957 22.5048 9.17651C24.3459 11.2455 25.957 14.1956 25.957 17.6149C25.957 20.0595 25.1012 21.871 23.9446 23.1762L26.1412 23.5551C27.0381 23.7097 27.6923 24.4757 27.6923 25.3711V28.8281C27.6923 29.3171 27.4948 29.7861 27.1431 30.1319C26.7915 30.4776 26.3146 30.6719 25.8173 30.6719L7.96875 30.6719C6.93322 30.6719 6.09375 29.8464 6.09375 28.8281V25.3711C6.09375 24.4767 6.7465 23.7113 7.64212 23.5555L9.62356 23.2108C8.45127 21.9032 7.58113 20.0815 7.58113 17.6149C7.58113 14.9472 8.63249 12.6238 9.8656 10.8433C10.6407 9.72413 11.5182 8.774 12.3347 8.0324Z" fill="#34364C"/>
<path d="M17.8125 17.3712H15.9375C15.9375 13.9857 16.9817 10.6058 19.2919 8.13187C19.6539 7.64733 19.8678 7.04909 19.8678 6.40174C19.8678 4.7862 18.5359 3.47656 16.893 3.47656C15.2501 3.47656 13.9183 4.7862 13.9183 6.40174C13.9183 7.1988 14.2425 7.92141 14.7683 8.449C12.91 9.75165 9.45613 13.2433 9.45613 17.6149C9.45613 22.0267 12.9737 23.8128 14.819 24.1794L7.96875 25.3711V28.8281L25.8173 28.8281V25.3711L18.8046 24.1617C20.6708 23.7577 24.082 21.9595 24.082 17.6149C24.082 14.7702 22.7344 12.2344 21.0938 10.3906C19.2919 11.7734 17.8125 15 17.8125 17.3712Z" fill="#E8E8E8"/>
</svg>
