<svg width="34" height="34" viewBox="0 0 34 34" fill="none" xmlns="http://www.w3.org/2000/svg">
<path d="M13.9171 0.483733C14.5343 0.41549 15.1458 0.652203 15.5501 1.11585L19.3755 5.50327C23.7686 6.5708 26.314 9.82365 27.7218 13.8844C29.1724 18.0687 29.5313 23.3808 29.5313 28.8282C29.5313 29.8464 28.6918 30.6719 27.6563 30.6719H10.1742C9.17877 30.6719 8.35684 29.907 8.30203 28.9297C8.25311 28.0575 8.45718 26.5442 9.07902 24.9984L9.09045 24.9701C7.32456 25.9022 5.36476 25.679 3.90991 24.6604C2.14185 23.4225 1.15876 20.9993 2.28195 18.6063C3.0919 16.8807 3.96484 15.9669 4.62522 15.2758C5.24206 14.6303 5.49913 14.3463 5.68098 13.631C6.7836 9.29406 9.052 6.79568 11.4881 5.6555C11.4528 5.16143 11.4815 4.68542 11.5431 4.25324C11.6965 3.1775 12.0784 2.1834 12.4677 1.45667C12.7572 0.916322 13.2999 0.551977 13.9171 0.483733Z" fill="#34364C"/>
<path fill-rule="evenodd" clip-rule="evenodd" d="M18.3612 7.17263L14.1266 2.31592C13.5136 3.46024 12.9194 5.47988 13.7738 6.93786C13.3591 6.97416 12.9628 7.04314 12.6562 7.1641C10.7005 7.93585 8.55467 9.92973 7.49998 14.0782C7.19458 15.2794 6.64492 15.8546 5.99164 16.5383C5.3754 17.1832 4.66696 17.9246 3.98435 19.3789C2.57811 22.375 6.37326 25.3711 9.14061 22.6499C10.6964 21.12 12.0564 20.4884 13.1982 19.9582C14.8415 19.195 16.0329 18.6417 16.7059 15.9219C17.0261 17.1905 16.898 20.1845 13.8243 22.0114C10.7505 23.8382 10.1101 27.6864 10.1742 28.8281H27.6562C27.6562 17.9884 26.1968 8.62288 18.3612 7.17263Z" fill="#E8E8E8"/>
<ellipse cx="13.125" cy="12.6953" rx="1.40625" ry="1.38281" fill="#34364C"/>
</svg>
