<svg width="63" height="63" viewBox="0 0 63 63" fill="none" xmlns="http://www.w3.org/2000/svg">
<path d="M25.8021 1.23824C26.9467 1.11169 28.0807 1.55067 28.8304 2.41049L35.9246 10.5468C44.0715 12.5265 48.7918 18.5589 51.4025 26.0895C54.0927 33.8492 54.7581 43.7003 54.7581 53.8023C54.7581 55.6906 53.2014 57.2215 51.281 57.2215H18.861C17.015 57.2215 15.4907 55.803 15.3891 53.9906C15.2984 52.3731 15.6768 49.5667 16.83 46.7001L16.8512 46.6477C13.5764 48.3762 9.94201 47.9622 7.24402 46.0732C3.9652 43.7777 2.14209 39.2839 4.22501 34.8461C5.72704 31.646 7.34589 29.9514 8.57054 28.6698C9.71447 27.4726 10.1912 26.946 10.5284 25.6195C12.5732 17.5768 16.7799 12.9436 21.2975 10.8292C21.2322 9.9129 21.2853 9.03016 21.3996 8.22871C21.6841 6.23377 22.3923 4.39023 23.1142 3.04253C23.651 2.04047 24.6576 1.3648 25.8021 1.23824Z" fill="#E8E8E8"/>
<path fill-rule="evenodd" clip-rule="evenodd" d="M34.0437 13.6424L26.1907 4.63574C25.0539 6.75786 23.9519 10.5032 25.5363 13.207C24.7673 13.2743 24.0323 13.4022 23.4639 13.6266C19.8371 15.0578 15.8576 18.7554 13.9017 26.4485C13.3354 28.6762 12.3161 29.7429 11.1046 31.0108C9.96176 32.2068 8.64798 33.5817 7.38211 36.2787C4.77426 41.8349 11.8123 47.391 16.9442 42.3446C19.8295 39.5074 22.3515 38.3362 24.4689 37.3528C27.5165 35.9375 29.7259 34.9114 30.9739 29.8677C31.5677 32.2204 31.3302 37.7726 25.63 41.1604C19.9297 44.5482 18.7422 51.6846 18.8609 53.802H51.281C51.281 33.6999 48.5744 16.3318 34.0437 13.6424Z" fill="#000039"/>
<ellipse cx="24.3332" cy="23.8842" rx="2.60785" ry="2.56439" fill="#E8E8E8"/>
</svg>
