<svg width="440" height="425" viewBox="0 0 440 425" fill="none" xmlns="http://www.w3.org/2000/svg">
<rect width="440" height="400" rx="10" fill="white"/>
<rect width="356" height="354" transform="translate(42 19)" fill="#E8E8E8"/>
<rect width="44.5" height="44.25" transform="translate(42 19)" fill="#E8E8E8"/>
<rect width="44.5" height="44.25" transform="translate(42 107.5)" fill="#E8E8E8"/>
<rect width="44.5" height="44.25" transform="translate(42 196)" fill="#E8E8E8"/>
<rect width="44.5" height="44.25" transform="translate(42 284.5)" fill="#E8E8E8"/>
<rect width="44.5" height="44.25" transform="translate(42 63.25)" fill="#333360"/>
<rect width="44.5" height="44.25" transform="translate(42 151.75)" fill="#333360"/>
<rect width="44.5" height="44.25" transform="translate(42 240.25)" fill="#333360"/>
<rect width="44.5" height="44.25" transform="translate(42 328.75)" fill="#333360"/>
<rect width="44.5" height="44.25" transform="translate(131 63.25)" fill="#333360"/>
<rect width="44.5" height="44.25" transform="translate(131 151.75)" fill="#333360"/>
<rect width="44.5" height="44.25" transform="translate(131 240.25)" fill="#333360"/>
<rect width="44.5" height="44.25" transform="translate(131 328.75)" fill="#333360"/>
<rect width="44.5" height="44.25" transform="translate(220 63.25)" fill="#333360"/>
<rect width="44.5" height="44.25" transform="translate(220 151.75)" fill="#333360"/>
<rect width="44.5" height="44.25" transform="translate(220 240.25)" fill="#333360"/>
<rect width="44.5" height="44.25" transform="translate(220 328.75)" fill="#333360"/>
<rect width="44.5" height="44.25" transform="translate(309 63.25)" fill="#333360"/>
<rect width="44.5" height="44.25" transform="translate(309 151.75)" fill="#333360"/>
<rect width="44.5" height="44.25" transform="translate(309 240.25)" fill="#333360"/>
<rect width="44.5" height="44.25" transform="translate(309 328.75)" fill="#333360"/>
<rect width="44.5" height="44.25" transform="translate(220 19)" fill="#E8E8E8"/>
<rect width="44.5" height="44.25" transform="translate(220 107.5)" fill="#E8E8E8"/>
<rect width="44.5" height="44.25" transform="translate(220 196)" fill="#E8E8E8"/>
<rect width="44.5" height="44.25" transform="translate(220 284.5)" fill="#E8E8E8"/>
<rect width="44.5" height="44.25" transform="translate(131 19)" fill="#E8E8E8"/>
<rect width="44.5" height="44.25" transform="translate(131 107.5)" fill="#E8E8E8"/>
<rect width="44.5" height="44.25" transform="translate(131 196)" fill="#E8E8E8"/>
<rect width="44.5" height="44.25" transform="translate(131 284.5)" fill="#E8E8E8"/>
<rect width="44.5" height="44.25" transform="translate(309 19)" fill="#E8E8E8"/>
<rect width="44.5" height="44.25" transform="translate(309 107.5)" fill="#E8E8E8"/>
<rect width="44.5" height="44.25" transform="translate(309 196)" fill="#E8E8E8"/>
<rect width="44.5" height="44.25" transform="translate(309 284.5)" fill="#E8E8E8"/>
<rect width="44.5" height="44.25" transform="translate(86.5 19)" fill="#333360"/>
<path d="M105.825 24.765C106.435 24.6967 107.04 24.9335 107.44 25.3971L111.223 29.7845C115.567 30.852 118.084 34.1049 119.476 38.1657C120.911 42.35 121.266 47.6621 121.266 53.1094C121.266 54.1277 120.435 54.9532 119.411 54.9532H102.124C101.139 54.9532 100.326 54.1883 100.272 53.2109C100.224 52.3388 100.426 50.8254 101.041 49.2797L101.052 49.2514C99.3056 50.1835 97.3676 49.9602 95.9289 48.9416C94.1805 47.7038 93.2083 45.2806 94.3191 42.8876C95.12 41.1619 95.9832 40.2482 96.6363 39.5571C97.2463 38.9115 97.5005 38.6276 97.6803 37.9123C98.7707 33.5753 101.014 31.0769 103.423 29.9368C103.388 29.4427 103.416 28.9667 103.477 28.5345C103.629 27.4588 104.007 26.4647 104.392 25.7379C104.678 25.1976 105.215 24.8332 105.825 24.765Z" fill="#333360"/>
<ellipse cx="105.042" cy="36.9766" rx="1.39062" ry="1.38281" fill="#333360"/>
<rect width="44.5" height="44.25" transform="translate(86.5 107.5)" fill="#333360"/>
<rect width="44.5" height="44.25" transform="translate(86.5 196)" fill="#333360"/>
<rect width="44.5" height="44.25" transform="translate(86.5 284.5)" fill="#333360"/>
<rect width="44.5" height="44.25" transform="translate(86.5 63.25)" fill="#E8E8E8"/>
<rect width="44.5" height="44.25" transform="translate(86.5 151.75)" fill="#E8E8E8"/>
<rect width="44.5" height="44.25" transform="translate(86.5 240.25)" fill="#E8E8E8"/>
<rect width="44.5" height="44.25" transform="translate(86.5 328.75)" fill="#E8E8E8"/>
<rect width="44.5" height="44.25" transform="translate(175.5 63.25)" fill="#E8E8E8"/>
<rect width="44.5" height="44.25" transform="translate(175.5 151.75)" fill="#E8E8E8"/>
<rect width="44.5" height="44.25" transform="translate(175.5 240.25)" fill="#E8E8E8"/>
<rect width="44.5" height="44.25" transform="translate(175.5 328.75)" fill="#E8E8E8"/>
<rect width="44.5" height="44.25" transform="translate(264.5 63.25)" fill="#E8E8E8"/>
<rect width="44.5" height="44.25" transform="translate(264.5 151.75)" fill="#E8E8E8"/>
<rect width="44.5" height="44.25" transform="translate(264.5 240.25)" fill="#E8E8E8"/>
<rect width="44.5" height="44.25" transform="translate(264.5 328.75)" fill="#E8E8E8"/>
<rect width="44.5" height="44.25" transform="translate(353.5 63.25)" fill="#E8E8E8"/>
<rect width="44.5" height="44.25" transform="translate(353.5 151.75)" fill="#E8E8E8"/>
<rect width="44.5" height="44.25" transform="translate(353.5 240.25)" fill="#E8E8E8"/>
<rect width="44.5" height="44.25" transform="translate(353.5 328.75)" fill="#E8E8E8"/>
<rect width="44.5" height="44.25" transform="translate(264.5 19)" fill="#333360"/>
<rect width="44.5" height="44.25" transform="translate(264.5 107.5)" fill="#333360"/>
<rect width="44.5" height="44.25" transform="translate(264.5 196)" fill="#333360"/>
<rect width="44.5" height="44.25" transform="translate(264.5 284.5)" fill="#333360"/>
<rect width="44.5" height="44.25" transform="translate(175.5 19)" fill="#333360"/>
<rect width="44.5" height="44.25" transform="translate(175.5 107.5)" fill="#333360"/>
<rect width="44.5" height="44.25" transform="translate(175.5 196)" fill="#333360"/>
<rect width="44.5" height="44.25" transform="translate(175.5 284.5)" fill="#333360"/>
<rect width="44.5" height="44.25" transform="translate(353.5 19)" fill="#333360"/>
<rect width="44.5" height="44.25" transform="translate(353.5 107.5)" fill="#333360"/>
<rect width="44.5" height="44.25" transform="translate(353.5 196)" fill="#333360"/>
<rect width="44.5" height="44.25" transform="translate(353.5 284.5)" fill="#333360"/>
<path d="M101.736 218.957C101.514 219.257 101.249 219.57 100.941 219.892C99.8525 221.027 98.5178 221.961 97.6563 222.449L97.5114 222.532C96.9324 222.86 96.5751 223.471 96.5751 224.132V228.578C96.5751 229.596 97.4071 230.422 98.4334 230.422H116.553C117.579 230.422 118.411 229.596 118.411 228.578V224.132C118.411 223.471 118.054 222.86 117.475 222.532L117.33 222.449C116.468 221.961 115.133 221.027 114.045 219.892C113.737 219.57 113.472 219.257 113.25 218.957C114.066 218.762 114.672 218.033 114.672 217.164V214.163C114.672 213.564 114.379 213.002 113.885 212.657L113.096 212.104C113.552 211.226 113.809 210.23 113.809 209.175C113.809 205.635 110.917 202.766 107.349 202.766C103.781 202.766 100.889 205.635 100.889 209.175C100.889 210.289 101.177 211.338 101.681 212.251L101.101 212.657C100.607 213.002 100.314 213.564 100.314 214.163V217.164C100.314 218.033 100.92 218.762 101.736 218.957Z" fill="#34364C"/>
<path d="M111.951 209.175C111.951 210.499 111.383 211.691 110.475 212.525L112.814 214.163V217.164H110.524C110.635 218.556 111.534 219.948 112.699 221.162C113.934 222.451 115.421 223.491 116.408 224.05L116.553 224.132V228.578H98.4335V224.132L98.5784 224.05C99.5655 223.491 101.052 222.451 102.287 221.162C103.452 219.948 104.351 218.556 104.462 217.164H102.172V214.163L104.35 212.638C103.369 211.801 102.748 210.56 102.748 209.175C102.748 206.653 104.808 204.609 107.349 204.609C109.891 204.609 111.951 206.653 111.951 209.175Z" fill="#E8E8E8"/>
<path fill-rule="evenodd" clip-rule="evenodd" d="M105.939 291.786C105.97 290.791 106.792 290 107.796 290H110.584C111.587 290 112.41 290.791 112.441 291.786L112.458 292.305H113.371C114.398 292.305 115.23 293.13 115.23 294.148V295.267C117.255 294.812 119.442 295.116 121.298 296.65C125.153 299.837 124.798 306.519 120.223 310.174C119.119 311.056 118.251 311.787 117.654 312.54C117.518 312.712 117.401 312.878 117.303 313.041L119.186 313.294C120.108 313.418 120.795 314.198 120.795 315.121V318.578C120.795 319.596 119.963 320.422 118.937 320.422H99.4431C98.4167 320.422 97.5847 319.596 97.5847 318.578V315.121C97.5847 314.198 98.2723 313.418 99.194 313.294L101.077 313.041C100.979 312.878 100.862 312.712 100.726 312.54C100.129 311.787 99.2614 311.056 98.1572 310.174C93.5818 306.519 93.2271 299.837 97.0823 296.65C98.9381 295.116 101.125 294.812 103.15 295.267V294.148C103.15 293.13 103.982 292.305 105.009 292.305H105.922L105.939 291.786Z" fill="#34364C"/>
<path fill-rule="evenodd" clip-rule="evenodd" d="M107.796 291.844H110.584L110.656 294.148H113.371V296.914H110.743L110.871 300.045C110.922 299.986 110.974 299.927 111.029 299.87C113.567 297.194 117.33 295.77 120.108 298.066C122.895 300.371 122.895 305.672 119.057 308.738C116.883 310.474 114.936 312.148 115.032 314.597L118.937 315.121V318.578H99.4431V315.121L103.348 314.597C103.444 312.148 101.497 310.474 99.3226 308.738C95.4845 305.672 95.4845 300.371 98.272 298.066C101.05 295.77 104.813 297.194 107.351 299.87C107.405 299.927 107.458 299.986 107.509 300.045L107.636 296.914H105.009V294.148H107.724L107.796 291.844ZM105.17 302.433C106.874 305.201 107.099 308.438 107.099 309.845C106.245 309.846 103.027 308.441 101.322 306.135C100.095 304.474 99.7755 302.011 100.827 301.054C101.879 300.098 104.106 300.703 105.17 302.433ZM113.21 302.433C111.506 305.201 111.281 308.438 111.281 309.845C112.134 309.846 115.353 308.441 117.058 306.135C118.284 304.474 118.604 302.011 117.553 301.054C116.501 300.098 114.274 300.703 113.21 302.433Z" fill="#E8E8E8"/>
<path d="M104.079 27.3047C104.418 27.3047 104.735 27.3945 105.009 27.5513C105.282 27.3945 105.599 27.3047 105.938 27.3047H111.048C111.387 27.3047 111.704 27.3945 111.977 27.5513C112.251 27.3945 112.568 27.3047 112.907 27.3047H117.553C118.579 27.3047 119.411 28.1302 119.411 29.1484V33.2969C119.411 33.8772 119.136 34.4237 118.668 34.7719L115.8 36.9056L116.612 44.1558C116.827 46.0752 117.727 47.0491 119.039 48.7844C119.281 49.1035 119.411 49.4917 119.411 49.8906V53.5781C119.411 54.5964 118.579 55.4219 117.553 55.4219H99.4334C98.4071 55.4219 97.5751 54.5964 97.5751 53.5781V49.8906C97.5751 49.4917 97.7055 49.1035 97.9467 48.7844C99.2585 47.0491 100.159 46.0752 100.374 44.1558L101.186 36.9056L98.3184 34.7719C97.8505 34.4237 97.5751 33.8772 97.5751 33.2969V29.1484C97.5751 28.1302 98.4071 27.3047 99.4334 27.3047H104.079Z" fill="#E8E8E8"/>
<path d="M99.4335 29.1484H104.079V31.9141H105.938V29.1484H111.048V31.9141H112.907V29.1484H117.553V33.2969L113.836 36.0625L114.765 44.3594H102.221L103.15 36.0625L99.4335 33.2969V29.1484Z" fill="#34364C"/>
<path d="M102.221 46.2031H114.765L117.553 49.8906V53.5781H99.4335V49.8906L102.221 46.2031Z" fill="#34364C"/>
<path fill-rule="evenodd" clip-rule="evenodd" d="M60.9387 25.7862C60.9701 24.7908 61.7924 24 62.7962 24H65.5837C66.5875 24 67.4099 24.7908 67.4412 25.7862L67.4575 26.3047H68.3713C69.3977 26.3047 70.2297 27.1302 70.2297 28.1484V29.2667C72.2554 28.8119 74.4418 29.1157 76.2976 30.65C80.1529 33.8374 79.7981 40.5191 75.2227 44.1738C74.1186 45.0558 73.2512 45.7869 72.6538 46.5403C72.5176 46.7122 72.4008 46.8785 72.3025 47.0413L74.1859 47.294C75.1076 47.4177 75.7952 48.1983 75.7952 49.1211V52.5781C75.7952 53.5964 74.9632 54.4219 73.9369 54.4219H54.4431C53.4167 54.4219 52.5847 53.5964 52.5847 52.5781V49.1211C52.5847 48.1983 53.2723 47.4177 54.194 47.294L56.0774 47.0413C55.9791 46.8785 55.8624 46.7122 55.7261 46.5403C55.1288 45.7869 54.2614 45.0557 53.1572 44.1738C48.5818 40.5191 48.2271 33.8374 52.0823 30.65C53.9381 29.1157 56.1246 28.8119 58.1503 29.2667V28.1484C58.1503 27.1302 58.9823 26.3047 60.0086 26.3047H60.9224L60.9387 25.7862Z" fill="#E8E8E8"/>
<path fill-rule="evenodd" clip-rule="evenodd" d="M62.7962 25.8438H65.5837L65.6563 28.1484H68.3713V30.9141H65.7434L65.8711 34.0452C65.922 33.9857 65.9745 33.9273 66.0285 33.8703C68.5667 31.1939 72.3299 29.7697 75.1079 32.0664C77.8954 34.3711 77.8954 39.6719 74.0573 42.7376C71.8831 44.4743 69.9357 46.1485 70.0317 48.5971L73.9369 49.1211V52.5781H54.4431V49.1211L58.3482 48.5971C58.4442 46.1485 56.4968 44.4743 54.3226 42.7376C50.4845 39.6719 50.4845 34.3711 53.272 32.0664C56.05 29.7697 59.8132 31.1939 62.3514 33.8703C62.4054 33.9273 62.4579 33.9857 62.5088 34.0452L62.6365 30.9141H60.0086V28.1484H62.7236L62.7962 25.8438ZM60.1703 36.4329C61.8738 39.2013 62.0993 42.4375 62.0993 43.8448C61.2454 43.8464 58.0266 42.4414 56.3224 40.135C55.0955 38.4745 54.7755 36.0109 55.8273 35.0544C56.879 34.098 59.1056 34.7027 60.1703 36.4329ZM68.2096 36.4329C66.5061 39.2013 66.2806 42.4375 66.2806 43.8448C67.1345 43.8464 70.3533 42.4414 72.0575 40.135C73.2844 38.4745 73.6044 36.0109 72.5526 35.0544C71.5009 34.098 69.2743 34.7027 68.2096 36.4329Z" fill="#34364C"/>
<path d="M324.736 130.957C324.514 131.257 324.249 131.57 323.941 131.892C322.853 133.027 321.518 133.961 320.656 134.449L320.511 134.532C319.932 134.86 319.575 135.471 319.575 136.132V140.578C319.575 141.596 320.407 142.422 321.433 142.422H339.553C340.579 142.422 341.411 141.596 341.411 140.578V136.132C341.411 135.471 341.054 134.86 340.475 134.532L340.33 134.449C339.468 133.961 338.133 133.027 337.045 131.892C336.737 131.57 336.472 131.257 336.25 130.957C337.066 130.762 337.672 130.033 337.672 129.164V126.163C337.672 125.564 337.379 125.002 336.885 124.657L336.096 124.104C336.552 123.226 336.809 122.23 336.809 121.175C336.809 117.635 333.917 114.766 330.349 114.766C326.781 114.766 323.889 117.635 323.889 121.175C323.889 122.289 324.177 123.338 324.681 124.251L324.101 124.657C323.607 125.002 323.314 125.564 323.314 126.163V129.164C323.314 130.033 323.92 130.762 324.736 130.957Z" fill="#E8E8E8"/>
<path d="M334.951 121.175C334.951 122.499 334.383 123.691 333.475 124.525L335.814 126.163V129.164H333.524C333.635 130.556 334.534 131.948 335.699 133.162C336.934 134.451 338.421 135.491 339.408 136.05L339.553 136.132V140.578H321.433V136.132L321.578 136.05C322.566 135.491 324.052 134.451 325.287 133.162C326.452 131.948 327.351 130.556 327.462 129.164H325.172V126.163L327.35 124.638C326.369 123.801 325.748 122.56 325.748 121.175C325.748 118.653 327.808 116.609 330.349 116.609C332.891 116.609 334.951 118.653 334.951 121.175Z" fill="#34364C"/>
<path d="M57.7355 88.957C57.5138 89.2573 57.2493 89.57 56.9409 89.8917C55.8525 91.027 54.5178 91.961 53.6563 92.4494L53.5114 92.5316C52.9324 92.8598 52.5751 93.4708 52.5751 94.1324V98.5781C52.5751 99.5964 53.4071 100.422 54.4334 100.422H72.5526C73.5789 100.422 74.4109 99.5964 74.4109 98.5781V94.1324C74.4109 93.4708 74.0536 92.8599 73.4746 92.5316L73.3297 92.4494C72.4682 91.961 71.1334 91.027 70.0451 89.8917C69.7367 89.57 69.4722 89.2573 69.2505 88.957C70.0661 88.7621 70.6721 88.0335 70.6721 87.1644V84.1632C70.6721 83.5641 70.3787 83.0024 69.8854 82.6569L69.0961 82.1041C69.5515 81.2262 69.8092 80.2299 69.8092 79.1749C69.8092 75.6351 66.917 72.7656 63.3492 72.7656C59.7814 72.7656 56.8891 75.6351 56.8891 79.1749C56.8891 80.2893 57.1766 81.3378 57.6807 82.2506L57.1006 82.6569C56.6073 83.0024 56.3139 83.5641 56.3139 84.1632V87.1644C56.3139 88.0335 56.9199 88.7621 57.7355 88.957Z" fill="#E8E8E8"/>
<path d="M67.9509 79.1749C67.9509 80.499 67.3827 81.6914 66.4751 82.5254L68.8137 84.1632V87.1644H66.5243C66.6347 88.5556 67.5344 89.9479 68.6986 91.1623C69.9341 92.4511 71.4205 93.4906 72.4077 94.0502L72.5526 94.1324V98.5781H54.4335V94.1324L54.5784 94.0502C55.5655 93.4906 57.052 92.4511 58.2875 91.1623C59.4517 89.9479 60.3514 88.5556 60.4618 87.1644H58.1723V84.1632L60.3504 82.6378C59.369 81.8005 58.7475 80.5597 58.7475 79.1749C58.7475 76.6534 60.8078 74.6094 63.3492 74.6094C65.8907 74.6094 67.9509 76.6534 67.9509 79.1749Z" fill="#34364C"/>
<path d="M412.706 44.6738C412.706 45.2051 412.583 45.6523 412.337 46.0156C412.091 46.3789 411.755 46.6543 411.329 46.8418C410.907 47.0254 410.431 47.1172 409.899 47.1172C409.368 47.1172 408.89 47.0254 408.464 46.8418C408.038 46.6543 407.702 46.3789 407.456 46.0156C407.21 45.6523 407.087 45.2051 407.087 44.6738C407.087 44.3223 407.155 44.0039 407.292 43.7188C407.429 43.4297 407.622 43.1816 407.872 42.9746C408.126 42.7637 408.423 42.6016 408.763 42.4883C409.106 42.375 409.481 42.3184 409.888 42.3184C410.427 42.3184 410.909 42.418 411.335 42.6172C411.761 42.8164 412.095 43.0918 412.337 43.4434C412.583 43.7949 412.706 44.2051 412.706 44.6738ZM411.288 44.6035C411.288 44.3184 411.23 44.0684 411.112 43.8535C410.995 43.6387 410.831 43.4727 410.62 43.3555C410.409 43.2383 410.165 43.1797 409.888 43.1797C409.606 43.1797 409.362 43.2383 409.155 43.3555C408.948 43.4727 408.786 43.6387 408.669 43.8535C408.556 44.0684 408.499 44.3184 408.499 44.6035C408.499 44.8926 408.556 45.1426 408.669 45.3535C408.782 45.5605 408.944 45.7188 409.155 45.8281C409.366 45.9375 409.614 45.9922 409.899 45.9922C410.185 45.9922 410.431 45.9375 410.638 45.8281C410.845 45.7188 411.005 45.5605 411.118 45.3535C411.231 45.1426 411.288 44.8926 411.288 44.6035ZM412.513 40.7129C412.513 41.1387 412.399 41.5176 412.173 41.8496C411.95 42.1816 411.642 42.4434 411.247 42.6348C410.853 42.8223 410.403 42.916 409.899 42.916C409.392 42.916 408.938 42.8223 408.54 42.6348C408.146 42.4434 407.835 42.1816 407.608 41.8496C407.386 41.5176 407.274 41.1387 407.274 40.7129C407.274 40.2051 407.386 39.7773 407.608 39.4297C407.835 39.0781 408.146 38.8105 408.54 38.627C408.935 38.4434 409.386 38.3516 409.894 38.3516C410.401 38.3516 410.853 38.4434 411.247 38.627C411.642 38.8105 411.95 39.0781 412.173 39.4297C412.399 39.7773 412.513 40.2051 412.513 40.7129ZM411.101 40.7598C411.101 40.5059 411.05 40.2832 410.948 40.0918C410.851 39.8965 410.712 39.7441 410.532 39.6348C410.353 39.5254 410.14 39.4707 409.894 39.4707C409.647 39.4707 409.435 39.5234 409.255 39.6289C409.075 39.7344 408.937 39.8828 408.839 40.0742C408.741 40.2656 408.692 40.4941 408.692 40.7598C408.692 41.0215 408.741 41.25 408.839 41.4453C408.937 41.6367 409.075 41.7871 409.255 41.8965C409.438 42.0059 409.653 42.0605 409.899 42.0605C410.146 42.0605 410.358 42.0059 410.538 41.8965C410.718 41.7871 410.856 41.6367 410.954 41.4453C411.052 41.25 411.101 41.0215 411.101 40.7598Z" fill="#000039"/>
<path d="M412.794 82.7188V83.4922L409.384 91.25H407.896L411.3 83.8438H406.882V82.7188H412.794Z" fill="#000039"/>
<path d="M411.394 126.916H411.569V128.07H411.47C410.966 128.07 410.53 128.148 410.163 128.305C409.8 128.461 409.501 128.676 409.267 128.949C409.032 129.223 408.856 129.543 408.739 129.91C408.626 130.273 408.569 130.66 408.569 131.07V132.412C408.569 132.752 408.606 133.053 408.681 133.314C408.755 133.572 408.858 133.789 408.991 133.965C409.128 134.137 409.284 134.268 409.46 134.357C409.636 134.447 409.825 134.492 410.028 134.492C410.239 134.492 410.431 134.449 410.603 134.363C410.774 134.273 410.921 134.15 411.042 133.994C411.163 133.838 411.255 133.652 411.317 133.438C411.38 133.223 411.411 132.988 411.411 132.734C411.411 132.492 411.38 132.266 411.317 132.055C411.259 131.84 411.171 131.652 411.054 131.492C410.937 131.328 410.79 131.201 410.614 131.111C410.442 131.018 410.243 130.971 410.017 130.971C409.735 130.971 409.48 131.037 409.249 131.17C409.022 131.303 408.839 131.477 408.698 131.691C408.562 131.902 408.487 132.127 408.476 132.365L407.937 132.189C407.968 131.826 408.048 131.5 408.177 131.211C408.31 130.922 408.483 130.676 408.698 130.473C408.913 130.27 409.161 130.115 409.442 130.01C409.728 129.9 410.04 129.846 410.38 129.846C410.794 129.846 411.153 129.924 411.458 130.08C411.763 130.236 412.015 130.449 412.214 130.719C412.417 130.984 412.567 131.289 412.665 131.633C412.767 131.973 412.817 132.328 412.817 132.699C412.817 133.109 412.755 133.492 412.63 133.848C412.505 134.199 412.321 134.508 412.079 134.773C411.841 135.039 411.55 135.246 411.206 135.395C410.866 135.543 410.48 135.617 410.046 135.617C409.589 135.617 409.181 135.529 408.821 135.354C408.466 135.178 408.163 134.936 407.913 134.627C407.667 134.318 407.48 133.963 407.351 133.561C407.222 133.158 407.157 132.732 407.157 132.283V131.697C407.157 131.049 407.239 130.438 407.403 129.863C407.567 129.285 407.819 128.775 408.159 128.334C408.503 127.893 408.942 127.547 409.478 127.297C410.013 127.043 410.651 126.916 411.394 126.916Z" fill="#000039"/>
<path d="M408.61 175.783L407.485 175.508L407.948 171.219H412.548V172.414H409.12L408.886 174.506C409.019 174.428 409.202 174.352 409.437 174.277C409.671 174.199 409.938 174.16 410.239 174.16C410.642 174.16 411.001 174.227 411.317 174.359C411.638 174.488 411.909 174.678 412.132 174.928C412.355 175.174 412.524 175.475 412.642 175.83C412.759 176.182 412.817 176.578 412.817 177.02C412.817 177.414 412.759 177.783 412.642 178.127C412.528 178.471 412.356 178.773 412.126 179.035C411.896 179.297 411.605 179.502 411.253 179.65C410.905 179.795 410.493 179.867 410.017 179.867C409.661 179.867 409.319 179.816 408.991 179.715C408.667 179.609 408.376 179.455 408.118 179.252C407.86 179.045 407.653 178.791 407.497 178.49C407.341 178.186 407.251 177.836 407.228 177.441H408.61C408.646 177.719 408.722 177.955 408.839 178.15C408.96 178.342 409.12 178.488 409.319 178.59C409.519 178.691 409.749 178.742 410.011 178.742C410.249 178.742 410.454 178.701 410.626 178.619C410.798 178.533 410.94 178.412 411.054 178.256C411.171 178.096 411.257 177.908 411.312 177.693C411.37 177.479 411.399 177.24 411.399 176.979C411.399 176.729 411.366 176.5 411.3 176.293C411.237 176.086 411.142 175.906 411.013 175.754C410.888 175.602 410.73 175.484 410.538 175.402C410.347 175.316 410.126 175.273 409.876 175.273C409.54 175.273 409.282 175.322 409.103 175.42C408.927 175.518 408.763 175.639 408.61 175.783Z" fill="#000039"/>
<path d="M413.005 220.959V222.084H406.853L406.806 221.234L410.485 215.469H411.616L410.392 217.566L408.276 220.959H413.005ZM411.938 215.469V224H410.526V215.469H411.938Z" fill="#000039"/>
<path d="M408.786 263.346H409.63C409.958 263.346 410.23 263.289 410.444 263.176C410.663 263.062 410.825 262.906 410.931 262.707C411.036 262.508 411.089 262.279 411.089 262.021C411.089 261.752 411.04 261.521 410.942 261.33C410.849 261.135 410.704 260.984 410.509 260.879C410.317 260.773 410.073 260.721 409.776 260.721C409.526 260.721 409.3 260.771 409.097 260.873C408.897 260.971 408.739 261.111 408.622 261.295C408.505 261.475 408.446 261.689 408.446 261.939H407.028C407.028 261.486 407.147 261.084 407.386 260.732C407.624 260.381 407.948 260.105 408.358 259.906C408.772 259.703 409.237 259.602 409.753 259.602C410.304 259.602 410.784 259.693 411.194 259.877C411.608 260.057 411.931 260.326 412.161 260.686C412.392 261.045 412.507 261.49 412.507 262.021C412.507 262.264 412.45 262.51 412.337 262.76C412.224 263.01 412.056 263.238 411.833 263.445C411.61 263.648 411.333 263.814 411.001 263.943C410.669 264.068 410.284 264.131 409.847 264.131H408.786V263.346ZM408.786 264.447V263.674H409.847C410.347 263.674 410.772 263.732 411.124 263.85C411.48 263.967 411.769 264.129 411.991 264.336C412.214 264.539 412.376 264.771 412.478 265.033C412.583 265.295 412.636 265.572 412.636 265.865C412.636 266.264 412.563 266.619 412.419 266.932C412.278 267.24 412.077 267.502 411.815 267.717C411.554 267.932 411.247 268.094 410.896 268.203C410.548 268.312 410.169 268.367 409.759 268.367C409.392 268.367 409.04 268.316 408.704 268.215C408.368 268.113 408.067 267.963 407.802 267.764C407.536 267.561 407.325 267.309 407.169 267.008C407.017 266.703 406.94 266.352 406.94 265.953H408.353C408.353 266.207 408.411 266.432 408.528 266.627C408.649 266.818 408.817 266.969 409.032 267.078C409.251 267.188 409.501 267.242 409.782 267.242C410.079 267.242 410.335 267.189 410.55 267.084C410.765 266.979 410.929 266.822 411.042 266.615C411.159 266.408 411.218 266.158 411.218 265.865C411.218 265.533 411.153 265.264 411.024 265.057C410.896 264.85 410.712 264.697 410.474 264.6C410.235 264.498 409.954 264.447 409.63 264.447H408.786Z" fill="#000039"/>
<path d="M412.847 311.375V312.5H407.128V311.533L409.905 308.504C410.21 308.16 410.45 307.863 410.626 307.613C410.802 307.363 410.925 307.139 410.995 306.939C411.069 306.736 411.106 306.539 411.106 306.348C411.106 306.078 411.056 305.842 410.954 305.639C410.856 305.432 410.712 305.27 410.521 305.152C410.329 305.031 410.097 304.971 409.823 304.971C409.507 304.971 409.241 305.039 409.026 305.176C408.812 305.312 408.649 305.502 408.54 305.744C408.431 305.982 408.376 306.256 408.376 306.564H406.964C406.964 306.068 407.077 305.615 407.304 305.205C407.53 304.791 407.858 304.463 408.288 304.221C408.718 303.975 409.235 303.852 409.841 303.852C410.411 303.852 410.896 303.947 411.294 304.139C411.692 304.33 411.995 304.602 412.202 304.953C412.413 305.305 412.519 305.721 412.519 306.201C412.519 306.467 412.476 306.73 412.39 306.992C412.304 307.254 412.181 307.516 412.021 307.777C411.864 308.035 411.679 308.295 411.464 308.557C411.249 308.814 411.013 309.076 410.755 309.342L408.909 311.375H412.847Z" fill="#000039"/>
<path d="M410.983 348.189V356.75H409.571V349.865L407.48 350.574V349.408L410.813 348.189H410.983Z" fill="#000039"/>
<path d="M32.7061 44.6738C32.7061 45.2051 32.583 45.6523 32.3369 46.0156C32.0908 46.3789 31.7549 46.6543 31.3291 46.8418C30.9072 47.0254 30.4307 47.1172 29.8994 47.1172C29.3682 47.1172 28.8897 47.0254 28.4639 46.8418C28.0381 46.6543 27.7022 46.3789 27.4561 46.0156C27.21 45.6523 27.0869 45.2051 27.0869 44.6738C27.0869 44.3223 27.1553 44.0039 27.292 43.7188C27.4287 43.4297 27.6221 43.1816 27.8721 42.9746C28.126 42.7637 28.4229 42.6016 28.7627 42.4883C29.1065 42.375 29.4815 42.3184 29.8877 42.3184C30.4268 42.3184 30.9092 42.418 31.335 42.6172C31.7608 42.8164 32.0947 43.0918 32.3369 43.4434C32.583 43.7949 32.7061 44.2051 32.7061 44.6738ZM31.2881 44.6035C31.2881 44.3184 31.2295 44.0684 31.1123 43.8535C30.9951 43.6387 30.8311 43.4727 30.6201 43.3555C30.4092 43.2383 30.1651 43.1797 29.8877 43.1797C29.6065 43.1797 29.3623 43.2383 29.1553 43.3555C28.9483 43.4727 28.7861 43.6387 28.669 43.8535C28.5557 44.0684 28.499 44.3184 28.499 44.6035C28.499 44.8926 28.5557 45.1426 28.669 45.3535C28.7822 45.5605 28.9444 45.7188 29.1553 45.8281C29.3662 45.9375 29.6143 45.9922 29.8994 45.9922C30.1846 45.9922 30.4307 45.9375 30.6377 45.8281C30.8447 45.7188 31.0049 45.5605 31.1182 45.3535C31.2315 45.1426 31.2881 44.8926 31.2881 44.6035ZM32.5127 40.7129C32.5127 41.1387 32.3994 41.5176 32.1729 41.8496C31.9502 42.1816 31.6416 42.4434 31.2471 42.6348C30.8526 42.8223 30.4033 42.916 29.8994 42.916C29.3916 42.916 28.9385 42.8223 28.5401 42.6348C28.1455 42.4434 27.835 42.1816 27.6084 41.8496C27.3858 41.5176 27.2744 41.1387 27.2744 40.7129C27.2744 40.2051 27.3858 39.7773 27.6084 39.4297C27.835 39.0781 28.1455 38.8105 28.5401 38.627C28.9346 38.4434 29.3858 38.3516 29.8936 38.3516C30.4014 38.3516 30.8526 38.4434 31.2471 38.627C31.6416 38.8105 31.9502 39.0781 32.1729 39.4297C32.3994 39.7773 32.5127 40.2051 32.5127 40.7129ZM31.1006 40.7598C31.1006 40.5059 31.0498 40.2832 30.9483 40.0918C30.8506 39.8965 30.7119 39.7441 30.5322 39.6348C30.3526 39.5254 30.1397 39.4707 29.8936 39.4707C29.6475 39.4707 29.4346 39.5234 29.2549 39.6289C29.0752 39.7344 28.9365 39.8828 28.8389 40.0742C28.7412 40.2656 28.6924 40.4941 28.6924 40.7598C28.6924 41.0215 28.7412 41.25 28.8389 41.4453C28.9365 41.6367 29.0752 41.7871 29.2549 41.8965C29.4385 42.0059 29.6533 42.0605 29.8994 42.0605C30.1455 42.0605 30.3584 42.0059 30.5381 41.8965C30.7178 41.7871 30.8565 41.6367 30.9541 41.4453C31.0518 41.25 31.1006 41.0215 31.1006 40.7598Z" fill="#000039"/>
<path d="M32.794 82.7188V83.4922L29.3838 91.25H27.8955L31.2998 83.8438H26.8819V82.7188H32.794Z" fill="#000039"/>
<path d="M31.3936 126.916H31.5694V128.07H31.4697C30.9658 128.07 30.5303 128.148 30.1631 128.305C29.7998 128.461 29.501 128.676 29.2666 128.949C29.0322 129.223 28.8565 129.543 28.7393 129.91C28.626 130.273 28.5694 130.66 28.5694 131.07V132.412C28.5694 132.752 28.6065 133.053 28.6807 133.314C28.7549 133.572 28.8584 133.789 28.9912 133.965C29.1279 134.137 29.2842 134.268 29.46 134.357C29.6358 134.447 29.8252 134.492 30.0283 134.492C30.2393 134.492 30.4307 134.449 30.6026 134.363C30.7744 134.273 30.9209 134.15 31.042 133.994C31.1631 133.838 31.2549 133.652 31.3174 133.438C31.3799 133.223 31.4111 132.988 31.4111 132.734C31.4111 132.492 31.3799 132.266 31.3174 132.055C31.2588 131.84 31.1709 131.652 31.0537 131.492C30.9365 131.328 30.7901 131.201 30.6143 131.111C30.4424 131.018 30.2432 130.971 30.0166 130.971C29.7354 130.971 29.4795 131.037 29.249 131.17C29.0225 131.303 28.8389 131.477 28.6983 131.691C28.5615 131.902 28.4873 132.127 28.4756 132.365L27.9365 132.189C27.9678 131.826 28.0479 131.5 28.1768 131.211C28.3096 130.922 28.4834 130.676 28.6983 130.473C28.9131 130.27 29.1611 130.115 29.4424 130.01C29.7276 129.9 30.0401 129.846 30.3799 129.846C30.794 129.846 31.1533 129.924 31.458 130.08C31.7627 130.236 32.0147 130.449 32.2139 130.719C32.417 130.984 32.5674 131.289 32.6651 131.633C32.7666 131.973 32.8174 132.328 32.8174 132.699C32.8174 133.109 32.7549 133.492 32.6299 133.848C32.5049 134.199 32.3213 134.508 32.0791 134.773C31.8408 135.039 31.5498 135.246 31.2061 135.395C30.8662 135.543 30.4795 135.617 30.0459 135.617C29.5889 135.617 29.1807 135.529 28.8213 135.354C28.4658 135.178 28.1631 134.936 27.9131 134.627C27.667 134.318 27.4795 133.963 27.3506 133.561C27.2217 133.158 27.1572 132.732 27.1572 132.283V131.697C27.1572 131.049 27.2393 130.438 27.4033 129.863C27.5674 129.285 27.8194 128.775 28.1592 128.334C28.5029 127.893 28.9424 127.547 29.4776 127.297C30.0127 127.043 30.6514 126.916 31.3936 126.916Z" fill="#000039"/>
<path d="M28.6104 175.783L27.4854 175.508L27.9483 171.219H32.5479V172.414H29.1201L28.8858 174.506C29.0186 174.428 29.2022 174.352 29.4365 174.277C29.6709 174.199 29.9385 174.16 30.2393 174.16C30.6416 174.16 31.001 174.227 31.3174 174.359C31.6377 174.488 31.9092 174.678 32.1319 174.928C32.3545 175.174 32.5244 175.475 32.6416 175.83C32.7588 176.182 32.8174 176.578 32.8174 177.02C32.8174 177.414 32.7588 177.783 32.6416 178.127C32.5283 178.471 32.3565 178.773 32.126 179.035C31.8955 179.297 31.6045 179.502 31.2529 179.65C30.9053 179.795 30.4932 179.867 30.0166 179.867C29.6611 179.867 29.3194 179.816 28.9912 179.715C28.667 179.609 28.376 179.455 28.1182 179.252C27.8604 179.045 27.6533 178.791 27.4971 178.49C27.3408 178.186 27.251 177.836 27.2276 177.441H28.6104C28.6455 177.719 28.7217 177.955 28.8389 178.15C28.96 178.342 29.1201 178.488 29.3194 178.59C29.5186 178.691 29.749 178.742 30.0108 178.742C30.249 178.742 30.4541 178.701 30.626 178.619C30.7979 178.533 30.9404 178.412 31.0537 178.256C31.1709 178.096 31.2569 177.908 31.3115 177.693C31.3701 177.479 31.3994 177.24 31.3994 176.979C31.3994 176.729 31.3662 176.5 31.2998 176.293C31.2373 176.086 31.1416 175.906 31.0127 175.754C30.8877 175.602 30.7295 175.484 30.5381 175.402C30.3467 175.316 30.126 175.273 29.876 175.273C29.5401 175.273 29.2822 175.322 29.1026 175.42C28.9268 175.518 28.7627 175.639 28.6104 175.783Z" fill="#000039"/>
<path d="M33.0049 220.959V222.084H26.8526L26.8057 221.234L30.4854 215.469H31.6162L30.3916 217.566L28.2764 220.959H33.0049ZM31.9385 215.469V224H30.5264V215.469H31.9385Z" fill="#000039"/>
<path d="M28.7861 263.346H29.6299C29.958 263.346 30.2295 263.289 30.4444 263.176C30.6631 263.062 30.8252 262.906 30.9307 262.707C31.0361 262.508 31.0889 262.279 31.0889 262.021C31.0889 261.752 31.0401 261.521 30.9424 261.33C30.8486 261.135 30.7041 260.984 30.5088 260.879C30.3174 260.773 30.0733 260.721 29.7764 260.721C29.5264 260.721 29.2998 260.771 29.0967 260.873C28.8975 260.971 28.7393 261.111 28.6221 261.295C28.5049 261.475 28.4463 261.689 28.4463 261.939H27.0283C27.0283 261.486 27.1475 261.084 27.3858 260.732C27.624 260.381 27.9483 260.105 28.3584 259.906C28.7725 259.703 29.2373 259.602 29.7529 259.602C30.3037 259.602 30.7842 259.693 31.1944 259.877C31.6084 260.057 31.9307 260.326 32.1611 260.686C32.3916 261.045 32.5069 261.49 32.5069 262.021C32.5069 262.264 32.4502 262.51 32.3369 262.76C32.2236 263.01 32.0557 263.238 31.833 263.445C31.6104 263.648 31.333 263.814 31.001 263.943C30.669 264.068 30.2842 264.131 29.8467 264.131H28.7861V263.346ZM28.7861 264.447V263.674H29.8467C30.3467 263.674 30.7725 263.732 31.124 263.85C31.4795 263.967 31.7686 264.129 31.9912 264.336C32.2139 264.539 32.376 264.771 32.4776 265.033C32.583 265.295 32.6358 265.572 32.6358 265.865C32.6358 266.264 32.5635 266.619 32.419 266.932C32.2783 267.24 32.0772 267.502 31.8154 267.717C31.5537 267.932 31.2471 268.094 30.8955 268.203C30.5479 268.312 30.169 268.367 29.7588 268.367C29.3916 268.367 29.0401 268.316 28.7041 268.215C28.3682 268.113 28.0674 267.963 27.8018 267.764C27.5361 267.561 27.3252 267.309 27.169 267.008C27.0166 266.703 26.9404 266.352 26.9404 265.953H28.3526C28.3526 266.207 28.4111 266.432 28.5283 266.627C28.6494 266.818 28.8174 266.969 29.0322 267.078C29.251 267.188 29.501 267.242 29.7822 267.242C30.0791 267.242 30.335 267.189 30.5498 267.084C30.7647 266.979 30.9287 266.822 31.042 266.615C31.1592 266.408 31.2178 266.158 31.2178 265.865C31.2178 265.533 31.1533 265.264 31.0244 265.057C30.8955 264.85 30.7119 264.697 30.4736 264.6C30.2354 264.498 29.9541 264.447 29.6299 264.447H28.7861Z" fill="#000039"/>
<path d="M32.8467 311.375V312.5H27.1279V311.533L29.9053 308.504C30.21 308.16 30.4502 307.863 30.626 307.613C30.8018 307.363 30.9248 307.139 30.9951 306.939C31.0694 306.736 31.1065 306.539 31.1065 306.348C31.1065 306.078 31.0557 305.842 30.9541 305.639C30.8565 305.432 30.7119 305.27 30.5205 305.152C30.3291 305.031 30.0967 304.971 29.8233 304.971C29.5069 304.971 29.2412 305.039 29.0264 305.176C28.8115 305.312 28.6494 305.502 28.5401 305.744C28.4307 305.982 28.376 306.256 28.376 306.564H26.9639C26.9639 306.068 27.0772 305.615 27.3037 305.205C27.5303 304.791 27.8584 304.463 28.2881 304.221C28.7178 303.975 29.2354 303.852 29.8408 303.852C30.4111 303.852 30.8955 303.947 31.294 304.139C31.6924 304.33 31.9951 304.602 32.2022 304.953C32.4131 305.305 32.5186 305.721 32.5186 306.201C32.5186 306.467 32.4756 306.73 32.3897 306.992C32.3037 307.254 32.1807 307.516 32.0205 307.777C31.8643 308.035 31.6787 308.295 31.4639 308.557C31.249 308.814 31.0127 309.076 30.7549 309.342L28.9092 311.375H32.8467Z" fill="#000039"/>
<path d="M30.9834 348.189V356.75H29.5713V349.865L27.4795 350.574V349.408L30.8135 348.189H30.9834Z" fill="#000039"/>
<path d="M67.5234 382.605L64.9746 390H63.4336L66.6445 381.469H67.6289L67.5234 382.605ZM69.6562 390L67.1016 382.605L66.9902 381.469H67.9805L71.2031 390H69.6562ZM69.5332 386.836V388.002H64.8926V386.836H69.5332Z" fill="#000039"/>
<path d="M112.213 386.145H110.039L110.027 385.072H111.926C112.246 385.072 112.518 385.025 112.74 384.932C112.967 384.834 113.139 384.695 113.256 384.516C113.373 384.332 113.432 384.111 113.432 383.854C113.432 383.568 113.377 383.336 113.268 383.156C113.158 382.977 112.99 382.846 112.764 382.764C112.541 382.682 112.256 382.641 111.908 382.641H110.484V390H109.014V381.469H111.908C112.377 381.469 112.795 381.514 113.162 381.604C113.533 381.693 113.848 381.834 114.105 382.025C114.367 382.213 114.564 382.451 114.697 382.74C114.834 383.029 114.902 383.373 114.902 383.771C114.902 384.123 114.818 384.445 114.65 384.738C114.482 385.027 114.234 385.264 113.906 385.447C113.578 385.631 113.17 385.74 112.682 385.775L112.213 386.145ZM112.148 390H109.576L110.238 388.834H112.148C112.48 388.834 112.758 388.779 112.98 388.67C113.203 388.557 113.369 388.402 113.479 388.207C113.592 388.008 113.648 387.775 113.648 387.51C113.648 387.232 113.6 386.992 113.502 386.789C113.404 386.582 113.25 386.424 113.039 386.314C112.828 386.201 112.553 386.145 112.213 386.145H110.561L110.572 385.072H112.723L113.057 385.477C113.525 385.492 113.91 385.596 114.211 385.787C114.516 385.979 114.742 386.227 114.891 386.531C115.039 386.836 115.113 387.164 115.113 387.516C115.113 388.059 114.994 388.514 114.756 388.881C114.521 389.248 114.184 389.527 113.742 389.719C113.301 389.906 112.77 390 112.148 390Z" fill="#000039"/>
<path d="M158.549 387.223H160.014C159.967 387.781 159.811 388.279 159.545 388.717C159.279 389.15 158.906 389.492 158.426 389.742C157.945 389.992 157.361 390.117 156.674 390.117C156.146 390.117 155.672 390.023 155.25 389.836C154.828 389.645 154.467 389.375 154.166 389.027C153.865 388.676 153.635 388.252 153.475 387.756C153.318 387.26 153.24 386.705 153.24 386.092V385.383C153.24 384.77 153.32 384.215 153.48 383.719C153.645 383.223 153.879 382.799 154.184 382.447C154.488 382.092 154.854 381.82 155.279 381.633C155.709 381.445 156.191 381.352 156.727 381.352C157.406 381.352 157.98 381.477 158.449 381.727C158.918 381.977 159.281 382.322 159.539 382.764C159.801 383.205 159.961 383.711 160.02 384.281H158.555C158.516 383.914 158.43 383.6 158.297 383.338C158.168 383.076 157.977 382.877 157.723 382.74C157.469 382.6 157.137 382.529 156.727 382.529C156.391 382.529 156.098 382.592 155.848 382.717C155.598 382.842 155.389 383.025 155.221 383.268C155.053 383.51 154.926 383.809 154.84 384.164C154.758 384.516 154.717 384.918 154.717 385.371V386.092C154.717 386.521 154.754 386.912 154.828 387.264C154.906 387.611 155.023 387.91 155.18 388.16C155.34 388.41 155.543 388.604 155.789 388.74C156.035 388.877 156.33 388.945 156.674 388.945C157.092 388.945 157.43 388.879 157.688 388.746C157.949 388.613 158.146 388.42 158.279 388.166C158.416 387.908 158.506 387.594 158.549 387.223Z" fill="#000039"/>
<path d="M200.613 390H198.791L198.803 388.834H200.613C201.141 388.834 201.582 388.719 201.938 388.488C202.297 388.258 202.566 387.928 202.746 387.498C202.93 387.068 203.021 386.557 203.021 385.963V385.5C203.021 385.039 202.969 384.631 202.863 384.275C202.762 383.92 202.609 383.621 202.406 383.379C202.207 383.137 201.961 382.953 201.668 382.828C201.379 382.703 201.045 382.641 200.666 382.641H198.756V381.469H200.666C201.232 381.469 201.75 381.564 202.219 381.756C202.688 381.943 203.092 382.215 203.432 382.57C203.775 382.926 204.039 383.352 204.223 383.848C204.406 384.344 204.498 384.898 204.498 385.512V385.963C204.498 386.576 204.406 387.131 204.223 387.627C204.039 388.123 203.775 388.549 203.432 388.904C203.088 389.256 202.678 389.527 202.201 389.719C201.729 389.906 201.199 390 200.613 390ZM199.605 381.469V390H198.135V381.469H199.605Z" fill="#000039"/>
<path d="M248.871 388.834V390H244.342V388.834H248.871ZM244.758 381.469V390H243.287V381.469H244.758ZM248.279 385.031V386.18H244.342V385.031H248.279ZM248.842 381.469V382.641H244.342V381.469H248.842Z" fill="#000039"/>
<path d="M289.471 381.469V390H288V381.469H289.471ZM292.951 385.201V386.367H289.096V385.201H292.951ZM293.438 381.469V382.641H289.096V381.469H293.438Z" fill="#000039"/>
<path d="M338.391 385.641V388.898C338.27 389.059 338.08 389.234 337.822 389.426C337.568 389.613 337.23 389.775 336.809 389.912C336.387 390.049 335.861 390.117 335.232 390.117C334.697 390.117 334.207 390.027 333.762 389.848C333.316 389.664 332.932 389.396 332.607 389.045C332.287 388.693 332.039 388.266 331.863 387.762C331.688 387.254 331.6 386.676 331.6 386.027V385.436C331.6 384.791 331.68 384.217 331.84 383.713C332.004 383.205 332.238 382.775 332.543 382.424C332.848 382.072 333.215 381.807 333.645 381.627C334.078 381.443 334.568 381.352 335.115 381.352C335.814 381.352 336.393 381.469 336.85 381.703C337.311 381.934 337.666 382.254 337.916 382.664C338.166 383.074 338.324 383.543 338.391 384.07H336.949C336.902 383.773 336.811 383.508 336.674 383.273C336.541 383.039 336.35 382.855 336.1 382.723C335.854 382.586 335.533 382.518 335.139 382.518C334.799 382.518 334.5 382.582 334.242 382.711C333.984 382.84 333.77 383.029 333.598 383.279C333.43 383.529 333.303 383.834 333.217 384.193C333.131 384.553 333.088 384.963 333.088 385.424V386.027C333.088 386.496 333.137 386.912 333.234 387.275C333.336 387.639 333.48 387.945 333.668 388.195C333.859 388.445 334.092 388.635 334.365 388.764C334.639 388.889 334.947 388.951 335.291 388.951C335.627 388.951 335.902 388.924 336.117 388.869C336.332 388.811 336.502 388.742 336.627 388.664C336.756 388.582 336.855 388.504 336.926 388.43V386.736H335.15V385.641H338.391Z" fill="#000039"/>
<path d="M381.932 385.031V386.197H377.402V385.031H381.932ZM377.766 381.469V390H376.295V381.469H377.766ZM383.062 381.469V390H381.598V381.469H383.062Z" fill="#000039"/>
<path d="M236.188 115.305C236.529 115.305 236.849 115.394 237.125 115.551C237.401 115.394 237.721 115.305 238.062 115.305H243.219C243.56 115.305 243.88 115.394 244.156 115.551C244.432 115.394 244.752 115.305 245.094 115.305H249.781C250.817 115.305 251.656 116.13 251.656 117.148V121.297C251.656 121.877 251.378 122.424 250.906 122.772L248.013 124.906L248.832 132.156C249.049 134.075 249.958 135.049 251.281 136.784C251.525 137.104 251.656 137.492 251.656 137.891V141.578C251.656 142.596 250.817 143.422 249.781 143.422H231.5C230.464 143.422 229.625 142.596 229.625 141.578V137.891C229.625 137.492 229.757 137.104 230 136.784C231.324 135.049 232.232 134.075 232.449 132.156L233.268 124.906L230.375 122.772C229.903 122.424 229.625 121.877 229.625 121.297V117.148C229.625 116.13 230.464 115.305 231.5 115.305H236.188Z" fill="#34364C"/>
<path d="M231.5 117.148H236.188V119.914H238.062V117.148H243.219V119.914H245.094V117.148H249.781V121.297L246.031 124.062L246.969 132.359H234.313L235.25 124.062L231.5 121.297V117.148Z" fill="#E8E8E8"/>
<path d="M234.312 134.203H246.969L249.781 137.891V141.578H231.5V137.891L234.312 134.203Z" fill="#E8E8E8"/>
<path d="M281.335 164.782C281.146 164.273 281.043 163.724 281.043 163.152C281.043 160.518 283.215 158.383 285.893 158.383C288.571 158.383 290.743 160.518 290.743 163.152C290.743 163.923 290.555 164.655 290.223 165.301C290.701 165.334 291.166 165.546 291.505 165.927C293.346 167.996 294.957 170.946 294.957 174.365C294.957 176.81 294.101 178.621 292.945 179.926L295.141 180.305C296.038 180.46 296.692 181.226 296.692 182.121V185.578C296.692 186.067 296.495 186.536 296.143 186.882C295.792 187.228 295.315 187.422 294.817 187.422L276.969 187.422C275.933 187.422 275.094 186.596 275.094 185.578V182.121C275.094 181.227 275.747 180.461 276.642 180.306L278.624 179.961C277.451 178.653 276.581 176.832 276.581 174.365C276.581 171.697 277.632 169.374 278.866 167.593C279.641 166.474 280.518 165.524 281.335 164.782Z" fill="#34364C"/>
<path d="M286.812 174.121H284.938C284.938 170.736 285.982 167.356 288.292 164.882C288.654 164.397 288.868 163.799 288.868 163.152C288.868 161.536 287.536 160.227 285.893 160.227C284.25 160.227 282.918 161.536 282.918 163.152C282.918 163.949 283.242 164.671 283.768 165.199C281.91 166.502 278.456 169.993 278.456 174.365C278.456 178.777 281.974 180.563 283.819 180.929L276.969 182.121V185.578L294.817 185.578V182.121L287.805 180.912C289.671 180.508 293.082 178.709 293.082 174.365C293.082 171.52 291.734 168.984 290.094 167.141C288.292 168.523 286.812 171.75 286.812 174.121Z" fill="#E8E8E8"/>
<path d="M366.438 29.6094C366.438 30.0645 366.512 30.5024 366.65 30.9119L365.724 31.3388C364.957 30.5568 363.88 30.0703 362.688 30.0703C360.358 30.0703 358.469 31.9276 358.469 34.2188C358.469 36.2611 359.97 37.9587 361.946 38.3033L364.169 45.7975C364.215 45.9539 364.282 46.1036 364.369 46.2427L365.65 48.3042L365.642 48.3055C364.746 48.4613 364.094 49.2267 364.094 50.1211V53.5781C364.094 54.5964 364.933 55.4219 365.969 55.4219L383.817 55.4219C384.315 55.4219 384.792 55.2276 385.143 54.8819C385.495 54.5361 385.692 54.0671 385.692 53.5781V50.1211C385.692 49.2257 385.038 48.4597 384.141 48.3051L384.103 48.2986L385.381 46.2427C385.468 46.1036 385.535 45.9539 385.581 45.7975L387.804 38.3033C389.78 37.9587 391.281 36.2611 391.281 34.2188C391.281 31.9276 389.392 30.0703 387.062 30.0703C385.869 30.0703 384.791 30.558 384.023 31.3418L383.099 30.9156C383.238 30.505 383.312 30.0659 383.312 29.6094C383.312 27.3183 381.424 25.4609 379.094 25.4609C376.764 25.4609 374.875 27.3183 374.875 29.6094C374.875 27.3183 372.986 25.4609 370.656 25.4609C368.326 25.4609 366.438 27.3183 366.438 29.6094Z" fill="#34364C"/>
<path d="M371.498 31.7611C372.376 31.4287 373 30.5906 373 29.6094C373 28.3365 371.951 27.3047 370.656 27.3047C369.362 27.3047 368.312 28.3365 368.312 29.6094C368.312 30.7856 369.209 31.7561 370.366 31.8966L369.321 40.2109L364.282 35.9077C364.743 35.4868 365.031 34.8859 365.031 34.2188C365.031 32.9459 363.982 31.9141 362.688 31.9141C361.393 31.9141 360.344 32.9459 360.344 34.2188C360.344 35.4916 361.393 36.5234 362.688 36.5234C362.915 36.5234 363.136 36.4915 363.344 36.4318L365.969 45.2813L368.683 49.6489L365.969 50.1211V53.5781L383.817 53.5781V50.1211L381.068 49.647L383.781 45.2813L386.406 36.4318C386.614 36.4915 386.835 36.5234 387.062 36.5234C388.357 36.5234 389.406 35.4916 389.406 34.2188C389.406 32.9459 388.357 31.9141 387.062 31.9141C385.768 31.9141 384.719 32.9459 384.719 34.2188C384.719 34.8859 385.007 35.4868 385.468 35.9077L380.429 40.2109L379.384 31.8966C380.541 31.7561 381.438 30.7856 381.438 29.6094C381.438 28.3365 380.388 27.3047 379.094 27.3047C377.799 27.3047 376.75 28.3365 376.75 29.6094C376.75 30.5906 377.374 31.4287 378.252 31.7611L374.875 39.2891L371.498 31.7611Z" fill="#E8E8E8"/>
<path d="M277.438 74.6094C277.438 75.0645 277.512 75.5024 277.65 75.9119L276.724 76.3388C275.957 75.5568 274.88 75.0703 273.688 75.0703C271.358 75.0703 269.469 76.9276 269.469 79.2188C269.469 81.2611 270.97 82.9587 272.946 83.3033L275.169 90.7975C275.215 90.9539 275.282 91.1036 275.369 91.2427L276.65 93.3042L276.642 93.3055C275.746 93.4613 275.094 94.2267 275.094 95.1211V98.5781C275.094 99.5964 275.933 100.422 276.969 100.422L294.817 100.422C295.315 100.422 295.792 100.228 296.143 99.8819C296.495 99.5361 296.692 99.0671 296.692 98.5781V95.1211C296.692 94.2257 296.038 93.4597 295.141 93.3051L295.103 93.2986L296.381 91.2427C296.468 91.1036 296.535 90.9539 296.581 90.7975L298.804 83.3033C300.78 82.9587 302.281 81.2611 302.281 79.2188C302.281 76.9276 300.392 75.0703 298.062 75.0703C296.869 75.0703 295.791 75.558 295.023 76.3418L294.099 75.9156C294.238 75.505 294.312 75.0659 294.312 74.6094C294.312 72.3183 292.424 70.4609 290.094 70.4609C287.764 70.4609 285.875 72.3183 285.875 74.6094C285.875 72.3183 283.986 70.4609 281.656 70.4609C279.326 70.4609 277.438 72.3183 277.438 74.6094Z" fill="#E8E8E8"/>
<path d="M282.498 76.7611C283.376 76.4287 284 75.5906 284 74.6094C284 73.3365 282.951 72.3047 281.656 72.3047C280.362 72.3047 279.312 73.3365 279.312 74.6094C279.312 75.7856 280.209 76.7561 281.366 76.8966L280.321 85.2109L275.282 80.9077C275.743 80.4868 276.031 79.8859 276.031 79.2188C276.031 77.9459 274.982 76.9141 273.688 76.9141C272.393 76.9141 271.344 77.9459 271.344 79.2188C271.344 80.4916 272.393 81.5234 273.688 81.5234C273.915 81.5234 274.136 81.4915 274.344 81.4318L276.969 90.2813L279.683 94.6489L276.969 95.1211V98.5781L294.817 98.5781V95.1211L292.068 94.647L294.781 90.2813L297.406 81.4318C297.614 81.4915 297.835 81.5234 298.062 81.5234C299.357 81.5234 300.406 80.4916 300.406 79.2188C300.406 77.9459 299.357 76.9141 298.062 76.9141C296.768 76.9141 295.719 77.9459 295.719 79.2188C295.719 79.8859 296.007 80.4868 296.468 80.9077L291.429 85.2109L290.384 76.8966C291.541 76.7561 292.438 75.7856 292.438 74.6094C292.438 73.3365 291.388 72.3047 290.094 72.3047C288.799 72.3047 287.75 73.3365 287.75 74.6094C287.75 75.5906 288.374 76.4287 289.252 76.7611L285.875 84.2891L282.498 76.7611Z" fill="#34364C"/>
</svg>
