<svg width="306" height="306" viewBox="0 0 306 306" fill="none" xmlns="http://www.w3.org/2000/svg">
<circle cx="153" cy="153" r="153" fill="white"/>
<path d="M229.169 133.707C202.431 152.198 168.946 178.686 159.95 201.176C172.195 189.182 216.508 157.529 240.414 145.951L229.169 133.707Z" fill="#000039"/>
<path d="M169.196 197.428C176.992 185.433 217.924 163.943 245.911 153.947L252.658 168.191C208.878 175.588 178.775 190.431 169.196 197.428Z" fill="#000039"/>
<path d="M256.406 177.187C219.223 176.587 191.519 189.681 180.941 196.428C194.684 190.931 237.165 184.933 258.905 186.683L256.406 177.187Z" fill="#000039"/>
<path d="M259.905 199.427V192.93H230.168C210.427 192.93 193.102 197.928 186.188 200.426L259.905 199.427Z" fill="#000039"/>
<path d="M80.7361 133.707C107.474 152.198 140.959 178.686 149.955 201.176C137.71 189.182 93.397 157.529 69.4911 145.951L80.7361 133.707Z" fill="#000039"/>
<path d="M140.709 197.428C132.912 185.433 91.981 163.943 63.9937 153.947L57.2467 168.191C101.027 175.588 131.13 190.431 140.709 197.428Z" fill="#000039"/>
<path d="M53.4984 177.187C90.6816 176.587 118.386 189.681 128.964 196.428C115.22 190.931 72.7397 184.933 50.9995 186.683L53.4984 177.187Z" fill="#000039"/>
<path d="M50 199.427V192.93H79.7365C99.4776 192.93 116.803 197.928 123.717 200.426L50 199.427Z" fill="#000039"/>
<path d="M142.458 204.924H51.9991C48.6006 207.523 50.5831 210.339 51.9991 211.421H138.71C145.457 224.665 163.449 226.415 171.195 211.421H258.406C260.655 209.672 260.405 206.424 258.406 204.924H167.197C160.7 222.167 146.956 217.169 142.458 204.924Z" fill="#000039"/>
<path d="M165.032 159.945L128.299 161.944L171.03 162.943V161.444C168.031 159.645 166.449 153.864 166.032 151.199C164.833 152.398 164.866 157.529 165.032 159.945Z" fill="#000039"/>
<path d="M167.531 146.951H144.042L143.042 148.45L167.531 149.45V146.951Z" fill="#000039"/>
<path d="M172.279 167.941H136.795L162.784 170.44C171.779 171.19 172.279 173.605 171.28 175.438L177.027 170.44L172.279 167.941Z" fill="#000039"/>
<path d="M204.015 133.707C204.015 136.467 201.777 138.704 199.017 138.704C196.257 138.704 194.019 136.467 194.019 133.707C194.019 130.946 196.257 128.709 199.017 128.709C201.777 128.709 204.015 130.946 204.015 133.707Z" fill="#000039"/>
<path d="M174.528 133.207H121.552C117.754 136.206 119.969 139.287 121.552 140.454H174.528C178.926 137.655 176.361 134.456 174.528 133.207Z" fill="#000039"/>
<path d="M176.777 127.21H155.787C129.549 124.211 111.307 72.4844 144.042 52.2435C142.443 44.647 149.373 39.5826 153.288 38V52.2435C157.619 54.2426 166.482 58.6906 167.281 60.4898C168.614 63.4885 179.026 72.4844 186.023 80.4808L185.023 92.2254C172.779 99.2223 169.53 90.976 168.031 88.9769C166.111 86.4168 166.032 85.6593 158.286 86.9778C148.89 88.5771 143.292 75.9828 143.292 70.2354C134.546 85.9783 156.536 98.4726 168.031 106.219C175.278 112.216 176.86 122.295 176.777 127.21Z" fill="#000039"/>
<path d="M121.552 118.214H130.298C130.898 120.413 134.047 124.627 135.546 126.46H128.299C126.7 125.86 123.135 120.713 121.552 118.214Z" fill="#000039"/>
<path d="M121.552 97.9728L113.056 95.474C111.857 93.4749 111.89 87.8108 112.056 85.2286L121.052 89.4767C120.253 92.0755 121.052 96.2236 121.552 97.9728Z" fill="#000039"/>
<path d="M112.806 78.2318C112.007 76.0328 113.639 70.9851 114.555 68.7361L122.302 75.2331C120.903 77.6321 121.052 81.7302 121.302 83.4794L112.806 78.2318Z" fill="#000039"/>
<path d="M123.052 54.2427L117.304 62.7388L124.551 68.7361C124.951 66.3372 127.216 62.9054 128.299 61.4894L123.052 54.2427Z" fill="#000039"/>
<path d="M138.045 43.7474C136.445 43.7474 130.881 47.4124 128.299 49.2449L132.797 57.2413C133.597 54.2427 136.629 51.9937 138.045 51.244V43.7474Z" fill="#000039"/>
<path d="M126.8 112.216H117.554C115.755 110.617 114.472 104.886 114.056 102.221L123.801 103.97C124.001 107.169 125.884 110.8 126.8 112.216Z" fill="#000039"/>
<path d="M228.935 230.993C230.2 231.04 231.219 231.063 231.992 231.063C232.285 231.063 232.756 231.051 233.406 231.028C234.056 231.004 234.557 230.993 234.908 230.993C236.209 230.993 237.231 231.321 237.974 231.977C238.724 232.633 239.099 233.485 239.099 234.533C239.099 235.376 238.85 236.132 238.352 236.8C237.854 237.461 237.175 237.936 236.314 238.223C236.706 238.926 237.245 239.722 237.931 240.612C238.592 241.497 239.222 242.191 239.819 242.694C240.423 243.198 241.07 243.482 241.761 243.547C241.784 243.64 241.796 243.713 241.796 243.766C241.796 243.825 241.784 243.889 241.761 243.959C241.409 243.942 241.035 243.93 240.636 243.924C240.238 243.918 239.793 243.916 239.301 243.916C238.815 243.916 238.44 243.913 238.176 243.907C236.601 242.074 235.336 240.27 234.381 238.495C233.954 238.495 233.462 238.428 232.905 238.293C232.905 239.429 232.938 240.899 233.002 242.703C233.008 242.855 233.075 242.987 233.204 243.099C233.333 243.204 233.517 243.286 233.758 243.345C234.004 243.403 234.209 243.447 234.373 243.476C234.542 243.5 234.762 243.523 235.031 243.547C235.055 243.664 235.067 243.743 235.067 243.784C235.067 243.831 235.055 243.889 235.031 243.959C234.036 243.924 233.017 243.907 231.974 243.907C230.92 243.907 229.901 243.924 228.917 243.959C228.894 243.889 228.882 243.831 228.882 243.784C228.882 243.684 228.894 243.605 228.917 243.547C229.093 243.529 229.233 243.514 229.339 243.503C229.444 243.491 229.588 243.47 229.769 243.441C229.957 243.412 230.106 243.38 230.217 243.345C230.334 243.304 230.454 243.254 230.577 243.195C230.7 243.137 230.791 243.066 230.85 242.984C230.914 242.902 230.946 242.809 230.946 242.703C231.017 240.87 231.052 239.022 231.052 237.16C231.052 235.262 231.022 233.625 230.964 232.249C230.958 232.097 230.891 231.968 230.762 231.862C230.633 231.751 230.446 231.666 230.2 231.608C229.96 231.549 229.755 231.508 229.585 231.485C229.421 231.455 229.204 231.429 228.935 231.406C228.911 231.3 228.899 231.227 228.899 231.186C228.899 231.151 228.911 231.086 228.935 230.993ZM233.02 231.599H233.002C232.938 233.76 232.905 235.769 232.905 237.625C233.315 237.76 233.731 237.827 234.153 237.827C234.539 237.827 234.885 237.763 235.19 237.634C235.5 237.499 235.755 237.324 235.954 237.107C236.153 236.89 236.317 236.636 236.446 236.343C236.581 236.05 236.674 235.754 236.727 235.455C236.786 235.157 236.815 234.849 236.815 234.533C236.815 233.66 236.575 232.949 236.094 232.398C235.62 231.842 234.944 231.564 234.065 231.564C233.632 231.564 233.283 231.575 233.02 231.599Z" fill="#000039"/>
<path d="M214.808 230.993C216.12 231.04 217.145 231.063 217.883 231.063C222.908 231.034 225.69 231.01 226.229 230.993C226.305 231.578 226.454 232.135 226.677 232.662C226.899 233.183 227.183 233.739 227.529 234.331C227.482 234.431 227.38 234.51 227.221 234.568C227.011 234.17 226.756 233.816 226.457 233.505C226.158 233.195 225.781 232.902 225.324 232.627C224.873 232.351 224.308 232.126 223.628 231.95C222.955 231.775 222.185 231.657 221.318 231.599H218.893C218.817 234.076 218.779 235.942 218.779 237.195H221.283C221.453 237.195 221.611 237.183 221.757 237.16C221.909 237.131 222.05 237.084 222.179 237.019C222.308 236.949 222.422 236.885 222.521 236.826C222.627 236.762 222.732 236.668 222.838 236.545C222.943 236.416 223.031 236.311 223.101 236.229C223.172 236.141 223.256 236.009 223.356 235.833C223.456 235.658 223.532 235.52 223.584 235.42C223.637 235.321 223.716 235.166 223.822 234.955C223.933 234.744 224.018 234.586 224.076 234.48C224.258 234.551 224.369 234.627 224.41 234.709C224.164 235.142 223.956 235.622 223.786 236.15C223.617 236.677 223.532 237.116 223.532 237.467C223.532 238.299 223.825 239.216 224.41 240.217C224.363 240.311 224.252 240.39 224.076 240.454C224.012 240.337 223.921 240.17 223.804 239.953C223.693 239.731 223.605 239.561 223.541 239.444C223.476 239.327 223.388 239.177 223.277 238.996C223.166 238.814 223.066 238.674 222.978 238.574C222.896 238.475 222.788 238.363 222.653 238.24C222.524 238.117 222.396 238.027 222.267 237.968C222.138 237.904 221.988 237.851 221.819 237.81C221.655 237.763 221.476 237.74 221.283 237.74H218.779C218.779 238.671 218.811 240.548 218.876 243.371H221.678C222.545 243.312 223.315 243.195 223.989 243.019C224.668 242.844 225.233 242.618 225.684 242.343C226.141 242.068 226.519 241.775 226.817 241.464C227.116 241.154 227.371 240.8 227.582 240.401C227.74 240.46 227.842 240.536 227.889 240.63C227.86 240.688 227.784 240.829 227.661 241.052C227.538 241.274 227.456 241.426 227.415 241.508C227.374 241.585 227.303 241.722 227.204 241.921C227.11 242.115 227.04 242.273 226.993 242.396C226.946 242.513 226.891 242.662 226.826 242.844C226.768 243.025 226.718 243.204 226.677 243.38C226.642 243.549 226.612 243.725 226.589 243.907H218.876C217.288 243.907 215.927 243.924 214.791 243.959C214.767 243.889 214.755 243.831 214.755 243.784C214.755 243.743 214.767 243.664 214.791 243.547C215.06 243.523 215.277 243.5 215.441 243.476C215.611 243.447 215.815 243.403 216.056 243.345C216.302 243.286 216.489 243.204 216.618 243.099C216.747 242.987 216.814 242.855 216.82 242.703C216.89 240.87 216.925 239.022 216.925 237.16C216.925 235.262 216.896 233.625 216.837 232.249C216.832 232.097 216.764 231.968 216.635 231.862C216.507 231.751 216.319 231.666 216.073 231.608C215.833 231.549 215.628 231.508 215.458 231.485C215.294 231.455 215.078 231.429 214.808 231.406C214.785 231.3 214.773 231.227 214.773 231.186C214.773 231.151 214.785 231.086 214.808 230.993Z" fill="#000039"/>
<path d="M211.83 234.981C211.643 234.565 211.458 234.202 211.277 233.892C211.095 233.575 210.858 233.248 210.565 232.908C210.272 232.568 209.959 232.29 209.625 232.073C209.291 231.857 208.881 231.678 208.395 231.537C207.909 231.397 207.373 231.326 206.787 231.326C206.155 231.326 205.581 231.455 205.065 231.713C204.55 231.971 204.125 232.308 203.792 232.723C203.464 233.139 203.185 233.622 202.957 234.173C202.735 234.718 202.576 235.268 202.483 235.824C202.389 236.375 202.342 236.934 202.342 237.502C202.342 238.065 202.392 238.624 202.491 239.18C202.591 239.731 202.755 240.278 202.983 240.823C203.218 241.368 203.505 241.845 203.844 242.255C204.184 242.665 204.612 242.999 205.127 243.257C205.648 243.508 206.225 243.634 206.858 243.634C208.146 243.634 209.042 243.347 209.546 242.773V239.207C209.546 239.084 209.496 238.975 209.397 238.882C209.297 238.782 209.183 238.706 209.054 238.653C208.925 238.601 208.752 238.554 208.536 238.513C208.325 238.466 208.152 238.434 208.017 238.416C207.883 238.398 207.713 238.381 207.508 238.363C207.484 238.27 207.473 238.199 207.473 238.153C207.473 238.112 207.484 238.044 207.508 237.95C208.831 237.997 209.85 238.021 210.565 238.021C211.291 238.021 212.31 237.997 213.622 237.95C213.651 238.068 213.666 238.135 213.666 238.153C213.666 238.176 213.651 238.246 213.622 238.363C213.417 238.381 213.247 238.398 213.113 238.416C212.978 238.434 212.802 238.466 212.586 238.513C212.375 238.554 212.205 238.601 212.076 238.653C211.953 238.706 211.842 238.782 211.742 238.882C211.643 238.975 211.593 239.084 211.593 239.207V240.507C211.593 241.62 211.725 242.53 211.988 243.239C211.022 243.596 210.164 243.857 209.414 244.021C208.664 244.185 207.812 244.267 206.858 244.267C206.29 244.267 205.719 244.208 205.145 244.091C204.571 243.974 203.967 243.754 203.335 243.432C202.708 243.11 202.155 242.706 201.674 242.22C201.2 241.734 200.805 241.084 200.488 240.27C200.178 239.456 200.023 238.533 200.023 237.502C200.023 236.759 200.102 236.07 200.26 235.438C200.424 234.8 200.641 234.252 200.91 233.795C201.18 233.338 201.499 232.928 201.868 232.565C202.243 232.202 202.632 231.906 203.036 231.678C203.44 231.449 203.865 231.262 204.31 231.116C204.761 230.963 205.188 230.858 205.593 230.799C205.997 230.735 206.395 230.703 206.787 230.703C207.443 230.703 208.067 230.744 208.659 230.826C209.256 230.902 209.85 230.999 210.442 231.116C211.033 231.227 211.502 231.303 211.848 231.344C211.76 231.608 211.716 231.98 211.716 232.46C211.716 233.256 211.859 234.032 212.146 234.788C212.111 234.893 212.006 234.958 211.83 234.981Z" fill="#000039"/>
<path d="M191.501 230.861C191.589 230.796 191.683 230.755 191.782 230.738L196.588 242.738C196.646 242.885 196.743 243.011 196.878 243.116C197.013 243.216 197.179 243.295 197.379 243.353C197.584 243.406 197.759 243.447 197.906 243.476C198.058 243.5 198.242 243.523 198.459 243.547C198.483 243.64 198.494 243.719 198.494 243.784C198.494 243.854 198.483 243.918 198.459 243.977C197.194 243.93 196.248 243.907 195.622 243.907C194.942 243.907 193.958 243.93 192.67 243.977C192.646 243.907 192.635 243.836 192.635 243.766C192.635 243.69 192.646 243.617 192.67 243.547C193.853 243.418 194.444 243.195 194.444 242.879C194.444 242.779 194.433 242.677 194.409 242.571L193.135 239.303C192.749 239.292 192.228 239.286 191.572 239.286C191.261 239.286 190.456 239.298 189.156 239.321L187.812 242.738V242.844C187.812 242.902 187.82 242.958 187.838 243.011C187.861 243.063 187.897 243.11 187.943 243.151C187.996 243.192 188.046 243.227 188.093 243.257C188.14 243.286 188.204 243.315 188.286 243.345C188.374 243.368 188.447 243.388 188.506 243.406C188.57 243.418 188.655 243.432 188.76 243.45C188.872 243.468 188.957 243.482 189.015 243.494C189.074 243.5 189.159 243.508 189.27 243.52C189.387 243.532 189.469 243.541 189.516 243.547C189.539 243.64 189.551 243.719 189.551 243.784C189.551 243.819 189.539 243.883 189.516 243.977C188.204 243.93 187.466 243.907 187.302 243.907C186.986 243.907 186.172 243.93 184.86 243.977C184.836 243.907 184.825 243.836 184.825 243.766C184.825 243.69 184.836 243.617 184.86 243.547C186.078 243.406 186.772 243.107 186.942 242.65L190.719 233.127L190.526 232.609C190.86 232.387 191.091 232.146 191.22 231.889C191.355 231.631 191.449 231.288 191.501 230.861ZM191.572 238.601C192.11 238.601 192.535 238.595 192.845 238.583L191.176 234.261H191.141L189.463 238.565C190.014 238.589 190.717 238.601 191.572 238.601Z" fill="#000039"/>
<path d="M170.268 230.993C171.228 231.04 172.441 231.063 173.905 231.063C178.046 236.252 180.271 239.016 180.581 239.356C180.892 239.69 181.047 239.857 181.047 239.857H181.117C181.141 238.732 181.153 237.827 181.153 237.142C181.153 235.789 181.123 234.199 181.065 232.372C181.053 231.845 180.403 231.523 179.114 231.406C179.091 231.277 179.079 231.198 179.079 231.168C179.079 231.122 179.091 231.063 179.114 230.993C180.057 231.028 180.892 231.045 181.618 231.045C182.087 231.045 182.871 231.028 183.973 230.993C183.996 231.063 184.008 231.122 184.008 231.168C184.008 231.262 183.996 231.341 183.973 231.406C182.69 231.523 182.043 231.845 182.031 232.372C181.961 234.205 181.926 236.012 181.926 237.792C181.926 240.516 181.955 242.566 182.013 243.942L181.855 243.959L173.123 233.215H173.035C173 234.732 172.982 236.264 172.982 237.81C172.982 239.169 173.012 240.756 173.07 242.571C173.082 243.104 173.729 243.429 175.012 243.547C175.041 243.646 175.056 243.725 175.056 243.784C175.056 243.842 175.041 243.901 175.012 243.959C174.081 243.924 173.249 243.907 172.517 243.907C172.048 243.907 171.263 243.924 170.162 243.959C170.133 243.901 170.118 243.842 170.118 243.784C170.118 243.684 170.133 243.605 170.162 243.547C171.457 243.424 172.104 243.099 172.104 242.571C172.174 240.744 172.209 238.94 172.209 237.16C172.209 235.227 172.186 233.549 172.139 232.126C171.647 231.698 171.023 231.458 170.268 231.406C170.233 231.329 170.215 231.262 170.215 231.204C170.215 231.116 170.233 231.045 170.268 230.993Z" fill="#000039"/>
<path d="M162.229 230.861C162.317 230.796 162.411 230.755 162.511 230.738L167.316 242.738C167.375 242.885 167.471 243.011 167.606 243.116C167.741 243.216 167.908 243.295 168.107 243.353C168.312 243.406 168.487 243.447 168.634 243.476C168.786 243.5 168.971 243.523 169.187 243.547C169.211 243.64 169.222 243.719 169.222 243.784C169.222 243.854 169.211 243.918 169.187 243.977C167.922 243.93 166.976 243.907 166.35 243.907C165.67 243.907 164.686 243.93 163.398 243.977C163.374 243.907 163.363 243.836 163.363 243.766C163.363 243.69 163.374 243.617 163.398 243.547C164.581 243.418 165.172 243.195 165.172 242.879C165.172 242.779 165.161 242.677 165.137 242.571L163.863 239.303C163.477 239.292 162.956 239.286 162.3 239.286C161.989 239.286 161.184 239.298 159.884 239.321L158.54 242.738V242.844C158.54 242.902 158.548 242.958 158.566 243.011C158.589 243.063 158.625 243.11 158.671 243.151C158.724 243.192 158.774 243.227 158.821 243.257C158.868 243.286 158.932 243.315 159.014 243.345C159.102 243.368 159.175 243.388 159.234 243.406C159.298 243.418 159.383 243.432 159.488 243.45C159.6 243.468 159.685 243.482 159.743 243.494C159.802 243.5 159.887 243.508 159.998 243.52C160.115 243.532 160.197 243.541 160.244 243.547C160.267 243.64 160.279 243.719 160.279 243.784C160.279 243.819 160.267 243.883 160.244 243.977C158.932 243.93 158.194 243.907 158.03 243.907C157.714 243.907 156.9 243.93 155.588 243.977C155.564 243.907 155.553 243.836 155.553 243.766C155.553 243.69 155.564 243.617 155.588 243.547C156.806 243.406 157.5 243.107 157.67 242.65L161.448 233.127L161.254 232.609C161.588 232.387 161.819 232.146 161.948 231.889C162.083 231.631 162.177 231.288 162.229 230.861ZM162.3 238.601C162.839 238.601 163.263 238.595 163.574 238.583L161.904 234.261H161.869L160.191 238.565C160.742 238.589 161.445 238.601 162.3 238.601Z" fill="#000039"/>
<path d="M139.362 230.993C140.463 231.04 141.848 231.063 143.517 231.063L146.917 240.27H146.961L150.501 231.063H151.512C152.238 231.063 153.263 231.04 154.586 230.993C154.61 231.086 154.622 231.151 154.622 231.186C154.622 231.227 154.61 231.3 154.586 231.406C154.376 231.423 154.206 231.441 154.077 231.458C153.948 231.476 153.775 231.505 153.559 231.546C153.348 231.587 153.178 231.637 153.049 231.695C152.92 231.748 152.806 231.824 152.706 231.924C152.607 232.018 152.554 232.126 152.548 232.249C152.49 233.625 152.46 235.262 152.46 237.16C152.46 239.087 152.498 240.934 152.575 242.703C152.58 242.855 152.648 242.987 152.777 243.099C152.906 243.204 153.09 243.286 153.33 243.345C153.576 243.403 153.781 243.447 153.945 243.476C154.115 243.5 154.335 243.523 154.604 243.547C154.627 243.64 154.639 243.719 154.639 243.784C154.639 243.831 154.627 243.889 154.604 243.959C153.614 243.924 152.595 243.907 151.547 243.907C150.493 243.907 149.473 243.924 148.49 243.959C148.466 243.889 148.454 243.831 148.454 243.784C148.454 243.684 148.466 243.605 148.49 243.547C148.759 243.523 148.976 243.5 149.14 243.476C149.309 243.447 149.514 243.403 149.755 243.345C150.001 243.286 150.188 243.204 150.317 243.099C150.446 242.987 150.513 242.855 150.519 242.703C150.577 240.876 150.607 239.245 150.607 237.81C150.607 236.434 150.577 234.867 150.519 233.11H150.449L146.434 243.687H146.346L142.068 232.899H141.971C141.924 234.322 141.901 235.959 141.901 237.81C141.901 239.169 141.93 240.756 141.989 242.571C142 243.104 142.647 243.429 143.93 243.547C143.959 243.646 143.974 243.725 143.974 243.784C143.974 243.842 143.959 243.901 143.93 243.959C142.999 243.924 142.167 243.907 141.435 243.907C140.967 243.907 140.182 243.924 139.081 243.959C139.051 243.901 139.037 243.842 139.037 243.784C139.037 243.684 139.051 243.605 139.081 243.547C140.375 243.424 141.022 243.099 141.022 242.571C141.093 240.744 141.128 238.94 141.128 237.16C141.128 235.877 141.11 234.515 141.075 233.075C141.069 232.829 141.054 232.624 141.031 232.46C141.008 232.29 140.964 232.144 140.899 232.021C140.835 231.898 140.767 231.801 140.697 231.731C140.627 231.66 140.519 231.599 140.372 231.546C140.226 231.488 140.082 231.447 139.942 231.423C139.807 231.394 139.614 231.362 139.362 231.327C139.338 231.28 139.327 231.227 139.327 231.168C139.327 231.098 139.338 231.04 139.362 230.993Z" fill="#000039"/>
<path d="M131.684 234.709C131.461 233.637 131.051 232.805 130.454 232.214C129.862 231.622 129.151 231.326 128.319 231.326C127.505 231.326 126.872 231.52 126.421 231.906C125.976 232.293 125.754 232.808 125.754 233.452C125.754 233.81 125.786 234.106 125.85 234.34C125.915 234.574 126.047 234.802 126.246 235.025C126.445 235.242 126.735 235.435 127.115 235.605C127.496 235.769 127.994 235.927 128.609 236.079C128.943 236.161 129.233 236.237 129.479 236.308C129.731 236.378 130.006 236.475 130.304 236.598C130.609 236.721 130.87 236.852 131.086 236.993C131.309 237.133 131.529 237.309 131.745 237.52C131.968 237.725 132.146 237.953 132.281 238.205C132.422 238.457 132.533 238.756 132.615 239.101C132.703 239.441 132.747 239.813 132.747 240.217C132.747 240.756 132.647 241.254 132.448 241.71C132.249 242.161 131.988 242.542 131.666 242.853C131.344 243.163 130.972 243.426 130.55 243.643C130.129 243.86 129.701 244.018 129.268 244.118C128.834 244.217 128.404 244.267 127.976 244.267C126.676 244.267 125.291 243.93 123.821 243.257C123.85 242.624 123.865 242.235 123.865 242.088C123.865 241.134 123.786 240.182 123.628 239.233C123.692 239.192 123.757 239.172 123.821 239.172C123.903 239.172 123.976 239.192 124.041 239.233C124.164 239.989 124.366 240.656 124.647 241.236C124.934 241.816 125.262 242.276 125.631 242.615C126 242.949 126.38 243.201 126.773 243.371C127.171 243.535 127.572 243.617 127.976 243.617C128.896 243.617 129.602 243.38 130.094 242.905C130.591 242.425 130.84 241.792 130.84 241.008C130.84 240.217 130.656 239.623 130.287 239.224C129.924 238.82 129.227 238.492 128.196 238.24C126.908 237.918 125.9 237.444 125.174 236.817C124.454 236.185 124.093 235.35 124.093 234.313C124.093 233.769 124.181 233.283 124.357 232.855C124.539 232.422 124.77 232.076 125.051 231.818C125.338 231.555 125.672 231.338 126.052 231.168C126.433 230.993 126.808 230.873 127.177 230.808C127.552 230.738 127.932 230.703 128.319 230.703C129.479 230.703 130.685 230.972 131.938 231.511C131.903 231.857 131.886 232.217 131.886 232.592C131.886 233.47 131.956 234.176 132.097 234.709C132.02 234.738 131.956 234.753 131.903 234.753C131.845 234.753 131.772 234.738 131.684 234.709Z" fill="#000039"/>
<path d="M120.404 234.709C120.181 233.637 119.771 232.805 119.174 232.214C118.582 231.622 117.871 231.326 117.039 231.326C116.225 231.326 115.592 231.52 115.141 231.906C114.696 232.293 114.474 232.808 114.474 233.452C114.474 233.81 114.506 234.106 114.57 234.34C114.635 234.574 114.767 234.802 114.966 235.025C115.165 235.242 115.455 235.435 115.835 235.605C116.216 235.769 116.714 235.927 117.329 236.079C117.663 236.161 117.953 236.237 118.199 236.308C118.45 236.378 118.726 236.475 119.024 236.598C119.329 236.721 119.59 236.852 119.806 236.993C120.029 237.133 120.248 237.309 120.465 237.52C120.688 237.725 120.866 237.953 121.001 238.205C121.142 238.457 121.253 238.756 121.335 239.101C121.423 239.441 121.467 239.813 121.467 240.217C121.467 240.756 121.367 241.254 121.168 241.71C120.969 242.161 120.708 242.542 120.386 242.853C120.064 243.163 119.692 243.426 119.27 243.643C118.849 243.86 118.421 244.018 117.988 244.118C117.554 244.217 117.124 244.267 116.696 244.267C115.396 244.267 114.011 243.93 112.541 243.257C112.57 242.624 112.585 242.235 112.585 242.088C112.585 241.134 112.506 240.182 112.348 239.233C112.412 239.192 112.477 239.172 112.541 239.172C112.623 239.172 112.696 239.192 112.761 239.233C112.884 239.989 113.086 240.656 113.367 241.236C113.654 241.816 113.982 242.276 114.351 242.615C114.72 242.949 115.1 243.201 115.493 243.371C115.891 243.535 116.292 243.617 116.696 243.617C117.616 243.617 118.322 243.38 118.814 242.905C119.311 242.425 119.56 241.792 119.56 241.008C119.56 240.217 119.376 239.623 119.007 239.224C118.644 238.82 117.947 238.492 116.916 238.24C115.627 237.918 114.62 237.444 113.894 236.817C113.174 236.185 112.813 235.35 112.813 234.313C112.813 233.769 112.901 233.283 113.077 232.855C113.258 232.422 113.49 232.076 113.771 231.818C114.058 231.555 114.392 231.338 114.772 231.168C115.153 230.993 115.528 230.873 115.897 230.808C116.272 230.738 116.652 230.703 117.039 230.703C118.199 230.703 119.405 230.972 120.658 231.511C120.623 231.857 120.606 232.217 120.606 232.592C120.606 233.47 120.676 234.176 120.817 234.709C120.74 234.738 120.676 234.753 120.623 234.753C120.565 234.753 120.491 234.738 120.404 234.709Z" fill="#000039"/>
<path d="M97.826 230.993C99.1379 231.04 100.163 231.063 100.901 231.063C105.926 231.034 108.708 231.01 109.247 230.993C109.323 231.578 109.472 232.135 109.695 232.662C109.917 233.183 110.201 233.739 110.547 234.331C110.5 234.431 110.397 234.51 110.239 234.568C110.028 234.17 109.774 233.816 109.475 233.505C109.176 233.195 108.799 232.902 108.342 232.627C107.891 232.351 107.326 232.126 106.646 231.95C105.973 231.775 105.203 231.657 104.336 231.599H101.911C101.835 234.076 101.797 235.942 101.797 237.195H104.301C104.47 237.195 104.629 237.183 104.775 237.16C104.927 237.131 105.068 237.084 105.197 237.019C105.325 236.949 105.44 236.885 105.539 236.826C105.645 236.762 105.75 236.668 105.856 236.545C105.961 236.416 106.049 236.311 106.119 236.229C106.189 236.141 106.274 236.009 106.374 235.833C106.473 235.658 106.55 235.52 106.602 235.42C106.655 235.321 106.734 235.166 106.839 234.955C106.951 234.744 107.036 234.586 107.094 234.48C107.276 234.551 107.387 234.627 107.428 234.709C107.182 235.142 106.974 235.622 106.804 236.15C106.634 236.677 106.55 237.116 106.55 237.467C106.55 238.299 106.842 239.216 107.428 240.217C107.381 240.311 107.27 240.39 107.094 240.454C107.03 240.337 106.939 240.17 106.822 239.953C106.711 239.731 106.623 239.561 106.558 239.444C106.494 239.327 106.406 239.177 106.295 238.996C106.184 238.814 106.084 238.674 105.996 238.574C105.914 238.475 105.806 238.363 105.671 238.24C105.542 238.117 105.413 238.027 105.285 237.968C105.156 237.904 105.006 237.851 104.836 237.81C104.672 237.763 104.494 237.74 104.301 237.74H101.797C101.797 238.671 101.829 240.548 101.893 243.371H104.696C105.563 243.312 106.333 243.195 107.006 243.019C107.686 242.844 108.251 242.618 108.702 242.343C109.159 242.068 109.536 241.775 109.835 241.464C110.134 241.154 110.389 240.8 110.599 240.401C110.758 240.46 110.86 240.536 110.907 240.63C110.878 240.688 110.802 240.829 110.679 241.052C110.556 241.274 110.474 241.426 110.433 241.508C110.392 241.585 110.321 241.722 110.222 241.921C110.128 242.115 110.058 242.273 110.011 242.396C109.964 242.513 109.908 242.662 109.844 242.844C109.785 243.025 109.736 243.204 109.695 243.38C109.659 243.549 109.63 243.725 109.607 243.907H101.893C100.306 243.907 98.9446 243.924 97.8084 243.959C97.785 243.889 97.7733 243.831 97.7733 243.784C97.7733 243.743 97.785 243.664 97.8084 243.547C98.0778 243.523 98.2945 243.5 98.4585 243.476C98.6283 243.447 98.8333 243.403 99.0734 243.345C99.3194 243.286 99.5068 243.204 99.6357 243.099C99.7645 242.987 99.8319 242.855 99.8377 242.703C99.908 240.87 99.9432 239.022 99.9432 237.16C99.9432 235.262 99.9139 233.625 99.8553 232.249C99.8495 232.097 99.7821 231.968 99.6533 231.862C99.5244 231.751 99.337 231.666 99.091 231.608C98.8509 231.549 98.6459 231.508 98.4761 231.485C98.3121 231.455 98.0954 231.429 97.826 231.406C97.8025 231.3 97.7908 231.227 97.7908 231.186C97.7908 231.151 97.8025 231.086 97.826 230.993Z" fill="#000039"/>
<path d="M82.3116 230.993C83.6235 231.04 84.6425 231.063 85.3688 231.063C86.095 231.063 87.1141 231.04 88.426 230.993C88.4494 231.086 88.4611 231.151 88.4611 231.186C88.4611 231.227 88.4494 231.3 88.426 231.406C88.1566 231.429 87.9369 231.455 87.7671 231.485C87.6031 231.508 87.3981 231.549 87.1521 231.608C86.912 231.666 86.7275 231.751 86.5987 231.862C86.4698 231.968 86.4025 232.097 86.3966 232.249C86.3205 234 86.2824 235.631 86.2824 237.142C86.9325 237.166 87.9164 237.177 89.2342 237.177C90.3118 237.177 91.3924 237.16 92.4759 237.125C92.4525 234.946 92.4232 233.321 92.3881 232.249C92.3822 232.097 92.3148 231.968 92.186 231.862C92.0571 231.751 91.8697 231.666 91.6237 231.608C91.3778 231.549 91.1699 231.508 91 231.485C90.836 231.455 90.6193 231.429 90.3499 231.406C90.3265 231.3 90.3148 231.227 90.3148 231.186C90.3148 231.151 90.3265 231.086 90.3499 230.993C91.6735 231.04 92.6926 231.063 93.4071 231.063C94.1275 231.063 95.1495 231.04 96.4731 230.993C96.4965 231.086 96.5083 231.151 96.5083 231.186C96.5083 231.227 96.4965 231.3 96.4731 231.406C96.2037 231.429 95.9841 231.455 95.8142 231.485C95.6502 231.508 95.4453 231.549 95.1993 231.608C94.9533 231.666 94.7659 231.751 94.637 231.862C94.5082 231.968 94.4408 232.097 94.435 232.249C94.3764 233.707 94.3471 235.453 94.3471 237.485C94.3471 239.505 94.3764 241.245 94.435 242.703C94.4408 242.855 94.5082 242.987 94.637 243.099C94.7659 243.204 94.9533 243.286 95.1993 243.345C95.4453 243.403 95.6502 243.447 95.8142 243.476C95.9841 243.5 96.2037 243.523 96.4731 243.547C96.4965 243.64 96.5083 243.719 96.5083 243.784C96.5083 243.831 96.4965 243.889 96.4731 243.959C95.4775 243.924 94.4555 243.907 93.4071 243.907C92.3588 243.907 91.3397 243.924 90.3499 243.959C90.3265 243.889 90.3148 243.831 90.3148 243.784C90.3148 243.684 90.3265 243.605 90.3499 243.547C90.6193 243.523 90.8389 243.5 91.0088 243.476C91.1786 243.447 91.3866 243.403 91.6325 243.345C91.8785 243.286 92.0659 243.204 92.1948 243.099C92.3236 242.987 92.3881 242.855 92.3881 242.703C92.4349 240.612 92.4642 239.028 92.4759 237.95C91.3924 237.915 90.3118 237.898 89.2342 237.898C88.5665 237.898 87.5826 237.909 86.2824 237.933C86.2824 239.18 86.3146 240.77 86.3791 242.703C86.3849 242.855 86.4523 242.987 86.5811 243.099C86.71 243.204 86.8944 243.286 87.1346 243.345C87.3806 243.403 87.5855 243.447 87.7495 243.476C87.9194 243.5 88.139 243.523 88.4084 243.547C88.4318 243.664 88.4435 243.743 88.4435 243.784C88.4435 243.831 88.4318 243.889 88.4084 243.959C87.4128 243.924 86.3937 243.907 85.3512 243.907C84.297 243.907 83.2779 243.924 82.294 243.959C82.2706 243.889 82.2589 243.831 82.2589 243.784C82.2589 243.684 82.2706 243.605 82.294 243.547C82.5634 243.523 82.7801 243.5 82.9441 243.476C83.1139 243.447 83.3189 243.403 83.559 243.345C83.805 243.286 83.9924 243.204 84.1213 243.099C84.2501 242.987 84.3175 242.855 84.3233 242.703C84.3936 240.87 84.4288 239.022 84.4288 237.16C84.4288 235.262 84.3995 233.625 84.3409 232.249C84.3351 232.097 84.2677 231.968 84.1389 231.862C84.01 231.751 83.8226 231.666 83.5766 231.608C83.3365 231.549 83.1315 231.508 82.9617 231.485C82.7977 231.455 82.581 231.429 82.3116 231.406C82.2881 231.3 82.2764 231.227 82.2764 231.186C82.2764 231.127 82.2881 231.063 82.3116 230.993Z" fill="#000039"/>
<path d="M75.8194 230.703C76.2821 230.703 76.7418 230.735 77.1986 230.799C77.6613 230.858 78.1035 230.931 78.5252 231.019C78.9527 231.101 79.3568 231.183 79.7375 231.265C80.1182 231.347 80.4608 231.406 80.7654 231.441C80.6951 231.652 80.66 232.023 80.66 232.556C80.66 233.593 80.8152 234.492 81.1256 235.253C81.0904 235.359 80.9821 235.423 80.8005 235.447L80.4228 234.638C80.2353 234.234 80.0099 233.836 79.7463 233.444C79.4828 233.045 79.1665 232.691 78.7975 232.381C78.4285 232.064 77.9981 231.81 77.5061 231.616C77.02 231.423 76.4578 231.326 75.8194 231.326C75.2688 231.326 74.7798 231.417 74.3523 231.599C73.9247 231.78 73.5499 232.026 73.2278 232.337C72.9057 232.641 72.6333 232.999 72.4108 233.409C72.1882 233.813 72.0066 234.243 71.8661 234.7C71.7314 235.157 71.6318 235.625 71.5674 236.106C71.5088 236.586 71.4795 237.051 71.4795 237.502C71.4795 238.252 71.5762 238.97 71.7694 239.655C71.9686 240.34 72.2761 240.946 72.6919 241.473C73.1077 241.995 73.6348 242.41 74.2732 242.721C74.9174 243.031 75.6847 243.186 76.5749 243.186C78.2792 243.186 79.5677 242.653 80.4403 241.587C80.534 241.587 80.6102 241.614 80.6687 241.667C80.7332 241.719 80.7654 241.784 80.7654 241.86C80.4843 242.276 80.1416 242.636 79.7375 242.94C79.3393 243.245 78.9146 243.497 78.4637 243.696C78.0127 243.889 77.5559 244.033 77.0932 244.126C76.6364 244.22 76.2118 244.267 75.8194 244.267C75.3918 244.267 74.9291 244.22 74.4313 244.126C73.9394 244.039 73.4445 243.889 72.9466 243.678C72.4547 243.467 71.9803 243.192 71.5235 242.853C71.0725 242.507 70.6713 242.085 70.3199 241.587C69.9685 241.084 69.6874 240.495 69.4765 239.822C69.2657 239.148 69.1603 238.375 69.1603 237.502C69.1603 236.624 69.2657 235.848 69.4765 235.174C69.6874 234.495 69.9685 233.903 70.3199 233.4C70.6772 232.896 71.0842 232.474 71.541 232.135C72.0037 231.789 72.481 231.511 72.973 231.3C73.465 231.083 73.9569 230.931 74.4489 230.843C74.9409 230.75 75.3977 230.703 75.8194 230.703Z" fill="#000039"/>
</svg>
