<svg width="422" height="423" viewBox="0 0 422 423" fill="none" xmlns="http://www.w3.org/2000/svg">
<path d="M359.5 192.5C306 229.5 239 282.5 221 327.5C245.5 303.5 334.167 240.167 382 217L359.5 192.5Z" fill="black" stroke="black"/>
<path d="M239.5 320C255.1 296 337 253 393 233L406.5 261.5C318.9 276.3 258.667 306 239.5 320Z" fill="black"/>
<path d="M414 279.5C339.6 278.3 284.167 304.5 263 318C290.5 307 375.5 295 419 298.5L414 279.5Z" fill="black"/>
<path d="M421 324V311H361.5C322 311 287.333 321 273.5 326L421 324Z" fill="black"/>
<path d="M239.5 320C255.1 296 337 253 393 233L406.5 261.5C318.9 276.3 258.667 306 239.5 320Z" stroke="black"/>
<path d="M414 279.5C339.6 278.3 284.167 304.5 263 318C290.5 307 375.5 295 419 298.5L414 279.5Z" stroke="black"/>
<path d="M421 324V311H361.5C322 311 287.333 321 273.5 326L421 324Z" stroke="black"/>
<path d="M62.5 192.5C116 229.5 183 282.5 201 327.5C176.5 303.5 87.8333 240.167 40 217L62.5 192.5Z" fill="black" stroke="black"/>
<path d="M182.5 320C166.9 296 85 253 29 233L15.5 261.5C103.1 276.3 163.333 306 182.5 320Z" fill="black"/>
<path d="M8 279.5C82.4 278.3 137.833 304.5 159 318C131.5 307 46.5 295 3 298.5L8 279.5Z" fill="black"/>
<path d="M1 324V311H60.5C100 311 134.667 321 148.5 326L1 324Z" fill="black"/>
<path d="M182.5 320C166.9 296 85 253 29 233L15.5 261.5C103.1 276.3 163.333 306 182.5 320Z" stroke="black"/>
<path d="M8 279.5C82.4 278.3 137.833 304.5 159 318C131.5 307 46.5 295 3 298.5L8 279.5Z" stroke="black"/>
<path d="M1 324V311H60.5C100 311 134.667 321 148.5 326L1 324Z" stroke="black"/>
<path d="M186 335H4.99999C-1.80001 340.2 2.16666 345.833 4.99999 348H178.5C192 374.5 228 378 243.5 348H418C422.5 344.5 422 338 418 335H235.5C222.5 369.5 195 359.5 186 335Z" fill="black" stroke="black"/>
<path d="M231.169 245L157.669 249L243.169 251V248C237.169 244.4 234.002 232.833 233.169 227.5C230.769 229.9 230.836 240.167 231.169 245Z" fill="black"/>
<path d="M236.169 219H189.169L187.169 222L236.169 224V219Z" fill="black"/>
<path d="M231.169 245L157.669 249L243.169 251V248C237.169 244.4 234.002 232.833 233.169 227.5C230.769 229.9 230.836 240.167 231.169 245Z" stroke="black"/>
<path d="M236.169 219H189.169L187.169 222L236.169 224V219Z" stroke="black"/>
<path d="M245.669 261H174.669L226.669 266C244.669 267.5 245.669 272.333 243.669 276L255.169 266L245.669 261Z" fill="black" stroke="black"/>
<circle cx="299.169" cy="192.5" r="9.5" fill="black" stroke="black"/>
<path d="M250.169 191.5H144.169C136.569 197.5 141.002 203.667 144.169 206H250.169C258.969 200.4 253.836 194 250.169 191.5Z" fill="black" stroke="black"/>
<path d="M254.669 179.5H212.669C160.169 173.5 123.669 70 189.169 29.5C185.969 14.3 199.836 4.16667 207.669 1V29.5C216.336 33.5 234.069 42.4 235.669 46C238.336 52 259.169 70 273.169 86L271.169 109.5C246.669 123.5 240.169 107 237.169 103C233.327 97.8776 233.169 96.3617 217.669 99C198.869 102.2 187.669 77 187.669 65.5C170.169 97 214.169 122 237.169 137.5C251.669 149.5 254.836 169.667 254.669 179.5Z" fill="black" stroke="black"/>
<path d="M144.169 161.5H161.669C162.869 165.9 169.169 174.333 172.169 178H157.669C154.469 176.8 147.336 166.5 144.169 161.5Z" fill="black" stroke="black"/>
<path d="M144.169 121L127.169 116C124.769 112 124.836 100.667 125.169 95.5L143.169 104C141.569 109.2 143.169 117.5 144.169 121Z" fill="black" stroke="black"/>
<path d="M126.669 81.5C125.069 77.1 128.336 67 130.169 62.5L145.669 75.5C142.869 80.3 143.169 88.5 143.669 92L126.669 81.5Z" fill="black"/>
<path d="M147.169 33.5L135.669 50.5L150.169 62.5C150.969 57.7 155.502 50.8333 157.669 48L147.169 33.5Z" fill="black"/>
<path d="M177.169 12.5C173.969 12.5 162.836 19.8333 157.669 23.5L166.669 39.5C168.269 33.5 174.336 29 177.169 27.5V12.5Z" fill="black"/>
<path d="M126.669 81.5C125.069 77.1 128.336 67 130.169 62.5L145.669 75.5C142.869 80.3 143.169 88.5 143.669 92L126.669 81.5Z" stroke="black"/>
<path d="M147.169 33.5L135.669 50.5L150.169 62.5C150.969 57.7 155.502 50.8333 157.669 48L147.169 33.5Z" stroke="black"/>
<path d="M177.169 12.5C173.969 12.5 162.836 19.8333 157.669 23.5L166.669 39.5C168.269 33.5 174.336 29 177.169 27.5V12.5Z" stroke="black"/>
<path d="M154.669 149.5H136.169C132.569 146.3 130.002 134.833 129.169 129.5L148.669 133C149.069 139.4 152.836 146.667 154.669 149.5Z" fill="black" stroke="black"/>
<path d="M52.6621 386.58C53.5879 386.58 54.5078 386.645 55.4219 386.773C56.3477 386.891 57.2324 387.037 58.0762 387.213C58.9316 387.377 59.7402 387.541 60.502 387.705C61.2637 387.869 61.9492 387.986 62.5586 388.057C62.418 388.479 62.3477 389.223 62.3477 390.289C62.3477 392.363 62.6582 394.162 63.2793 395.686C63.209 395.896 62.9922 396.025 62.6289 396.072L61.873 394.455C61.498 393.646 61.0469 392.85 60.5195 392.064C59.9922 391.268 59.3594 390.559 58.6211 389.938C57.8828 389.305 57.0215 388.795 56.0371 388.408C55.0645 388.021 53.9395 387.828 52.6621 387.828C51.5605 387.828 50.582 388.01 49.7266 388.373C48.8711 388.736 48.1211 389.229 47.4766 389.85C46.832 390.459 46.2871 391.174 45.8418 391.994C45.3965 392.803 45.0332 393.664 44.752 394.578C44.4824 395.492 44.2832 396.43 44.1543 397.391C44.0371 398.352 43.9785 399.283 43.9785 400.186C43.9785 401.686 44.1719 403.121 44.5586 404.492C44.957 405.863 45.5723 407.076 46.4043 408.131C47.2363 409.174 48.291 410.006 49.5684 410.627C50.8574 411.248 52.3926 411.559 54.1738 411.559C57.584 411.559 60.1621 410.492 61.9082 408.359C62.0957 408.359 62.248 408.412 62.3652 408.518C62.4941 408.623 62.5586 408.752 62.5586 408.904C61.9961 409.736 61.3105 410.457 60.502 411.066C59.7051 411.676 58.8555 412.18 57.9531 412.578C57.0508 412.965 56.1367 413.252 55.2109 413.439C54.2969 413.627 53.4473 413.721 52.6621 413.721C51.8066 413.721 50.8809 413.627 49.8848 413.439C48.9004 413.264 47.9102 412.965 46.9141 412.543C45.9297 412.121 44.9805 411.57 44.0664 410.891C43.1641 410.199 42.3613 409.355 41.6582 408.359C40.9551 407.352 40.3926 406.174 39.9707 404.826C39.5488 403.479 39.3379 401.932 39.3379 400.186C39.3379 398.428 39.5488 396.875 39.9707 395.527C40.3926 394.168 40.9551 392.984 41.6582 391.977C42.373 390.969 43.1875 390.125 44.1016 389.445C45.0273 388.754 45.9824 388.197 46.9668 387.775C47.9512 387.342 48.9355 387.037 49.9199 386.861C50.9043 386.674 51.8184 386.58 52.6621 386.58ZM65.6523 387.16C68.2773 387.254 70.3164 387.301 71.7695 387.301C73.2227 387.301 75.2617 387.254 77.8867 387.16C77.9336 387.348 77.957 387.477 77.957 387.547C77.957 387.629 77.9336 387.775 77.8867 387.986C77.3477 388.033 76.9082 388.086 76.5684 388.145C76.2402 388.191 75.8301 388.273 75.3379 388.391C74.8574 388.508 74.4883 388.678 74.2305 388.9C73.9727 389.111 73.8379 389.369 73.8262 389.674C73.6738 393.178 73.5977 396.441 73.5977 399.465C74.8984 399.512 76.8672 399.535 79.5039 399.535C81.6602 399.535 83.8223 399.5 85.9902 399.43C85.9434 395.07 85.8848 391.818 85.8145 389.674C85.8027 389.369 85.668 389.111 85.4102 388.9C85.1523 388.678 84.7773 388.508 84.2852 388.391C83.793 388.273 83.377 388.191 83.0371 388.145C82.709 388.086 82.2754 388.033 81.7363 387.986C81.6895 387.775 81.666 387.629 81.666 387.547C81.666 387.477 81.6895 387.348 81.7363 387.16C84.3848 387.254 86.4238 387.301 87.8535 387.301C89.2949 387.301 91.3398 387.254 93.9883 387.16C94.0352 387.348 94.0586 387.477 94.0586 387.547C94.0586 387.629 94.0352 387.775 93.9883 387.986C93.4492 388.033 93.0098 388.086 92.6699 388.145C92.3418 388.191 91.9316 388.273 91.4395 388.391C90.9473 388.508 90.5723 388.678 90.3145 388.9C90.0566 389.111 89.9219 389.369 89.9102 389.674C89.793 392.592 89.7344 396.084 89.7344 400.15C89.7344 404.193 89.793 407.674 89.9102 410.592C89.9219 410.896 90.0566 411.16 90.3145 411.383C90.5723 411.594 90.9473 411.758 91.4395 411.875C91.9316 411.992 92.3418 412.08 92.6699 412.139C93.0098 412.186 93.4492 412.232 93.9883 412.279C94.0352 412.467 94.0586 412.625 94.0586 412.754C94.0586 412.848 94.0352 412.965 93.9883 413.105C91.9961 413.035 89.9512 413 87.8535 413C85.7559 413 83.7168 413.035 81.7363 413.105C81.6895 412.965 81.666 412.848 81.666 412.754C81.666 412.555 81.6895 412.396 81.7363 412.279C82.2754 412.232 82.7148 412.186 83.0547 412.139C83.3945 412.08 83.8105 411.992 84.3027 411.875C84.7949 411.758 85.1699 411.594 85.4277 411.383C85.6855 411.16 85.8145 410.896 85.8145 410.592C85.9082 406.408 85.9668 403.238 85.9902 401.082C83.8223 401.012 81.6602 400.977 79.5039 400.977C78.168 400.977 76.1992 401 73.5977 401.047C73.5977 403.543 73.6621 406.725 73.791 410.592C73.8027 410.896 73.9375 411.16 74.1953 411.383C74.4531 411.594 74.8223 411.758 75.3027 411.875C75.7949 411.992 76.2051 412.08 76.5332 412.139C76.873 412.186 77.3125 412.232 77.8516 412.279C77.8984 412.514 77.9219 412.672 77.9219 412.754C77.9219 412.848 77.8984 412.965 77.8516 413.105C75.8594 413.035 73.8203 413 71.7344 413C69.625 413 67.5859 413.035 65.6172 413.105C65.5703 412.965 65.5469 412.848 65.5469 412.754C65.5469 412.555 65.5703 412.396 65.6172 412.279C66.1562 412.232 66.5898 412.186 66.918 412.139C67.2578 412.08 67.668 411.992 68.1484 411.875C68.6406 411.758 69.0156 411.594 69.2734 411.383C69.5312 411.16 69.666 410.896 69.6777 410.592C69.8184 406.924 69.8887 403.227 69.8887 399.5C69.8887 395.703 69.8301 392.428 69.7129 389.674C69.7012 389.369 69.5664 389.111 69.3086 388.9C69.0508 388.678 68.6758 388.508 68.1836 388.391C67.7031 388.273 67.293 388.191 66.9531 388.145C66.625 388.086 66.1914 388.033 65.6523 387.986C65.6055 387.775 65.582 387.629 65.582 387.547C65.582 387.43 65.6055 387.301 65.6523 387.16ZM96.6953 387.16C99.3203 387.254 101.371 387.301 102.848 387.301C112.902 387.242 118.469 387.195 119.547 387.16C119.699 388.332 119.998 389.445 120.443 390.5C120.889 391.543 121.457 392.656 122.148 393.84C122.055 394.039 121.85 394.197 121.533 394.314C121.111 393.518 120.602 392.809 120.004 392.188C119.406 391.566 118.65 390.98 117.736 390.43C116.834 389.879 115.703 389.428 114.344 389.076C112.996 388.725 111.455 388.49 109.721 388.373H104.869C104.717 393.33 104.641 397.062 104.641 399.57H109.65C109.99 399.57 110.307 399.547 110.6 399.5C110.904 399.441 111.186 399.348 111.443 399.219C111.701 399.078 111.93 398.949 112.129 398.832C112.34 398.703 112.551 398.516 112.762 398.27C112.973 398.012 113.148 397.801 113.289 397.637C113.43 397.461 113.6 397.197 113.799 396.846C113.998 396.494 114.15 396.219 114.256 396.02C114.361 395.82 114.52 395.51 114.73 395.088C114.953 394.666 115.123 394.35 115.24 394.139C115.604 394.279 115.826 394.432 115.908 394.596C115.416 395.463 115 396.424 114.66 397.479C114.32 398.533 114.15 399.412 114.15 400.115C114.15 401.779 114.736 403.613 115.908 405.617C115.814 405.805 115.592 405.963 115.24 406.092C115.111 405.857 114.93 405.523 114.695 405.09C114.473 404.645 114.297 404.305 114.168 404.07C114.039 403.836 113.863 403.537 113.641 403.174C113.418 402.811 113.219 402.529 113.043 402.33C112.879 402.131 112.662 401.908 112.393 401.662C112.135 401.416 111.877 401.234 111.619 401.117C111.361 400.988 111.062 400.883 110.723 400.801C110.395 400.707 110.037 400.66 109.65 400.66H104.641C104.641 402.523 104.705 406.279 104.834 411.928H110.441C112.176 411.811 113.717 411.576 115.064 411.225C116.424 410.873 117.555 410.422 118.457 409.871C119.371 409.32 120.127 408.734 120.725 408.113C121.322 407.492 121.832 406.783 122.254 405.986C122.57 406.104 122.775 406.256 122.869 406.443C122.811 406.561 122.658 406.842 122.412 407.287C122.166 407.732 122.002 408.037 121.92 408.201C121.838 408.354 121.697 408.629 121.498 409.027C121.311 409.414 121.17 409.73 121.076 409.977C120.982 410.211 120.871 410.51 120.742 410.873C120.625 411.236 120.525 411.594 120.443 411.945C120.373 412.285 120.314 412.637 120.268 413H104.834C101.658 413 98.9336 413.035 96.6602 413.105C96.6133 412.965 96.5898 412.848 96.5898 412.754C96.5898 412.672 96.6133 412.514 96.6602 412.279C97.1992 412.232 97.6328 412.186 97.9609 412.139C98.3008 412.08 98.7109 411.992 99.1914 411.875C99.6836 411.758 100.059 411.594 100.316 411.383C100.574 411.16 100.709 410.896 100.721 410.592C100.861 406.924 100.932 403.227 100.932 399.5C100.932 395.703 100.873 392.428 100.756 389.674C100.744 389.369 100.609 389.111 100.352 388.9C100.094 388.678 99.7188 388.508 99.2266 388.391C98.7461 388.273 98.3359 388.191 97.9961 388.145C97.668 388.086 97.2344 388.033 96.6953 387.986C96.6484 387.775 96.625 387.629 96.625 387.547C96.625 387.477 96.6484 387.348 96.6953 387.16ZM141.871 394.596C141.426 392.451 140.605 390.787 139.41 389.604C138.227 388.42 136.803 387.828 135.139 387.828C133.51 387.828 132.244 388.215 131.342 388.988C130.451 389.762 130.006 390.793 130.006 392.082C130.006 392.797 130.07 393.389 130.199 393.857C130.328 394.326 130.592 394.783 130.99 395.229C131.389 395.662 131.969 396.049 132.73 396.389C133.492 396.717 134.488 397.033 135.719 397.338C136.387 397.502 136.967 397.654 137.459 397.795C137.963 397.936 138.514 398.129 139.111 398.375C139.721 398.621 140.242 398.885 140.676 399.166C141.121 399.447 141.561 399.799 141.994 400.221C142.439 400.631 142.797 401.088 143.066 401.592C143.348 402.096 143.57 402.693 143.734 403.385C143.91 404.064 143.998 404.809 143.998 405.617C143.998 406.695 143.799 407.691 143.4 408.605C143.002 409.508 142.48 410.27 141.836 410.891C141.191 411.512 140.447 412.039 139.604 412.473C138.76 412.906 137.904 413.223 137.037 413.422C136.17 413.621 135.309 413.721 134.453 413.721C131.852 413.721 129.08 413.047 126.139 411.699C126.197 410.434 126.227 409.654 126.227 409.361C126.227 407.451 126.068 405.547 125.752 403.648C125.881 403.566 126.01 403.525 126.139 403.525C126.303 403.525 126.449 403.566 126.578 403.648C126.824 405.16 127.229 406.496 127.791 407.656C128.365 408.816 129.021 409.736 129.76 410.416C130.498 411.084 131.26 411.588 132.045 411.928C132.842 412.256 133.645 412.42 134.453 412.42C136.293 412.42 137.705 411.945 138.689 410.996C139.686 410.035 140.184 408.77 140.184 407.199C140.184 405.617 139.814 404.428 139.076 403.631C138.35 402.822 136.955 402.166 134.893 401.662C132.314 401.018 130.299 400.068 128.846 398.814C127.404 397.549 126.684 395.879 126.684 393.805C126.684 392.715 126.859 391.742 127.211 390.887C127.574 390.02 128.037 389.328 128.6 388.812C129.174 388.285 129.842 387.852 130.604 387.512C131.365 387.16 132.115 386.92 132.854 386.791C133.604 386.65 134.365 386.58 135.139 386.58C137.459 386.58 139.873 387.119 142.381 388.197C142.311 388.889 142.275 389.609 142.275 390.359C142.275 392.117 142.416 393.529 142.697 394.596C142.545 394.654 142.416 394.684 142.311 394.684C142.193 394.684 142.047 394.654 141.871 394.596ZM164.441 394.596C163.996 392.451 163.176 390.787 161.98 389.604C160.797 388.42 159.373 387.828 157.709 387.828C156.08 387.828 154.814 388.215 153.912 388.988C153.021 389.762 152.576 390.793 152.576 392.082C152.576 392.797 152.641 393.389 152.77 393.857C152.898 394.326 153.162 394.783 153.561 395.229C153.959 395.662 154.539 396.049 155.301 396.389C156.062 396.717 157.059 397.033 158.289 397.338C158.957 397.502 159.537 397.654 160.029 397.795C160.533 397.936 161.084 398.129 161.682 398.375C162.291 398.621 162.812 398.885 163.246 399.166C163.691 399.447 164.131 399.799 164.564 400.221C165.01 400.631 165.367 401.088 165.637 401.592C165.918 402.096 166.141 402.693 166.305 403.385C166.48 404.064 166.568 404.809 166.568 405.617C166.568 406.695 166.369 407.691 165.971 408.605C165.572 409.508 165.051 410.27 164.406 410.891C163.762 411.512 163.018 412.039 162.174 412.473C161.33 412.906 160.475 413.223 159.607 413.422C158.74 413.621 157.879 413.721 157.023 413.721C154.422 413.721 151.65 413.047 148.709 411.699C148.768 410.434 148.797 409.654 148.797 409.361C148.797 407.451 148.639 405.547 148.322 403.648C148.451 403.566 148.58 403.525 148.709 403.525C148.873 403.525 149.02 403.566 149.148 403.648C149.395 405.16 149.799 406.496 150.361 407.656C150.936 408.816 151.592 409.736 152.33 410.416C153.068 411.084 153.83 411.588 154.615 411.928C155.412 412.256 156.215 412.42 157.023 412.42C158.863 412.42 160.275 411.945 161.26 410.996C162.256 410.035 162.754 408.77 162.754 407.199C162.754 405.617 162.385 404.428 161.646 403.631C160.92 402.822 159.525 402.166 157.463 401.662C154.885 401.018 152.869 400.068 151.416 398.814C149.975 397.549 149.254 395.879 149.254 393.805C149.254 392.715 149.43 391.742 149.781 390.887C150.145 390.02 150.607 389.328 151.17 388.812C151.744 388.285 152.412 387.852 153.174 387.512C153.936 387.16 154.686 386.92 155.424 386.791C156.174 386.65 156.936 386.58 157.709 386.58C160.029 386.58 162.443 387.119 164.951 388.197C164.881 388.889 164.846 389.609 164.846 390.359C164.846 392.117 164.986 393.529 165.268 394.596C165.115 394.654 164.986 394.684 164.881 394.684C164.764 394.684 164.617 394.654 164.441 394.596ZM179.805 387.16C182.008 387.254 184.779 387.301 188.119 387.301L194.922 405.723H195.01L202.094 387.301H204.115C205.568 387.301 207.619 387.254 210.268 387.16C210.314 387.348 210.338 387.477 210.338 387.547C210.338 387.629 210.314 387.775 210.268 387.986C209.846 388.021 209.506 388.057 209.248 388.092C208.99 388.127 208.645 388.186 208.211 388.268C207.789 388.35 207.449 388.449 207.191 388.566C206.934 388.672 206.705 388.824 206.506 389.023C206.307 389.211 206.201 389.428 206.189 389.674C206.072 392.428 206.014 395.703 206.014 399.5C206.014 403.355 206.09 407.053 206.242 410.592C206.254 410.896 206.389 411.16 206.646 411.383C206.904 411.594 207.273 411.758 207.754 411.875C208.246 411.992 208.656 412.08 208.984 412.139C209.324 412.186 209.764 412.232 210.303 412.279C210.35 412.467 210.373 412.625 210.373 412.754C210.373 412.848 210.35 412.965 210.303 413.105C208.322 413.035 206.283 413 204.186 413C202.076 413 200.037 413.035 198.068 413.105C198.021 412.965 197.998 412.848 197.998 412.754C197.998 412.555 198.021 412.396 198.068 412.279C198.607 412.232 199.041 412.186 199.369 412.139C199.709 412.08 200.119 411.992 200.6 411.875C201.092 411.758 201.467 411.594 201.725 411.383C201.982 411.16 202.117 410.896 202.129 410.592C202.246 406.936 202.305 403.672 202.305 400.801C202.305 398.047 202.246 394.912 202.129 391.396H201.988L193.955 412.561H193.779L185.219 390.975H185.025C184.932 393.822 184.885 397.098 184.885 400.801C184.885 403.52 184.943 406.695 185.061 410.328C185.084 411.395 186.379 412.045 188.945 412.279C189.004 412.479 189.033 412.637 189.033 412.754C189.033 412.871 189.004 412.988 188.945 413.105C187.082 413.035 185.418 413 183.953 413C183.016 413 181.445 413.035 179.242 413.105C179.184 412.988 179.154 412.871 179.154 412.754C179.154 412.555 179.184 412.396 179.242 412.279C181.832 412.033 183.127 411.383 183.127 410.328C183.268 406.672 183.338 403.062 183.338 399.5C183.338 396.934 183.303 394.209 183.232 391.326C183.221 390.834 183.191 390.424 183.145 390.096C183.098 389.756 183.01 389.463 182.881 389.217C182.752 388.971 182.617 388.777 182.477 388.637C182.336 388.496 182.119 388.373 181.826 388.268C181.533 388.15 181.246 388.068 180.965 388.021C180.695 387.963 180.309 387.898 179.805 387.828C179.758 387.734 179.734 387.629 179.734 387.512C179.734 387.371 179.758 387.254 179.805 387.16ZM225.561 386.896C225.736 386.768 225.924 386.686 226.123 386.65L235.738 410.662C235.855 410.955 236.049 411.207 236.318 411.418C236.588 411.617 236.922 411.775 237.32 411.893C237.73 411.998 238.082 412.08 238.375 412.139C238.68 412.186 239.049 412.232 239.482 412.279C239.529 412.467 239.553 412.625 239.553 412.754C239.553 412.895 239.529 413.023 239.482 413.141C236.951 413.047 235.059 413 233.805 413C232.445 413 230.477 413.047 227.898 413.141C227.852 413 227.828 412.859 227.828 412.719C227.828 412.566 227.852 412.42 227.898 412.279C230.266 412.021 231.449 411.576 231.449 410.943C231.449 410.744 231.426 410.539 231.379 410.328L228.83 403.789C228.057 403.766 227.014 403.754 225.701 403.754C225.08 403.754 223.469 403.777 220.867 403.824L218.178 410.662V410.873C218.178 410.99 218.195 411.102 218.23 411.207C218.277 411.312 218.348 411.406 218.441 411.488C218.547 411.57 218.646 411.641 218.74 411.699C218.834 411.758 218.963 411.816 219.127 411.875C219.303 411.922 219.449 411.963 219.566 411.998C219.695 412.021 219.865 412.051 220.076 412.086C220.299 412.121 220.469 412.15 220.586 412.174C220.703 412.186 220.873 412.203 221.096 412.227C221.33 412.25 221.494 412.268 221.588 412.279C221.635 412.467 221.658 412.625 221.658 412.754C221.658 412.824 221.635 412.953 221.588 413.141C218.963 413.047 217.486 413 217.158 413C216.525 413 214.896 413.047 212.271 413.141C212.225 413 212.201 412.859 212.201 412.719C212.201 412.566 212.225 412.42 212.271 412.279C214.709 411.998 216.098 411.4 216.438 410.486L223.996 391.432L223.609 390.395C224.277 389.949 224.74 389.469 224.998 388.953C225.268 388.438 225.455 387.752 225.561 386.896ZM225.701 402.383C226.779 402.383 227.629 402.371 228.25 402.348L224.91 393.699H224.84L221.482 402.312C222.584 402.359 223.99 402.383 225.701 402.383ZM241.645 387.16C243.566 387.254 245.992 387.301 248.922 387.301C257.207 397.684 261.66 403.215 262.281 403.895C262.902 404.562 263.213 404.896 263.213 404.896H263.354C263.4 402.646 263.424 400.836 263.424 399.465C263.424 396.758 263.365 393.576 263.248 389.92C263.225 388.865 261.924 388.221 259.346 387.986C259.299 387.729 259.275 387.57 259.275 387.512C259.275 387.418 259.299 387.301 259.346 387.16C261.232 387.23 262.902 387.266 264.355 387.266C265.293 387.266 266.863 387.23 269.066 387.16C269.113 387.301 269.137 387.418 269.137 387.512C269.137 387.699 269.113 387.857 269.066 387.986C266.5 388.221 265.205 388.865 265.182 389.92C265.041 393.588 264.971 397.203 264.971 400.766C264.971 406.215 265.029 410.316 265.146 413.07L264.83 413.105L247.357 391.607H247.182C247.111 394.643 247.076 397.707 247.076 400.801C247.076 403.52 247.135 406.695 247.252 410.328C247.275 411.395 248.57 412.045 251.137 412.279C251.195 412.479 251.225 412.637 251.225 412.754C251.225 412.871 251.195 412.988 251.137 413.105C249.273 413.035 247.609 413 246.145 413C245.207 413 243.637 413.035 241.434 413.105C241.375 412.988 241.346 412.871 241.346 412.754C241.346 412.555 241.375 412.396 241.434 412.279C244.023 412.033 245.318 411.383 245.318 410.328C245.459 406.672 245.529 403.062 245.529 399.5C245.529 395.633 245.482 392.275 245.389 389.428C244.404 388.572 243.156 388.092 241.645 387.986C241.574 387.834 241.539 387.699 241.539 387.582C241.539 387.406 241.574 387.266 241.645 387.16ZM284.131 386.896C284.307 386.768 284.494 386.686 284.693 386.65L294.309 410.662C294.426 410.955 294.619 411.207 294.889 411.418C295.158 411.617 295.492 411.775 295.891 411.893C296.301 411.998 296.652 412.08 296.945 412.139C297.25 412.186 297.619 412.232 298.053 412.279C298.1 412.467 298.123 412.625 298.123 412.754C298.123 412.895 298.1 413.023 298.053 413.141C295.521 413.047 293.629 413 292.375 413C291.016 413 289.047 413.047 286.469 413.141C286.422 413 286.398 412.859 286.398 412.719C286.398 412.566 286.422 412.42 286.469 412.279C288.836 412.021 290.02 411.576 290.02 410.943C290.02 410.744 289.996 410.539 289.949 410.328L287.4 403.789C286.627 403.766 285.584 403.754 284.271 403.754C283.65 403.754 282.039 403.777 279.438 403.824L276.748 410.662V410.873C276.748 410.99 276.766 411.102 276.801 411.207C276.848 411.312 276.918 411.406 277.012 411.488C277.117 411.57 277.217 411.641 277.311 411.699C277.404 411.758 277.533 411.816 277.697 411.875C277.873 411.922 278.02 411.963 278.137 411.998C278.266 412.021 278.436 412.051 278.646 412.086C278.869 412.121 279.039 412.15 279.156 412.174C279.273 412.186 279.443 412.203 279.666 412.227C279.9 412.25 280.064 412.268 280.158 412.279C280.205 412.467 280.229 412.625 280.229 412.754C280.229 412.824 280.205 412.953 280.158 413.141C277.533 413.047 276.057 413 275.729 413C275.096 413 273.467 413.047 270.842 413.141C270.795 413 270.771 412.859 270.771 412.719C270.771 412.566 270.795 412.42 270.842 412.279C273.279 411.998 274.668 411.4 275.008 410.486L282.566 391.432L282.18 390.395C282.848 389.949 283.311 389.469 283.568 388.953C283.838 388.438 284.025 387.752 284.131 386.896ZM284.271 402.383C285.35 402.383 286.199 402.371 286.82 402.348L283.48 393.699H283.41L280.053 402.312C281.154 402.359 282.561 402.383 284.271 402.383ZM324.807 395.141C324.432 394.309 324.062 393.582 323.699 392.961C323.336 392.328 322.861 391.672 322.275 390.992C321.689 390.312 321.062 389.756 320.395 389.322C319.727 388.889 318.906 388.531 317.934 388.25C316.961 387.969 315.889 387.828 314.717 387.828C313.451 387.828 312.303 388.086 311.271 388.602C310.24 389.117 309.391 389.791 308.723 390.623C308.066 391.455 307.51 392.422 307.053 393.523C306.607 394.613 306.291 395.715 306.104 396.828C305.916 397.93 305.822 399.049 305.822 400.186C305.822 401.311 305.922 402.43 306.121 403.543C306.32 404.645 306.648 405.74 307.105 406.83C307.574 407.92 308.148 408.875 308.828 409.695C309.508 410.516 310.363 411.184 311.395 411.699C312.438 412.203 313.592 412.455 314.857 412.455C317.436 412.455 319.229 411.881 320.236 410.732V403.596C320.236 403.35 320.137 403.133 319.938 402.945C319.738 402.746 319.51 402.594 319.252 402.488C318.994 402.383 318.648 402.289 318.215 402.207C317.793 402.113 317.447 402.049 317.178 402.014C316.908 401.979 316.568 401.943 316.158 401.908C316.111 401.721 316.088 401.58 316.088 401.486C316.088 401.404 316.111 401.27 316.158 401.082C318.807 401.176 320.846 401.223 322.275 401.223C323.729 401.223 325.768 401.176 328.393 401.082C328.451 401.316 328.48 401.451 328.48 401.486C328.48 401.533 328.451 401.674 328.393 401.908C327.982 401.943 327.643 401.979 327.373 402.014C327.104 402.049 326.752 402.113 326.318 402.207C325.896 402.289 325.557 402.383 325.299 402.488C325.053 402.594 324.83 402.746 324.631 402.945C324.432 403.133 324.332 403.35 324.332 403.596V406.197C324.332 408.424 324.596 410.246 325.123 411.664C323.189 412.379 321.473 412.9 319.973 413.229C318.473 413.557 316.768 413.721 314.857 413.721C313.721 413.721 312.578 413.604 311.43 413.369C310.281 413.135 309.074 412.695 307.809 412.051C306.555 411.406 305.447 410.598 304.486 409.625C303.537 408.652 302.746 407.352 302.113 405.723C301.492 404.094 301.182 402.248 301.182 400.186C301.182 398.697 301.34 397.32 301.656 396.055C301.984 394.777 302.418 393.682 302.957 392.768C303.496 391.854 304.135 391.033 304.873 390.307C305.623 389.58 306.402 388.988 307.211 388.531C308.02 388.074 308.869 387.699 309.76 387.406C310.662 387.102 311.518 386.891 312.326 386.773C313.135 386.645 313.932 386.58 314.717 386.58C316.029 386.58 317.277 386.662 318.461 386.826C319.656 386.979 320.846 387.172 322.029 387.406C323.213 387.629 324.15 387.781 324.842 387.863C324.666 388.391 324.578 389.135 324.578 390.096C324.578 391.689 324.865 393.242 325.439 394.754C325.369 394.965 325.158 395.094 324.807 395.141ZM330.766 387.16C333.391 387.254 335.441 387.301 336.918 387.301C346.973 387.242 352.539 387.195 353.617 387.16C353.77 388.332 354.068 389.445 354.514 390.5C354.959 391.543 355.527 392.656 356.219 393.84C356.125 394.039 355.92 394.197 355.604 394.314C355.182 393.518 354.672 392.809 354.074 392.188C353.477 391.566 352.721 390.98 351.807 390.43C350.904 389.879 349.773 389.428 348.414 389.076C347.066 388.725 345.525 388.49 343.791 388.373H338.939C338.787 393.33 338.711 397.062 338.711 399.57H343.721C344.061 399.57 344.377 399.547 344.67 399.5C344.975 399.441 345.256 399.348 345.514 399.219C345.771 399.078 346 398.949 346.199 398.832C346.41 398.703 346.621 398.516 346.832 398.27C347.043 398.012 347.219 397.801 347.359 397.637C347.5 397.461 347.67 397.197 347.869 396.846C348.068 396.494 348.221 396.219 348.326 396.02C348.432 395.82 348.59 395.51 348.801 395.088C349.023 394.666 349.193 394.35 349.311 394.139C349.674 394.279 349.896 394.432 349.979 394.596C349.486 395.463 349.07 396.424 348.73 397.479C348.391 398.533 348.221 399.412 348.221 400.115C348.221 401.779 348.807 403.613 349.979 405.617C349.885 405.805 349.662 405.963 349.311 406.092C349.182 405.857 349 405.523 348.766 405.09C348.543 404.645 348.367 404.305 348.238 404.07C348.109 403.836 347.934 403.537 347.711 403.174C347.488 402.811 347.289 402.529 347.113 402.33C346.949 402.131 346.732 401.908 346.463 401.662C346.205 401.416 345.947 401.234 345.689 401.117C345.432 400.988 345.133 400.883 344.793 400.801C344.465 400.707 344.107 400.66 343.721 400.66H338.711C338.711 402.523 338.775 406.279 338.904 411.928H344.512C346.246 411.811 347.787 411.576 349.135 411.225C350.494 410.873 351.625 410.422 352.527 409.871C353.441 409.32 354.197 408.734 354.795 408.113C355.393 407.492 355.902 406.783 356.324 405.986C356.641 406.104 356.846 406.256 356.939 406.443C356.881 406.561 356.729 406.842 356.482 407.287C356.236 407.732 356.072 408.037 355.99 408.201C355.908 408.354 355.768 408.629 355.568 409.027C355.381 409.414 355.24 409.73 355.146 409.977C355.053 410.211 354.941 410.51 354.812 410.873C354.695 411.236 354.596 411.594 354.514 411.945C354.443 412.285 354.385 412.637 354.338 413H338.904C335.729 413 333.004 413.035 330.73 413.105C330.684 412.965 330.66 412.848 330.66 412.754C330.66 412.672 330.684 412.514 330.73 412.279C331.27 412.232 331.703 412.186 332.031 412.139C332.371 412.08 332.781 411.992 333.262 411.875C333.754 411.758 334.129 411.594 334.387 411.383C334.645 411.16 334.779 410.896 334.791 410.592C334.932 406.924 335.002 403.227 335.002 399.5C335.002 395.703 334.943 392.428 334.826 389.674C334.814 389.369 334.68 389.111 334.422 388.9C334.164 388.678 333.789 388.508 333.297 388.391C332.816 388.273 332.406 388.191 332.066 388.145C331.738 388.086 331.305 388.033 330.766 387.986C330.719 387.775 330.695 387.629 330.695 387.547C330.695 387.477 330.719 387.348 330.766 387.16ZM359.031 387.16C361.562 387.254 363.602 387.301 365.148 387.301C365.734 387.301 366.678 387.277 367.979 387.23C369.279 387.184 370.281 387.16 370.984 387.16C373.586 387.16 375.631 387.816 377.119 389.129C378.619 390.441 379.369 392.146 379.369 394.244C379.369 395.932 378.871 397.443 377.875 398.779C376.879 400.104 375.52 401.053 373.797 401.627C374.582 403.033 375.66 404.627 377.031 406.408C378.355 408.178 379.615 409.566 380.811 410.574C382.018 411.582 383.312 412.15 384.695 412.279C384.742 412.467 384.766 412.613 384.766 412.719C384.766 412.836 384.742 412.965 384.695 413.105C383.992 413.07 383.242 413.047 382.445 413.035C381.648 413.023 380.758 413.018 379.773 413.018C378.801 413.018 378.051 413.012 377.523 413C374.371 409.332 371.84 405.723 369.93 402.172C369.074 402.172 368.09 402.037 366.977 401.768C366.977 404.041 367.041 406.982 367.17 410.592C367.182 410.896 367.316 411.16 367.574 411.383C367.832 411.594 368.201 411.758 368.682 411.875C369.174 411.992 369.584 412.08 369.912 412.139C370.252 412.186 370.691 412.232 371.23 412.279C371.277 412.514 371.301 412.672 371.301 412.754C371.301 412.848 371.277 412.965 371.23 413.105C369.238 413.035 367.199 413 365.113 413C363.004 413 360.965 413.035 358.996 413.105C358.949 412.965 358.926 412.848 358.926 412.754C358.926 412.555 358.949 412.396 358.996 412.279C359.348 412.244 359.629 412.215 359.84 412.191C360.051 412.168 360.338 412.127 360.701 412.068C361.076 412.01 361.375 411.945 361.598 411.875C361.832 411.793 362.072 411.693 362.318 411.576C362.564 411.459 362.746 411.318 362.863 411.154C362.992 410.99 363.057 410.803 363.057 410.592C363.197 406.924 363.268 403.227 363.268 399.5C363.268 395.703 363.209 392.428 363.092 389.674C363.08 389.369 362.945 389.111 362.688 388.9C362.43 388.678 362.055 388.508 361.562 388.391C361.082 388.273 360.672 388.191 360.332 388.145C360.004 388.086 359.57 388.033 359.031 387.986C358.984 387.775 358.961 387.629 358.961 387.547C358.961 387.477 358.984 387.348 359.031 387.16ZM367.205 388.373H367.17C367.041 392.697 366.977 396.717 366.977 400.432C367.797 400.701 368.629 400.836 369.473 400.836C370.246 400.836 370.938 400.707 371.547 400.449C372.168 400.18 372.678 399.828 373.076 399.395C373.475 398.961 373.803 398.451 374.061 397.865C374.33 397.279 374.518 396.688 374.623 396.09C374.74 395.492 374.799 394.877 374.799 394.244C374.799 392.498 374.318 391.074 373.357 389.973C372.408 388.859 371.055 388.303 369.297 388.303C368.43 388.303 367.732 388.326 367.205 388.373Z" fill="black"/>
</svg>
