<svg width="306" height="306" viewBox="0 0 306 306" fill="none" xmlns="http://www.w3.org/2000/svg">
<circle cx="153" cy="153" r="153" fill="white"/>
<path d="M227.169 144.707C200.431 163.198 166.946 189.686 157.95 212.176C170.195 200.182 214.508 168.529 238.414 156.951L227.169 144.707Z" fill="#000039"/>
<path d="M167.196 208.428C174.992 196.433 215.924 174.943 243.911 164.947L250.658 179.191C206.878 186.588 176.775 201.431 167.196 208.428Z" fill="#000039"/>
<path d="M254.406 188.187C217.223 187.587 189.519 200.681 178.941 207.428C192.684 201.931 235.165 195.933 256.905 197.683L254.406 188.187Z" fill="#000039"/>
<path d="M257.905 210.427V203.93H228.168C208.427 203.93 191.102 208.928 184.188 211.426L257.905 210.427Z" fill="#000039"/>
<path d="M78.7361 144.707C105.474 163.198 138.959 189.686 147.955 212.176C135.71 200.182 91.397 168.529 67.4911 156.951L78.7361 144.707Z" fill="#000039"/>
<path d="M138.709 208.428C130.912 196.433 89.981 174.943 61.9937 164.947L55.2467 179.191C99.0269 186.588 129.13 201.431 138.709 208.428Z" fill="#000039"/>
<path d="M51.4984 188.187C88.6816 187.587 116.386 200.681 126.964 207.428C113.22 201.931 70.7397 195.933 48.9995 197.683L51.4984 188.187Z" fill="#000039"/>
<path d="M48 210.427V203.93H77.7365C97.4776 203.93 114.803 208.928 121.717 211.426L48 210.427Z" fill="#000039"/>
<path d="M140.458 215.924H49.9991C46.6006 218.523 48.5831 221.339 49.9991 222.421H136.71C143.457 235.665 161.449 237.415 169.195 222.421H256.406C258.655 220.672 258.405 217.424 256.406 215.924H165.197C158.7 233.167 144.956 228.169 140.458 215.924Z" fill="#000039"/>
<path d="M163.032 170.945L126.299 172.944L169.03 173.943V172.444C166.031 170.645 164.449 164.864 164.032 162.199C162.833 163.398 162.866 168.529 163.032 170.945Z" fill="#000039"/>
<path d="M165.531 157.951H142.042L141.042 159.45L165.531 160.45V157.951Z" fill="#000039"/>
<path d="M170.279 178.941H134.795L160.784 181.44C169.779 182.19 170.279 184.605 169.28 186.438L175.027 181.44L170.279 178.941Z" fill="#000039"/>
<path d="M202.015 144.707C202.015 147.467 199.777 149.704 197.017 149.704C194.257 149.704 192.019 147.467 192.019 144.707C192.019 141.946 194.257 139.709 197.017 139.709C199.777 139.709 202.015 141.946 202.015 144.707Z" fill="#000039"/>
<path d="M172.528 144.207H119.552C115.754 147.206 117.969 150.287 119.552 151.454H172.528C176.926 148.655 174.361 145.456 172.528 144.207Z" fill="#000039"/>
<path d="M174.777 138.21H153.787C127.549 135.211 109.307 83.4844 142.042 63.2435C140.443 55.647 147.373 50.5826 151.288 49V63.2435C155.619 65.2426 164.482 69.6906 165.281 71.4898C166.614 74.4885 177.026 83.4844 184.023 91.4808L183.023 103.225C170.779 110.222 167.53 101.976 166.031 99.9769C164.111 97.4168 164.032 96.6593 156.286 97.9778C146.89 99.5771 141.292 86.9828 141.292 81.2354C132.546 96.9783 154.536 109.473 166.031 117.219C173.278 123.216 174.86 133.295 174.777 138.21Z" fill="#000039"/>
<path d="M119.552 129.214H128.298C128.898 131.413 132.047 135.627 133.546 137.46H126.299C124.7 136.86 121.135 131.713 119.552 129.214Z" fill="#000039"/>
<path d="M119.552 108.973L111.056 106.474C109.857 104.475 109.89 98.8108 110.056 96.2286L119.052 100.477C118.253 103.076 119.052 107.224 119.552 108.973Z" fill="#000039"/>
<path d="M110.806 89.2318C110.007 87.0328 111.639 81.9851 112.555 79.7361L120.302 86.2331C118.903 88.6321 119.052 92.7302 119.302 94.4794L110.806 89.2318Z" fill="#000039"/>
<path d="M121.052 65.2427L115.304 73.7388L122.551 79.7361C122.951 77.3372 125.216 73.9054 126.299 72.4894L121.052 65.2427Z" fill="#000039"/>
<path d="M136.045 54.7474C134.445 54.7474 128.881 58.4124 126.299 60.2449L130.797 68.2413C131.597 65.2427 134.629 62.9937 136.045 62.244V54.7474Z" fill="#000039"/>
<path d="M124.8 123.216H115.554C113.755 121.617 112.472 115.886 112.056 113.221L121.801 114.97C122.001 118.169 123.884 121.8 124.8 123.216Z" fill="#000039"/>
</svg>
