<svg width="421" height="422" viewBox="0 0 421 422" fill="none" xmlns="http://www.w3.org/2000/svg">
<path d="M358.5 191.5C305 228.5 238 281.5 220 326.5C244.5 302.5 333.167 239.167 381 216L358.5 191.5Z" fill="#F3F3F3"/>
<path d="M238.5 319C254.1 295 336 252 392 232L405.5 260.5C317.9 275.3 257.667 305 238.5 319Z" fill="#F3F3F3"/>
<path d="M413 278.5C338.6 277.3 283.167 303.5 262 317C289.5 306 374.5 294 418 297.5L413 278.5Z" fill="#F3F3F3"/>
<path d="M420 323V310H360.5C321 310 286.333 320 272.5 325L420 323Z" fill="#F3F3F3"/>
<path d="M61.5 191.5C115 228.5 182 281.5 200 326.5C175.5 302.5 86.8333 239.167 39 216L61.5 191.5Z" fill="#F3F3F3"/>
<path d="M181.5 319C165.9 295 84 252 28 232L14.5 260.5C102.1 275.3 162.333 305 181.5 319Z" fill="#F3F3F3"/>
<path d="M7 278.5C81.4 277.3 136.833 303.5 158 317C130.5 306 45.5 294 2 297.5L7 278.5Z" fill="#F3F3F3"/>
<path d="M0 323V310H59.5C99 310 133.667 320 147.5 325L0 323Z" fill="#F3F3F3"/>
<path d="M185 334H3.99999C-2.80001 339.2 1.16666 344.833 3.99999 347H177.5C191 373.5 227 377 242.5 347H417C421.5 343.5 421 337 417 334H234.5C221.5 368.5 194 358.5 185 334Z" fill="#F3F3F3"/>
<path d="M230.169 244L156.669 248L242.169 250V247C236.169 243.4 233.002 231.833 232.169 226.5C229.769 228.9 229.836 239.167 230.169 244Z" fill="#F3F3F3"/>
<path d="M235.169 218H188.169L186.169 221L235.169 223V218Z" fill="#F3F3F3"/>
<path d="M244.669 260H173.669L225.669 265C243.669 266.5 244.669 271.333 242.669 275L254.169 265L244.669 260Z" fill="#F3F3F3"/>
<circle cx="298.169" cy="191.5" r="10" fill="#F3F3F3"/>
<path d="M249.169 190.5H143.169C135.569 196.5 140.002 202.667 143.169 205H249.169C257.969 199.4 252.836 193 249.169 190.5Z" fill="#F3F3F3"/>
<path d="M253.669 178.5H211.669C159.169 172.5 122.669 69 188.169 28.5C184.969 13.3 198.836 3.16667 206.669 0V28.5C215.336 32.5 233.069 41.4 234.669 45C237.336 51 258.169 69 272.169 85L270.169 108.5C245.669 122.5 239.169 106 236.169 102C232.327 96.8776 232.169 95.3617 216.669 98C197.869 101.2 186.669 76 186.669 64.5C169.169 96 213.169 121 236.169 136.5C250.669 148.5 253.836 168.667 253.669 178.5Z" fill="#F3F3F3"/>
<path d="M143.169 160.5H160.669C161.869 164.9 168.169 173.333 171.169 177H156.669C153.469 175.8 146.336 165.5 143.169 160.5Z" fill="#F3F3F3"/>
<path d="M143.169 120L126.169 115C123.769 111 123.836 99.6667 124.169 94.5L142.169 103C140.569 108.2 142.169 116.5 143.169 120Z" fill="#F3F3F3"/>
<path d="M125.669 80.5C124.069 76.1 127.336 66 129.169 61.5L144.669 74.5C141.869 79.3 142.169 87.5 142.669 91L125.669 80.5Z" fill="#F3F3F3"/>
<path d="M146.169 32.5L134.669 49.5L149.169 61.5C149.969 56.7 154.502 49.8333 156.669 47L146.169 32.5Z" fill="#F3F3F3"/>
<path d="M176.169 11.5C172.969 11.5 161.836 18.8333 156.669 22.5L165.669 38.5C167.269 32.5 173.336 28 176.169 26.5V11.5Z" fill="#F3F3F3"/>
<path d="M153.669 148.5H135.169C131.569 145.3 129.002 133.833 128.169 128.5L147.669 132C148.069 138.4 151.836 145.667 153.669 148.5Z" fill="#F3F3F3"/>
<path d="M51.6621 385.58C52.5879 385.58 53.5078 385.645 54.4219 385.773C55.3477 385.891 56.2324 386.037 57.0762 386.213C57.9316 386.377 58.7402 386.541 59.502 386.705C60.2637 386.869 60.9492 386.986 61.5586 387.057C61.418 387.479 61.3477 388.223 61.3477 389.289C61.3477 391.363 61.6582 393.162 62.2793 394.686C62.209 394.896 61.9922 395.025 61.6289 395.072L60.873 393.455C60.498 392.646 60.0469 391.85 59.5195 391.064C58.9922 390.268 58.3594 389.559 57.6211 388.938C56.8828 388.305 56.0215 387.795 55.0371 387.408C54.0645 387.021 52.9395 386.828 51.6621 386.828C50.5605 386.828 49.582 387.01 48.7266 387.373C47.8711 387.736 47.1211 388.229 46.4766 388.85C45.832 389.459 45.2871 390.174 44.8418 390.994C44.3965 391.803 44.0332 392.664 43.752 393.578C43.4824 394.492 43.2832 395.43 43.1543 396.391C43.0371 397.352 42.9785 398.283 42.9785 399.186C42.9785 400.686 43.1719 402.121 43.5586 403.492C43.957 404.863 44.5723 406.076 45.4043 407.131C46.2363 408.174 47.291 409.006 48.5684 409.627C49.8574 410.248 51.3926 410.559 53.1738 410.559C56.584 410.559 59.1621 409.492 60.9082 407.359C61.0957 407.359 61.248 407.412 61.3652 407.518C61.4941 407.623 61.5586 407.752 61.5586 407.904C60.9961 408.736 60.3105 409.457 59.502 410.066C58.7051 410.676 57.8555 411.18 56.9531 411.578C56.0508 411.965 55.1367 412.252 54.2109 412.439C53.2969 412.627 52.4473 412.721 51.6621 412.721C50.8066 412.721 49.8809 412.627 48.8848 412.439C47.9004 412.264 46.9102 411.965 45.9141 411.543C44.9297 411.121 43.9805 410.57 43.0664 409.891C42.1641 409.199 41.3613 408.355 40.6582 407.359C39.9551 406.352 39.3926 405.174 38.9707 403.826C38.5488 402.479 38.3379 400.932 38.3379 399.186C38.3379 397.428 38.5488 395.875 38.9707 394.527C39.3926 393.168 39.9551 391.984 40.6582 390.977C41.373 389.969 42.1875 389.125 43.1016 388.445C44.0273 387.754 44.9824 387.197 45.9668 386.775C46.9512 386.342 47.9355 386.037 48.9199 385.861C49.9043 385.674 50.8184 385.58 51.6621 385.58ZM64.6523 386.16C67.2773 386.254 69.3164 386.301 70.7695 386.301C72.2227 386.301 74.2617 386.254 76.8867 386.16C76.9336 386.348 76.957 386.477 76.957 386.547C76.957 386.629 76.9336 386.775 76.8867 386.986C76.3477 387.033 75.9082 387.086 75.5684 387.145C75.2402 387.191 74.8301 387.273 74.3379 387.391C73.8574 387.508 73.4883 387.678 73.2305 387.9C72.9727 388.111 72.8379 388.369 72.8262 388.674C72.6738 392.178 72.5977 395.441 72.5977 398.465C73.8984 398.512 75.8672 398.535 78.5039 398.535C80.6602 398.535 82.8223 398.5 84.9902 398.43C84.9434 394.07 84.8848 390.818 84.8145 388.674C84.8027 388.369 84.668 388.111 84.4102 387.9C84.1523 387.678 83.7773 387.508 83.2852 387.391C82.793 387.273 82.377 387.191 82.0371 387.145C81.709 387.086 81.2754 387.033 80.7363 386.986C80.6895 386.775 80.666 386.629 80.666 386.547C80.666 386.477 80.6895 386.348 80.7363 386.16C83.3848 386.254 85.4238 386.301 86.8535 386.301C88.2949 386.301 90.3398 386.254 92.9883 386.16C93.0352 386.348 93.0586 386.477 93.0586 386.547C93.0586 386.629 93.0352 386.775 92.9883 386.986C92.4492 387.033 92.0098 387.086 91.6699 387.145C91.3418 387.191 90.9316 387.273 90.4395 387.391C89.9473 387.508 89.5723 387.678 89.3145 387.9C89.0566 388.111 88.9219 388.369 88.9102 388.674C88.793 391.592 88.7344 395.084 88.7344 399.15C88.7344 403.193 88.793 406.674 88.9102 409.592C88.9219 409.896 89.0566 410.16 89.3145 410.383C89.5723 410.594 89.9473 410.758 90.4395 410.875C90.9316 410.992 91.3418 411.08 91.6699 411.139C92.0098 411.186 92.4492 411.232 92.9883 411.279C93.0352 411.467 93.0586 411.625 93.0586 411.754C93.0586 411.848 93.0352 411.965 92.9883 412.105C90.9961 412.035 88.9512 412 86.8535 412C84.7559 412 82.7168 412.035 80.7363 412.105C80.6895 411.965 80.666 411.848 80.666 411.754C80.666 411.555 80.6895 411.396 80.7363 411.279C81.2754 411.232 81.7148 411.186 82.0547 411.139C82.3945 411.08 82.8105 410.992 83.3027 410.875C83.7949 410.758 84.1699 410.594 84.4277 410.383C84.6855 410.16 84.8145 409.896 84.8145 409.592C84.9082 405.408 84.9668 402.238 84.9902 400.082C82.8223 400.012 80.6602 399.977 78.5039 399.977C77.168 399.977 75.1992 400 72.5977 400.047C72.5977 402.543 72.6621 405.725 72.791 409.592C72.8027 409.896 72.9375 410.16 73.1953 410.383C73.4531 410.594 73.8223 410.758 74.3027 410.875C74.7949 410.992 75.2051 411.08 75.5332 411.139C75.873 411.186 76.3125 411.232 76.8516 411.279C76.8984 411.514 76.9219 411.672 76.9219 411.754C76.9219 411.848 76.8984 411.965 76.8516 412.105C74.8594 412.035 72.8203 412 70.7344 412C68.625 412 66.5859 412.035 64.6172 412.105C64.5703 411.965 64.5469 411.848 64.5469 411.754C64.5469 411.555 64.5703 411.396 64.6172 411.279C65.1562 411.232 65.5898 411.186 65.918 411.139C66.2578 411.08 66.668 410.992 67.1484 410.875C67.6406 410.758 68.0156 410.594 68.2734 410.383C68.5312 410.16 68.666 409.896 68.6777 409.592C68.8184 405.924 68.8887 402.227 68.8887 398.5C68.8887 394.703 68.8301 391.428 68.7129 388.674C68.7012 388.369 68.5664 388.111 68.3086 387.9C68.0508 387.678 67.6758 387.508 67.1836 387.391C66.7031 387.273 66.293 387.191 65.9531 387.145C65.625 387.086 65.1914 387.033 64.6523 386.986C64.6055 386.775 64.582 386.629 64.582 386.547C64.582 386.43 64.6055 386.301 64.6523 386.16ZM95.6953 386.16C98.3203 386.254 100.371 386.301 101.848 386.301C111.902 386.242 117.469 386.195 118.547 386.16C118.699 387.332 118.998 388.445 119.443 389.5C119.889 390.543 120.457 391.656 121.148 392.84C121.055 393.039 120.85 393.197 120.533 393.314C120.111 392.518 119.602 391.809 119.004 391.188C118.406 390.566 117.65 389.98 116.736 389.43C115.834 388.879 114.703 388.428 113.344 388.076C111.996 387.725 110.455 387.49 108.721 387.373H103.869C103.717 392.33 103.641 396.062 103.641 398.57H108.65C108.99 398.57 109.307 398.547 109.6 398.5C109.904 398.441 110.186 398.348 110.443 398.219C110.701 398.078 110.93 397.949 111.129 397.832C111.34 397.703 111.551 397.516 111.762 397.27C111.973 397.012 112.148 396.801 112.289 396.637C112.43 396.461 112.6 396.197 112.799 395.846C112.998 395.494 113.15 395.219 113.256 395.02C113.361 394.82 113.52 394.51 113.73 394.088C113.953 393.666 114.123 393.35 114.24 393.139C114.604 393.279 114.826 393.432 114.908 393.596C114.416 394.463 114 395.424 113.66 396.479C113.32 397.533 113.15 398.412 113.15 399.115C113.15 400.779 113.736 402.613 114.908 404.617C114.814 404.805 114.592 404.963 114.24 405.092C114.111 404.857 113.93 404.523 113.695 404.09C113.473 403.645 113.297 403.305 113.168 403.07C113.039 402.836 112.863 402.537 112.641 402.174C112.418 401.811 112.219 401.529 112.043 401.33C111.879 401.131 111.662 400.908 111.393 400.662C111.135 400.416 110.877 400.234 110.619 400.117C110.361 399.988 110.062 399.883 109.723 399.801C109.395 399.707 109.037 399.66 108.65 399.66H103.641C103.641 401.523 103.705 405.279 103.834 410.928H109.441C111.176 410.811 112.717 410.576 114.064 410.225C115.424 409.873 116.555 409.422 117.457 408.871C118.371 408.32 119.127 407.734 119.725 407.113C120.322 406.492 120.832 405.783 121.254 404.986C121.57 405.104 121.775 405.256 121.869 405.443C121.811 405.561 121.658 405.842 121.412 406.287C121.166 406.732 121.002 407.037 120.92 407.201C120.838 407.354 120.697 407.629 120.498 408.027C120.311 408.414 120.17 408.73 120.076 408.977C119.982 409.211 119.871 409.51 119.742 409.873C119.625 410.236 119.525 410.594 119.443 410.945C119.373 411.285 119.314 411.637 119.268 412H103.834C100.658 412 97.9336 412.035 95.6602 412.105C95.6133 411.965 95.5898 411.848 95.5898 411.754C95.5898 411.672 95.6133 411.514 95.6602 411.279C96.1992 411.232 96.6328 411.186 96.9609 411.139C97.3008 411.08 97.7109 410.992 98.1914 410.875C98.6836 410.758 99.0586 410.594 99.3164 410.383C99.5742 410.16 99.709 409.896 99.7207 409.592C99.8613 405.924 99.9316 402.227 99.9316 398.5C99.9316 394.703 99.873 391.428 99.7559 388.674C99.7441 388.369 99.6094 388.111 99.3516 387.9C99.0938 387.678 98.7188 387.508 98.2266 387.391C97.7461 387.273 97.3359 387.191 96.9961 387.145C96.668 387.086 96.2344 387.033 95.6953 386.986C95.6484 386.775 95.625 386.629 95.625 386.547C95.625 386.477 95.6484 386.348 95.6953 386.16ZM140.871 393.596C140.426 391.451 139.605 389.787 138.41 388.604C137.227 387.42 135.803 386.828 134.139 386.828C132.51 386.828 131.244 387.215 130.342 387.988C129.451 388.762 129.006 389.793 129.006 391.082C129.006 391.797 129.07 392.389 129.199 392.857C129.328 393.326 129.592 393.783 129.99 394.229C130.389 394.662 130.969 395.049 131.73 395.389C132.492 395.717 133.488 396.033 134.719 396.338C135.387 396.502 135.967 396.654 136.459 396.795C136.963 396.936 137.514 397.129 138.111 397.375C138.721 397.621 139.242 397.885 139.676 398.166C140.121 398.447 140.561 398.799 140.994 399.221C141.439 399.631 141.797 400.088 142.066 400.592C142.348 401.096 142.57 401.693 142.734 402.385C142.91 403.064 142.998 403.809 142.998 404.617C142.998 405.695 142.799 406.691 142.4 407.605C142.002 408.508 141.48 409.27 140.836 409.891C140.191 410.512 139.447 411.039 138.604 411.473C137.76 411.906 136.904 412.223 136.037 412.422C135.17 412.621 134.309 412.721 133.453 412.721C130.852 412.721 128.08 412.047 125.139 410.699C125.197 409.434 125.227 408.654 125.227 408.361C125.227 406.451 125.068 404.547 124.752 402.648C124.881 402.566 125.01 402.525 125.139 402.525C125.303 402.525 125.449 402.566 125.578 402.648C125.824 404.16 126.229 405.496 126.791 406.656C127.365 407.816 128.021 408.736 128.76 409.416C129.498 410.084 130.26 410.588 131.045 410.928C131.842 411.256 132.645 411.42 133.453 411.42C135.293 411.42 136.705 410.945 137.689 409.996C138.686 409.035 139.184 407.77 139.184 406.199C139.184 404.617 138.814 403.428 138.076 402.631C137.35 401.822 135.955 401.166 133.893 400.662C131.314 400.018 129.299 399.068 127.846 397.814C126.404 396.549 125.684 394.879 125.684 392.805C125.684 391.715 125.859 390.742 126.211 389.887C126.574 389.02 127.037 388.328 127.6 387.812C128.174 387.285 128.842 386.852 129.604 386.512C130.365 386.16 131.115 385.92 131.854 385.791C132.604 385.65 133.365 385.58 134.139 385.58C136.459 385.58 138.873 386.119 141.381 387.197C141.311 387.889 141.275 388.609 141.275 389.359C141.275 391.117 141.416 392.529 141.697 393.596C141.545 393.654 141.416 393.684 141.311 393.684C141.193 393.684 141.047 393.654 140.871 393.596ZM163.441 393.596C162.996 391.451 162.176 389.787 160.98 388.604C159.797 387.42 158.373 386.828 156.709 386.828C155.08 386.828 153.814 387.215 152.912 387.988C152.021 388.762 151.576 389.793 151.576 391.082C151.576 391.797 151.641 392.389 151.77 392.857C151.898 393.326 152.162 393.783 152.561 394.229C152.959 394.662 153.539 395.049 154.301 395.389C155.062 395.717 156.059 396.033 157.289 396.338C157.957 396.502 158.537 396.654 159.029 396.795C159.533 396.936 160.084 397.129 160.682 397.375C161.291 397.621 161.812 397.885 162.246 398.166C162.691 398.447 163.131 398.799 163.564 399.221C164.01 399.631 164.367 400.088 164.637 400.592C164.918 401.096 165.141 401.693 165.305 402.385C165.48 403.064 165.568 403.809 165.568 404.617C165.568 405.695 165.369 406.691 164.971 407.605C164.572 408.508 164.051 409.27 163.406 409.891C162.762 410.512 162.018 411.039 161.174 411.473C160.33 411.906 159.475 412.223 158.607 412.422C157.74 412.621 156.879 412.721 156.023 412.721C153.422 412.721 150.65 412.047 147.709 410.699C147.768 409.434 147.797 408.654 147.797 408.361C147.797 406.451 147.639 404.547 147.322 402.648C147.451 402.566 147.58 402.525 147.709 402.525C147.873 402.525 148.02 402.566 148.148 402.648C148.395 404.16 148.799 405.496 149.361 406.656C149.936 407.816 150.592 408.736 151.33 409.416C152.068 410.084 152.83 410.588 153.615 410.928C154.412 411.256 155.215 411.42 156.023 411.42C157.863 411.42 159.275 410.945 160.26 409.996C161.256 409.035 161.754 407.77 161.754 406.199C161.754 404.617 161.385 403.428 160.646 402.631C159.92 401.822 158.525 401.166 156.463 400.662C153.885 400.018 151.869 399.068 150.416 397.814C148.975 396.549 148.254 394.879 148.254 392.805C148.254 391.715 148.43 390.742 148.781 389.887C149.145 389.02 149.607 388.328 150.17 387.812C150.744 387.285 151.412 386.852 152.174 386.512C152.936 386.16 153.686 385.92 154.424 385.791C155.174 385.65 155.936 385.58 156.709 385.58C159.029 385.58 161.443 386.119 163.951 387.197C163.881 387.889 163.846 388.609 163.846 389.359C163.846 391.117 163.986 392.529 164.268 393.596C164.115 393.654 163.986 393.684 163.881 393.684C163.764 393.684 163.617 393.654 163.441 393.596ZM178.805 386.16C181.008 386.254 183.779 386.301 187.119 386.301L193.922 404.723H194.01L201.094 386.301H203.115C204.568 386.301 206.619 386.254 209.268 386.16C209.314 386.348 209.338 386.477 209.338 386.547C209.338 386.629 209.314 386.775 209.268 386.986C208.846 387.021 208.506 387.057 208.248 387.092C207.99 387.127 207.645 387.186 207.211 387.268C206.789 387.35 206.449 387.449 206.191 387.566C205.934 387.672 205.705 387.824 205.506 388.023C205.307 388.211 205.201 388.428 205.189 388.674C205.072 391.428 205.014 394.703 205.014 398.5C205.014 402.355 205.09 406.053 205.242 409.592C205.254 409.896 205.389 410.16 205.646 410.383C205.904 410.594 206.273 410.758 206.754 410.875C207.246 410.992 207.656 411.08 207.984 411.139C208.324 411.186 208.764 411.232 209.303 411.279C209.35 411.467 209.373 411.625 209.373 411.754C209.373 411.848 209.35 411.965 209.303 412.105C207.322 412.035 205.283 412 203.186 412C201.076 412 199.037 412.035 197.068 412.105C197.021 411.965 196.998 411.848 196.998 411.754C196.998 411.555 197.021 411.396 197.068 411.279C197.607 411.232 198.041 411.186 198.369 411.139C198.709 411.08 199.119 410.992 199.6 410.875C200.092 410.758 200.467 410.594 200.725 410.383C200.982 410.16 201.117 409.896 201.129 409.592C201.246 405.936 201.305 402.672 201.305 399.801C201.305 397.047 201.246 393.912 201.129 390.396H200.988L192.955 411.561H192.779L184.219 389.975H184.025C183.932 392.822 183.885 396.098 183.885 399.801C183.885 402.52 183.943 405.695 184.061 409.328C184.084 410.395 185.379 411.045 187.945 411.279C188.004 411.479 188.033 411.637 188.033 411.754C188.033 411.871 188.004 411.988 187.945 412.105C186.082 412.035 184.418 412 182.953 412C182.016 412 180.445 412.035 178.242 412.105C178.184 411.988 178.154 411.871 178.154 411.754C178.154 411.555 178.184 411.396 178.242 411.279C180.832 411.033 182.127 410.383 182.127 409.328C182.268 405.672 182.338 402.062 182.338 398.5C182.338 395.934 182.303 393.209 182.232 390.326C182.221 389.834 182.191 389.424 182.145 389.096C182.098 388.756 182.01 388.463 181.881 388.217C181.752 387.971 181.617 387.777 181.477 387.637C181.336 387.496 181.119 387.373 180.826 387.268C180.533 387.15 180.246 387.068 179.965 387.021C179.695 386.963 179.309 386.898 178.805 386.828C178.758 386.734 178.734 386.629 178.734 386.512C178.734 386.371 178.758 386.254 178.805 386.16ZM224.561 385.896C224.736 385.768 224.924 385.686 225.123 385.65L234.738 409.662C234.855 409.955 235.049 410.207 235.318 410.418C235.588 410.617 235.922 410.775 236.32 410.893C236.73 410.998 237.082 411.08 237.375 411.139C237.68 411.186 238.049 411.232 238.482 411.279C238.529 411.467 238.553 411.625 238.553 411.754C238.553 411.895 238.529 412.023 238.482 412.141C235.951 412.047 234.059 412 232.805 412C231.445 412 229.477 412.047 226.898 412.141C226.852 412 226.828 411.859 226.828 411.719C226.828 411.566 226.852 411.42 226.898 411.279C229.266 411.021 230.449 410.576 230.449 409.943C230.449 409.744 230.426 409.539 230.379 409.328L227.83 402.789C227.057 402.766 226.014 402.754 224.701 402.754C224.08 402.754 222.469 402.777 219.867 402.824L217.178 409.662V409.873C217.178 409.99 217.195 410.102 217.23 410.207C217.277 410.312 217.348 410.406 217.441 410.488C217.547 410.57 217.646 410.641 217.74 410.699C217.834 410.758 217.963 410.816 218.127 410.875C218.303 410.922 218.449 410.963 218.566 410.998C218.695 411.021 218.865 411.051 219.076 411.086C219.299 411.121 219.469 411.15 219.586 411.174C219.703 411.186 219.873 411.203 220.096 411.227C220.33 411.25 220.494 411.268 220.588 411.279C220.635 411.467 220.658 411.625 220.658 411.754C220.658 411.824 220.635 411.953 220.588 412.141C217.963 412.047 216.486 412 216.158 412C215.525 412 213.896 412.047 211.271 412.141C211.225 412 211.201 411.859 211.201 411.719C211.201 411.566 211.225 411.42 211.271 411.279C213.709 410.998 215.098 410.4 215.438 409.486L222.996 390.432L222.609 389.395C223.277 388.949 223.74 388.469 223.998 387.953C224.268 387.438 224.455 386.752 224.561 385.896ZM224.701 401.383C225.779 401.383 226.629 401.371 227.25 401.348L223.91 392.699H223.84L220.482 401.312C221.584 401.359 222.99 401.383 224.701 401.383ZM240.645 386.16C242.566 386.254 244.992 386.301 247.922 386.301C256.207 396.684 260.66 402.215 261.281 402.895C261.902 403.562 262.213 403.896 262.213 403.896H262.354C262.4 401.646 262.424 399.836 262.424 398.465C262.424 395.758 262.365 392.576 262.248 388.92C262.225 387.865 260.924 387.221 258.346 386.986C258.299 386.729 258.275 386.57 258.275 386.512C258.275 386.418 258.299 386.301 258.346 386.16C260.232 386.23 261.902 386.266 263.355 386.266C264.293 386.266 265.863 386.23 268.066 386.16C268.113 386.301 268.137 386.418 268.137 386.512C268.137 386.699 268.113 386.857 268.066 386.986C265.5 387.221 264.205 387.865 264.182 388.92C264.041 392.588 263.971 396.203 263.971 399.766C263.971 405.215 264.029 409.316 264.146 412.07L263.83 412.105L246.357 390.607H246.182C246.111 393.643 246.076 396.707 246.076 399.801C246.076 402.52 246.135 405.695 246.252 409.328C246.275 410.395 247.57 411.045 250.137 411.279C250.195 411.479 250.225 411.637 250.225 411.754C250.225 411.871 250.195 411.988 250.137 412.105C248.273 412.035 246.609 412 245.145 412C244.207 412 242.637 412.035 240.434 412.105C240.375 411.988 240.346 411.871 240.346 411.754C240.346 411.555 240.375 411.396 240.434 411.279C243.023 411.033 244.318 410.383 244.318 409.328C244.459 405.672 244.529 402.062 244.529 398.5C244.529 394.633 244.482 391.275 244.389 388.428C243.404 387.572 242.156 387.092 240.645 386.986C240.574 386.834 240.539 386.699 240.539 386.582C240.539 386.406 240.574 386.266 240.645 386.16ZM283.131 385.896C283.307 385.768 283.494 385.686 283.693 385.65L293.309 409.662C293.426 409.955 293.619 410.207 293.889 410.418C294.158 410.617 294.492 410.775 294.891 410.893C295.301 410.998 295.652 411.08 295.945 411.139C296.25 411.186 296.619 411.232 297.053 411.279C297.1 411.467 297.123 411.625 297.123 411.754C297.123 411.895 297.1 412.023 297.053 412.141C294.521 412.047 292.629 412 291.375 412C290.016 412 288.047 412.047 285.469 412.141C285.422 412 285.398 411.859 285.398 411.719C285.398 411.566 285.422 411.42 285.469 411.279C287.836 411.021 289.02 410.576 289.02 409.943C289.02 409.744 288.996 409.539 288.949 409.328L286.4 402.789C285.627 402.766 284.584 402.754 283.271 402.754C282.65 402.754 281.039 402.777 278.438 402.824L275.748 409.662V409.873C275.748 409.99 275.766 410.102 275.801 410.207C275.848 410.312 275.918 410.406 276.012 410.488C276.117 410.57 276.217 410.641 276.311 410.699C276.404 410.758 276.533 410.816 276.697 410.875C276.873 410.922 277.02 410.963 277.137 410.998C277.266 411.021 277.436 411.051 277.646 411.086C277.869 411.121 278.039 411.15 278.156 411.174C278.273 411.186 278.443 411.203 278.666 411.227C278.9 411.25 279.064 411.268 279.158 411.279C279.205 411.467 279.229 411.625 279.229 411.754C279.229 411.824 279.205 411.953 279.158 412.141C276.533 412.047 275.057 412 274.729 412C274.096 412 272.467 412.047 269.842 412.141C269.795 412 269.771 411.859 269.771 411.719C269.771 411.566 269.795 411.42 269.842 411.279C272.279 410.998 273.668 410.4 274.008 409.486L281.566 390.432L281.18 389.395C281.848 388.949 282.311 388.469 282.568 387.953C282.838 387.438 283.025 386.752 283.131 385.896ZM283.271 401.383C284.35 401.383 285.199 401.371 285.82 401.348L282.48 392.699H282.41L279.053 401.312C280.154 401.359 281.561 401.383 283.271 401.383ZM323.807 394.141C323.432 393.309 323.062 392.582 322.699 391.961C322.336 391.328 321.861 390.672 321.275 389.992C320.689 389.312 320.062 388.756 319.395 388.322C318.727 387.889 317.906 387.531 316.934 387.25C315.961 386.969 314.889 386.828 313.717 386.828C312.451 386.828 311.303 387.086 310.271 387.602C309.24 388.117 308.391 388.791 307.723 389.623C307.066 390.455 306.51 391.422 306.053 392.523C305.607 393.613 305.291 394.715 305.104 395.828C304.916 396.93 304.822 398.049 304.822 399.186C304.822 400.311 304.922 401.43 305.121 402.543C305.32 403.645 305.648 404.74 306.105 405.83C306.574 406.92 307.148 407.875 307.828 408.695C308.508 409.516 309.363 410.184 310.395 410.699C311.438 411.203 312.592 411.455 313.857 411.455C316.436 411.455 318.229 410.881 319.236 409.732V402.596C319.236 402.35 319.137 402.133 318.938 401.945C318.738 401.746 318.51 401.594 318.252 401.488C317.994 401.383 317.648 401.289 317.215 401.207C316.793 401.113 316.447 401.049 316.178 401.014C315.908 400.979 315.568 400.943 315.158 400.908C315.111 400.721 315.088 400.58 315.088 400.486C315.088 400.404 315.111 400.27 315.158 400.082C317.807 400.176 319.846 400.223 321.275 400.223C322.729 400.223 324.768 400.176 327.393 400.082C327.451 400.316 327.48 400.451 327.48 400.486C327.48 400.533 327.451 400.674 327.393 400.908C326.982 400.943 326.643 400.979 326.373 401.014C326.104 401.049 325.752 401.113 325.318 401.207C324.896 401.289 324.557 401.383 324.299 401.488C324.053 401.594 323.83 401.746 323.631 401.945C323.432 402.133 323.332 402.35 323.332 402.596V405.197C323.332 407.424 323.596 409.246 324.123 410.664C322.189 411.379 320.473 411.9 318.973 412.229C317.473 412.557 315.768 412.721 313.857 412.721C312.721 412.721 311.578 412.604 310.43 412.369C309.281 412.135 308.074 411.695 306.809 411.051C305.555 410.406 304.447 409.598 303.486 408.625C302.537 407.652 301.746 406.352 301.113 404.723C300.492 403.094 300.182 401.248 300.182 399.186C300.182 397.697 300.34 396.32 300.656 395.055C300.984 393.777 301.418 392.682 301.957 391.768C302.496 390.854 303.135 390.033 303.873 389.307C304.623 388.58 305.402 387.988 306.211 387.531C307.02 387.074 307.869 386.699 308.76 386.406C309.662 386.102 310.518 385.891 311.326 385.773C312.135 385.645 312.932 385.58 313.717 385.58C315.029 385.58 316.277 385.662 317.461 385.826C318.656 385.979 319.846 386.172 321.029 386.406C322.213 386.629 323.15 386.781 323.842 386.863C323.666 387.391 323.578 388.135 323.578 389.096C323.578 390.689 323.865 392.242 324.439 393.754C324.369 393.965 324.158 394.094 323.807 394.141ZM329.766 386.16C332.391 386.254 334.441 386.301 335.918 386.301C345.973 386.242 351.539 386.195 352.617 386.16C352.77 387.332 353.068 388.445 353.514 389.5C353.959 390.543 354.527 391.656 355.219 392.84C355.125 393.039 354.92 393.197 354.604 393.314C354.182 392.518 353.672 391.809 353.074 391.188C352.477 390.566 351.721 389.98 350.807 389.43C349.904 388.879 348.773 388.428 347.414 388.076C346.066 387.725 344.525 387.49 342.791 387.373H337.939C337.787 392.33 337.711 396.062 337.711 398.57H342.721C343.061 398.57 343.377 398.547 343.67 398.5C343.975 398.441 344.256 398.348 344.514 398.219C344.771 398.078 345 397.949 345.199 397.832C345.41 397.703 345.621 397.516 345.832 397.27C346.043 397.012 346.219 396.801 346.359 396.637C346.5 396.461 346.67 396.197 346.869 395.846C347.068 395.494 347.221 395.219 347.326 395.02C347.432 394.82 347.59 394.51 347.801 394.088C348.023 393.666 348.193 393.35 348.311 393.139C348.674 393.279 348.896 393.432 348.979 393.596C348.486 394.463 348.07 395.424 347.73 396.479C347.391 397.533 347.221 398.412 347.221 399.115C347.221 400.779 347.807 402.613 348.979 404.617C348.885 404.805 348.662 404.963 348.311 405.092C348.182 404.857 348 404.523 347.766 404.09C347.543 403.645 347.367 403.305 347.238 403.07C347.109 402.836 346.934 402.537 346.711 402.174C346.488 401.811 346.289 401.529 346.113 401.33C345.949 401.131 345.732 400.908 345.463 400.662C345.205 400.416 344.947 400.234 344.689 400.117C344.432 399.988 344.133 399.883 343.793 399.801C343.465 399.707 343.107 399.66 342.721 399.66H337.711C337.711 401.523 337.775 405.279 337.904 410.928H343.512C345.246 410.811 346.787 410.576 348.135 410.225C349.494 409.873 350.625 409.422 351.527 408.871C352.441 408.32 353.197 407.734 353.795 407.113C354.393 406.492 354.902 405.783 355.324 404.986C355.641 405.104 355.846 405.256 355.939 405.443C355.881 405.561 355.729 405.842 355.482 406.287C355.236 406.732 355.072 407.037 354.99 407.201C354.908 407.354 354.768 407.629 354.568 408.027C354.381 408.414 354.24 408.73 354.146 408.977C354.053 409.211 353.941 409.51 353.812 409.873C353.695 410.236 353.596 410.594 353.514 410.945C353.443 411.285 353.385 411.637 353.338 412H337.904C334.729 412 332.004 412.035 329.73 412.105C329.684 411.965 329.66 411.848 329.66 411.754C329.66 411.672 329.684 411.514 329.73 411.279C330.27 411.232 330.703 411.186 331.031 411.139C331.371 411.08 331.781 410.992 332.262 410.875C332.754 410.758 333.129 410.594 333.387 410.383C333.645 410.16 333.779 409.896 333.791 409.592C333.932 405.924 334.002 402.227 334.002 398.5C334.002 394.703 333.943 391.428 333.826 388.674C333.814 388.369 333.68 388.111 333.422 387.9C333.164 387.678 332.789 387.508 332.297 387.391C331.816 387.273 331.406 387.191 331.066 387.145C330.738 387.086 330.305 387.033 329.766 386.986C329.719 386.775 329.695 386.629 329.695 386.547C329.695 386.477 329.719 386.348 329.766 386.16ZM358.031 386.16C360.562 386.254 362.602 386.301 364.148 386.301C364.734 386.301 365.678 386.277 366.979 386.23C368.279 386.184 369.281 386.16 369.984 386.16C372.586 386.16 374.631 386.816 376.119 388.129C377.619 389.441 378.369 391.146 378.369 393.244C378.369 394.932 377.871 396.443 376.875 397.779C375.879 399.104 374.52 400.053 372.797 400.627C373.582 402.033 374.66 403.627 376.031 405.408C377.355 407.178 378.615 408.566 379.811 409.574C381.018 410.582 382.312 411.15 383.695 411.279C383.742 411.467 383.766 411.613 383.766 411.719C383.766 411.836 383.742 411.965 383.695 412.105C382.992 412.07 382.242 412.047 381.445 412.035C380.648 412.023 379.758 412.018 378.773 412.018C377.801 412.018 377.051 412.012 376.523 412C373.371 408.332 370.84 404.723 368.93 401.172C368.074 401.172 367.09 401.037 365.977 400.768C365.977 403.041 366.041 405.982 366.17 409.592C366.182 409.896 366.316 410.16 366.574 410.383C366.832 410.594 367.201 410.758 367.682 410.875C368.174 410.992 368.584 411.08 368.912 411.139C369.252 411.186 369.691 411.232 370.23 411.279C370.277 411.514 370.301 411.672 370.301 411.754C370.301 411.848 370.277 411.965 370.23 412.105C368.238 412.035 366.199 412 364.113 412C362.004 412 359.965 412.035 357.996 412.105C357.949 411.965 357.926 411.848 357.926 411.754C357.926 411.555 357.949 411.396 357.996 411.279C358.348 411.244 358.629 411.215 358.84 411.191C359.051 411.168 359.338 411.127 359.701 411.068C360.076 411.01 360.375 410.945 360.598 410.875C360.832 410.793 361.072 410.693 361.318 410.576C361.564 410.459 361.746 410.318 361.863 410.154C361.992 409.99 362.057 409.803 362.057 409.592C362.197 405.924 362.268 402.227 362.268 398.5C362.268 394.703 362.209 391.428 362.092 388.674C362.08 388.369 361.945 388.111 361.688 387.9C361.43 387.678 361.055 387.508 360.562 387.391C360.082 387.273 359.672 387.191 359.332 387.145C359.004 387.086 358.57 387.033 358.031 386.986C357.984 386.775 357.961 386.629 357.961 386.547C357.961 386.477 357.984 386.348 358.031 386.16ZM366.205 387.373H366.17C366.041 391.697 365.977 395.717 365.977 399.432C366.797 399.701 367.629 399.836 368.473 399.836C369.246 399.836 369.938 399.707 370.547 399.449C371.168 399.18 371.678 398.828 372.076 398.395C372.475 397.961 372.803 397.451 373.061 396.865C373.33 396.279 373.518 395.688 373.623 395.09C373.74 394.492 373.799 393.877 373.799 393.244C373.799 391.498 373.318 390.074 372.357 388.973C371.408 387.859 370.055 387.303 368.297 387.303C367.43 387.303 366.732 387.326 366.205 387.373Z" fill="white"/>
</svg>
