<svg width="210" height="207" viewBox="0 0 210 207" fill="none" xmlns="http://www.w3.org/2000/svg">
<path d="M179.169 95.7067C152.431 114.198 118.946 140.686 109.95 163.176C122.195 151.182 166.508 119.529 190.414 107.951L179.169 95.7067Z" fill="#000039"/>
<path d="M119.196 159.428C126.992 147.433 167.924 125.943 195.911 115.948L202.658 130.191C158.878 137.588 128.775 152.431 119.196 159.428Z" fill="#000039"/>
<path d="M206.406 139.187C169.223 138.587 141.519 151.681 130.941 158.428C144.684 152.931 187.165 146.933 208.905 148.683L206.406 139.187Z" fill="#000039"/>
<path d="M209.905 161.427V154.93H180.168C160.427 154.93 143.102 159.928 136.188 162.426L209.905 161.427Z" fill="#000039"/>
<path d="M30.7361 95.7067C57.474 114.198 90.9588 140.686 99.9548 163.176C87.7103 151.182 43.397 119.529 19.4912 107.951L30.7361 95.7067Z" fill="#000039"/>
<path d="M90.7089 159.428C82.9124 147.433 41.981 125.943 13.9937 115.948L7.24672 130.191C51.0269 137.588 81.1299 152.431 90.7089 159.428Z" fill="#000039"/>
<path d="M3.49842 139.187C40.6816 138.587 68.3857 151.681 78.9642 158.428C65.2205 152.931 22.7397 146.933 0.999547 148.683L3.49842 139.187Z" fill="#000039"/>
<path d="M0 161.427V154.93H29.7365C49.4776 154.93 66.8031 159.928 73.7166 162.426L0 161.427Z" fill="#000039"/>
<path d="M92.4582 166.924H1.99915C-1.39931 169.523 0.583121 172.339 1.99915 173.421H88.7099C95.4568 186.665 113.449 188.415 121.195 173.421H208.406C210.655 171.672 210.405 168.424 208.406 166.924H117.197C110.7 184.167 96.9561 179.169 92.4582 166.924Z" fill="#000039"/>
<path d="M115.032 121.945L78.2991 123.944L121.03 124.943V123.444C118.031 121.645 116.448 115.864 116.032 113.199C114.833 114.398 114.866 119.529 115.032 121.945Z" fill="#000039"/>
<path d="M117.531 108.951H94.0419L93.0424 110.45L117.531 111.45V108.951Z" fill="#000039"/>
<path d="M122.279 129.941H86.7953L112.784 132.44C121.779 133.19 122.279 135.605 121.28 137.438L127.027 132.44L122.279 129.941Z" fill="#000039"/>
<path d="M154.015 95.7066C154.015 98.4668 151.777 100.704 149.017 100.704C146.257 100.704 144.019 98.4668 144.019 95.7066C144.019 92.9464 146.257 90.7089 149.017 90.7089C151.777 90.7089 154.015 92.9464 154.015 95.7066Z" fill="#000039"/>
<path d="M124.528 95.2069H71.5521C67.7538 98.2056 69.9694 101.287 71.5521 102.454H124.528C128.926 99.6549 126.361 96.4563 124.528 95.2069Z" fill="#000039"/>
<path d="M126.777 89.2096H105.787C79.5485 86.2109 61.3068 34.4844 94.0419 14.2435C92.4427 6.64699 99.3728 1.58262 103.288 0V14.2435C107.619 16.2426 116.482 20.6906 117.281 22.4898C118.614 25.4885 129.026 34.4844 136.023 42.4808L135.023 54.2254C122.779 61.2223 119.53 52.976 118.031 50.9769C116.111 48.4168 116.032 47.6593 108.285 48.9778C98.8897 50.5771 93.2923 37.9828 93.2923 32.2354C84.5462 47.9783 106.536 60.4726 118.031 68.2191C125.278 74.2164 126.86 84.2952 126.777 89.2096Z" fill="#000039"/>
<path d="M71.5522 80.2136H80.2983C80.898 82.4126 84.0466 86.6274 85.5459 88.4599H78.2992C76.6999 87.8602 73.1349 82.7125 71.5522 80.2136Z" fill="#000039"/>
<path d="M71.5521 59.9729L63.056 57.474C61.8565 55.4749 61.8898 49.8108 62.0564 47.2286L71.0524 51.4767C70.2527 54.0755 71.0524 58.2237 71.5521 59.9729Z" fill="#000039"/>
<path d="M62.8062 40.2318C62.0066 38.0328 63.6391 32.9851 64.5554 30.7361L72.3019 37.2332C70.9025 39.6321 71.0525 43.7302 71.3023 45.4794L62.8062 40.2318Z" fill="#000039"/>
<path d="M73.0515 16.2427L67.3042 24.7388L74.5509 30.7361C74.9507 28.3372 77.2163 24.9054 78.2992 23.4894L73.0515 16.2427Z" fill="#000039"/>
<path d="M88.0448 5.74744C86.4455 5.74744 80.8813 9.41244 78.2992 11.2449L82.7971 19.2413C83.5968 16.2427 86.6287 13.9937 88.0448 13.244V5.74744Z" fill="#000039"/>
<path d="M76.7998 74.2164H67.554C65.7548 72.6171 64.472 66.8864 64.0555 64.2209L73.8011 65.9702C74.001 69.1687 75.8835 72.8004 76.7998 74.2164Z" fill="#000039"/>
<path d="M178.935 192.993C180.2 193.04 181.219 193.063 181.992 193.063C182.285 193.063 182.756 193.051 183.406 193.028C184.056 193.004 184.557 192.993 184.908 192.993C186.209 192.993 187.231 193.321 187.974 193.977C188.724 194.633 189.099 195.485 189.099 196.533C189.099 197.376 188.85 198.132 188.352 198.8C187.854 199.461 187.175 199.936 186.314 200.223C186.706 200.926 187.245 201.722 187.93 202.612C188.592 203.497 189.222 204.191 189.819 204.694C190.423 205.198 191.07 205.482 191.761 205.547C191.784 205.64 191.796 205.713 191.796 205.766C191.796 205.825 191.784 205.889 191.761 205.959C191.409 205.942 191.035 205.93 190.636 205.924C190.238 205.918 189.793 205.916 189.301 205.916C188.815 205.916 188.44 205.913 188.176 205.907C186.601 204.074 185.336 202.27 184.381 200.495C183.954 200.495 183.462 200.428 182.905 200.293C182.905 201.429 182.938 202.899 183.002 204.703C183.008 204.855 183.075 204.987 183.204 205.099C183.333 205.204 183.517 205.286 183.758 205.345C184.004 205.403 184.209 205.447 184.373 205.476C184.542 205.5 184.762 205.523 185.031 205.547C185.055 205.664 185.067 205.743 185.067 205.784C185.067 205.831 185.055 205.889 185.031 205.959C184.036 205.924 183.017 205.907 181.974 205.907C180.92 205.907 179.901 205.924 178.917 205.959C178.894 205.889 178.882 205.831 178.882 205.784C178.882 205.684 178.894 205.605 178.917 205.547C179.093 205.529 179.233 205.514 179.339 205.503C179.444 205.491 179.588 205.47 179.769 205.441C179.957 205.412 180.106 205.38 180.217 205.345C180.334 205.304 180.454 205.254 180.577 205.195C180.7 205.137 180.791 205.066 180.85 204.984C180.914 204.902 180.946 204.809 180.946 204.703C181.017 202.87 181.052 201.022 181.052 199.16C181.052 197.262 181.022 195.625 180.964 194.249C180.958 194.097 180.891 193.968 180.762 193.862C180.633 193.751 180.446 193.666 180.2 193.608C179.959 193.549 179.754 193.508 179.585 193.485C179.421 193.455 179.204 193.429 178.935 193.406C178.911 193.3 178.899 193.227 178.899 193.186C178.899 193.151 178.911 193.086 178.935 192.993ZM183.02 193.599H183.002C182.938 195.76 182.905 197.769 182.905 199.625C183.315 199.76 183.731 199.827 184.153 199.827C184.539 199.827 184.885 199.763 185.19 199.634C185.5 199.499 185.755 199.324 185.954 199.107C186.153 198.89 186.317 198.636 186.446 198.343C186.58 198.05 186.674 197.754 186.727 197.455C186.785 197.157 186.815 196.849 186.815 196.533C186.815 195.66 186.575 194.949 186.094 194.398C185.62 193.842 184.944 193.564 184.065 193.564C183.632 193.564 183.283 193.575 183.02 193.599Z" fill="#000039"/>
<path d="M164.808 192.993C166.12 193.04 167.145 193.063 167.883 193.063C172.908 193.034 175.69 193.01 176.229 192.993C176.305 193.578 176.454 194.135 176.677 194.662C176.899 195.183 177.183 195.739 177.529 196.331C177.482 196.431 177.38 196.51 177.222 196.568C177.011 196.17 176.756 195.816 176.457 195.505C176.159 195.195 175.781 194.902 175.324 194.627C174.873 194.351 174.308 194.126 173.628 193.95C172.955 193.775 172.185 193.657 171.318 193.599H168.893C168.817 196.076 168.779 197.942 168.779 199.195H171.283C171.453 199.195 171.611 199.183 171.757 199.16C171.909 199.131 172.05 199.084 172.179 199.019C172.308 198.949 172.422 198.885 172.522 198.826C172.627 198.762 172.732 198.668 172.838 198.545C172.943 198.416 173.031 198.311 173.101 198.229C173.172 198.141 173.257 198.009 173.356 197.833C173.456 197.658 173.532 197.52 173.585 197.42C173.637 197.321 173.716 197.166 173.822 196.955C173.933 196.744 174.018 196.586 174.076 196.48C174.258 196.551 174.369 196.627 174.41 196.709C174.164 197.142 173.956 197.622 173.787 198.15C173.617 198.677 173.532 199.116 173.532 199.467C173.532 200.299 173.825 201.216 174.41 202.217C174.363 202.311 174.252 202.39 174.076 202.454C174.012 202.337 173.921 202.17 173.804 201.953C173.693 201.731 173.605 201.561 173.541 201.444C173.476 201.327 173.388 201.177 173.277 200.996C173.166 200.814 173.066 200.674 172.978 200.574C172.896 200.475 172.788 200.363 172.653 200.24C172.524 200.117 172.396 200.027 172.267 199.968C172.138 199.904 171.989 199.851 171.819 199.81C171.655 199.763 171.476 199.74 171.283 199.74H168.779C168.779 200.671 168.811 202.548 168.876 205.371H171.678C172.545 205.312 173.315 205.195 173.989 205.019C174.668 204.844 175.233 204.618 175.684 204.343C176.141 204.068 176.519 203.775 176.817 203.464C177.116 203.154 177.371 202.8 177.582 202.401C177.74 202.46 177.842 202.536 177.889 202.63C177.86 202.688 177.784 202.829 177.661 203.052C177.538 203.274 177.456 203.426 177.415 203.508C177.374 203.585 177.304 203.722 177.204 203.921C177.11 204.115 177.04 204.273 176.993 204.396C176.946 204.513 176.891 204.662 176.826 204.844C176.768 205.025 176.718 205.204 176.677 205.38C176.642 205.549 176.612 205.725 176.589 205.907H168.876C167.289 205.907 165.927 205.924 164.791 205.959C164.767 205.889 164.755 205.831 164.755 205.784C164.755 205.743 164.767 205.664 164.791 205.547C165.06 205.523 165.277 205.5 165.441 205.476C165.611 205.447 165.816 205.403 166.056 205.345C166.302 205.286 166.489 205.204 166.618 205.099C166.747 204.987 166.814 204.855 166.82 204.703C166.89 202.87 166.925 201.022 166.925 199.16C166.925 197.262 166.896 195.625 166.838 194.249C166.832 194.097 166.764 193.968 166.636 193.862C166.507 193.751 166.319 193.666 166.073 193.608C165.833 193.549 165.628 193.508 165.458 193.485C165.294 193.455 165.078 193.429 164.808 193.406C164.785 193.3 164.773 193.227 164.773 193.186C164.773 193.151 164.785 193.086 164.808 192.993Z" fill="#000039"/>
<path d="M161.83 196.981C161.643 196.565 161.458 196.202 161.277 195.892C161.095 195.575 160.858 195.248 160.565 194.908C160.272 194.568 159.959 194.29 159.625 194.073C159.291 193.857 158.881 193.678 158.395 193.537C157.909 193.397 157.373 193.326 156.787 193.326C156.155 193.326 155.581 193.455 155.065 193.713C154.55 193.971 154.125 194.308 153.792 194.723C153.464 195.139 153.185 195.622 152.957 196.173C152.734 196.718 152.576 197.268 152.483 197.824C152.389 198.375 152.342 198.934 152.342 199.502C152.342 200.065 152.392 200.624 152.491 201.18C152.591 201.731 152.755 202.278 152.983 202.823C153.218 203.368 153.505 203.845 153.844 204.255C154.184 204.665 154.612 204.999 155.127 205.257C155.648 205.508 156.225 205.634 156.858 205.634C158.146 205.634 159.042 205.347 159.546 204.773V201.207C159.546 201.084 159.496 200.975 159.397 200.882C159.297 200.782 159.183 200.706 159.054 200.653C158.925 200.601 158.752 200.554 158.536 200.513C158.325 200.466 158.152 200.434 158.017 200.416C157.883 200.398 157.713 200.381 157.508 200.363C157.484 200.27 157.473 200.199 157.473 200.153C157.473 200.112 157.484 200.044 157.508 199.95C158.831 199.997 159.85 200.021 160.565 200.021C161.291 200.021 162.31 199.997 163.622 199.95C163.651 200.068 163.666 200.135 163.666 200.153C163.666 200.176 163.651 200.246 163.622 200.363C163.417 200.381 163.247 200.398 163.113 200.416C162.978 200.434 162.802 200.466 162.585 200.513C162.375 200.554 162.205 200.601 162.076 200.653C161.953 200.706 161.842 200.782 161.742 200.882C161.643 200.975 161.593 201.084 161.593 201.207V202.507C161.593 203.62 161.725 204.53 161.988 205.239C161.022 205.596 160.164 205.857 159.414 206.021C158.664 206.185 157.812 206.267 156.858 206.267C156.29 206.267 155.718 206.208 155.145 206.091C154.571 205.974 153.967 205.754 153.335 205.432C152.708 205.11 152.155 204.706 151.674 204.22C151.2 203.734 150.805 203.084 150.488 202.27C150.178 201.456 150.023 200.533 150.023 199.502C150.023 198.759 150.102 198.07 150.26 197.438C150.424 196.8 150.641 196.252 150.91 195.795C151.18 195.338 151.499 194.928 151.868 194.565C152.243 194.202 152.632 193.906 153.036 193.678C153.44 193.449 153.865 193.262 154.31 193.116C154.761 192.963 155.188 192.858 155.593 192.799C155.997 192.735 156.395 192.703 156.787 192.703C157.443 192.703 158.067 192.744 158.659 192.826C159.256 192.902 159.85 192.999 160.442 193.116C161.033 193.227 161.502 193.303 161.848 193.344C161.76 193.608 161.716 193.98 161.716 194.46C161.716 195.256 161.859 196.032 162.146 196.788C162.111 196.893 162.006 196.958 161.83 196.981Z" fill="#000039"/>
<path d="M141.501 192.861C141.589 192.796 141.683 192.755 141.782 192.738L146.588 204.738C146.647 204.885 146.743 205.011 146.878 205.116C147.013 205.216 147.179 205.295 147.379 205.353C147.584 205.406 147.759 205.447 147.906 205.476C148.058 205.5 148.242 205.523 148.459 205.547C148.483 205.64 148.494 205.719 148.494 205.784C148.494 205.854 148.483 205.918 148.459 205.977C147.194 205.93 146.248 205.907 145.622 205.907C144.942 205.907 143.958 205.93 142.67 205.977C142.646 205.907 142.635 205.836 142.635 205.766C142.635 205.69 142.646 205.617 142.67 205.547C143.853 205.418 144.444 205.195 144.444 204.879C144.444 204.779 144.433 204.677 144.409 204.571L143.135 201.303C142.749 201.292 142.228 201.286 141.572 201.286C141.261 201.286 140.456 201.298 139.156 201.321L137.812 204.738V204.844C137.812 204.902 137.82 204.958 137.838 205.011C137.861 205.063 137.897 205.11 137.943 205.151C137.996 205.192 138.046 205.227 138.093 205.257C138.14 205.286 138.204 205.315 138.286 205.345C138.374 205.368 138.447 205.388 138.506 205.406C138.57 205.418 138.655 205.432 138.76 205.45C138.872 205.468 138.957 205.482 139.015 205.494C139.074 205.5 139.159 205.508 139.27 205.52C139.387 205.532 139.469 205.541 139.516 205.547C139.539 205.64 139.551 205.719 139.551 205.784C139.551 205.819 139.539 205.883 139.516 205.977C138.204 205.93 137.466 205.907 137.302 205.907C136.986 205.907 136.172 205.93 134.86 205.977C134.836 205.907 134.825 205.836 134.825 205.766C134.825 205.69 134.836 205.617 134.86 205.547C136.078 205.406 136.772 205.107 136.942 204.65L140.719 195.127L140.526 194.609C140.86 194.387 141.091 194.146 141.22 193.889C141.355 193.631 141.449 193.288 141.501 192.861ZM141.572 200.601C142.11 200.601 142.535 200.595 142.845 200.583L141.176 196.261H141.141L139.463 200.565C140.014 200.589 140.717 200.601 141.572 200.601Z" fill="#000039"/>
<path d="M120.268 192.993C121.228 193.04 122.441 193.063 123.905 193.063C128.045 198.252 130.271 201.016 130.581 201.356C130.892 201.69 131.047 201.857 131.047 201.857H131.117C131.141 200.732 131.152 199.827 131.152 199.142C131.152 197.789 131.123 196.199 131.065 194.372C131.053 193.845 130.403 193.523 129.114 193.406C129.091 193.277 129.079 193.198 129.079 193.168C129.079 193.122 129.091 193.063 129.114 192.993C130.057 193.028 130.892 193.045 131.618 193.045C132.087 193.045 132.871 193.028 133.972 192.993C133.996 193.063 134.008 193.122 134.008 193.168C134.008 193.262 133.996 193.341 133.972 193.406C132.69 193.523 132.043 193.845 132.031 194.372C131.961 196.205 131.926 198.012 131.926 199.792C131.926 202.516 131.955 204.566 132.013 205.942L131.855 205.959L123.123 195.215H123.035C123 196.732 122.982 198.264 122.982 199.81C122.982 201.169 123.012 202.756 123.07 204.571C123.082 205.104 123.729 205.429 125.012 205.547C125.041 205.646 125.056 205.725 125.056 205.784C125.056 205.842 125.041 205.901 125.012 205.959C124.08 205.924 123.249 205.907 122.517 205.907C122.048 205.907 121.263 205.924 120.162 205.959C120.133 205.901 120.118 205.842 120.118 205.784C120.118 205.684 120.133 205.605 120.162 205.547C121.457 205.424 122.104 205.099 122.104 204.571C122.174 202.744 122.209 200.94 122.209 199.16C122.209 197.227 122.186 195.549 122.139 194.126C121.647 193.698 121.023 193.458 120.268 193.406C120.233 193.329 120.215 193.262 120.215 193.204C120.215 193.116 120.233 193.045 120.268 192.993Z" fill="#000039"/>
<path d="M112.229 192.861C112.317 192.796 112.411 192.755 112.511 192.738L117.316 204.738C117.375 204.885 117.471 205.011 117.606 205.116C117.741 205.216 117.907 205.295 118.107 205.353C118.312 205.406 118.487 205.447 118.634 205.476C118.786 205.5 118.97 205.523 119.187 205.547C119.211 205.64 119.222 205.719 119.222 205.784C119.222 205.854 119.211 205.918 119.187 205.977C117.922 205.93 116.976 205.907 116.35 205.907C115.67 205.907 114.686 205.93 113.398 205.977C113.374 205.907 113.363 205.836 113.363 205.766C113.363 205.69 113.374 205.617 113.398 205.547C114.581 205.418 115.172 205.195 115.172 204.879C115.172 204.779 115.161 204.677 115.137 204.571L113.863 201.303C113.477 201.292 112.956 201.286 112.3 201.286C111.989 201.286 111.184 201.298 109.884 201.321L108.54 204.738V204.844C108.54 204.902 108.548 204.958 108.566 205.011C108.589 205.063 108.625 205.11 108.671 205.151C108.724 205.192 108.774 205.227 108.821 205.257C108.868 205.286 108.932 205.315 109.014 205.345C109.102 205.368 109.175 205.388 109.234 205.406C109.298 205.418 109.383 205.432 109.488 205.45C109.6 205.468 109.685 205.482 109.743 205.494C109.802 205.5 109.887 205.508 109.998 205.52C110.115 205.532 110.197 205.541 110.244 205.547C110.267 205.64 110.279 205.719 110.279 205.784C110.279 205.819 110.267 205.883 110.244 205.977C108.932 205.93 108.194 205.907 108.03 205.907C107.714 205.907 106.9 205.93 105.588 205.977C105.564 205.907 105.553 205.836 105.553 205.766C105.553 205.69 105.564 205.617 105.588 205.547C106.806 205.406 107.5 205.107 107.67 204.65L111.448 195.127L111.254 194.609C111.588 194.387 111.819 194.146 111.948 193.889C112.083 193.631 112.177 193.288 112.229 192.861ZM112.3 200.601C112.838 200.601 113.263 200.595 113.574 200.583L111.904 196.261H111.869L110.191 200.565C110.742 200.589 111.445 200.601 112.3 200.601Z" fill="#000039"/>
<path d="M89.3619 192.993C90.463 193.04 91.8481 193.063 93.5173 193.063L96.9171 202.27H96.961L100.501 193.063H101.512C102.238 193.063 103.263 193.04 104.586 192.993C104.61 193.086 104.622 193.151 104.622 193.186C104.622 193.227 104.61 193.3 104.586 193.406C104.376 193.423 104.206 193.441 104.077 193.458C103.948 193.476 103.775 193.505 103.559 193.546C103.348 193.587 103.178 193.637 103.049 193.695C102.92 193.748 102.806 193.824 102.706 193.924C102.607 194.018 102.554 194.126 102.548 194.249C102.49 195.625 102.46 197.262 102.46 199.16C102.46 201.087 102.499 202.934 102.575 204.703C102.581 204.855 102.648 204.987 102.777 205.099C102.906 205.204 103.09 205.286 103.33 205.345C103.576 205.403 103.781 205.447 103.945 205.476C104.115 205.5 104.335 205.523 104.604 205.547C104.627 205.64 104.639 205.719 104.639 205.784C104.639 205.831 104.627 205.889 104.604 205.959C103.614 205.924 102.595 205.907 101.547 205.907C100.493 205.907 99.4735 205.924 98.4896 205.959C98.4662 205.889 98.4545 205.831 98.4545 205.784C98.4545 205.684 98.4662 205.605 98.4896 205.547C98.759 205.523 98.9757 205.5 99.1397 205.476C99.3096 205.447 99.5145 205.403 99.7547 205.345C100.001 205.286 100.188 205.204 100.317 205.099C100.446 204.987 100.513 204.855 100.519 204.703C100.578 202.876 100.607 201.245 100.607 199.81C100.607 198.434 100.578 196.867 100.519 195.11H100.449L96.4339 205.687H96.3461L92.0677 194.899H91.9711C91.9242 196.322 91.9008 197.959 91.9008 199.81C91.9008 201.169 91.9301 202.756 91.9887 204.571C92.0004 205.104 92.6475 205.429 93.9302 205.547C93.9594 205.646 93.9741 205.725 93.9741 205.784C93.9741 205.842 93.9594 205.901 93.9302 205.959C92.9989 205.924 92.1673 205.907 91.4352 205.907C90.9667 205.907 90.1819 205.924 89.0808 205.959C89.0515 205.901 89.0369 205.842 89.0369 205.784C89.0369 205.684 89.0515 205.605 89.0808 205.547C90.3751 205.424 91.0223 205.099 91.0223 204.571C91.0926 202.744 91.1277 200.94 91.1277 199.16C91.1277 197.877 91.1101 196.515 91.075 195.075C91.0691 194.829 91.0545 194.624 91.0311 194.46C91.0077 194.29 90.9637 194.144 90.8993 194.021C90.8349 193.898 90.7675 193.801 90.6972 193.731C90.627 193.66 90.5186 193.599 90.3722 193.546C90.2258 193.488 90.0823 193.447 89.9417 193.423C89.807 193.394 89.6138 193.362 89.3619 193.327C89.3385 193.28 89.3268 193.227 89.3268 193.168C89.3268 193.098 89.3385 193.04 89.3619 192.993Z" fill="#000039"/>
<path d="M81.6837 196.709C81.4612 195.637 81.0512 194.805 80.4538 194.214C79.8623 193.622 79.1507 193.326 78.319 193.326C77.505 193.326 76.8724 193.52 76.4215 193.906C75.9764 194.293 75.7538 194.808 75.7538 195.452C75.7538 195.81 75.786 196.106 75.8504 196.34C75.9149 196.574 76.0466 196.802 76.2458 197.025C76.4449 197.242 76.7348 197.435 77.1155 197.605C77.4962 197.769 77.994 197.927 78.6089 198.079C78.9428 198.161 79.2327 198.237 79.4787 198.308C79.7305 198.378 80.0058 198.475 80.3045 198.598C80.609 198.721 80.8696 198.852 81.0863 198.993C81.3089 199.133 81.5285 199.309 81.7452 199.52C81.9678 199.725 82.1464 199.953 82.2811 200.205C82.4217 200.457 82.533 200.756 82.6149 201.101C82.7028 201.441 82.7467 201.813 82.7467 202.217C82.7467 202.756 82.6472 203.254 82.448 203.71C82.2489 204.161 81.9883 204.542 81.6662 204.853C81.344 205.163 80.9721 205.426 80.5505 205.643C80.1288 205.86 79.7012 206.018 79.2678 206.118C78.8344 206.217 78.404 206.267 77.9764 206.267C76.6762 206.267 75.2911 205.93 73.8211 205.257C73.8504 204.624 73.865 204.235 73.865 204.088C73.865 203.134 73.7859 202.182 73.6278 201.233C73.6922 201.192 73.7567 201.172 73.8211 201.172C73.9031 201.172 73.9763 201.192 74.0407 201.233C74.1637 201.989 74.3658 202.656 74.6469 203.236C74.9339 203.816 75.2618 204.276 75.6308 204.615C75.9998 204.949 76.3805 205.201 76.7729 205.371C77.1711 205.535 77.5723 205.617 77.9764 205.617C78.8959 205.617 79.6017 205.38 80.0936 204.905C80.5915 204.425 80.8404 203.792 80.8404 203.008C80.8404 202.217 80.6559 201.623 80.2869 201.224C79.9238 200.82 79.2268 200.492 78.1961 200.24C76.9076 199.918 75.9002 199.444 75.174 198.817C74.4536 198.185 74.0934 197.35 74.0934 196.313C74.0934 195.769 74.1813 195.283 74.357 194.855C74.5385 194.422 74.7699 194.076 75.051 193.818C75.338 193.555 75.6718 193.338 76.0525 193.168C76.4332 192.993 76.808 192.873 77.177 192.808C77.5518 192.738 77.9325 192.703 78.319 192.703C79.4787 192.703 80.6852 192.972 81.9385 193.511C81.9034 193.857 81.8858 194.217 81.8858 194.592C81.8858 195.47 81.9561 196.176 82.0966 196.709C82.0205 196.738 81.9561 196.753 81.9034 196.753C81.8448 196.753 81.7716 196.738 81.6837 196.709Z" fill="#000039"/>
<path d="M70.4037 196.709C70.1811 195.637 69.7712 194.805 69.1738 194.214C68.5823 193.622 67.8707 193.326 67.039 193.326C66.2249 193.326 65.5924 193.52 65.1414 193.906C64.6963 194.293 64.4738 194.808 64.4738 195.452C64.4738 195.81 64.506 196.106 64.5704 196.34C64.6348 196.574 64.7666 196.802 64.9657 197.025C65.1649 197.242 65.4548 197.435 65.8355 197.605C66.2161 197.769 66.714 197.927 67.3289 198.079C67.6628 198.161 67.9527 198.237 68.1986 198.308C68.4505 198.378 68.7257 198.475 69.0244 198.598C69.329 198.721 69.5896 198.852 69.8063 198.993C70.0289 199.133 70.2485 199.309 70.4652 199.52C70.6878 199.725 70.8664 199.953 71.0011 200.205C71.1416 200.457 71.2529 200.756 71.3349 201.101C71.4228 201.441 71.4667 201.813 71.4667 202.217C71.4667 202.756 71.3671 203.254 71.168 203.71C70.9689 204.161 70.7082 204.542 70.3861 204.853C70.064 205.163 69.6921 205.426 69.2704 205.643C68.8487 205.86 68.4212 206.018 67.9878 206.118C67.5544 206.217 67.1239 206.267 66.6964 206.267C65.3962 206.267 64.0111 205.93 62.5411 205.257C62.5703 204.624 62.585 204.235 62.585 204.088C62.585 203.134 62.5059 202.182 62.3478 201.233C62.4122 201.192 62.4766 201.172 62.5411 201.172C62.623 201.172 62.6963 201.192 62.7607 201.233C62.8837 201.989 63.0857 202.656 63.3668 203.236C63.6538 203.816 63.9818 204.276 64.3508 204.615C64.7198 204.949 65.1004 205.201 65.4928 205.371C65.8911 205.535 66.2923 205.617 66.6964 205.617C67.6159 205.617 68.3216 205.38 68.8136 204.905C69.3114 204.425 69.5603 203.792 69.5603 203.008C69.5603 202.217 69.3758 201.623 69.0069 201.224C68.6438 200.82 67.9468 200.492 66.916 200.24C65.6275 199.918 64.6202 199.444 63.894 198.817C63.1736 198.185 62.8134 197.35 62.8134 196.313C62.8134 195.769 62.9012 195.283 63.0769 194.855C63.2585 194.422 63.4898 194.076 63.771 193.818C64.0579 193.555 64.3918 193.338 64.7725 193.168C65.1531 192.993 65.528 192.873 65.897 192.808C66.2718 192.738 66.6525 192.703 67.039 192.703C68.1986 192.703 69.4051 192.972 70.6585 193.511C70.6233 193.857 70.6058 194.217 70.6058 194.592C70.6058 195.47 70.676 196.176 70.8166 196.709C70.7405 196.738 70.676 196.753 70.6233 196.753C70.5648 196.753 70.4916 196.738 70.4037 196.709Z" fill="#000039"/>
<path d="M47.826 192.993C49.1379 193.04 50.1629 193.063 50.9008 193.063C55.9259 193.034 58.7078 193.01 59.2466 192.993C59.3228 193.578 59.4721 194.135 59.6947 194.662C59.9172 195.183 60.2013 195.739 60.5468 196.331C60.5 196.431 60.3975 196.51 60.2393 196.568C60.0285 196.17 59.7737 195.816 59.475 195.505C59.1764 195.195 58.7986 194.902 58.3418 194.627C57.8908 194.351 57.3256 194.126 56.6462 193.95C55.9727 193.775 55.2026 193.657 54.3358 193.599H51.9111C51.835 196.076 51.7969 197.942 51.7969 199.195H54.3006C54.4705 199.195 54.6286 199.183 54.775 199.16C54.9273 199.131 55.0679 199.084 55.1967 199.019C55.3256 198.949 55.4398 198.885 55.5393 198.826C55.6448 198.762 55.7502 198.668 55.8556 198.545C55.961 198.416 56.0489 198.311 56.1191 198.229C56.1894 198.141 56.2743 198.009 56.3739 197.833C56.4735 197.658 56.5496 197.52 56.6023 197.42C56.655 197.321 56.7341 197.166 56.8395 196.955C56.9508 196.744 57.0357 196.586 57.0943 196.48C57.2758 196.551 57.3871 196.627 57.4281 196.709C57.1821 197.142 56.9742 197.622 56.8044 198.15C56.6345 198.677 56.5496 199.116 56.5496 199.467C56.5496 200.299 56.8424 201.216 57.4281 202.217C57.3813 202.311 57.27 202.39 57.0943 202.454C57.0299 202.337 56.9391 202.17 56.822 201.953C56.7107 201.731 56.6228 201.561 56.5584 201.444C56.494 201.327 56.4061 201.177 56.2948 200.996C56.1836 200.814 56.084 200.674 55.9962 200.574C55.9142 200.475 55.8058 200.363 55.6711 200.24C55.5423 200.117 55.4134 200.027 55.2846 199.968C55.1557 199.904 55.0064 199.851 54.8365 199.81C54.6725 199.763 54.4939 199.74 54.3006 199.74H51.7969C51.7969 200.671 51.8291 202.548 51.8935 205.371H54.696C55.5628 205.312 56.3329 205.195 57.0064 205.019C57.6858 204.844 58.251 204.618 58.702 204.343C59.1588 204.068 59.5365 203.775 59.8352 203.464C60.1339 203.154 60.3887 202.8 60.5995 202.401C60.7577 202.46 60.8602 202.536 60.907 202.63C60.8777 202.688 60.8016 202.829 60.6786 203.052C60.5556 203.274 60.4736 203.426 60.4326 203.508C60.3916 203.585 60.3213 203.722 60.2218 203.921C60.1281 204.115 60.0578 204.273 60.0109 204.396C59.9641 204.513 59.9084 204.662 59.844 204.844C59.7855 205.025 59.7357 205.204 59.6947 205.38C59.6595 205.549 59.6302 205.725 59.6068 205.907H51.8935C50.3063 205.907 48.9447 205.924 47.8085 205.959C47.785 205.889 47.7733 205.831 47.7733 205.784C47.7733 205.743 47.785 205.664 47.8085 205.547C48.0779 205.523 48.2946 205.5 48.4586 205.476C48.6284 205.447 48.8334 205.403 49.0735 205.345C49.3195 205.286 49.5069 205.204 49.6358 205.099C49.7646 204.987 49.832 204.855 49.8378 204.703C49.9081 202.87 49.9432 201.022 49.9432 199.16C49.9432 197.262 49.9139 195.625 49.8554 194.249C49.8495 194.097 49.7822 193.968 49.6533 193.862C49.5245 193.751 49.3371 193.666 49.0911 193.608C48.851 193.549 48.646 193.508 48.4761 193.485C48.3121 193.455 48.0954 193.429 47.826 193.406C47.8026 193.3 47.7909 193.227 47.7909 193.186C47.7909 193.151 47.8026 193.086 47.826 192.993Z" fill="#000039"/>
<path d="M32.3115 192.993C33.6234 193.04 34.6425 193.063 35.3687 193.063C36.0949 193.063 37.114 193.04 38.4259 192.993C38.4493 193.086 38.4611 193.151 38.4611 193.186C38.4611 193.227 38.4493 193.3 38.4259 193.406C38.1565 193.429 37.9369 193.455 37.767 193.485C37.603 193.508 37.3981 193.549 37.1521 193.608C36.912 193.666 36.7275 193.751 36.5986 193.862C36.4698 193.968 36.4024 194.097 36.3966 194.249C36.3204 196 36.2824 197.631 36.2824 199.142C36.9325 199.166 37.9164 199.177 39.2341 199.177C40.3118 199.177 41.3923 199.16 42.4758 199.125C42.4524 196.946 42.4231 195.321 42.388 194.249C42.3821 194.097 42.3148 193.968 42.1859 193.862C42.0571 193.751 41.8697 193.666 41.6237 193.608C41.3777 193.549 41.1698 193.508 40.9999 193.485C40.836 193.455 40.6193 193.429 40.3499 193.406C40.3264 193.3 40.3147 193.227 40.3147 193.186C40.3147 193.151 40.3264 193.086 40.3499 192.993C41.6735 193.04 42.6925 193.063 43.4071 193.063C44.1274 193.063 45.1494 193.04 46.4731 192.993C46.4965 193.086 46.5082 193.151 46.5082 193.186C46.5082 193.227 46.4965 193.3 46.4731 193.406C46.2036 193.429 45.984 193.455 45.8142 193.485C45.6502 193.508 45.4452 193.549 45.1992 193.608C44.9532 193.666 44.7658 193.751 44.637 193.862C44.5081 193.968 44.4408 194.097 44.4349 194.249C44.3763 195.707 44.3471 197.453 44.3471 199.485C44.3471 201.505 44.3763 203.245 44.4349 204.703C44.4408 204.855 44.5081 204.987 44.637 205.099C44.7658 205.204 44.9532 205.286 45.1992 205.345C45.4452 205.403 45.6502 205.447 45.8142 205.476C45.984 205.5 46.2036 205.523 46.4731 205.547C46.4965 205.64 46.5082 205.719 46.5082 205.784C46.5082 205.831 46.4965 205.889 46.4731 205.959C45.4774 205.924 44.4554 205.907 43.4071 205.907C42.3587 205.907 41.3396 205.924 40.3499 205.959C40.3264 205.889 40.3147 205.831 40.3147 205.784C40.3147 205.684 40.3264 205.605 40.3499 205.547C40.6193 205.523 40.8389 205.5 41.0087 205.476C41.1786 205.447 41.3865 205.403 41.6325 205.345C41.8785 205.286 42.0659 205.204 42.1947 205.099C42.3236 204.987 42.388 204.855 42.388 204.703C42.4348 202.612 42.4641 201.028 42.4758 199.95C41.3923 199.915 40.3118 199.898 39.2341 199.898C38.5665 199.898 37.5825 199.909 36.2824 199.933C36.2824 201.18 36.3146 202.77 36.379 204.703C36.3849 204.855 36.4522 204.987 36.581 205.099C36.7099 205.204 36.8944 205.286 37.1345 205.345C37.3805 205.403 37.5855 205.447 37.7495 205.476C37.9193 205.5 38.1389 205.523 38.4083 205.547C38.4318 205.664 38.4435 205.743 38.4435 205.784C38.4435 205.831 38.4318 205.889 38.4083 205.959C37.4127 205.924 36.3936 205.907 35.3511 205.907C34.2969 205.907 33.2779 205.924 32.2939 205.959C32.2705 205.889 32.2588 205.831 32.2588 205.784C32.2588 205.684 32.2705 205.605 32.2939 205.547C32.5633 205.523 32.78 205.5 32.944 205.476C33.1139 205.447 33.3189 205.403 33.559 205.345C33.805 205.286 33.9924 205.204 34.1212 205.099C34.2501 204.987 34.3174 204.855 34.3233 204.703C34.3936 202.87 34.4287 201.022 34.4287 199.16C34.4287 197.262 34.3994 195.625 34.3409 194.249C34.335 194.097 34.2676 193.968 34.1388 193.862C34.0099 193.751 33.8225 193.666 33.5766 193.608C33.3364 193.549 33.1314 193.508 32.9616 193.485C32.7976 193.455 32.5809 193.429 32.3115 193.406C32.2881 193.3 32.2764 193.227 32.2764 193.186C32.2764 193.127 32.2881 193.063 32.3115 192.993Z" fill="#000039"/>
<path d="M25.8194 192.703C26.2821 192.703 26.7418 192.735 27.1986 192.799C27.6613 192.858 28.1035 192.931 28.5252 193.019C28.9527 193.101 29.3568 193.183 29.7375 193.265C30.1182 193.347 30.4608 193.406 30.7654 193.441C30.6951 193.652 30.66 194.023 30.66 194.556C30.66 195.593 30.8152 196.492 31.1256 197.253C31.0904 197.359 30.9821 197.423 30.8005 197.447L30.4228 196.638C30.2353 196.234 30.0099 195.836 29.7463 195.444C29.4828 195.045 29.1665 194.691 28.7975 194.381C28.4285 194.064 27.9981 193.81 27.5061 193.616C27.02 193.423 26.4578 193.326 25.8194 193.326C25.2688 193.326 24.7798 193.417 24.3523 193.599C23.9247 193.78 23.5499 194.026 23.2278 194.337C22.9057 194.641 22.6333 194.999 22.4108 195.409C22.1882 195.813 22.0066 196.243 21.8661 196.7C21.7314 197.157 21.6318 197.625 21.5674 198.106C21.5088 198.586 21.4795 199.051 21.4795 199.502C21.4795 200.252 21.5762 200.97 21.7694 201.655C21.9686 202.34 22.2761 202.946 22.6919 203.473C23.1077 203.995 23.6348 204.41 24.2732 204.721C24.9174 205.031 25.6847 205.186 26.5749 205.186C28.2792 205.186 29.5677 204.653 30.4403 203.587C30.534 203.587 30.6102 203.614 30.6687 203.667C30.7332 203.719 30.7654 203.784 30.7654 203.86C30.4843 204.276 30.1416 204.636 29.7375 204.94C29.3393 205.245 28.9146 205.497 28.4637 205.696C28.0127 205.889 27.5559 206.033 27.0932 206.126C26.6364 206.22 26.2118 206.267 25.8194 206.267C25.3918 206.267 24.9291 206.22 24.4313 206.126C23.9394 206.039 23.4445 205.889 22.9466 205.678C22.4547 205.467 21.9803 205.192 21.5235 204.853C21.0725 204.507 20.6713 204.085 20.3199 203.587C19.9685 203.084 19.6874 202.495 19.4765 201.822C19.2657 201.148 19.1603 200.375 19.1603 199.502C19.1603 198.624 19.2657 197.848 19.4765 197.174C19.6874 196.495 19.9685 195.903 20.3199 195.4C20.6772 194.896 21.0842 194.474 21.541 194.135C22.0037 193.789 22.481 193.511 22.973 193.3C23.465 193.083 23.9569 192.931 24.4489 192.843C24.9409 192.75 25.3977 192.703 25.8194 192.703Z" fill="#000039"/>
</svg>
