<svg width="440" height="425" viewBox="0 0 440 425" fill="none" xmlns="http://www.w3.org/2000/svg">
<rect width="440" height="400" rx="10" fill="white"/>
<rect width="356" height="354" transform="translate(42 19)" fill="#E8E8E8"/>
<rect width="44.5" height="44.25" transform="translate(42 19)" fill="#E8E8E8"/>
<rect width="44.5" height="44.25" transform="translate(42 107.5)" fill="#E8E8E8"/>
<rect width="44.5" height="44.25" transform="translate(42 196)" fill="#E8E8E8"/>
<rect width="44.5" height="44.25" transform="translate(42 284.5)" fill="#E8E8E8"/>
<rect width="44.5" height="44.25" transform="translate(42 63.25)" fill="#333360"/>
<rect width="44.5" height="44.25" transform="translate(42 151.75)" fill="#333360"/>
<rect width="44.5" height="44.25" transform="translate(42 240.25)" fill="#333360"/>
<rect width="44.5" height="44.25" transform="translate(42 328.75)" fill="#333360"/>
<rect width="44.5" height="44.25" transform="translate(131 63.25)" fill="#333360"/>
<rect width="44.5" height="44.25" transform="translate(131 151.75)" fill="#333360"/>
<rect width="44.5" height="44.25" transform="translate(131 240.25)" fill="#333360"/>
<rect width="44.5" height="44.25" transform="translate(131 328.75)" fill="#333360"/>
<rect width="44.5" height="44.25" transform="translate(220 63.25)" fill="#333360"/>
<rect width="44.5" height="44.25" transform="translate(220 151.75)" fill="#333360"/>
<rect width="44.5" height="44.25" transform="translate(220 240.25)" fill="#333360"/>
<rect width="44.5" height="44.25" transform="translate(220 328.75)" fill="#333360"/>
<rect width="44.5" height="44.25" transform="translate(309 63.25)" fill="#333360"/>
<rect width="44.5" height="44.25" transform="translate(309 151.75)" fill="#333360"/>
<rect width="44.5" height="44.25" transform="translate(309 240.25)" fill="#333360"/>
<rect width="44.5" height="44.25" transform="translate(309 328.75)" fill="#333360"/>
<rect width="44.5" height="44.25" transform="translate(220 19)" fill="#E8E8E8"/>
<rect width="44.5" height="44.25" transform="translate(220 107.5)" fill="#E8E8E8"/>
<rect width="44.5" height="44.25" transform="translate(220 196)" fill="#E8E8E8"/>
<rect width="44.5" height="44.25" transform="translate(220 284.5)" fill="#E8E8E8"/>
<rect width="44.5" height="44.25" transform="translate(131 19)" fill="#E8E8E8"/>
<rect width="44.5" height="44.25" transform="translate(131 107.5)" fill="#E8E8E8"/>
<rect width="44.5" height="44.25" transform="translate(131 196)" fill="#E8E8E8"/>
<rect width="44.5" height="44.25" transform="translate(131 284.5)" fill="#E8E8E8"/>
<rect width="44.5" height="44.25" transform="translate(309 19)" fill="#E8E8E8"/>
<rect width="44.5" height="44.25" transform="translate(309 107.5)" fill="#E8E8E8"/>
<rect width="44.5" height="44.25" transform="translate(309 196)" fill="#E8E8E8"/>
<rect width="44.5" height="44.25" transform="translate(309 284.5)" fill="#E8E8E8"/>
<rect width="44.5" height="44.25" transform="translate(86.5 19)" fill="#333360"/>
<path d="M105.825 24.765C106.435 24.6967 107.04 24.9335 107.44 25.3971L111.223 29.7845C115.567 30.852 118.084 34.1049 119.476 38.1657C120.911 42.35 121.266 47.6621 121.266 53.1094C121.266 54.1277 120.436 54.9532 119.412 54.9532H102.124C101.139 54.9532 100.327 54.1883 100.272 53.2109C100.224 52.3388 100.426 50.8254 101.041 49.2797L101.052 49.2514C99.3058 50.1835 97.3677 49.9602 95.929 48.9416C94.1806 47.7038 93.2085 45.2806 94.3192 42.8876C95.1201 41.1619 95.9834 40.2482 96.6364 39.5571C97.2464 38.9115 97.5006 38.6276 97.6804 37.9123C98.7708 33.5753 101.014 31.0769 103.423 29.9368C103.388 29.4427 103.416 28.9667 103.477 28.5345C103.629 27.4588 104.007 26.4647 104.392 25.7379C104.678 25.1976 105.215 24.8332 105.825 24.765Z" fill="#333360"/>
<ellipse cx="105.042" cy="36.9766" rx="1.39062" ry="1.38281" fill="#333360"/>
<rect width="44.5" height="44.25" transform="translate(86.5 107.5)" fill="#333360"/>
<rect width="44.5" height="44.25" transform="translate(86.5 196)" fill="#333360"/>
<rect width="44.5" height="44.25" transform="translate(86.5 284.5)" fill="#333360"/>
<rect width="44.5" height="44.25" transform="translate(86.5 63.25)" fill="#E8E8E8"/>
<rect width="44.5" height="44.25" transform="translate(86.5 151.75)" fill="#E8E8E8"/>
<rect width="44.5" height="44.25" transform="translate(86.5 240.25)" fill="#E8E8E8"/>
<rect width="44.5" height="44.25" transform="translate(86.5 328.75)" fill="#E8E8E8"/>
<rect width="44.5" height="44.25" transform="translate(175.5 63.25)" fill="#E8E8E8"/>
<rect width="44.5" height="44.25" transform="translate(175.5 151.75)" fill="#E8E8E8"/>
<rect width="44.5" height="44.25" transform="translate(175.5 240.25)" fill="#E8E8E8"/>
<rect width="44.5" height="44.25" transform="translate(175.5 328.75)" fill="#E8E8E8"/>
<rect width="44.5" height="44.25" transform="translate(264.5 63.25)" fill="#E8E8E8"/>
<rect width="44.5" height="44.25" transform="translate(264.5 151.75)" fill="#E8E8E8"/>
<rect width="44.5" height="44.25" transform="translate(264.5 240.25)" fill="#E8E8E8"/>
<rect width="44.5" height="44.25" transform="translate(264.5 328.75)" fill="#E8E8E8"/>
<rect width="44.5" height="44.25" transform="translate(353.5 63.25)" fill="#E8E8E8"/>
<rect width="44.5" height="44.25" transform="translate(353.5 151.75)" fill="#E8E8E8"/>
<rect width="44.5" height="44.25" transform="translate(353.5 240.25)" fill="#E8E8E8"/>
<rect width="44.5" height="44.25" transform="translate(353.5 328.75)" fill="#E8E8E8"/>
<rect width="44.5" height="44.25" transform="translate(264.5 19)" fill="#333360"/>
<rect width="44.5" height="44.25" transform="translate(264.5 107.5)" fill="#333360"/>
<rect width="44.5" height="44.25" transform="translate(264.5 196)" fill="#333360"/>
<rect width="44.5" height="44.25" transform="translate(264.5 284.5)" fill="#333360"/>
<rect width="44.5" height="44.25" transform="translate(175.5 19)" fill="#333360"/>
<rect width="44.5" height="44.25" transform="translate(175.5 107.5)" fill="#333360"/>
<rect width="44.5" height="44.25" transform="translate(175.5 196)" fill="#333360"/>
<rect width="44.5" height="44.25" transform="translate(175.5 284.5)" fill="#333360"/>
<rect width="44.5" height="44.25" transform="translate(353.5 19)" fill="#333360"/>
<rect width="44.5" height="44.25" transform="translate(353.5 107.5)" fill="#333360"/>
<rect width="44.5" height="44.25" transform="translate(353.5 196)" fill="#333360"/>
<rect width="44.5" height="44.25" transform="translate(353.5 284.5)" fill="#333360"/>
<path fill-rule="evenodd" clip-rule="evenodd" d="M238.939 158.786C238.97 157.791 239.792 157 240.796 157H243.584C244.587 157 245.41 157.791 245.441 158.786L245.458 159.305H246.371C247.398 159.305 248.23 160.13 248.23 161.148V162.267C250.255 161.812 252.442 162.116 254.298 163.65C258.153 166.837 257.798 173.519 253.223 177.174C252.119 178.056 251.251 178.787 250.654 179.54C250.518 179.712 250.401 179.878 250.303 180.041L252.186 180.294C253.108 180.418 253.795 181.198 253.795 182.121V185.578C253.795 186.596 252.963 187.422 251.937 187.422H232.443C231.417 187.422 230.585 186.596 230.585 185.578V182.121C230.585 181.198 231.272 180.418 232.194 180.294L234.077 180.041C233.979 179.878 233.862 179.712 233.726 179.54C233.129 178.787 232.261 178.056 231.157 177.174C226.582 173.519 226.227 166.837 230.082 163.65C231.938 162.116 234.125 161.812 236.15 162.267V161.148C236.15 160.13 236.982 159.305 238.009 159.305H238.922L238.939 158.786Z" fill="#34364C"/>
<path fill-rule="evenodd" clip-rule="evenodd" d="M240.796 158.844H243.584L243.656 161.148H246.371V163.914H243.743L243.871 167.045C243.922 166.986 243.974 166.927 244.028 166.87C246.567 164.194 250.33 162.77 253.108 165.066C255.895 167.371 255.895 172.672 252.057 175.738C249.883 177.474 247.936 179.148 248.032 181.597L251.937 182.121V185.578H232.443V182.121L236.348 181.597C236.444 179.148 234.497 177.474 232.322 175.738C228.484 172.672 228.484 167.371 231.272 165.066C234.05 162.77 237.813 164.194 240.351 166.87C240.405 166.927 240.458 166.986 240.509 167.045L240.636 163.914H238.008V161.148H240.723L240.796 158.844ZM238.17 169.433C239.874 172.201 240.099 175.438 240.099 176.845C239.245 176.846 236.026 175.441 234.322 173.135C233.095 171.474 232.775 169.011 233.827 168.054C234.879 167.098 237.105 167.703 238.17 169.433ZM246.209 169.433C244.506 172.201 244.28 175.438 244.28 176.845C245.134 176.846 248.353 175.441 250.057 173.135C251.284 171.474 251.604 169.011 250.552 168.054C249.501 167.098 247.274 167.703 246.209 169.433Z" fill="#E8E8E8"/>
<path fill-rule="evenodd" clip-rule="evenodd" d="M238.939 69.7862C238.97 68.7908 239.792 68 240.796 68H243.584C244.587 68 245.41 68.7908 245.441 69.7862L245.458 70.3047H246.371C247.398 70.3047 248.23 71.1302 248.23 72.1484V73.2667C250.255 72.8119 252.442 73.1157 254.298 74.65C258.153 77.8374 257.798 84.5191 253.223 88.1738C252.119 89.0558 251.251 89.7869 250.654 90.5403C250.518 90.7122 250.401 90.8785 250.303 91.0413L252.186 91.294C253.108 91.4177 253.795 92.1983 253.795 93.1211V96.5781C253.795 97.5964 252.963 98.4219 251.937 98.4219H232.443C231.417 98.4219 230.585 97.5964 230.585 96.5781V93.1211C230.585 92.1983 231.272 91.4177 232.194 91.294L234.077 91.0413C233.979 90.8785 233.862 90.7122 233.726 90.5403C233.129 89.7869 232.261 89.0557 231.157 88.1738C226.582 84.5191 226.227 77.8374 230.082 74.65C231.938 73.1157 234.125 72.8119 236.15 73.2667V72.1484C236.15 71.1302 236.982 70.3047 238.009 70.3047H238.922L238.939 69.7862Z" fill="#E8E8E8"/>
<path fill-rule="evenodd" clip-rule="evenodd" d="M240.796 69.8438H243.584L243.656 72.1484H246.371V74.9141H243.743L243.871 78.0452C243.922 77.9857 243.974 77.9273 244.028 77.8703C246.567 75.1939 250.33 73.7697 253.108 76.0664C255.895 78.3711 255.895 83.6719 252.057 86.7376C249.883 88.4743 247.936 90.1485 248.032 92.5971L251.937 93.1211V96.5781H232.443V93.1211L236.348 92.5971C236.444 90.1485 234.497 88.4743 232.322 86.7376C228.484 83.6719 228.484 78.3711 231.272 76.0664C234.05 73.7697 237.813 75.1939 240.351 77.8703C240.405 77.9273 240.458 77.9857 240.509 78.0452L240.636 74.9141H238.008V72.1484H240.723L240.796 69.8438ZM238.17 80.4329C239.874 83.2013 240.099 86.4375 240.099 87.8448C239.245 87.8464 236.026 86.4414 234.322 84.135C233.095 82.4745 232.775 80.0109 233.827 79.0544C234.879 78.098 237.105 78.7027 238.17 80.4329ZM246.209 80.4329C244.506 83.2013 244.28 86.4375 244.28 87.8448C245.134 87.8464 248.353 86.4414 250.057 84.135C251.284 82.4745 251.604 80.0109 250.552 79.0544C249.501 78.098 247.274 78.7027 246.209 80.4329Z" fill="#34364C"/>
<path d="M412.706 44.6738C412.706 45.2051 412.583 45.6523 412.337 46.0156C412.091 46.3789 411.755 46.6543 411.329 46.8418C410.907 47.0254 410.431 47.1172 409.899 47.1172C409.368 47.1172 408.89 47.0254 408.464 46.8418C408.038 46.6543 407.702 46.3789 407.456 46.0156C407.21 45.6523 407.087 45.2051 407.087 44.6738C407.087 44.3223 407.155 44.0039 407.292 43.7188C407.429 43.4297 407.622 43.1816 407.872 42.9746C408.126 42.7637 408.423 42.6016 408.763 42.4883C409.106 42.375 409.481 42.3184 409.888 42.3184C410.427 42.3184 410.909 42.418 411.335 42.6172C411.761 42.8164 412.095 43.0918 412.337 43.4434C412.583 43.7949 412.706 44.2051 412.706 44.6738ZM411.288 44.6035C411.288 44.3184 411.23 44.0684 411.112 43.8535C410.995 43.6387 410.831 43.4727 410.62 43.3555C410.409 43.2383 410.165 43.1797 409.888 43.1797C409.606 43.1797 409.362 43.2383 409.155 43.3555C408.948 43.4727 408.786 43.6387 408.669 43.8535C408.556 44.0684 408.499 44.3184 408.499 44.6035C408.499 44.8926 408.556 45.1426 408.669 45.3535C408.782 45.5605 408.944 45.7188 409.155 45.8281C409.366 45.9375 409.614 45.9922 409.899 45.9922C410.185 45.9922 410.431 45.9375 410.638 45.8281C410.845 45.7188 411.005 45.5605 411.118 45.3535C411.231 45.1426 411.288 44.8926 411.288 44.6035ZM412.513 40.7129C412.513 41.1387 412.399 41.5176 412.173 41.8496C411.95 42.1816 411.642 42.4434 411.247 42.6348C410.853 42.8223 410.403 42.916 409.899 42.916C409.392 42.916 408.938 42.8223 408.54 42.6348C408.146 42.4434 407.835 42.1816 407.608 41.8496C407.386 41.5176 407.274 41.1387 407.274 40.7129C407.274 40.2051 407.386 39.7773 407.608 39.4297C407.835 39.0781 408.146 38.8105 408.54 38.627C408.935 38.4434 409.386 38.3516 409.894 38.3516C410.401 38.3516 410.853 38.4434 411.247 38.627C411.642 38.8105 411.95 39.0781 412.173 39.4297C412.399 39.7773 412.513 40.2051 412.513 40.7129ZM411.101 40.7598C411.101 40.5059 411.05 40.2832 410.948 40.0918C410.851 39.8965 410.712 39.7441 410.532 39.6348C410.353 39.5254 410.14 39.4707 409.894 39.4707C409.647 39.4707 409.435 39.5234 409.255 39.6289C409.075 39.7344 408.937 39.8828 408.839 40.0742C408.741 40.2656 408.692 40.4941 408.692 40.7598C408.692 41.0215 408.741 41.25 408.839 41.4453C408.937 41.6367 409.075 41.7871 409.255 41.8965C409.438 42.0059 409.653 42.0605 409.899 42.0605C410.146 42.0605 410.358 42.0059 410.538 41.8965C410.718 41.7871 410.856 41.6367 410.954 41.4453C411.052 41.25 411.101 41.0215 411.101 40.7598Z" fill="#000039"/>
<path d="M412.794 82.7188V83.4922L409.384 91.25H407.896L411.3 83.8438H406.882V82.7188H412.794Z" fill="#000039"/>
<path d="M411.394 126.916H411.569V128.07H411.47C410.966 128.07 410.53 128.148 410.163 128.305C409.8 128.461 409.501 128.676 409.267 128.949C409.032 129.223 408.856 129.543 408.739 129.91C408.626 130.273 408.569 130.66 408.569 131.07V132.412C408.569 132.752 408.606 133.053 408.681 133.314C408.755 133.572 408.858 133.789 408.991 133.965C409.128 134.137 409.284 134.268 409.46 134.357C409.636 134.447 409.825 134.492 410.028 134.492C410.239 134.492 410.431 134.449 410.603 134.363C410.774 134.273 410.921 134.15 411.042 133.994C411.163 133.838 411.255 133.652 411.317 133.438C411.38 133.223 411.411 132.988 411.411 132.734C411.411 132.492 411.38 132.266 411.317 132.055C411.259 131.84 411.171 131.652 411.054 131.492C410.937 131.328 410.79 131.201 410.614 131.111C410.442 131.018 410.243 130.971 410.017 130.971C409.735 130.971 409.48 131.037 409.249 131.17C409.022 131.303 408.839 131.477 408.698 131.691C408.562 131.902 408.487 132.127 408.476 132.365L407.937 132.189C407.968 131.826 408.048 131.5 408.177 131.211C408.31 130.922 408.483 130.676 408.698 130.473C408.913 130.27 409.161 130.115 409.442 130.01C409.728 129.9 410.04 129.846 410.38 129.846C410.794 129.846 411.153 129.924 411.458 130.08C411.763 130.236 412.015 130.449 412.214 130.719C412.417 130.984 412.567 131.289 412.665 131.633C412.767 131.973 412.817 132.328 412.817 132.699C412.817 133.109 412.755 133.492 412.63 133.848C412.505 134.199 412.321 134.508 412.079 134.773C411.841 135.039 411.55 135.246 411.206 135.395C410.866 135.543 410.48 135.617 410.046 135.617C409.589 135.617 409.181 135.529 408.821 135.354C408.466 135.178 408.163 134.936 407.913 134.627C407.667 134.318 407.48 133.963 407.351 133.561C407.222 133.158 407.157 132.732 407.157 132.283V131.697C407.157 131.049 407.239 130.438 407.403 129.863C407.567 129.285 407.819 128.775 408.159 128.334C408.503 127.893 408.942 127.547 409.478 127.297C410.013 127.043 410.651 126.916 411.394 126.916Z" fill="#000039"/>
<path d="M408.61 175.783L407.485 175.508L407.948 171.219H412.548V172.414H409.12L408.886 174.506C409.019 174.428 409.202 174.352 409.437 174.277C409.671 174.199 409.938 174.16 410.239 174.16C410.642 174.16 411.001 174.227 411.317 174.359C411.638 174.488 411.909 174.678 412.132 174.928C412.355 175.174 412.524 175.475 412.642 175.83C412.759 176.182 412.817 176.578 412.817 177.02C412.817 177.414 412.759 177.783 412.642 178.127C412.528 178.471 412.356 178.773 412.126 179.035C411.896 179.297 411.605 179.502 411.253 179.65C410.905 179.795 410.493 179.867 410.017 179.867C409.661 179.867 409.319 179.816 408.991 179.715C408.667 179.609 408.376 179.455 408.118 179.252C407.86 179.045 407.653 178.791 407.497 178.49C407.341 178.186 407.251 177.836 407.228 177.441H408.61C408.646 177.719 408.722 177.955 408.839 178.15C408.96 178.342 409.12 178.488 409.319 178.59C409.519 178.691 409.749 178.742 410.011 178.742C410.249 178.742 410.454 178.701 410.626 178.619C410.798 178.533 410.94 178.412 411.054 178.256C411.171 178.096 411.257 177.908 411.312 177.693C411.37 177.479 411.399 177.24 411.399 176.979C411.399 176.729 411.366 176.5 411.3 176.293C411.237 176.086 411.142 175.906 411.013 175.754C410.888 175.602 410.73 175.484 410.538 175.402C410.347 175.316 410.126 175.273 409.876 175.273C409.54 175.273 409.282 175.322 409.103 175.42C408.927 175.518 408.763 175.639 408.61 175.783Z" fill="#000039"/>
<path d="M413.005 220.959V222.084H406.853L406.806 221.234L410.485 215.469H411.616L410.392 217.566L408.276 220.959H413.005ZM411.938 215.469V224H410.526V215.469H411.938Z" fill="#000039"/>
<path d="M408.786 263.346H409.63C409.958 263.346 410.23 263.289 410.444 263.176C410.663 263.062 410.825 262.906 410.931 262.707C411.036 262.508 411.089 262.279 411.089 262.021C411.089 261.752 411.04 261.521 410.942 261.33C410.849 261.135 410.704 260.984 410.509 260.879C410.317 260.773 410.073 260.721 409.776 260.721C409.526 260.721 409.3 260.771 409.097 260.873C408.897 260.971 408.739 261.111 408.622 261.295C408.505 261.475 408.446 261.689 408.446 261.939H407.028C407.028 261.486 407.147 261.084 407.386 260.732C407.624 260.381 407.948 260.105 408.358 259.906C408.772 259.703 409.237 259.602 409.753 259.602C410.304 259.602 410.784 259.693 411.194 259.877C411.608 260.057 411.931 260.326 412.161 260.686C412.392 261.045 412.507 261.49 412.507 262.021C412.507 262.264 412.45 262.51 412.337 262.76C412.224 263.01 412.056 263.238 411.833 263.445C411.61 263.648 411.333 263.814 411.001 263.943C410.669 264.068 410.284 264.131 409.847 264.131H408.786V263.346ZM408.786 264.447V263.674H409.847C410.347 263.674 410.772 263.732 411.124 263.85C411.48 263.967 411.769 264.129 411.991 264.336C412.214 264.539 412.376 264.771 412.478 265.033C412.583 265.295 412.636 265.572 412.636 265.865C412.636 266.264 412.563 266.619 412.419 266.932C412.278 267.24 412.077 267.502 411.815 267.717C411.554 267.932 411.247 268.094 410.896 268.203C410.548 268.312 410.169 268.367 409.759 268.367C409.392 268.367 409.04 268.316 408.704 268.215C408.368 268.113 408.067 267.963 407.802 267.764C407.536 267.561 407.325 267.309 407.169 267.008C407.017 266.703 406.94 266.352 406.94 265.953H408.353C408.353 266.207 408.411 266.432 408.528 266.627C408.649 266.818 408.817 266.969 409.032 267.078C409.251 267.188 409.501 267.242 409.782 267.242C410.079 267.242 410.335 267.189 410.55 267.084C410.765 266.979 410.929 266.822 411.042 266.615C411.159 266.408 411.218 266.158 411.218 265.865C411.218 265.533 411.153 265.264 411.024 265.057C410.896 264.85 410.712 264.697 410.474 264.6C410.235 264.498 409.954 264.447 409.63 264.447H408.786Z" fill="#000039"/>
<path d="M412.847 311.375V312.5H407.128V311.533L409.905 308.504C410.21 308.16 410.45 307.863 410.626 307.613C410.802 307.363 410.925 307.139 410.995 306.939C411.069 306.736 411.106 306.539 411.106 306.348C411.106 306.078 411.056 305.842 410.954 305.639C410.856 305.432 410.712 305.27 410.521 305.152C410.329 305.031 410.097 304.971 409.823 304.971C409.507 304.971 409.241 305.039 409.026 305.176C408.812 305.312 408.649 305.502 408.54 305.744C408.431 305.982 408.376 306.256 408.376 306.564H406.964C406.964 306.068 407.077 305.615 407.304 305.205C407.53 304.791 407.858 304.463 408.288 304.221C408.718 303.975 409.235 303.852 409.841 303.852C410.411 303.852 410.896 303.947 411.294 304.139C411.692 304.33 411.995 304.602 412.202 304.953C412.413 305.305 412.519 305.721 412.519 306.201C412.519 306.467 412.476 306.73 412.39 306.992C412.304 307.254 412.181 307.516 412.021 307.777C411.864 308.035 411.679 308.295 411.464 308.557C411.249 308.814 411.013 309.076 410.755 309.342L408.909 311.375H412.847Z" fill="#000039"/>
<path d="M410.983 348.189V356.75H409.571V349.865L407.48 350.574V349.408L410.813 348.189H410.983Z" fill="#000039"/>
<path d="M32.7061 44.6738C32.7061 45.2051 32.583 45.6523 32.3369 46.0156C32.0908 46.3789 31.7549 46.6543 31.3291 46.8418C30.9072 47.0254 30.4307 47.1172 29.8994 47.1172C29.3682 47.1172 28.8897 47.0254 28.4639 46.8418C28.0381 46.6543 27.7022 46.3789 27.4561 46.0156C27.21 45.6523 27.0869 45.2051 27.0869 44.6738C27.0869 44.3223 27.1553 44.0039 27.292 43.7188C27.4287 43.4297 27.6221 43.1816 27.8721 42.9746C28.126 42.7637 28.4229 42.6016 28.7627 42.4883C29.1065 42.375 29.4815 42.3184 29.8877 42.3184C30.4268 42.3184 30.9092 42.418 31.335 42.6172C31.7608 42.8164 32.0947 43.0918 32.3369 43.4434C32.583 43.7949 32.7061 44.2051 32.7061 44.6738ZM31.2881 44.6035C31.2881 44.3184 31.2295 44.0684 31.1123 43.8535C30.9951 43.6387 30.8311 43.4727 30.6201 43.3555C30.4092 43.2383 30.1651 43.1797 29.8877 43.1797C29.6065 43.1797 29.3623 43.2383 29.1553 43.3555C28.9483 43.4727 28.7861 43.6387 28.669 43.8535C28.5557 44.0684 28.499 44.3184 28.499 44.6035C28.499 44.8926 28.5557 45.1426 28.669 45.3535C28.7822 45.5605 28.9444 45.7188 29.1553 45.8281C29.3662 45.9375 29.6143 45.9922 29.8994 45.9922C30.1846 45.9922 30.4307 45.9375 30.6377 45.8281C30.8447 45.7188 31.0049 45.5605 31.1182 45.3535C31.2315 45.1426 31.2881 44.8926 31.2881 44.6035ZM32.5127 40.7129C32.5127 41.1387 32.3994 41.5176 32.1729 41.8496C31.9502 42.1816 31.6416 42.4434 31.2471 42.6348C30.8526 42.8223 30.4033 42.916 29.8994 42.916C29.3916 42.916 28.9385 42.8223 28.5401 42.6348C28.1455 42.4434 27.835 42.1816 27.6084 41.8496C27.3858 41.5176 27.2744 41.1387 27.2744 40.7129C27.2744 40.2051 27.3858 39.7773 27.6084 39.4297C27.835 39.0781 28.1455 38.8105 28.5401 38.627C28.9346 38.4434 29.3858 38.3516 29.8936 38.3516C30.4014 38.3516 30.8526 38.4434 31.2471 38.627C31.6416 38.8105 31.9502 39.0781 32.1729 39.4297C32.3994 39.7773 32.5127 40.2051 32.5127 40.7129ZM31.1006 40.7598C31.1006 40.5059 31.0498 40.2832 30.9483 40.0918C30.8506 39.8965 30.7119 39.7441 30.5322 39.6348C30.3526 39.5254 30.1397 39.4707 29.8936 39.4707C29.6475 39.4707 29.4346 39.5234 29.2549 39.6289C29.0752 39.7344 28.9365 39.8828 28.8389 40.0742C28.7412 40.2656 28.6924 40.4941 28.6924 40.7598C28.6924 41.0215 28.7412 41.25 28.8389 41.4453C28.9365 41.6367 29.0752 41.7871 29.2549 41.8965C29.4385 42.0059 29.6533 42.0605 29.8994 42.0605C30.1455 42.0605 30.3584 42.0059 30.5381 41.8965C30.7178 41.7871 30.8565 41.6367 30.9541 41.4453C31.0518 41.25 31.1006 41.0215 31.1006 40.7598Z" fill="#000039"/>
<path d="M32.794 82.7188V83.4922L29.3838 91.25H27.8955L31.2998 83.8438H26.8819V82.7188H32.794Z" fill="#000039"/>
<path d="M31.3936 126.916H31.5694V128.07H31.4697C30.9658 128.07 30.5303 128.148 30.1631 128.305C29.7998 128.461 29.501 128.676 29.2666 128.949C29.0322 129.223 28.8565 129.543 28.7393 129.91C28.626 130.273 28.5694 130.66 28.5694 131.07V132.412C28.5694 132.752 28.6065 133.053 28.6807 133.314C28.7549 133.572 28.8584 133.789 28.9912 133.965C29.1279 134.137 29.2842 134.268 29.46 134.357C29.6358 134.447 29.8252 134.492 30.0283 134.492C30.2393 134.492 30.4307 134.449 30.6026 134.363C30.7744 134.273 30.9209 134.15 31.042 133.994C31.1631 133.838 31.2549 133.652 31.3174 133.438C31.3799 133.223 31.4111 132.988 31.4111 132.734C31.4111 132.492 31.3799 132.266 31.3174 132.055C31.2588 131.84 31.1709 131.652 31.0537 131.492C30.9365 131.328 30.7901 131.201 30.6143 131.111C30.4424 131.018 30.2432 130.971 30.0166 130.971C29.7354 130.971 29.4795 131.037 29.249 131.17C29.0225 131.303 28.8389 131.477 28.6983 131.691C28.5615 131.902 28.4873 132.127 28.4756 132.365L27.9365 132.189C27.9678 131.826 28.0479 131.5 28.1768 131.211C28.3096 130.922 28.4834 130.676 28.6983 130.473C28.9131 130.27 29.1611 130.115 29.4424 130.01C29.7276 129.9 30.0401 129.846 30.3799 129.846C30.794 129.846 31.1533 129.924 31.458 130.08C31.7627 130.236 32.0147 130.449 32.2139 130.719C32.417 130.984 32.5674 131.289 32.6651 131.633C32.7666 131.973 32.8174 132.328 32.8174 132.699C32.8174 133.109 32.7549 133.492 32.6299 133.848C32.5049 134.199 32.3213 134.508 32.0791 134.773C31.8408 135.039 31.5498 135.246 31.2061 135.395C30.8662 135.543 30.4795 135.617 30.0459 135.617C29.5889 135.617 29.1807 135.529 28.8213 135.354C28.4658 135.178 28.1631 134.936 27.9131 134.627C27.667 134.318 27.4795 133.963 27.3506 133.561C27.2217 133.158 27.1572 132.732 27.1572 132.283V131.697C27.1572 131.049 27.2393 130.438 27.4033 129.863C27.5674 129.285 27.8194 128.775 28.1592 128.334C28.5029 127.893 28.9424 127.547 29.4776 127.297C30.0127 127.043 30.6514 126.916 31.3936 126.916Z" fill="#000039"/>
<path d="M28.6104 175.783L27.4854 175.508L27.9483 171.219H32.5479V172.414H29.1201L28.8858 174.506C29.0186 174.428 29.2022 174.352 29.4365 174.277C29.6709 174.199 29.9385 174.16 30.2393 174.16C30.6416 174.16 31.001 174.227 31.3174 174.359C31.6377 174.488 31.9092 174.678 32.1319 174.928C32.3545 175.174 32.5244 175.475 32.6416 175.83C32.7588 176.182 32.8174 176.578 32.8174 177.02C32.8174 177.414 32.7588 177.783 32.6416 178.127C32.5283 178.471 32.3565 178.773 32.126 179.035C31.8955 179.297 31.6045 179.502 31.2529 179.65C30.9053 179.795 30.4932 179.867 30.0166 179.867C29.6611 179.867 29.3194 179.816 28.9912 179.715C28.667 179.609 28.376 179.455 28.1182 179.252C27.8604 179.045 27.6533 178.791 27.4971 178.49C27.3408 178.186 27.251 177.836 27.2276 177.441H28.6104C28.6455 177.719 28.7217 177.955 28.8389 178.15C28.96 178.342 29.1201 178.488 29.3194 178.59C29.5186 178.691 29.749 178.742 30.0108 178.742C30.249 178.742 30.4541 178.701 30.626 178.619C30.7979 178.533 30.9404 178.412 31.0537 178.256C31.1709 178.096 31.2569 177.908 31.3115 177.693C31.3701 177.479 31.3994 177.24 31.3994 176.979C31.3994 176.729 31.3662 176.5 31.2998 176.293C31.2373 176.086 31.1416 175.906 31.0127 175.754C30.8877 175.602 30.7295 175.484 30.5381 175.402C30.3467 175.316 30.126 175.273 29.876 175.273C29.5401 175.273 29.2822 175.322 29.1026 175.42C28.9268 175.518 28.7627 175.639 28.6104 175.783Z" fill="#000039"/>
<path d="M33.0049 220.959V222.084H26.8526L26.8057 221.234L30.4854 215.469H31.6162L30.3916 217.566L28.2764 220.959H33.0049ZM31.9385 215.469V224H30.5264V215.469H31.9385Z" fill="#000039"/>
<path d="M28.7861 263.346H29.6299C29.958 263.346 30.2295 263.289 30.4444 263.176C30.6631 263.062 30.8252 262.906 30.9307 262.707C31.0361 262.508 31.0889 262.279 31.0889 262.021C31.0889 261.752 31.0401 261.521 30.9424 261.33C30.8486 261.135 30.7041 260.984 30.5088 260.879C30.3174 260.773 30.0733 260.721 29.7764 260.721C29.5264 260.721 29.2998 260.771 29.0967 260.873C28.8975 260.971 28.7393 261.111 28.6221 261.295C28.5049 261.475 28.4463 261.689 28.4463 261.939H27.0283C27.0283 261.486 27.1475 261.084 27.3858 260.732C27.624 260.381 27.9483 260.105 28.3584 259.906C28.7725 259.703 29.2373 259.602 29.7529 259.602C30.3037 259.602 30.7842 259.693 31.1944 259.877C31.6084 260.057 31.9307 260.326 32.1611 260.686C32.3916 261.045 32.5069 261.49 32.5069 262.021C32.5069 262.264 32.4502 262.51 32.3369 262.76C32.2236 263.01 32.0557 263.238 31.833 263.445C31.6104 263.648 31.333 263.814 31.001 263.943C30.669 264.068 30.2842 264.131 29.8467 264.131H28.7861V263.346ZM28.7861 264.447V263.674H29.8467C30.3467 263.674 30.7725 263.732 31.124 263.85C31.4795 263.967 31.7686 264.129 31.9912 264.336C32.2139 264.539 32.376 264.771 32.4776 265.033C32.583 265.295 32.6358 265.572 32.6358 265.865C32.6358 266.264 32.5635 266.619 32.419 266.932C32.2783 267.24 32.0772 267.502 31.8154 267.717C31.5537 267.932 31.2471 268.094 30.8955 268.203C30.5479 268.312 30.169 268.367 29.7588 268.367C29.3916 268.367 29.0401 268.316 28.7041 268.215C28.3682 268.113 28.0674 267.963 27.8018 267.764C27.5361 267.561 27.3252 267.309 27.169 267.008C27.0166 266.703 26.9404 266.352 26.9404 265.953H28.3526C28.3526 266.207 28.4111 266.432 28.5283 266.627C28.6494 266.818 28.8174 266.969 29.0322 267.078C29.251 267.188 29.501 267.242 29.7822 267.242C30.0791 267.242 30.335 267.189 30.5498 267.084C30.7647 266.979 30.9287 266.822 31.042 266.615C31.1592 266.408 31.2178 266.158 31.2178 265.865C31.2178 265.533 31.1533 265.264 31.0244 265.057C30.8955 264.85 30.7119 264.697 30.4736 264.6C30.2354 264.498 29.9541 264.447 29.6299 264.447H28.7861Z" fill="#000039"/>
<path d="M32.8467 311.375V312.5H27.1279V311.533L29.9053 308.504C30.21 308.16 30.4502 307.863 30.626 307.613C30.8018 307.363 30.9248 307.139 30.9951 306.939C31.0694 306.736 31.1065 306.539 31.1065 306.348C31.1065 306.078 31.0557 305.842 30.9541 305.639C30.8565 305.432 30.7119 305.27 30.5205 305.152C30.3291 305.031 30.0967 304.971 29.8233 304.971C29.5069 304.971 29.2412 305.039 29.0264 305.176C28.8115 305.312 28.6494 305.502 28.5401 305.744C28.4307 305.982 28.376 306.256 28.376 306.564H26.9639C26.9639 306.068 27.0772 305.615 27.3037 305.205C27.5303 304.791 27.8584 304.463 28.2881 304.221C28.7178 303.975 29.2354 303.852 29.8408 303.852C30.4111 303.852 30.8955 303.947 31.294 304.139C31.6924 304.33 31.9951 304.602 32.2022 304.953C32.4131 305.305 32.5186 305.721 32.5186 306.201C32.5186 306.467 32.4756 306.73 32.3897 306.992C32.3037 307.254 32.1807 307.516 32.0205 307.777C31.8643 308.035 31.6787 308.295 31.4639 308.557C31.249 308.814 31.0127 309.076 30.7549 309.342L28.9092 311.375H32.8467Z" fill="#000039"/>
<path d="M30.9834 348.189V356.75H29.5713V349.865L27.4795 350.574V349.408L30.8135 348.189H30.9834Z" fill="#000039"/>
<path d="M67.5234 382.605L64.9746 390H63.4336L66.6445 381.469H67.6289L67.5234 382.605ZM69.6562 390L67.1016 382.605L66.9902 381.469H67.9805L71.2031 390H69.6562ZM69.5332 386.836V388.002H64.8926V386.836H69.5332Z" fill="#000039"/>
<path d="M112.213 386.145H110.039L110.027 385.072H111.926C112.246 385.072 112.518 385.025 112.74 384.932C112.967 384.834 113.139 384.695 113.256 384.516C113.373 384.332 113.432 384.111 113.432 383.854C113.432 383.568 113.377 383.336 113.268 383.156C113.158 382.977 112.99 382.846 112.764 382.764C112.541 382.682 112.256 382.641 111.908 382.641H110.484V390H109.014V381.469H111.908C112.377 381.469 112.795 381.514 113.162 381.604C113.533 381.693 113.848 381.834 114.105 382.025C114.367 382.213 114.564 382.451 114.697 382.74C114.834 383.029 114.902 383.373 114.902 383.771C114.902 384.123 114.818 384.445 114.65 384.738C114.482 385.027 114.234 385.264 113.906 385.447C113.578 385.631 113.17 385.74 112.682 385.775L112.213 386.145ZM112.148 390H109.576L110.238 388.834H112.148C112.48 388.834 112.758 388.779 112.98 388.67C113.203 388.557 113.369 388.402 113.479 388.207C113.592 388.008 113.648 387.775 113.648 387.51C113.648 387.232 113.6 386.992 113.502 386.789C113.404 386.582 113.25 386.424 113.039 386.314C112.828 386.201 112.553 386.145 112.213 386.145H110.561L110.572 385.072H112.723L113.057 385.477C113.525 385.492 113.91 385.596 114.211 385.787C114.516 385.979 114.742 386.227 114.891 386.531C115.039 386.836 115.113 387.164 115.113 387.516C115.113 388.059 114.994 388.514 114.756 388.881C114.521 389.248 114.184 389.527 113.742 389.719C113.301 389.906 112.77 390 112.148 390Z" fill="#000039"/>
<path d="M158.549 387.223H160.014C159.967 387.781 159.811 388.279 159.545 388.717C159.279 389.15 158.906 389.492 158.426 389.742C157.945 389.992 157.361 390.117 156.674 390.117C156.146 390.117 155.672 390.023 155.25 389.836C154.828 389.645 154.467 389.375 154.166 389.027C153.865 388.676 153.635 388.252 153.475 387.756C153.318 387.26 153.24 386.705 153.24 386.092V385.383C153.24 384.77 153.32 384.215 153.48 383.719C153.645 383.223 153.879 382.799 154.184 382.447C154.488 382.092 154.854 381.82 155.279 381.633C155.709 381.445 156.191 381.352 156.727 381.352C157.406 381.352 157.98 381.477 158.449 381.727C158.918 381.977 159.281 382.322 159.539 382.764C159.801 383.205 159.961 383.711 160.02 384.281H158.555C158.516 383.914 158.43 383.6 158.297 383.338C158.168 383.076 157.977 382.877 157.723 382.74C157.469 382.6 157.137 382.529 156.727 382.529C156.391 382.529 156.098 382.592 155.848 382.717C155.598 382.842 155.389 383.025 155.221 383.268C155.053 383.51 154.926 383.809 154.84 384.164C154.758 384.516 154.717 384.918 154.717 385.371V386.092C154.717 386.521 154.754 386.912 154.828 387.264C154.906 387.611 155.023 387.91 155.18 388.16C155.34 388.41 155.543 388.604 155.789 388.74C156.035 388.877 156.33 388.945 156.674 388.945C157.092 388.945 157.43 388.879 157.688 388.746C157.949 388.613 158.146 388.42 158.279 388.166C158.416 387.908 158.506 387.594 158.549 387.223Z" fill="#000039"/>
<path d="M200.613 390H198.791L198.803 388.834H200.613C201.141 388.834 201.582 388.719 201.938 388.488C202.297 388.258 202.566 387.928 202.746 387.498C202.93 387.068 203.021 386.557 203.021 385.963V385.5C203.021 385.039 202.969 384.631 202.863 384.275C202.762 383.92 202.609 383.621 202.406 383.379C202.207 383.137 201.961 382.953 201.668 382.828C201.379 382.703 201.045 382.641 200.666 382.641H198.756V381.469H200.666C201.232 381.469 201.75 381.564 202.219 381.756C202.688 381.943 203.092 382.215 203.432 382.57C203.775 382.926 204.039 383.352 204.223 383.848C204.406 384.344 204.498 384.898 204.498 385.512V385.963C204.498 386.576 204.406 387.131 204.223 387.627C204.039 388.123 203.775 388.549 203.432 388.904C203.088 389.256 202.678 389.527 202.201 389.719C201.729 389.906 201.199 390 200.613 390ZM199.605 381.469V390H198.135V381.469H199.605Z" fill="#000039"/>
<path d="M248.871 388.834V390H244.342V388.834H248.871ZM244.758 381.469V390H243.287V381.469H244.758ZM248.279 385.031V386.18H244.342V385.031H248.279ZM248.842 381.469V382.641H244.342V381.469H248.842Z" fill="#000039"/>
<path d="M289.471 381.469V390H288V381.469H289.471ZM292.951 385.201V386.367H289.096V385.201H292.951ZM293.438 381.469V382.641H289.096V381.469H293.438Z" fill="#000039"/>
<path d="M338.391 385.641V388.898C338.27 389.059 338.08 389.234 337.822 389.426C337.568 389.613 337.23 389.775 336.809 389.912C336.387 390.049 335.861 390.117 335.232 390.117C334.697 390.117 334.207 390.027 333.762 389.848C333.316 389.664 332.932 389.396 332.607 389.045C332.287 388.693 332.039 388.266 331.863 387.762C331.688 387.254 331.6 386.676 331.6 386.027V385.436C331.6 384.791 331.68 384.217 331.84 383.713C332.004 383.205 332.238 382.775 332.543 382.424C332.848 382.072 333.215 381.807 333.645 381.627C334.078 381.443 334.568 381.352 335.115 381.352C335.814 381.352 336.393 381.469 336.85 381.703C337.311 381.934 337.666 382.254 337.916 382.664C338.166 383.074 338.324 383.543 338.391 384.07H336.949C336.902 383.773 336.811 383.508 336.674 383.273C336.541 383.039 336.35 382.855 336.1 382.723C335.854 382.586 335.533 382.518 335.139 382.518C334.799 382.518 334.5 382.582 334.242 382.711C333.984 382.84 333.77 383.029 333.598 383.279C333.43 383.529 333.303 383.834 333.217 384.193C333.131 384.553 333.088 384.963 333.088 385.424V386.027C333.088 386.496 333.137 386.912 333.234 387.275C333.336 387.639 333.48 387.945 333.668 388.195C333.859 388.445 334.092 388.635 334.365 388.764C334.639 388.889 334.947 388.951 335.291 388.951C335.627 388.951 335.902 388.924 336.117 388.869C336.332 388.811 336.502 388.742 336.627 388.664C336.756 388.582 336.855 388.504 336.926 388.43V386.736H335.15V385.641H338.391Z" fill="#000039"/>
<path d="M381.932 385.031V386.197H377.402V385.031H381.932ZM377.766 381.469V390H376.295V381.469H377.766ZM383.062 381.469V390H381.598V381.469H383.062Z" fill="#000039"/>
<path d="M372.188 71.3047C372.529 71.3047 372.849 71.3945 373.125 71.5513C373.401 71.3945 373.721 71.3047 374.062 71.3047H379.219C379.56 71.3047 379.88 71.3945 380.156 71.5513C380.432 71.3945 380.752 71.3047 381.094 71.3047H385.781C386.817 71.3047 387.656 72.1302 387.656 73.1484V77.2969C387.656 77.8772 387.378 78.4237 386.906 78.7719L384.013 80.9056L384.832 88.1558C385.049 90.0752 385.958 91.0491 387.281 92.7844C387.525 93.1035 387.656 93.4917 387.656 93.8906V97.5781C387.656 98.5964 386.817 99.4219 385.781 99.4219H367.5C366.464 99.4219 365.625 98.5964 365.625 97.5781V93.8906C365.625 93.4917 365.757 93.1035 366 92.7844C367.324 91.0491 368.232 90.0752 368.449 88.1558L369.268 80.9056L366.375 78.7719C365.903 78.4237 365.625 77.8772 365.625 77.2969V73.1484C365.625 72.1302 366.464 71.3047 367.5 71.3047H372.188Z" fill="#34364C"/>
<path d="M367.5 73.1484H372.188V75.9141H374.062V73.1484H379.219V75.9141H381.094V73.1484H385.781V77.2969L382.031 80.0625L382.969 88.3594H370.313L371.25 80.0625L367.5 77.2969V73.1484Z" fill="#E8E8E8"/>
<path d="M370.312 90.2031H382.969L385.781 93.8906V97.5781H367.5V93.8906L370.312 90.2031Z" fill="#E8E8E8"/>
<path d="M191.832 87.957C191.608 88.2573 191.341 88.57 191.03 88.8917C189.932 90.027 188.585 90.961 187.716 91.4494L187.57 91.5316C186.986 91.8598 186.625 92.4708 186.625 93.1324V97.5781C186.625 98.5964 187.464 99.4219 188.5 99.4219H206.781C207.817 99.4219 208.656 98.5964 208.656 97.5781V93.1324C208.656 92.4708 208.296 91.8599 207.712 91.5316L207.565 91.4494C206.696 90.961 205.349 90.027 204.251 88.8917C203.94 88.57 203.673 88.2573 203.45 87.957C204.273 87.7621 204.884 87.0335 204.884 86.1644V83.1632C204.884 82.5641 204.588 82.0024 204.09 81.6569L203.294 81.1041C203.753 80.2262 204.013 79.2299 204.013 78.1749C204.013 74.6351 201.095 71.7656 197.496 71.7656C193.896 71.7656 190.978 74.6351 190.978 78.1749C190.978 79.2893 191.268 80.3378 191.776 81.2506L191.191 81.6569C190.693 82.0024 190.397 82.5641 190.397 83.1632V86.1644C190.397 87.0335 191.009 87.7621 191.832 87.957Z" fill="#34364C"/>
<path d="M202.138 78.1749C202.138 79.499 201.565 80.6914 200.649 81.5254L203.009 83.1632V86.1644H200.699C200.81 87.5556 201.718 88.9479 202.893 90.1623C204.139 91.4511 205.639 92.4906 206.635 93.0502L206.781 93.1324V97.5781H188.5V93.1324L188.646 93.0502C189.642 92.4906 191.142 91.4511 192.389 90.1623C193.563 88.9479 194.471 87.5556 194.582 86.1644H192.272V83.1632L194.47 81.6378C193.48 80.8005 192.853 79.5597 192.853 78.1749C192.853 75.6534 194.931 73.6094 197.496 73.6094C200.06 73.6094 202.138 75.6534 202.138 78.1749Z" fill="#E8E8E8"/>
<path d="M146.832 87.957C146.608 88.2573 146.341 88.57 146.03 88.8917C144.932 90.027 143.585 90.961 142.716 91.4494L142.57 91.5316C141.986 91.8598 141.625 92.4708 141.625 93.1324V97.5781C141.625 98.5964 142.464 99.4219 143.5 99.4219H161.781C162.817 99.4219 163.656 98.5964 163.656 97.5781V93.1324C163.656 92.4708 163.296 91.8599 162.712 91.5316L162.565 91.4494C161.696 90.961 160.349 90.027 159.251 88.8917C158.94 88.57 158.673 88.2573 158.45 87.957C159.273 87.7621 159.884 87.0335 159.884 86.1644V83.1632C159.884 82.5641 159.588 82.0024 159.09 81.6569L158.294 81.1041C158.753 80.2262 159.013 79.2299 159.013 78.1749C159.013 74.6351 156.095 71.7656 152.496 71.7656C148.896 71.7656 145.978 74.6351 145.978 78.1749C145.978 79.2893 146.268 80.3378 146.776 81.2506L146.191 81.6569C145.693 82.0024 145.397 82.5641 145.397 83.1632V86.1644C145.397 87.0335 146.009 87.7621 146.832 87.957Z" fill="#34364C"/>
<path d="M157.138 78.1749C157.138 79.499 156.565 80.6914 155.649 81.5254L158.009 83.1632V86.1644H155.699C155.81 87.5556 156.718 88.9479 157.893 90.1623C159.139 91.4511 160.639 92.4906 161.635 93.0502L161.781 93.1324V97.5781H143.5V93.1324L143.646 93.0502C144.642 92.4906 146.142 91.4511 147.389 90.1623C148.563 88.9479 149.471 87.5556 149.582 86.1644H147.272V83.1632L149.47 81.6378C148.48 80.8005 147.853 79.5597 147.853 78.1749C147.853 75.6534 149.931 73.6094 152.496 73.6094C155.06 73.6094 157.138 75.6534 157.138 78.1749Z" fill="#E8E8E8"/>
<path d="M325.832 87.957C325.608 88.2573 325.341 88.57 325.03 88.8917C323.932 90.027 322.585 90.961 321.716 91.4494L321.57 91.5316C320.986 91.8598 320.625 92.4708 320.625 93.1324V97.5781C320.625 98.5964 321.464 99.4219 322.5 99.4219H340.781C341.817 99.4219 342.656 98.5964 342.656 97.5781V93.1324C342.656 92.4708 342.296 91.8599 341.712 91.5316L341.565 91.4494C340.696 90.961 339.349 90.027 338.251 88.8917C337.94 88.57 337.673 88.2573 337.45 87.957C338.273 87.7621 338.884 87.0335 338.884 86.1644V83.1632C338.884 82.5641 338.588 82.0024 338.09 81.6569L337.294 81.1041C337.753 80.2262 338.013 79.2299 338.013 78.1749C338.013 74.6351 335.095 71.7656 331.496 71.7656C327.896 71.7656 324.978 74.6351 324.978 78.1749C324.978 79.2893 325.268 80.3378 325.776 81.2506L325.191 81.6569C324.693 82.0024 324.397 82.5641 324.397 83.1632V86.1644C324.397 87.0335 325.009 87.7621 325.832 87.957Z" fill="#34364C"/>
<path d="M336.138 78.1749C336.138 79.499 335.565 80.6914 334.649 81.5254L337.009 83.1632V86.1644H334.699C334.81 87.5556 335.718 88.9479 336.893 90.1623C338.139 91.4511 339.639 92.4906 340.635 93.0502L340.781 93.1324V97.5781H322.5V93.1324L322.646 93.0502C323.642 92.4906 325.142 91.4511 326.389 90.1623C327.563 88.9479 328.471 87.5556 328.582 86.1644H326.272V83.1632L328.47 81.6378C327.48 80.8005 326.853 79.5597 326.853 78.1749C326.853 75.6534 328.931 73.6094 331.496 73.6094C334.06 73.6094 336.138 75.6534 336.138 78.1749Z" fill="#E8E8E8"/>
<path d="M325.832 131.957C325.608 132.257 325.341 132.57 325.03 132.892C323.932 134.027 322.585 134.961 321.716 135.449L321.57 135.532C320.986 135.86 320.625 136.471 320.625 137.132V141.578C320.625 142.596 321.464 143.422 322.5 143.422H340.781C341.817 143.422 342.656 142.596 342.656 141.578V137.132C342.656 136.471 342.296 135.86 341.712 135.532L341.565 135.449C340.696 134.961 339.349 134.027 338.251 132.892C337.94 132.57 337.673 132.257 337.45 131.957C338.273 131.762 338.884 131.033 338.884 130.164V127.163C338.884 126.564 338.588 126.002 338.09 125.657L337.294 125.104C337.753 124.226 338.013 123.23 338.013 122.175C338.013 118.635 335.095 115.766 331.496 115.766C327.896 115.766 324.978 118.635 324.978 122.175C324.978 123.289 325.268 124.338 325.776 125.251L325.191 125.657C324.693 126.002 324.397 126.564 324.397 127.163V130.164C324.397 131.033 325.009 131.762 325.832 131.957Z" fill="#34364C"/>
<path d="M336.138 122.175C336.138 123.499 335.565 124.691 334.649 125.525L337.009 127.163V130.164H334.699C334.81 131.556 335.718 132.948 336.893 134.162C338.139 135.451 339.639 136.491 340.635 137.05L340.781 137.132V141.578H322.5V137.132L322.646 137.05C323.642 136.491 325.142 135.451 326.389 134.162C327.563 132.948 328.471 131.556 328.582 130.164H326.272V127.163L328.47 125.638C327.48 124.801 326.853 123.56 326.853 122.175C326.853 119.653 328.931 117.609 331.496 117.609C334.06 117.609 336.138 119.653 336.138 122.175Z" fill="#E8E8E8"/>
<path d="M283.917 26.2337C284.534 26.1655 285.146 26.4022 285.55 26.8658L289.376 31.2533C293.769 32.3208 296.314 35.5736 297.722 39.6344C299.172 43.8187 299.531 49.1308 299.531 54.5782C299.531 55.5964 298.692 56.4219 297.656 56.4219H280.174C279.179 56.4219 278.357 55.657 278.302 54.6797C278.253 53.8075 278.457 52.2942 279.079 50.7484L279.091 50.7201C277.325 51.6522 275.365 51.429 273.91 50.4104C272.142 49.1725 271.159 46.7493 272.282 44.3563C273.092 42.6307 273.965 41.7169 274.625 41.0258C275.242 40.3803 275.499 40.0963 275.681 39.381C276.784 35.0441 279.052 32.5457 281.488 31.4055C281.453 30.9114 281.482 30.4354 281.543 30.0032C281.697 28.9275 282.078 27.9334 282.468 27.2067C282.757 26.6663 283.3 26.302 283.917 26.2337Z" fill="#E8E8E8"/>
<path fill-rule="evenodd" clip-rule="evenodd" d="M288.361 32.9226L284.127 28.0659C283.514 29.2102 282.919 31.2299 283.774 32.6879C283.359 32.7242 282.963 32.7931 282.656 32.9141C280.701 33.6859 278.555 35.6797 277.5 39.8282C277.195 41.0294 276.645 41.6046 275.992 42.2883C275.375 42.9332 274.667 43.6746 273.984 45.1289C272.578 48.125 276.373 51.1211 279.141 48.3999C280.697 46.87 282.056 46.2384 283.198 45.7082C284.842 44.945 286.033 44.3917 286.706 41.6719C287.026 42.9405 286.898 45.9345 283.824 47.7614C280.751 49.5882 280.11 53.4364 280.174 54.5781H297.656C297.656 43.7384 296.197 34.3729 288.361 32.9226Z" fill="#34364C"/>
<ellipse cx="283.125" cy="38.4453" rx="1.40625" ry="1.38281" fill="#E8E8E8"/>
<path d="M104.917 201.234C105.534 201.165 106.146 201.402 106.55 201.866L110.376 206.253C114.769 207.321 117.314 210.574 118.722 214.634C120.172 218.819 120.531 224.131 120.531 229.578C120.531 230.596 119.692 231.422 118.656 231.422H101.174C100.179 231.422 99.3569 230.657 99.3021 229.68C99.2532 228.808 99.4572 227.294 100.079 225.748L100.091 225.72C98.3246 226.652 96.3648 226.429 94.91 225.41C93.1419 224.173 92.1588 221.749 93.282 219.356C94.092 217.631 94.9649 216.717 95.6253 216.026C96.2421 215.38 96.4992 215.096 96.681 214.381C97.7837 210.044 100.052 207.546 102.488 206.406C102.453 205.911 102.482 205.435 102.543 205.003C102.697 203.928 103.078 202.933 103.468 202.207C103.757 201.666 104.3 201.302 104.917 201.234Z" fill="#34364C"/>
<path fill-rule="evenodd" clip-rule="evenodd" d="M109.361 207.923L105.127 203.066C104.514 204.21 103.919 206.23 104.774 207.688C104.359 207.724 103.963 207.793 103.656 207.914C101.701 208.686 99.5547 210.68 98.5 214.828C98.1946 216.029 97.645 216.605 96.9917 217.288C96.3755 217.933 95.667 218.675 94.9844 220.129C93.5782 223.125 97.3733 226.121 100.141 223.4C101.697 221.87 103.056 221.238 104.198 220.708C105.842 219.945 107.033 219.392 107.706 216.672C108.026 217.941 107.898 220.935 104.824 222.761C101.751 224.588 101.11 228.436 101.174 229.578H118.656C118.656 218.738 117.197 209.373 109.361 207.923Z" fill="#E8E8E8"/>
<ellipse cx="104.125" cy="213.445" rx="1.40625" ry="1.38281" fill="#34364C"/>
</svg>
