<svg width="440" height="425" viewBox="0 0 440 425" fill="none" xmlns="http://www.w3.org/2000/svg">
<rect width="440" height="400" rx="10" fill="white"/>
<rect width="356" height="354" transform="translate(42 19)" fill="#E8E8E8"/>
<rect width="44.5" height="44.25" transform="translate(42 19)" fill="#E8E8E8"/>
<rect width="44.5" height="44.25" transform="translate(42 107.5)" fill="#E8E8E8"/>
<rect width="44.5" height="44.25" transform="translate(42 196)" fill="#E8E8E8"/>
<rect width="44.5" height="44.25" transform="translate(42 284.5)" fill="#E8E8E8"/>
<rect width="44.5" height="44.25" transform="translate(42 63.25)" fill="#333360"/>
<rect width="44.5" height="44.25" transform="translate(42 151.75)" fill="#333360"/>
<rect width="44.5" height="44.25" transform="translate(42 240.25)" fill="#333360"/>
<rect width="44.5" height="44.25" transform="translate(42 328.75)" fill="#333360"/>
<rect width="44.5" height="44.25" transform="translate(131 63.25)" fill="#333360"/>
<rect width="44.5" height="44.25" transform="translate(131 151.75)" fill="#333360"/>
<rect width="44.5" height="44.25" transform="translate(131 240.25)" fill="#333360"/>
<rect width="44.5" height="44.25" transform="translate(131 328.75)" fill="#333360"/>
<rect width="44.5" height="44.25" transform="translate(220 63.25)" fill="#333360"/>
<rect width="44.5" height="44.25" transform="translate(220 151.75)" fill="#333360"/>
<rect width="44.5" height="44.25" transform="translate(220 240.25)" fill="#333360"/>
<rect width="44.5" height="44.25" transform="translate(220 328.75)" fill="#333360"/>
<rect width="44.5" height="44.25" transform="translate(309 63.25)" fill="#333360"/>
<rect width="44.5" height="44.25" transform="translate(309 151.75)" fill="#333360"/>
<rect width="44.5" height="44.25" transform="translate(309 240.25)" fill="#333360"/>
<rect width="44.5" height="44.25" transform="translate(309 328.75)" fill="#333360"/>
<rect width="44.5" height="44.25" transform="translate(220 19)" fill="#E8E8E8"/>
<rect width="44.5" height="44.25" transform="translate(220 107.5)" fill="#E8E8E8"/>
<rect width="44.5" height="44.25" transform="translate(220 196)" fill="#E8E8E8"/>
<rect width="44.5" height="44.25" transform="translate(220 284.5)" fill="#E8E8E8"/>
<rect width="44.5" height="44.25" transform="translate(131 19)" fill="#E8E8E8"/>
<rect width="44.5" height="44.25" transform="translate(131 107.5)" fill="#E8E8E8"/>
<rect width="44.5" height="44.25" transform="translate(131 196)" fill="#E8E8E8"/>
<rect width="44.5" height="44.25" transform="translate(131 284.5)" fill="#E8E8E8"/>
<rect width="44.5" height="44.25" transform="translate(309 19)" fill="#E8E8E8"/>
<rect width="44.5" height="44.25" transform="translate(309 107.5)" fill="#E8E8E8"/>
<rect width="44.5" height="44.25" transform="translate(309 196)" fill="#E8E8E8"/>
<rect width="44.5" height="44.25" transform="translate(309 284.5)" fill="#E8E8E8"/>
<rect width="44.5" height="44.25" transform="translate(86.5 19)" fill="#333360"/>
<rect width="44.5" height="44.25" transform="translate(86.5 107.5)" fill="#333360"/>
<rect width="44.5" height="44.25" transform="translate(86.5 196)" fill="#333360"/>
<rect width="44.5" height="44.25" transform="translate(86.5 284.5)" fill="#333360"/>
<rect width="44.5" height="44.25" transform="translate(86.5 63.25)" fill="#E8E8E8"/>
<rect width="44.5" height="44.25" transform="translate(86.5 151.75)" fill="#E8E8E8"/>
<rect width="44.5" height="44.25" transform="translate(86.5 240.25)" fill="#E8E8E8"/>
<rect width="44.5" height="44.25" transform="translate(86.5 328.75)" fill="#E8E8E8"/>
<rect width="44.5" height="44.25" transform="translate(175.5 63.25)" fill="#E8E8E8"/>
<rect width="44.5" height="44.25" transform="translate(175.5 151.75)" fill="#E8E8E8"/>
<rect width="44.5" height="44.25" transform="translate(175.5 240.25)" fill="#E8E8E8"/>
<rect width="44.5" height="44.25" transform="translate(175.5 328.75)" fill="#E8E8E8"/>
<rect width="44.5" height="44.25" transform="translate(264.5 63.25)" fill="#E8E8E8"/>
<rect width="44.5" height="44.25" transform="translate(264.5 151.75)" fill="#E8E8E8"/>
<rect width="44.5" height="44.25" transform="translate(264.5 240.25)" fill="#E8E8E8"/>
<rect width="44.5" height="44.25" transform="translate(264.5 328.75)" fill="#E8E8E8"/>
<rect width="44.5" height="44.25" transform="translate(353.5 63.25)" fill="#E8E8E8"/>
<rect width="44.5" height="44.25" transform="translate(353.5 151.75)" fill="#E8E8E8"/>
<rect width="44.5" height="44.25" transform="translate(353.5 240.25)" fill="#E8E8E8"/>
<rect width="44.5" height="44.25" transform="translate(353.5 328.75)" fill="#E8E8E8"/>
<rect width="44.5" height="44.25" transform="translate(264.5 19)" fill="#333360"/>
<rect width="44.5" height="44.25" transform="translate(264.5 107.5)" fill="#333360"/>
<rect width="44.5" height="44.25" transform="translate(264.5 196)" fill="#333360"/>
<rect width="44.5" height="44.25" transform="translate(264.5 284.5)" fill="#333360"/>
<rect width="44.5" height="44.25" transform="translate(175.5 19)" fill="#333360"/>
<rect width="44.5" height="44.25" transform="translate(175.5 107.5)" fill="#333360"/>
<rect width="44.5" height="44.25" transform="translate(175.5 196)" fill="#333360"/>
<rect width="44.5" height="44.25" transform="translate(175.5 284.5)" fill="#333360"/>
<rect width="44.5" height="44.25" transform="translate(353.5 19)" fill="#333360"/>
<rect width="44.5" height="44.25" transform="translate(353.5 107.5)" fill="#333360"/>
<rect width="44.5" height="44.25" transform="translate(353.5 196)" fill="#333360"/>
<rect width="44.5" height="44.25" transform="translate(353.5 284.5)" fill="#333360"/>
<path d="M102.736 308.957C102.514 309.257 102.249 309.57 101.941 309.892C100.853 311.027 99.5178 311.961 98.6563 312.449L98.5114 312.532C97.9324 312.86 97.5751 313.471 97.5751 314.132V318.578C97.5751 319.596 98.4071 320.422 99.4334 320.422H117.553C118.579 320.422 119.411 319.596 119.411 318.578V314.132C119.411 313.471 119.054 312.86 118.475 312.532L118.33 312.449C117.468 311.961 116.133 311.027 115.045 309.892C114.737 309.57 114.472 309.257 114.25 308.957C115.066 308.762 115.672 308.033 115.672 307.164V304.163C115.672 303.564 115.379 303.002 114.885 302.657L114.096 302.104C114.552 301.226 114.809 300.23 114.809 299.175C114.809 295.635 111.917 292.766 108.349 292.766C104.781 292.766 101.889 295.635 101.889 299.175C101.889 300.289 102.177 301.338 102.681 302.251L102.101 302.657C101.607 303.002 101.314 303.564 101.314 304.163V307.164C101.314 308.033 101.92 308.762 102.736 308.957Z" fill="#34364C"/>
<path d="M112.951 299.175C112.951 300.499 112.383 301.691 111.475 302.525L113.814 304.163V307.164H111.524C111.635 308.556 112.534 309.948 113.699 311.162C114.934 312.451 116.421 313.491 117.408 314.05L117.553 314.132V318.578H99.4335V314.132L99.5784 314.05C100.566 313.491 102.052 312.451 103.287 311.162C104.452 309.948 105.351 308.556 105.462 307.164H103.172V304.163L105.35 302.638C104.369 301.801 103.748 300.56 103.748 299.175C103.748 296.653 105.808 294.609 108.349 294.609C110.891 294.609 112.951 296.653 112.951 299.175Z" fill="#E8E8E8"/>
<path d="M57.7355 219.957C57.5138 220.257 57.2493 220.57 56.9409 220.892C55.8525 222.027 54.5178 222.961 53.6563 223.449L53.5114 223.532C52.9324 223.86 52.5751 224.471 52.5751 225.132V229.578C52.5751 230.596 53.4071 231.422 54.4334 231.422H72.5526C73.5789 231.422 74.4109 230.596 74.4109 229.578V225.132C74.4109 224.471 74.0536 223.86 73.4746 223.532L73.3297 223.449C72.4682 222.961 71.1334 222.027 70.0451 220.892C69.7367 220.57 69.4722 220.257 69.2505 219.957C70.0661 219.762 70.6721 219.033 70.6721 218.164V215.163C70.6721 214.564 70.3787 214.002 69.8854 213.657L69.0961 213.104C69.5515 212.226 69.8092 211.23 69.8092 210.175C69.8092 206.635 66.917 203.766 63.3492 203.766C59.7814 203.766 56.8891 206.635 56.8891 210.175C56.8891 211.289 57.1766 212.338 57.6807 213.251L57.1006 213.657C56.6073 214.002 56.3139 214.564 56.3139 215.163V218.164C56.3139 219.033 56.9199 219.762 57.7355 219.957Z" fill="#34364C"/>
<path d="M67.9509 210.175C67.9509 211.499 67.3827 212.691 66.4751 213.525L68.8137 215.163V218.164H66.5243C66.6347 219.556 67.5344 220.948 68.6986 222.162C69.9341 223.451 71.4205 224.491 72.4077 225.05L72.5526 225.132V229.578H54.4335V225.132L54.5784 225.05C55.5655 224.491 57.052 223.451 58.2875 222.162C59.4517 220.948 60.3514 219.556 60.4618 218.164H58.1723V215.163L60.3504 213.638C59.369 212.801 58.7475 211.56 58.7475 210.175C58.7475 207.653 60.8078 205.609 63.3492 205.609C65.8907 205.609 67.9509 207.653 67.9509 210.175Z" fill="#E8E8E8"/>
<path d="M280.736 308.957C280.514 309.257 280.249 309.57 279.941 309.892C278.853 311.027 277.518 311.961 276.656 312.449L276.511 312.532C275.932 312.86 275.575 313.471 275.575 314.132V318.578C275.575 319.596 276.407 320.422 277.433 320.422H295.553C296.579 320.422 297.411 319.596 297.411 318.578V314.132C297.411 313.471 297.054 312.86 296.475 312.532L296.33 312.449C295.468 311.961 294.133 311.027 293.045 309.892C292.737 309.57 292.472 309.257 292.25 308.957C293.066 308.762 293.672 308.033 293.672 307.164V304.163C293.672 303.564 293.379 303.002 292.885 302.657L292.096 302.104C292.552 301.226 292.809 300.23 292.809 299.175C292.809 295.635 289.917 292.766 286.349 292.766C282.781 292.766 279.889 295.635 279.889 299.175C279.889 300.289 280.177 301.338 280.681 302.251L280.101 302.657C279.607 303.002 279.314 303.564 279.314 304.163V307.164C279.314 308.033 279.92 308.762 280.736 308.957Z" fill="#34364C"/>
<path d="M290.951 299.175C290.951 300.499 290.383 301.691 289.475 302.525L291.814 304.163V307.164H289.524C289.635 308.556 290.534 309.948 291.699 311.162C292.934 312.451 294.421 313.491 295.408 314.05L295.553 314.132V318.578H277.433V314.132L277.578 314.05C278.566 313.491 280.052 312.451 281.287 311.162C282.452 309.948 283.351 308.556 283.462 307.164H281.172V304.163L283.35 302.638C282.369 301.801 281.748 300.56 281.748 299.175C281.748 296.653 283.808 294.609 286.349 294.609C288.891 294.609 290.951 296.653 290.951 299.175Z" fill="#E8E8E8"/>
<path d="M323.736 308.957C323.514 309.257 323.249 309.57 322.941 309.892C321.853 311.027 320.518 311.961 319.656 312.449L319.511 312.532C318.932 312.86 318.575 313.471 318.575 314.132V318.578C318.575 319.596 319.407 320.422 320.433 320.422H338.553C339.579 320.422 340.411 319.596 340.411 318.578V314.132C340.411 313.471 340.054 312.86 339.475 312.532L339.33 312.449C338.468 311.961 337.133 311.027 336.045 309.892C335.737 309.57 335.472 309.257 335.25 308.957C336.066 308.762 336.672 308.033 336.672 307.164V304.163C336.672 303.564 336.379 303.002 335.885 302.657L335.096 302.104C335.552 301.226 335.809 300.23 335.809 299.175C335.809 295.635 332.917 292.766 329.349 292.766C325.781 292.766 322.889 295.635 322.889 299.175C322.889 300.289 323.177 301.338 323.681 302.251L323.101 302.657C322.607 303.002 322.314 303.564 322.314 304.163V307.164C322.314 308.033 322.92 308.762 323.736 308.957Z" fill="#34364C"/>
<path d="M333.951 299.175C333.951 300.499 333.383 301.691 332.475 302.525L334.814 304.163V307.164H332.524C332.635 308.556 333.534 309.948 334.699 311.162C335.934 312.451 337.421 313.491 338.408 314.05L338.553 314.132V318.578H320.433V314.132L320.578 314.05C321.566 313.491 323.052 312.451 324.287 311.162C325.452 309.948 326.351 308.556 326.462 307.164H324.172V304.163L326.35 302.638C325.369 301.801 324.748 300.56 324.748 299.175C324.748 296.653 326.808 294.609 329.349 294.609C331.891 294.609 333.951 296.653 333.951 299.175Z" fill="#E8E8E8"/>
<path d="M370.736 308.957C370.514 309.257 370.249 309.57 369.941 309.892C368.853 311.027 367.518 311.961 366.656 312.449L366.511 312.532C365.932 312.86 365.575 313.471 365.575 314.132V318.578C365.575 319.596 366.407 320.422 367.433 320.422H385.553C386.579 320.422 387.411 319.596 387.411 318.578V314.132C387.411 313.471 387.054 312.86 386.475 312.532L386.33 312.449C385.468 311.961 384.133 311.027 383.045 309.892C382.737 309.57 382.472 309.257 382.25 308.957C383.066 308.762 383.672 308.033 383.672 307.164V304.163C383.672 303.564 383.379 303.002 382.885 302.657L382.096 302.104C382.552 301.226 382.809 300.23 382.809 299.175C382.809 295.635 379.917 292.766 376.349 292.766C372.781 292.766 369.889 295.635 369.889 299.175C369.889 300.289 370.177 301.338 370.681 302.251L370.101 302.657C369.607 303.002 369.314 303.564 369.314 304.163V307.164C369.314 308.033 369.92 308.762 370.736 308.957Z" fill="#34364C"/>
<path d="M380.951 299.175C380.951 300.499 380.383 301.691 379.475 302.525L381.814 304.163V307.164H379.524C379.635 308.556 380.534 309.948 381.699 311.162C382.934 312.451 384.421 313.491 385.408 314.05L385.553 314.132V318.578H367.433V314.132L367.578 314.05C368.566 313.491 370.052 312.451 371.287 311.162C372.452 309.948 373.351 308.556 373.462 307.164H371.172V304.163L373.35 302.638C372.369 301.801 371.748 300.56 371.748 299.175C371.748 296.653 373.808 294.609 376.349 294.609C378.891 294.609 380.951 296.653 380.951 299.175Z" fill="#E8E8E8"/>
<path fill-rule="evenodd" clip-rule="evenodd" d="M238.939 334.786C238.97 333.791 239.792 333 240.796 333H243.584C244.587 333 245.41 333.791 245.441 334.786L245.458 335.305H246.371C247.398 335.305 248.23 336.13 248.23 337.148V338.267C250.255 337.812 252.442 338.116 254.298 339.65C258.153 342.837 257.798 349.519 253.223 353.174C252.119 354.056 251.251 354.787 250.654 355.54C250.518 355.712 250.401 355.878 250.303 356.041L252.186 356.294C253.108 356.418 253.795 357.198 253.795 358.121V361.578C253.795 362.596 252.963 363.422 251.937 363.422H232.443C231.417 363.422 230.585 362.596 230.585 361.578V358.121C230.585 357.198 231.272 356.418 232.194 356.294L234.077 356.041C233.979 355.878 233.862 355.712 233.726 355.54C233.129 354.787 232.261 354.056 231.157 353.174C226.582 349.519 226.227 342.837 230.082 339.65C231.938 338.116 234.125 337.812 236.15 338.267V337.148C236.15 336.13 236.982 335.305 238.009 335.305H238.922L238.939 334.786Z" fill="#34364C"/>
<path fill-rule="evenodd" clip-rule="evenodd" d="M240.796 334.844H243.584L243.656 337.148H246.371V339.914H243.743L243.871 343.045C243.922 342.986 243.974 342.927 244.029 342.87C246.567 340.194 250.33 338.77 253.108 341.066C255.895 343.371 255.895 348.672 252.057 351.738C249.883 353.474 247.936 355.148 248.032 357.597L251.937 358.121V361.578H232.443V358.121L236.348 357.597C236.444 355.148 234.497 353.474 232.323 351.738C228.484 348.672 228.484 343.371 231.272 341.066C234.05 338.77 237.813 340.194 240.351 342.87C240.405 342.927 240.458 342.986 240.509 343.045L240.636 339.914H238.009V337.148H240.724L240.796 334.844ZM238.17 345.433C239.874 348.201 240.099 351.438 240.099 352.845C239.245 352.846 236.027 351.441 234.322 349.135C233.095 347.474 232.776 345.011 233.827 344.054C234.879 343.098 237.106 343.703 238.17 345.433ZM246.21 345.433C244.506 348.201 244.281 351.438 244.281 352.845C245.134 352.846 248.353 351.441 250.058 349.135C251.284 347.474 251.604 345.011 250.553 344.054C249.501 343.098 247.274 343.703 246.21 345.433Z" fill="#E8E8E8"/>
<path d="M59.0794 26.3047C59.4179 26.3047 59.7352 26.3945 60.0086 26.5513C60.2819 26.3945 60.5992 26.3047 60.9377 26.3047H66.0483C66.3867 26.3047 66.7041 26.3945 66.9774 26.5513C67.2508 26.3945 67.5681 26.3047 67.9066 26.3047H72.5526C73.5789 26.3047 74.4109 27.1302 74.4109 28.1484V32.2969C74.4109 32.8772 74.1355 33.4237 73.6676 33.7719L70.8 35.9056L71.612 43.1558C71.827 45.0752 72.7275 46.0491 74.0392 47.7844C74.2805 48.1035 74.4109 48.4917 74.4109 48.8906V52.5781C74.4109 53.5964 73.5789 54.4219 72.5526 54.4219H54.4334C53.4071 54.4219 52.5751 53.5964 52.5751 52.5781V48.8906C52.5751 48.4917 52.7055 48.1035 52.9467 47.7844C54.2585 46.0491 55.159 45.0752 55.374 43.1558L56.186 35.9056L53.3184 33.7719C52.8505 33.4237 52.5751 32.8772 52.5751 32.2969V28.1484C52.5751 27.1302 53.4071 26.3047 54.4334 26.3047H59.0794Z" fill="#E8E8E8"/>
<path d="M54.4335 28.1484H59.0794V30.9141H60.9378V28.1484H66.0483V30.9141H67.9067V28.1484H72.5526V32.2969L68.8358 35.0625L69.765 43.3594H57.221L58.1502 35.0625L54.4335 32.2969V28.1484Z" fill="#34364C"/>
<path d="M57.221 45.2031H69.765L72.5526 48.8906V52.5781H54.4335V48.8906L57.221 45.2031Z" fill="#34364C"/>
<path fill-rule="evenodd" clip-rule="evenodd" d="M238.939 69.7862C238.97 68.7908 239.792 68 240.796 68H243.584C244.587 68 245.41 68.7908 245.441 69.7862L245.458 70.3047H246.371C247.398 70.3047 248.23 71.1302 248.23 72.1484V73.2667C250.255 72.8119 252.442 73.1157 254.298 74.65C258.153 77.8374 257.798 84.5191 253.223 88.1738C252.119 89.0558 251.251 89.7869 250.654 90.5403C250.518 90.7122 250.401 90.8785 250.303 91.0413L252.186 91.294C253.108 91.4177 253.795 92.1983 253.795 93.1211V96.5781C253.795 97.5964 252.963 98.4219 251.937 98.4219H232.443C231.417 98.4219 230.585 97.5964 230.585 96.5781V93.1211C230.585 92.1983 231.272 91.4177 232.194 91.294L234.077 91.0413C233.979 90.8785 233.862 90.7122 233.726 90.5403C233.129 89.7869 232.261 89.0557 231.157 88.1738C226.582 84.5191 226.227 77.8374 230.082 74.65C231.938 73.1157 234.125 72.8119 236.15 73.2667V72.1484C236.15 71.1302 236.982 70.3047 238.009 70.3047H238.922L238.939 69.7862Z" fill="#E8E8E8"/>
<path fill-rule="evenodd" clip-rule="evenodd" d="M240.796 69.8438H243.584L243.656 72.1484H246.371V74.9141H243.743L243.871 78.0452C243.922 77.9857 243.974 77.9273 244.029 77.8703C246.567 75.1939 250.33 73.7697 253.108 76.0664C255.895 78.3711 255.895 83.6719 252.057 86.7376C249.883 88.4743 247.936 90.1485 248.032 92.5971L251.937 93.1211V96.5781H232.443V93.1211L236.348 92.5971C236.444 90.1485 234.497 88.4743 232.323 86.7376C228.484 83.6719 228.484 78.3711 231.272 76.0664C234.05 73.7697 237.813 75.1939 240.351 77.8703C240.405 77.9273 240.458 77.9857 240.509 78.0452L240.636 74.9141H238.009V72.1484H240.724L240.796 69.8438ZM238.17 80.4329C239.874 83.2013 240.099 86.4375 240.099 87.8448C239.245 87.8464 236.027 86.4414 234.322 84.135C233.095 82.4745 232.776 80.0109 233.827 79.0544C234.879 78.098 237.106 78.7027 238.17 80.4329ZM246.21 80.4329C244.506 83.2013 244.281 86.4375 244.281 87.8448C245.134 87.8464 248.353 86.4414 250.058 84.135C251.284 82.4745 251.604 80.0109 250.553 79.0544C249.501 78.098 247.274 78.7027 246.21 80.4329Z" fill="#34364C"/>
<path d="M235.736 128.957C235.514 129.257 235.249 129.57 234.941 129.892C233.853 131.027 232.518 131.961 231.656 132.449L231.511 132.532C230.932 132.86 230.575 133.471 230.575 134.132V138.578C230.575 139.596 231.407 140.422 232.433 140.422H250.553C251.579 140.422 252.411 139.596 252.411 138.578V134.132C252.411 133.471 252.054 132.86 251.475 132.532L251.33 132.449C250.468 131.961 249.133 131.027 248.045 129.892C247.737 129.57 247.472 129.257 247.25 128.957C248.066 128.762 248.672 128.033 248.672 127.164V124.163C248.672 123.564 248.379 123.002 247.885 122.657L247.096 122.104C247.552 121.226 247.809 120.23 247.809 119.175C247.809 115.635 244.917 112.766 241.349 112.766C237.781 112.766 234.889 115.635 234.889 119.175C234.889 120.289 235.177 121.338 235.681 122.251L235.101 122.657C234.607 123.002 234.314 123.564 234.314 124.163V127.164C234.314 128.033 234.92 128.762 235.736 128.957Z" fill="#E8E8E8"/>
<path d="M245.951 119.175C245.951 120.499 245.383 121.691 244.475 122.525L246.814 124.163V127.164H244.524C244.635 128.556 245.534 129.948 246.699 131.162C247.934 132.451 249.421 133.491 250.408 134.05L250.553 134.132V138.578H232.433V134.132L232.578 134.05C233.566 133.491 235.052 132.451 236.287 131.162C237.452 129.948 238.351 128.556 238.462 127.164H236.172V124.163L238.35 122.638C237.369 121.801 236.748 120.56 236.748 119.175C236.748 116.653 238.808 114.609 241.349 114.609C243.891 114.609 245.951 116.653 245.951 119.175Z" fill="#34364C"/>
<path d="M191.736 219.957C191.514 220.257 191.249 220.57 190.941 220.892C189.853 222.027 188.518 222.961 187.656 223.449L187.511 223.532C186.932 223.86 186.575 224.471 186.575 225.132V229.578C186.575 230.596 187.407 231.422 188.433 231.422H206.553C207.579 231.422 208.411 230.596 208.411 229.578V225.132C208.411 224.471 208.054 223.86 207.475 223.532L207.33 223.449C206.468 222.961 205.133 222.027 204.045 220.892C203.737 220.57 203.472 220.257 203.25 219.957C204.066 219.762 204.672 219.033 204.672 218.164V215.163C204.672 214.564 204.379 214.002 203.885 213.657L203.096 213.104C203.552 212.226 203.809 211.23 203.809 210.175C203.809 206.635 200.917 203.766 197.349 203.766C193.781 203.766 190.889 206.635 190.889 210.175C190.889 211.289 191.177 212.338 191.681 213.251L191.101 213.657C190.607 214.002 190.314 214.564 190.314 215.163V218.164C190.314 219.033 190.92 219.762 191.736 219.957Z" fill="#E8E8E8"/>
<path d="M201.951 210.175C201.951 211.499 201.383 212.691 200.475 213.525L202.814 215.163V218.164H200.524C200.635 219.556 201.534 220.948 202.699 222.162C203.934 223.451 205.421 224.491 206.408 225.05L206.553 225.132V229.578H188.433V225.132L188.578 225.05C189.566 224.491 191.052 223.451 192.287 222.162C193.452 220.948 194.351 219.556 194.462 218.164H192.172V215.163L194.35 213.638C193.369 212.801 192.748 211.56 192.748 210.175C192.748 207.653 194.808 205.609 197.349 205.609C199.891 205.609 201.951 207.653 201.951 210.175Z" fill="#34364C"/>
<path d="M412.706 44.6738C412.706 45.2051 412.583 45.6523 412.337 46.0156C412.091 46.3789 411.755 46.6543 411.329 46.8418C410.907 47.0254 410.431 47.1172 409.899 47.1172C409.368 47.1172 408.89 47.0254 408.464 46.8418C408.038 46.6543 407.702 46.3789 407.456 46.0156C407.21 45.6523 407.087 45.2051 407.087 44.6738C407.087 44.3223 407.155 44.0039 407.292 43.7188C407.429 43.4297 407.622 43.1816 407.872 42.9746C408.126 42.7637 408.423 42.6016 408.763 42.4883C409.106 42.375 409.481 42.3184 409.888 42.3184C410.427 42.3184 410.909 42.418 411.335 42.6172C411.761 42.8164 412.095 43.0918 412.337 43.4434C412.583 43.7949 412.706 44.2051 412.706 44.6738ZM411.288 44.6035C411.288 44.3184 411.23 44.0684 411.112 43.8535C410.995 43.6387 410.831 43.4727 410.62 43.3555C410.409 43.2383 410.165 43.1797 409.888 43.1797C409.606 43.1797 409.362 43.2383 409.155 43.3555C408.948 43.4727 408.786 43.6387 408.669 43.8535C408.556 44.0684 408.499 44.3184 408.499 44.6035C408.499 44.8926 408.556 45.1426 408.669 45.3535C408.782 45.5605 408.944 45.7188 409.155 45.8281C409.366 45.9375 409.614 45.9922 409.899 45.9922C410.185 45.9922 410.431 45.9375 410.638 45.8281C410.845 45.7188 411.005 45.5605 411.118 45.3535C411.231 45.1426 411.288 44.8926 411.288 44.6035ZM412.513 40.7129C412.513 41.1387 412.399 41.5176 412.173 41.8496C411.95 42.1816 411.642 42.4434 411.247 42.6348C410.853 42.8223 410.403 42.916 409.899 42.916C409.392 42.916 408.938 42.8223 408.54 42.6348C408.146 42.4434 407.835 42.1816 407.608 41.8496C407.386 41.5176 407.274 41.1387 407.274 40.7129C407.274 40.2051 407.386 39.7773 407.608 39.4297C407.835 39.0781 408.146 38.8105 408.54 38.627C408.935 38.4434 409.386 38.3516 409.894 38.3516C410.401 38.3516 410.853 38.4434 411.247 38.627C411.642 38.8105 411.95 39.0781 412.173 39.4297C412.399 39.7773 412.513 40.2051 412.513 40.7129ZM411.101 40.7598C411.101 40.5059 411.05 40.2832 410.948 40.0918C410.851 39.8965 410.712 39.7441 410.532 39.6348C410.353 39.5254 410.14 39.4707 409.894 39.4707C409.647 39.4707 409.435 39.5234 409.255 39.6289C409.075 39.7344 408.937 39.8828 408.839 40.0742C408.741 40.2656 408.692 40.4941 408.692 40.7598C408.692 41.0215 408.741 41.25 408.839 41.4453C408.937 41.6367 409.075 41.7871 409.255 41.8965C409.438 42.0059 409.653 42.0605 409.899 42.0605C410.146 42.0605 410.358 42.0059 410.538 41.8965C410.718 41.7871 410.856 41.6367 410.954 41.4453C411.052 41.25 411.101 41.0215 411.101 40.7598Z" fill="#000039"/>
<path d="M412.794 82.7188V83.4922L409.384 91.25H407.896L411.3 83.8438H406.882V82.7188H412.794Z" fill="#000039"/>
<path d="M411.394 126.916H411.569V128.07H411.47C410.966 128.07 410.53 128.148 410.163 128.305C409.8 128.461 409.501 128.676 409.267 128.949C409.032 129.223 408.856 129.543 408.739 129.91C408.626 130.273 408.569 130.66 408.569 131.07V132.412C408.569 132.752 408.606 133.053 408.681 133.314C408.755 133.572 408.858 133.789 408.991 133.965C409.128 134.137 409.284 134.268 409.46 134.357C409.636 134.447 409.825 134.492 410.028 134.492C410.239 134.492 410.431 134.449 410.603 134.363C410.774 134.273 410.921 134.15 411.042 133.994C411.163 133.838 411.255 133.652 411.317 133.438C411.38 133.223 411.411 132.988 411.411 132.734C411.411 132.492 411.38 132.266 411.317 132.055C411.259 131.84 411.171 131.652 411.054 131.492C410.937 131.328 410.79 131.201 410.614 131.111C410.442 131.018 410.243 130.971 410.017 130.971C409.735 130.971 409.48 131.037 409.249 131.17C409.022 131.303 408.839 131.477 408.698 131.691C408.562 131.902 408.487 132.127 408.476 132.365L407.937 132.189C407.968 131.826 408.048 131.5 408.177 131.211C408.31 130.922 408.483 130.676 408.698 130.473C408.913 130.27 409.161 130.115 409.442 130.01C409.728 129.9 410.04 129.846 410.38 129.846C410.794 129.846 411.153 129.924 411.458 130.08C411.763 130.236 412.015 130.449 412.214 130.719C412.417 130.984 412.567 131.289 412.665 131.633C412.767 131.973 412.817 132.328 412.817 132.699C412.817 133.109 412.755 133.492 412.63 133.848C412.505 134.199 412.321 134.508 412.079 134.773C411.841 135.039 411.55 135.246 411.206 135.395C410.866 135.543 410.48 135.617 410.046 135.617C409.589 135.617 409.181 135.529 408.821 135.354C408.466 135.178 408.163 134.936 407.913 134.627C407.667 134.318 407.48 133.963 407.351 133.561C407.222 133.158 407.157 132.732 407.157 132.283V131.697C407.157 131.049 407.239 130.438 407.403 129.863C407.567 129.285 407.819 128.775 408.159 128.334C408.503 127.893 408.942 127.547 409.478 127.297C410.013 127.043 410.651 126.916 411.394 126.916Z" fill="#000039"/>
<path d="M408.61 175.783L407.485 175.508L407.948 171.219H412.548V172.414H409.12L408.886 174.506C409.019 174.428 409.202 174.352 409.437 174.277C409.671 174.199 409.938 174.16 410.239 174.16C410.642 174.16 411.001 174.227 411.317 174.359C411.638 174.488 411.909 174.678 412.132 174.928C412.355 175.174 412.524 175.475 412.642 175.83C412.759 176.182 412.817 176.578 412.817 177.02C412.817 177.414 412.759 177.783 412.642 178.127C412.528 178.471 412.356 178.773 412.126 179.035C411.896 179.297 411.605 179.502 411.253 179.65C410.905 179.795 410.493 179.867 410.017 179.867C409.661 179.867 409.319 179.816 408.991 179.715C408.667 179.609 408.376 179.455 408.118 179.252C407.86 179.045 407.653 178.791 407.497 178.49C407.341 178.186 407.251 177.836 407.228 177.441H408.61C408.646 177.719 408.722 177.955 408.839 178.15C408.96 178.342 409.12 178.488 409.319 178.59C409.519 178.691 409.749 178.742 410.011 178.742C410.249 178.742 410.454 178.701 410.626 178.619C410.798 178.533 410.94 178.412 411.054 178.256C411.171 178.096 411.257 177.908 411.312 177.693C411.37 177.479 411.399 177.24 411.399 176.979C411.399 176.729 411.366 176.5 411.3 176.293C411.237 176.086 411.142 175.906 411.013 175.754C410.888 175.602 410.73 175.484 410.538 175.402C410.347 175.316 410.126 175.273 409.876 175.273C409.54 175.273 409.282 175.322 409.103 175.42C408.927 175.518 408.763 175.639 408.61 175.783Z" fill="#000039"/>
<path d="M413.005 220.959V222.084H406.853L406.806 221.234L410.485 215.469H411.616L410.392 217.566L408.276 220.959H413.005ZM411.938 215.469V224H410.526V215.469H411.938Z" fill="#000039"/>
<path d="M408.786 263.346H409.63C409.958 263.346 410.23 263.289 410.444 263.176C410.663 263.062 410.825 262.906 410.931 262.707C411.036 262.508 411.089 262.279 411.089 262.021C411.089 261.752 411.04 261.521 410.942 261.33C410.849 261.135 410.704 260.984 410.509 260.879C410.317 260.773 410.073 260.721 409.776 260.721C409.526 260.721 409.3 260.771 409.097 260.873C408.897 260.971 408.739 261.111 408.622 261.295C408.505 261.475 408.446 261.689 408.446 261.939H407.028C407.028 261.486 407.147 261.084 407.386 260.732C407.624 260.381 407.948 260.105 408.358 259.906C408.772 259.703 409.237 259.602 409.753 259.602C410.304 259.602 410.784 259.693 411.194 259.877C411.608 260.057 411.931 260.326 412.161 260.686C412.392 261.045 412.507 261.49 412.507 262.021C412.507 262.264 412.45 262.51 412.337 262.76C412.224 263.01 412.056 263.238 411.833 263.445C411.61 263.648 411.333 263.814 411.001 263.943C410.669 264.068 410.284 264.131 409.847 264.131H408.786V263.346ZM408.786 264.447V263.674H409.847C410.347 263.674 410.772 263.732 411.124 263.85C411.48 263.967 411.769 264.129 411.991 264.336C412.214 264.539 412.376 264.771 412.478 265.033C412.583 265.295 412.636 265.572 412.636 265.865C412.636 266.264 412.563 266.619 412.419 266.932C412.278 267.24 412.077 267.502 411.815 267.717C411.554 267.932 411.247 268.094 410.896 268.203C410.548 268.312 410.169 268.367 409.759 268.367C409.392 268.367 409.04 268.316 408.704 268.215C408.368 268.113 408.067 267.963 407.802 267.764C407.536 267.561 407.325 267.309 407.169 267.008C407.017 266.703 406.94 266.352 406.94 265.953H408.353C408.353 266.207 408.411 266.432 408.528 266.627C408.649 266.818 408.817 266.969 409.032 267.078C409.251 267.188 409.501 267.242 409.782 267.242C410.079 267.242 410.335 267.189 410.55 267.084C410.765 266.979 410.929 266.822 411.042 266.615C411.159 266.408 411.218 266.158 411.218 265.865C411.218 265.533 411.153 265.264 411.024 265.057C410.896 264.85 410.712 264.697 410.474 264.6C410.235 264.498 409.954 264.447 409.63 264.447H408.786Z" fill="#000039"/>
<path d="M412.847 311.375V312.5H407.128V311.533L409.905 308.504C410.21 308.16 410.45 307.863 410.626 307.613C410.802 307.363 410.925 307.139 410.995 306.939C411.069 306.736 411.106 306.539 411.106 306.348C411.106 306.078 411.056 305.842 410.954 305.639C410.856 305.432 410.712 305.27 410.521 305.152C410.329 305.031 410.097 304.971 409.823 304.971C409.507 304.971 409.241 305.039 409.026 305.176C408.812 305.312 408.649 305.502 408.54 305.744C408.431 305.982 408.376 306.256 408.376 306.564H406.964C406.964 306.068 407.077 305.615 407.304 305.205C407.53 304.791 407.858 304.463 408.288 304.221C408.718 303.975 409.235 303.852 409.841 303.852C410.411 303.852 410.896 303.947 411.294 304.139C411.692 304.33 411.995 304.602 412.202 304.953C412.413 305.305 412.519 305.721 412.519 306.201C412.519 306.467 412.476 306.73 412.39 306.992C412.304 307.254 412.181 307.516 412.021 307.777C411.864 308.035 411.679 308.295 411.464 308.557C411.249 308.814 411.013 309.076 410.755 309.342L408.909 311.375H412.847Z" fill="#000039"/>
<path d="M410.983 348.189V356.75H409.571V349.865L407.48 350.574V349.408L410.813 348.189H410.983Z" fill="#000039"/>
<path d="M238.794 157.234C239.405 157.165 240.011 157.402 240.412 157.866L244.204 162.253C248.558 163.321 251.081 166.574 252.476 170.634C253.914 174.819 254.269 180.131 254.269 185.578C254.269 186.596 253.437 187.422 252.411 187.422H235.084C234.097 187.422 233.283 186.657 233.228 185.68C233.18 184.808 233.382 183.294 233.998 181.748L234.01 181.72C232.26 182.652 230.317 182.429 228.875 181.41C227.123 180.173 226.148 177.749 227.262 175.356C228.064 173.631 228.93 172.717 229.584 172.026C230.196 171.38 230.45 171.096 230.631 170.381C231.723 166.044 233.972 163.546 236.386 162.406C236.351 161.911 236.38 161.435 236.441 161.003C236.593 159.928 236.971 158.933 237.357 158.207C237.644 157.666 238.182 157.302 238.794 157.234Z" fill="#34364C"/>
<path fill-rule="evenodd" clip-rule="evenodd" d="M243.198 163.923L239.001 159.066C238.394 160.21 237.805 162.23 238.652 163.688C238.241 163.724 237.848 163.793 237.544 163.914C235.606 164.686 233.479 166.68 232.433 170.828C232.131 172.029 231.586 172.605 230.938 173.288C230.328 173.933 229.626 174.675 228.949 176.129C227.555 179.125 231.317 182.121 234.06 179.4C235.602 177.87 236.949 177.238 238.081 176.708C239.71 175.945 240.891 175.392 241.558 172.672C241.875 173.941 241.748 176.935 238.702 178.761C235.655 180.588 235.02 184.436 235.084 185.578H252.411C252.411 174.738 250.964 165.373 243.198 163.923Z" fill="#E8E8E8"/>
<ellipse cx="238.009" cy="169.445" rx="1.39378" ry="1.38281" fill="#34364C"/>
<path d="M149.794 245.234C150.405 245.165 151.011 245.402 151.412 245.866L155.204 250.253C159.558 251.321 162.081 254.574 163.476 258.634C164.914 262.819 165.269 268.131 165.269 273.578C165.269 274.596 164.437 275.422 163.411 275.422H146.084C145.097 275.422 144.283 274.657 144.228 273.68C144.18 272.808 144.382 271.294 144.998 269.748L145.01 269.72C143.26 270.652 141.317 270.429 139.875 269.41C138.123 268.173 137.148 265.749 138.262 263.356C139.064 261.631 139.93 260.717 140.584 260.026C141.196 259.38 141.45 259.096 141.631 258.381C142.723 254.044 144.972 251.546 147.386 250.406C147.351 249.911 147.38 249.435 147.441 249.003C147.593 247.928 147.971 246.933 148.357 246.207C148.644 245.666 149.182 245.302 149.794 245.234Z" fill="#34364C"/>
<path fill-rule="evenodd" clip-rule="evenodd" d="M154.198 251.923L150.001 247.066C149.394 248.21 148.805 250.23 149.652 251.688C149.241 251.724 148.848 251.793 148.544 251.914C146.606 252.686 144.479 254.68 143.433 258.828C143.131 260.029 142.586 260.605 141.938 261.288C141.328 261.933 140.626 262.675 139.949 264.129C138.555 267.125 142.317 270.121 145.06 267.4C146.602 265.87 147.949 265.238 149.081 264.708C150.71 263.945 151.891 263.392 152.558 260.672C152.875 261.941 152.748 264.935 149.702 266.761C146.655 268.588 146.02 272.436 146.084 273.578H163.411C163.411 262.738 161.964 253.373 154.198 251.923Z" fill="#E8E8E8"/>
<ellipse cx="149.009" cy="257.445" rx="1.39378" ry="1.38281" fill="#34364C"/>
<path d="M372.079 26.3047C372.418 26.3047 372.735 26.3945 373.009 26.5513C373.282 26.3945 373.599 26.3047 373.938 26.3047H379.048C379.387 26.3047 379.704 26.3945 379.977 26.5513C380.251 26.3945 380.568 26.3047 380.907 26.3047H385.553C386.579 26.3047 387.411 27.1302 387.411 28.1484V32.2969C387.411 32.8772 387.136 33.4237 386.668 33.7719L383.8 35.9056L384.612 43.1558C384.827 45.0752 385.727 46.0491 387.039 47.7844C387.281 48.1035 387.411 48.4917 387.411 48.8906V52.5781C387.411 53.5964 386.579 54.4219 385.553 54.4219H367.433C366.407 54.4219 365.575 53.5964 365.575 52.5781V48.8906C365.575 48.4917 365.705 48.1035 365.947 47.7844C367.259 46.0491 368.159 45.0752 368.374 43.1558L369.186 35.9056L366.318 33.7719C365.85 33.4237 365.575 32.8772 365.575 32.2969V28.1484C365.575 27.1302 366.407 26.3047 367.433 26.3047H372.079Z" fill="#E8E8E8"/>
<path d="M367.433 28.1484H372.079V30.9141H373.938V28.1484H379.048V30.9141H380.907V28.1484H385.553V32.2969L381.836 35.0625L382.765 43.3594H370.221L371.15 35.0625L367.433 32.2969V28.1484Z" fill="#34364C"/>
<path d="M370.221 45.2031H382.765L385.553 48.8906V52.5781H367.433V48.8906L370.221 45.2031Z" fill="#34364C"/>
<path d="M32.7061 44.6738C32.7061 45.2051 32.583 45.6523 32.3369 46.0156C32.0908 46.3789 31.7549 46.6543 31.3291 46.8418C30.9072 47.0254 30.4307 47.1172 29.8994 47.1172C29.3682 47.1172 28.8897 47.0254 28.4639 46.8418C28.0381 46.6543 27.7022 46.3789 27.4561 46.0156C27.21 45.6523 27.0869 45.2051 27.0869 44.6738C27.0869 44.3223 27.1553 44.0039 27.292 43.7188C27.4287 43.4297 27.6221 43.1816 27.8721 42.9746C28.126 42.7637 28.4229 42.6016 28.7627 42.4883C29.1065 42.375 29.4815 42.3184 29.8877 42.3184C30.4268 42.3184 30.9092 42.418 31.335 42.6172C31.7608 42.8164 32.0947 43.0918 32.3369 43.4434C32.583 43.7949 32.7061 44.2051 32.7061 44.6738ZM31.2881 44.6035C31.2881 44.3184 31.2295 44.0684 31.1123 43.8535C30.9951 43.6387 30.8311 43.4727 30.6201 43.3555C30.4092 43.2383 30.1651 43.1797 29.8877 43.1797C29.6065 43.1797 29.3623 43.2383 29.1553 43.3555C28.9483 43.4727 28.7861 43.6387 28.669 43.8535C28.5557 44.0684 28.499 44.3184 28.499 44.6035C28.499 44.8926 28.5557 45.1426 28.669 45.3535C28.7822 45.5605 28.9444 45.7188 29.1553 45.8281C29.3662 45.9375 29.6143 45.9922 29.8994 45.9922C30.1846 45.9922 30.4307 45.9375 30.6377 45.8281C30.8447 45.7188 31.0049 45.5605 31.1182 45.3535C31.2315 45.1426 31.2881 44.8926 31.2881 44.6035ZM32.5127 40.7129C32.5127 41.1387 32.3994 41.5176 32.1729 41.8496C31.9502 42.1816 31.6416 42.4434 31.2471 42.6348C30.8526 42.8223 30.4033 42.916 29.8994 42.916C29.3916 42.916 28.9385 42.8223 28.5401 42.6348C28.1455 42.4434 27.835 42.1816 27.6084 41.8496C27.3858 41.5176 27.2744 41.1387 27.2744 40.7129C27.2744 40.2051 27.3858 39.7773 27.6084 39.4297C27.835 39.0781 28.1455 38.8105 28.5401 38.627C28.9346 38.4434 29.3858 38.3516 29.8936 38.3516C30.4014 38.3516 30.8526 38.4434 31.2471 38.627C31.6416 38.8105 31.9502 39.0781 32.1729 39.4297C32.3994 39.7773 32.5127 40.2051 32.5127 40.7129ZM31.1006 40.7598C31.1006 40.5059 31.0498 40.2832 30.9483 40.0918C30.8506 39.8965 30.7119 39.7441 30.5322 39.6348C30.3526 39.5254 30.1397 39.4707 29.8936 39.4707C29.6475 39.4707 29.4346 39.5234 29.2549 39.6289C29.0752 39.7344 28.9365 39.8828 28.8389 40.0742C28.7412 40.2656 28.6924 40.4941 28.6924 40.7598C28.6924 41.0215 28.7412 41.25 28.8389 41.4453C28.9365 41.6367 29.0752 41.7871 29.2549 41.8965C29.4385 42.0059 29.6533 42.0605 29.8994 42.0605C30.1455 42.0605 30.3584 42.0059 30.5381 41.8965C30.7178 41.7871 30.8565 41.6367 30.9541 41.4453C31.0518 41.25 31.1006 41.0215 31.1006 40.7598Z" fill="#000039"/>
<path d="M32.794 82.7188V83.4922L29.3838 91.25H27.8955L31.2998 83.8438H26.8819V82.7188H32.794Z" fill="#000039"/>
<path d="M31.3936 126.916H31.5694V128.07H31.4697C30.9658 128.07 30.5303 128.148 30.1631 128.305C29.7998 128.461 29.501 128.676 29.2666 128.949C29.0322 129.223 28.8565 129.543 28.7393 129.91C28.626 130.273 28.5694 130.66 28.5694 131.07V132.412C28.5694 132.752 28.6065 133.053 28.6807 133.314C28.7549 133.572 28.8584 133.789 28.9912 133.965C29.1279 134.137 29.2842 134.268 29.46 134.357C29.6358 134.447 29.8252 134.492 30.0283 134.492C30.2393 134.492 30.4307 134.449 30.6026 134.363C30.7744 134.273 30.9209 134.15 31.042 133.994C31.1631 133.838 31.2549 133.652 31.3174 133.438C31.3799 133.223 31.4111 132.988 31.4111 132.734C31.4111 132.492 31.3799 132.266 31.3174 132.055C31.2588 131.84 31.1709 131.652 31.0537 131.492C30.9365 131.328 30.7901 131.201 30.6143 131.111C30.4424 131.018 30.2432 130.971 30.0166 130.971C29.7354 130.971 29.4795 131.037 29.249 131.17C29.0225 131.303 28.8389 131.477 28.6983 131.691C28.5615 131.902 28.4873 132.127 28.4756 132.365L27.9365 132.189C27.9678 131.826 28.0479 131.5 28.1768 131.211C28.3096 130.922 28.4834 130.676 28.6983 130.473C28.9131 130.27 29.1611 130.115 29.4424 130.01C29.7276 129.9 30.0401 129.846 30.3799 129.846C30.794 129.846 31.1533 129.924 31.458 130.08C31.7627 130.236 32.0147 130.449 32.2139 130.719C32.417 130.984 32.5674 131.289 32.6651 131.633C32.7666 131.973 32.8174 132.328 32.8174 132.699C32.8174 133.109 32.7549 133.492 32.6299 133.848C32.5049 134.199 32.3213 134.508 32.0791 134.773C31.8408 135.039 31.5498 135.246 31.2061 135.395C30.8662 135.543 30.4795 135.617 30.0459 135.617C29.5889 135.617 29.1807 135.529 28.8213 135.354C28.4658 135.178 28.1631 134.936 27.9131 134.627C27.667 134.318 27.4795 133.963 27.3506 133.561C27.2217 133.158 27.1572 132.732 27.1572 132.283V131.697C27.1572 131.049 27.2393 130.438 27.4033 129.863C27.5674 129.285 27.8194 128.775 28.1592 128.334C28.5029 127.893 28.9424 127.547 29.4776 127.297C30.0127 127.043 30.6514 126.916 31.3936 126.916Z" fill="#000039"/>
<path d="M28.6104 175.783L27.4854 175.508L27.9483 171.219H32.5479V172.414H29.1201L28.8858 174.506C29.0186 174.428 29.2022 174.352 29.4365 174.277C29.6709 174.199 29.9385 174.16 30.2393 174.16C30.6416 174.16 31.001 174.227 31.3174 174.359C31.6377 174.488 31.9092 174.678 32.1319 174.928C32.3545 175.174 32.5244 175.475 32.6416 175.83C32.7588 176.182 32.8174 176.578 32.8174 177.02C32.8174 177.414 32.7588 177.783 32.6416 178.127C32.5283 178.471 32.3565 178.773 32.126 179.035C31.8955 179.297 31.6045 179.502 31.2529 179.65C30.9053 179.795 30.4932 179.867 30.0166 179.867C29.6611 179.867 29.3194 179.816 28.9912 179.715C28.667 179.609 28.376 179.455 28.1182 179.252C27.8604 179.045 27.6533 178.791 27.4971 178.49C27.3408 178.186 27.251 177.836 27.2276 177.441H28.6104C28.6455 177.719 28.7217 177.955 28.8389 178.15C28.96 178.342 29.1201 178.488 29.3194 178.59C29.5186 178.691 29.749 178.742 30.0108 178.742C30.249 178.742 30.4541 178.701 30.626 178.619C30.7979 178.533 30.9404 178.412 31.0537 178.256C31.1709 178.096 31.2569 177.908 31.3115 177.693C31.3701 177.479 31.3994 177.24 31.3994 176.979C31.3994 176.729 31.3662 176.5 31.2998 176.293C31.2373 176.086 31.1416 175.906 31.0127 175.754C30.8877 175.602 30.7295 175.484 30.5381 175.402C30.3467 175.316 30.126 175.273 29.876 175.273C29.5401 175.273 29.2822 175.322 29.1026 175.42C28.9268 175.518 28.7627 175.639 28.6104 175.783Z" fill="#000039"/>
<path d="M33.0049 220.959V222.084H26.8526L26.8057 221.234L30.4854 215.469H31.6162L30.3916 217.566L28.2764 220.959H33.0049ZM31.9385 215.469V224H30.5264V215.469H31.9385Z" fill="#000039"/>
<path d="M28.7861 263.346H29.6299C29.958 263.346 30.2295 263.289 30.4444 263.176C30.6631 263.062 30.8252 262.906 30.9307 262.707C31.0361 262.508 31.0889 262.279 31.0889 262.021C31.0889 261.752 31.0401 261.521 30.9424 261.33C30.8486 261.135 30.7041 260.984 30.5088 260.879C30.3174 260.773 30.0733 260.721 29.7764 260.721C29.5264 260.721 29.2998 260.771 29.0967 260.873C28.8975 260.971 28.7393 261.111 28.6221 261.295C28.5049 261.475 28.4463 261.689 28.4463 261.939H27.0283C27.0283 261.486 27.1475 261.084 27.3858 260.732C27.624 260.381 27.9483 260.105 28.3584 259.906C28.7725 259.703 29.2373 259.602 29.7529 259.602C30.3037 259.602 30.7842 259.693 31.1944 259.877C31.6084 260.057 31.9307 260.326 32.1611 260.686C32.3916 261.045 32.5069 261.49 32.5069 262.021C32.5069 262.264 32.4502 262.51 32.3369 262.76C32.2236 263.01 32.0557 263.238 31.833 263.445C31.6104 263.648 31.333 263.814 31.001 263.943C30.669 264.068 30.2842 264.131 29.8467 264.131H28.7861V263.346ZM28.7861 264.447V263.674H29.8467C30.3467 263.674 30.7725 263.732 31.124 263.85C31.4795 263.967 31.7686 264.129 31.9912 264.336C32.2139 264.539 32.376 264.771 32.4776 265.033C32.583 265.295 32.6358 265.572 32.6358 265.865C32.6358 266.264 32.5635 266.619 32.419 266.932C32.2783 267.24 32.0772 267.502 31.8154 267.717C31.5537 267.932 31.2471 268.094 30.8955 268.203C30.5479 268.312 30.169 268.367 29.7588 268.367C29.3916 268.367 29.0401 268.316 28.7041 268.215C28.3682 268.113 28.0674 267.963 27.8018 267.764C27.5361 267.561 27.3252 267.309 27.169 267.008C27.0166 266.703 26.9404 266.352 26.9404 265.953H28.3526C28.3526 266.207 28.4111 266.432 28.5283 266.627C28.6494 266.818 28.8174 266.969 29.0322 267.078C29.251 267.188 29.501 267.242 29.7822 267.242C30.0791 267.242 30.335 267.189 30.5498 267.084C30.7647 266.979 30.9287 266.822 31.042 266.615C31.1592 266.408 31.2178 266.158 31.2178 265.865C31.2178 265.533 31.1533 265.264 31.0244 265.057C30.8955 264.85 30.7119 264.697 30.4736 264.6C30.2354 264.498 29.9541 264.447 29.6299 264.447H28.7861Z" fill="#000039"/>
<path d="M32.8467 311.375V312.5H27.1279V311.533L29.9053 308.504C30.21 308.16 30.4502 307.863 30.626 307.613C30.8018 307.363 30.9248 307.139 30.9951 306.939C31.0694 306.736 31.1065 306.539 31.1065 306.348C31.1065 306.078 31.0557 305.842 30.9541 305.639C30.8565 305.432 30.7119 305.27 30.5205 305.152C30.3291 305.031 30.0967 304.971 29.8233 304.971C29.5069 304.971 29.2412 305.039 29.0264 305.176C28.8115 305.312 28.6494 305.502 28.5401 305.744C28.4307 305.982 28.376 306.256 28.376 306.564H26.9639C26.9639 306.068 27.0772 305.615 27.3037 305.205C27.5303 304.791 27.8584 304.463 28.2881 304.221C28.7178 303.975 29.2354 303.852 29.8408 303.852C30.4111 303.852 30.8955 303.947 31.294 304.139C31.6924 304.33 31.9951 304.602 32.2022 304.953C32.4131 305.305 32.5186 305.721 32.5186 306.201C32.5186 306.467 32.4756 306.73 32.3897 306.992C32.3037 307.254 32.1807 307.516 32.0205 307.777C31.8643 308.035 31.6787 308.295 31.4639 308.557C31.249 308.814 31.0127 309.076 30.7549 309.342L28.9092 311.375H32.8467Z" fill="#000039"/>
<path d="M30.9834 348.189V356.75H29.5713V349.865L27.4795 350.574V349.408L30.8135 348.189H30.9834Z" fill="#000039"/>
<path d="M67.5234 382.605L64.9746 390H63.4336L66.6445 381.469H67.6289L67.5234 382.605ZM69.6562 390L67.1016 382.605L66.9902 381.469H67.9805L71.2031 390H69.6562ZM69.5332 386.836V388.002H64.8926V386.836H69.5332Z" fill="#000039"/>
<path d="M112.213 386.145H110.039L110.027 385.072H111.926C112.246 385.072 112.518 385.025 112.74 384.932C112.967 384.834 113.139 384.695 113.256 384.516C113.373 384.332 113.432 384.111 113.432 383.854C113.432 383.568 113.377 383.336 113.268 383.156C113.158 382.977 112.99 382.846 112.764 382.764C112.541 382.682 112.256 382.641 111.908 382.641H110.484V390H109.014V381.469H111.908C112.377 381.469 112.795 381.514 113.162 381.604C113.533 381.693 113.848 381.834 114.105 382.025C114.367 382.213 114.564 382.451 114.697 382.74C114.834 383.029 114.902 383.373 114.902 383.771C114.902 384.123 114.818 384.445 114.65 384.738C114.482 385.027 114.234 385.264 113.906 385.447C113.578 385.631 113.17 385.74 112.682 385.775L112.213 386.145ZM112.148 390H109.576L110.238 388.834H112.148C112.48 388.834 112.758 388.779 112.98 388.67C113.203 388.557 113.369 388.402 113.479 388.207C113.592 388.008 113.648 387.775 113.648 387.51C113.648 387.232 113.6 386.992 113.502 386.789C113.404 386.582 113.25 386.424 113.039 386.314C112.828 386.201 112.553 386.145 112.213 386.145H110.561L110.572 385.072H112.723L113.057 385.477C113.525 385.492 113.91 385.596 114.211 385.787C114.516 385.979 114.742 386.227 114.891 386.531C115.039 386.836 115.113 387.164 115.113 387.516C115.113 388.059 114.994 388.514 114.756 388.881C114.521 389.248 114.184 389.527 113.742 389.719C113.301 389.906 112.77 390 112.148 390Z" fill="#000039"/>
<path d="M158.549 387.223H160.014C159.967 387.781 159.811 388.279 159.545 388.717C159.279 389.15 158.906 389.492 158.426 389.742C157.945 389.992 157.361 390.117 156.674 390.117C156.146 390.117 155.672 390.023 155.25 389.836C154.828 389.645 154.467 389.375 154.166 389.027C153.865 388.676 153.635 388.252 153.475 387.756C153.318 387.26 153.24 386.705 153.24 386.092V385.383C153.24 384.77 153.32 384.215 153.48 383.719C153.645 383.223 153.879 382.799 154.184 382.447C154.488 382.092 154.854 381.82 155.279 381.633C155.709 381.445 156.191 381.352 156.727 381.352C157.406 381.352 157.98 381.477 158.449 381.727C158.918 381.977 159.281 382.322 159.539 382.764C159.801 383.205 159.961 383.711 160.02 384.281H158.555C158.516 383.914 158.43 383.6 158.297 383.338C158.168 383.076 157.977 382.877 157.723 382.74C157.469 382.6 157.137 382.529 156.727 382.529C156.391 382.529 156.098 382.592 155.848 382.717C155.598 382.842 155.389 383.025 155.221 383.268C155.053 383.51 154.926 383.809 154.84 384.164C154.758 384.516 154.717 384.918 154.717 385.371V386.092C154.717 386.521 154.754 386.912 154.828 387.264C154.906 387.611 155.023 387.91 155.18 388.16C155.34 388.41 155.543 388.604 155.789 388.74C156.035 388.877 156.33 388.945 156.674 388.945C157.092 388.945 157.43 388.879 157.688 388.746C157.949 388.613 158.146 388.42 158.279 388.166C158.416 387.908 158.506 387.594 158.549 387.223Z" fill="#000039"/>
<path d="M200.613 390H198.791L198.803 388.834H200.613C201.141 388.834 201.582 388.719 201.938 388.488C202.297 388.258 202.566 387.928 202.746 387.498C202.93 387.068 203.021 386.557 203.021 385.963V385.5C203.021 385.039 202.969 384.631 202.863 384.275C202.762 383.92 202.609 383.621 202.406 383.379C202.207 383.137 201.961 382.953 201.668 382.828C201.379 382.703 201.045 382.641 200.666 382.641H198.756V381.469H200.666C201.232 381.469 201.75 381.564 202.219 381.756C202.688 381.943 203.092 382.215 203.432 382.57C203.775 382.926 204.039 383.352 204.223 383.848C204.406 384.344 204.498 384.898 204.498 385.512V385.963C204.498 386.576 204.406 387.131 204.223 387.627C204.039 388.123 203.775 388.549 203.432 388.904C203.088 389.256 202.678 389.527 202.201 389.719C201.729 389.906 201.199 390 200.613 390ZM199.605 381.469V390H198.135V381.469H199.605Z" fill="#000039"/>
<path d="M248.871 388.834V390H244.342V388.834H248.871ZM244.758 381.469V390H243.287V381.469H244.758ZM248.279 385.031V386.18H244.342V385.031H248.279ZM248.842 381.469V382.641H244.342V381.469H248.842Z" fill="#000039"/>
<path d="M289.471 381.469V390H288V381.469H289.471ZM292.951 385.201V386.367H289.096V385.201H292.951ZM293.438 381.469V382.641H289.096V381.469H293.438Z" fill="#000039"/>
<path d="M338.391 385.641V388.898C338.27 389.059 338.08 389.234 337.822 389.426C337.568 389.613 337.23 389.775 336.809 389.912C336.387 390.049 335.861 390.117 335.232 390.117C334.697 390.117 334.207 390.027 333.762 389.848C333.316 389.664 332.932 389.396 332.607 389.045C332.287 388.693 332.039 388.266 331.863 387.762C331.688 387.254 331.6 386.676 331.6 386.027V385.436C331.6 384.791 331.68 384.217 331.84 383.713C332.004 383.205 332.238 382.775 332.543 382.424C332.848 382.072 333.215 381.807 333.645 381.627C334.078 381.443 334.568 381.352 335.115 381.352C335.814 381.352 336.393 381.469 336.85 381.703C337.311 381.934 337.666 382.254 337.916 382.664C338.166 383.074 338.324 383.543 338.391 384.07H336.949C336.902 383.773 336.811 383.508 336.674 383.273C336.541 383.039 336.35 382.855 336.1 382.723C335.854 382.586 335.533 382.518 335.139 382.518C334.799 382.518 334.5 382.582 334.242 382.711C333.984 382.84 333.77 383.029 333.598 383.279C333.43 383.529 333.303 383.834 333.217 384.193C333.131 384.553 333.088 384.963 333.088 385.424V386.027C333.088 386.496 333.137 386.912 333.234 387.275C333.336 387.639 333.48 387.945 333.668 388.195C333.859 388.445 334.092 388.635 334.365 388.764C334.639 388.889 334.947 388.951 335.291 388.951C335.627 388.951 335.902 388.924 336.117 388.869C336.332 388.811 336.502 388.742 336.627 388.664C336.756 388.582 336.855 388.504 336.926 388.43V386.736H335.15V385.641H338.391Z" fill="#000039"/>
<path d="M381.932 385.031V386.197H377.402V385.031H381.932ZM377.766 381.469V390H376.295V381.469H377.766ZM383.062 381.469V390H381.598V381.469H383.062Z" fill="#000039"/>
<path d="M59.1875 335.305C59.529 335.305 59.8492 335.394 60.125 335.551C60.4008 335.394 60.721 335.305 61.0625 335.305H66.2188C66.5603 335.305 66.8805 335.394 67.1563 335.551C67.432 335.394 67.7522 335.305 68.0938 335.305H72.7812C73.8168 335.305 74.6562 336.13 74.6562 337.148V341.297C74.6562 341.877 74.3784 342.424 73.9062 342.772L71.0131 344.906L71.8323 352.156C72.0492 354.075 72.9577 355.049 74.2812 356.784C74.5247 357.104 74.6562 357.492 74.6562 357.891V361.578C74.6562 362.596 73.8168 363.422 72.7812 363.422H54.5C53.4645 363.422 52.625 362.596 52.625 361.578V357.891C52.625 357.492 52.7566 357.104 53 356.784C54.3235 355.049 55.2321 354.075 55.449 352.156L56.2682 344.906L53.375 342.772C52.9029 342.424 52.625 341.877 52.625 341.297V337.148C52.625 336.13 53.4645 335.305 54.5 335.305H59.1875Z" fill="#34364C"/>
<path d="M54.5 337.148H59.1875V339.914H61.0625V337.148H66.2188V339.914H68.0938V337.148H72.7812V341.297L69.0312 344.062L69.9688 352.359H57.3125L58.25 344.062L54.5 341.297V337.148Z" fill="#E8E8E8"/>
<path d="M57.3125 354.203H69.9688L72.7812 357.891V361.578H54.5V357.891L57.3125 354.203Z" fill="#E8E8E8"/>
<path d="M370.188 335.305C370.529 335.305 370.849 335.394 371.125 335.551C371.401 335.394 371.721 335.305 372.062 335.305H377.219C377.56 335.305 377.88 335.394 378.156 335.551C378.432 335.394 378.752 335.305 379.094 335.305H383.781C384.817 335.305 385.656 336.13 385.656 337.148V341.297C385.656 341.877 385.378 342.424 384.906 342.772L382.013 344.906L382.832 352.156C383.049 354.075 383.958 355.049 385.281 356.784C385.525 357.104 385.656 357.492 385.656 357.891V361.578C385.656 362.596 384.817 363.422 383.781 363.422H365.5C364.464 363.422 363.625 362.596 363.625 361.578V357.891C363.625 357.492 363.757 357.104 364 356.784C365.324 355.049 366.232 354.075 366.449 352.156L367.268 344.906L364.375 342.772C363.903 342.424 363.625 341.877 363.625 341.297V337.148C363.625 336.13 364.464 335.305 365.5 335.305H370.188Z" fill="#34364C"/>
<path d="M365.5 337.148H370.188V339.914H372.062V337.148H377.219V339.914H379.094V337.148H383.781V341.297L380.031 344.062L380.969 352.359H368.313L369.25 344.062L365.5 341.297V337.148Z" fill="#E8E8E8"/>
<path d="M368.312 354.203H380.969L383.781 357.891V361.578H365.5V357.891L368.312 354.203Z" fill="#E8E8E8"/>
<path d="M194.917 113.234C195.534 113.165 196.146 113.402 196.55 113.866L200.375 118.253C204.769 119.321 207.314 122.574 208.722 126.634C210.172 130.819 210.531 136.131 210.531 141.578C210.531 142.596 209.692 143.422 208.656 143.422H191.174C190.179 143.422 189.357 142.657 189.302 141.68C189.253 140.808 189.457 139.294 190.079 137.748L190.09 137.72C188.324 138.652 186.365 138.429 184.91 137.41C183.142 136.173 182.159 133.749 183.282 131.356C184.092 129.631 184.965 128.717 185.625 128.026C186.242 127.38 186.499 127.096 186.681 126.381C187.784 122.044 190.052 119.546 192.488 118.406C192.453 117.911 192.481 117.435 192.543 117.003C192.696 115.928 193.078 114.933 193.468 114.207C193.757 113.666 194.3 113.302 194.917 113.234Z" fill="#E8E8E8"/>
<path fill-rule="evenodd" clip-rule="evenodd" d="M199.361 119.923L195.127 115.066C194.514 116.21 193.919 118.23 194.774 119.688C194.359 119.724 193.963 119.793 193.656 119.914C191.701 120.686 189.555 122.68 188.5 126.828C188.195 128.029 187.645 128.605 186.992 129.288C186.375 129.933 185.667 130.675 184.984 132.129C183.578 135.125 187.373 138.121 190.141 135.4C191.697 133.87 193.056 133.238 194.198 132.708C195.842 131.945 197.033 131.392 197.706 128.672C198.026 129.941 197.898 132.935 194.824 134.761C191.751 136.588 191.11 140.436 191.174 141.578H208.656C208.656 130.738 207.197 121.373 199.361 119.923Z" fill="#34364C"/>
<ellipse cx="194.125" cy="125.445" rx="1.40625" ry="1.38281" fill="#E8E8E8"/>
<path d="M104.917 24.2337C105.534 24.1655 106.146 24.4022 106.55 24.8658L110.375 29.2533C114.769 30.3208 117.314 33.5736 118.722 37.6344C120.172 41.8187 120.531 47.1308 120.531 52.5782C120.531 53.5964 119.692 54.4219 118.656 54.4219H101.174C100.179 54.4219 99.3568 53.657 99.302 52.6797C99.2531 51.8075 99.4571 50.2942 100.079 48.7484L100.09 48.7201C98.3245 49.6522 96.3647 49.429 94.9098 48.4104C93.1418 47.1725 92.1587 44.7493 93.2819 42.3563C94.0918 40.6307 94.9648 39.7169 95.6252 39.0258C96.242 38.3803 96.4991 38.0963 96.6809 37.381C97.7835 33.0441 100.052 30.5457 102.488 29.4055C102.453 28.9114 102.481 28.4354 102.543 28.0032C102.696 26.9275 103.078 25.9334 103.468 25.2067C103.757 24.6663 104.3 24.302 104.917 24.2337Z" fill="#E8E8E8"/>
<path fill-rule="evenodd" clip-rule="evenodd" d="M109.361 30.9226L105.127 26.0659C104.514 27.2102 103.919 29.2299 104.774 30.6879C104.359 30.7242 103.963 30.7931 103.656 30.9141C101.701 31.6859 99.5547 33.6797 98.5 37.8282C98.1946 39.0294 97.645 39.6046 96.9917 40.2883C96.3755 40.9332 95.667 41.6746 94.9844 43.1289C93.5782 46.125 97.3733 49.1211 100.141 46.3999C101.697 44.87 103.056 44.2384 104.198 43.7082C105.842 42.945 107.033 42.3917 107.706 39.6719C108.026 40.9405 107.898 43.9345 104.824 45.7614C101.751 47.5882 101.11 51.4364 101.174 52.5781H118.656C118.656 41.7384 117.197 32.3729 109.361 30.9226Z" fill="#34364C"/>
<ellipse cx="104.125" cy="36.4453" rx="1.40625" ry="1.38281" fill="#E8E8E8"/>
<path d="M148.335 341.782C148.146 341.273 148.043 340.724 148.043 340.152C148.043 337.518 150.215 335.383 152.893 335.383C155.571 335.383 157.743 337.518 157.743 340.152C157.743 340.923 157.555 341.655 157.223 342.301C157.701 342.334 158.166 342.546 158.505 342.927C160.346 344.996 161.957 347.946 161.957 351.365C161.957 353.81 161.101 355.621 159.945 356.926L162.141 357.305C163.038 357.46 163.692 358.226 163.692 359.121V362.578C163.692 363.067 163.495 363.536 163.143 363.882C162.792 364.228 162.315 364.422 161.817 364.422L143.969 364.422C142.933 364.422 142.094 363.596 142.094 362.578V359.121C142.094 358.227 142.747 357.461 143.642 357.306L145.624 356.961C144.451 355.653 143.581 353.832 143.581 351.365C143.581 348.697 144.632 346.374 145.866 344.593C146.641 343.474 147.518 342.524 148.335 341.782Z" fill="#34364C"/>
<path d="M153.812 351.121H151.938C151.938 347.736 152.982 344.356 155.292 341.882C155.654 341.397 155.868 340.799 155.868 340.152C155.868 338.536 154.536 337.227 152.893 337.227C151.25 337.227 149.918 338.536 149.918 340.152C149.918 340.949 150.242 341.671 150.768 342.199C148.91 343.502 145.456 346.993 145.456 351.365C145.456 355.777 148.974 357.563 150.819 357.929L143.969 359.121V362.578L161.817 362.578V359.121L154.805 357.912C156.671 357.508 160.082 355.709 160.082 351.365C160.082 348.52 158.734 345.984 157.094 344.141C155.292 345.523 153.812 348.75 153.812 351.121Z" fill="#E8E8E8"/>
<path d="M281.335 31.7824C281.146 31.2734 281.043 30.7241 281.043 30.1517C281.043 27.5179 283.215 25.3828 285.893 25.3828C288.571 25.3828 290.743 27.5179 290.743 30.1517C290.743 30.9232 290.555 31.6546 290.223 32.3012C290.701 32.3338 291.166 32.5457 291.505 32.9265C293.346 34.9955 294.957 37.9456 294.957 41.3649C294.957 43.8095 294.101 45.621 292.945 46.9262L295.141 47.3051C296.038 47.4597 296.692 48.2257 296.692 49.1211V52.5781C296.692 53.0671 296.495 53.5361 296.143 53.8819C295.792 54.2276 295.315 54.4219 294.817 54.4219L276.969 54.4219C275.933 54.4219 275.094 53.5964 275.094 52.5781V49.1211C275.094 48.2267 275.747 47.4613 276.642 47.3055L278.624 46.9608C277.451 45.6532 276.581 43.8315 276.581 41.3649C276.581 38.6972 277.632 36.3738 278.866 34.5933C279.641 33.4741 280.518 32.524 281.335 31.7824Z" fill="#E8E8E8"/>
<path d="M286.812 41.1212H284.938C284.938 37.7357 285.982 34.3558 288.292 31.8819C288.654 31.3973 288.868 30.7991 288.868 30.1517C288.868 28.5362 287.536 27.2266 285.893 27.2266C284.25 27.2266 282.918 28.5362 282.918 30.1517C282.918 30.9488 283.242 31.6714 283.768 32.199C281.91 33.5017 278.456 36.9933 278.456 41.3649C278.456 45.7767 281.974 47.5628 283.819 47.9294L276.969 49.1211V52.5781L294.817 52.5781V49.1211L287.805 47.9117C289.671 47.5077 293.082 45.7095 293.082 41.3649C293.082 38.5202 291.734 35.9844 290.094 34.1406C288.292 35.5234 286.812 38.75 286.812 41.1212Z" fill="#34364C"/>
<path d="M189.438 28.6094C189.438 29.0645 189.512 29.5024 189.65 29.9119L188.724 30.3388C187.957 29.5568 186.88 29.0703 185.688 29.0703C183.358 29.0703 181.469 30.9276 181.469 33.2188C181.469 35.2611 182.97 36.9587 184.946 37.3033L187.169 44.7975C187.215 44.9539 187.282 45.1036 187.369 45.2427L188.65 47.3042L188.642 47.3055C187.746 47.4613 187.094 48.2267 187.094 49.1211V52.5781C187.094 53.5964 187.933 54.4219 188.969 54.4219L206.817 54.4219C207.315 54.4219 207.792 54.2276 208.143 53.8819C208.495 53.5361 208.692 53.0671 208.692 52.5781V49.1211C208.692 48.2257 208.038 47.4597 207.141 47.3051L207.103 47.2986L208.381 45.2427C208.468 45.1036 208.535 44.9539 208.581 44.7975L210.804 37.3033C212.78 36.9587 214.281 35.2611 214.281 33.2188C214.281 30.9276 212.392 29.0703 210.062 29.0703C208.869 29.0703 207.791 29.558 207.023 30.3418L206.099 29.9156C206.238 29.505 206.312 29.0659 206.312 28.6094C206.312 26.3183 204.424 24.4609 202.094 24.4609C199.764 24.4609 197.875 26.3183 197.875 28.6094C197.875 26.3183 195.986 24.4609 193.656 24.4609C191.326 24.4609 189.438 26.3183 189.438 28.6094Z" fill="#E8E8E8"/>
<path d="M194.498 30.7611C195.376 30.4287 196 29.5906 196 28.6094C196 27.3365 194.951 26.3047 193.656 26.3047C192.362 26.3047 191.312 27.3365 191.312 28.6094C191.312 29.7856 192.209 30.7561 193.366 30.8966L192.321 39.2109L187.282 34.9077C187.743 34.4868 188.031 33.8859 188.031 33.2188C188.031 31.9459 186.982 30.9141 185.688 30.9141C184.393 30.9141 183.344 31.9459 183.344 33.2188C183.344 34.4916 184.393 35.5234 185.688 35.5234C185.915 35.5234 186.136 35.4915 186.344 35.4318L188.969 44.2813L191.683 48.6489L188.969 49.1211V52.5781L206.817 52.5781V49.1211L204.068 48.647L206.781 44.2813L209.406 35.4318C209.614 35.4915 209.835 35.5234 210.062 35.5234C211.357 35.5234 212.406 34.4916 212.406 33.2188C212.406 31.9459 211.357 30.9141 210.062 30.9141C208.768 30.9141 207.719 31.9459 207.719 33.2188C207.719 33.8859 208.007 34.4868 208.468 34.9077L203.429 39.2109L202.384 30.8966C203.541 30.7561 204.438 29.7856 204.438 28.6094C204.438 27.3365 203.388 26.3047 202.094 26.3047C200.799 26.3047 199.75 27.3365 199.75 28.6094C199.75 29.5906 200.374 30.4287 201.252 30.7611L197.875 38.2891L194.498 30.7611Z" fill="#34364C"/>
<path d="M104.335 164.782C104.146 164.273 104.043 163.724 104.043 163.152C104.043 160.518 106.215 158.383 108.893 158.383C111.571 158.383 113.743 160.518 113.743 163.152C113.743 163.923 113.555 164.655 113.223 165.301C113.701 165.334 114.166 165.546 114.505 165.927C116.346 167.996 117.957 170.946 117.957 174.365C117.957 176.81 117.101 178.621 115.945 179.926L118.141 180.305C119.038 180.46 119.692 181.226 119.692 182.121V185.578C119.692 186.067 119.495 186.536 119.143 186.882C118.792 187.228 118.315 187.422 117.817 187.422L99.9688 187.422C98.9332 187.422 98.0938 186.596 98.0938 185.578V182.121C98.0938 181.227 98.7465 180.461 99.6421 180.306L101.624 179.961C100.451 178.653 99.5811 176.832 99.5811 174.365C99.5811 171.697 100.632 169.374 101.866 167.593C102.641 166.474 103.518 165.524 104.335 164.782Z" fill="#34364C"/>
<path d="M109.812 174.121H107.938C107.938 170.736 108.982 167.356 111.292 164.882C111.654 164.397 111.868 163.799 111.868 163.152C111.868 161.536 110.536 160.227 108.893 160.227C107.25 160.227 105.918 161.536 105.918 163.152C105.918 163.949 106.242 164.671 106.768 165.199C104.91 166.502 101.456 169.993 101.456 174.365C101.456 178.777 104.974 180.563 106.819 180.929L99.9688 182.121V185.578L117.817 185.578V182.121L110.805 180.912C112.671 180.508 116.082 178.709 116.082 174.365C116.082 171.52 114.734 168.984 113.094 167.141C111.292 168.523 109.812 171.75 109.812 174.121Z" fill="#E8E8E8"/>
</svg>
