<svg width="440" height="425" viewBox="0 0 440 425" fill="none" xmlns="http://www.w3.org/2000/svg">
<rect width="440" height="400" rx="10" fill="white"/>
<rect width="356" height="354" transform="translate(42 19)" fill="#E8E8E8"/>
<rect width="44.5" height="44.25" transform="translate(42 19)" fill="#E8E8E8"/>
<rect width="44.5" height="44.25" transform="translate(42 107.5)" fill="#E8E8E8"/>
<rect width="44.5" height="44.25" transform="translate(42 196)" fill="#E8E8E8"/>
<rect width="44.5" height="44.25" transform="translate(42 284.5)" fill="#E8E8E8"/>
<rect width="44.5" height="44.25" transform="translate(42 63.25)" fill="#333360"/>
<rect width="44.5" height="44.25" transform="translate(42 151.75)" fill="#333360"/>
<rect width="44.5" height="44.25" transform="translate(42 240.25)" fill="#333360"/>
<rect width="44.5" height="44.25" transform="translate(42 328.75)" fill="#333360"/>
<rect width="44.5" height="44.25" transform="translate(131 63.25)" fill="#333360"/>
<rect width="44.5" height="44.25" transform="translate(131 151.75)" fill="#333360"/>
<rect width="44.5" height="44.25" transform="translate(131 240.25)" fill="#333360"/>
<rect width="44.5" height="44.25" transform="translate(131 328.75)" fill="#333360"/>
<rect width="44.5" height="44.25" transform="translate(220 63.25)" fill="#333360"/>
<rect width="44.5" height="44.25" transform="translate(220 151.75)" fill="#333360"/>
<rect width="44.5" height="44.25" transform="translate(220 240.25)" fill="#333360"/>
<rect width="44.5" height="44.25" transform="translate(220 328.75)" fill="#333360"/>
<rect width="44.5" height="44.25" transform="translate(309 63.25)" fill="#333360"/>
<rect width="44.5" height="44.25" transform="translate(309 151.75)" fill="#333360"/>
<rect width="44.5" height="44.25" transform="translate(309 240.25)" fill="#333360"/>
<rect width="44.5" height="44.25" transform="translate(309 328.75)" fill="#333360"/>
<rect width="44.5" height="44.25" transform="translate(220 19)" fill="#E8E8E8"/>
<rect width="44.5" height="44.25" transform="translate(220 107.5)" fill="#E8E8E8"/>
<rect width="44.5" height="44.25" transform="translate(220 196)" fill="#E8E8E8"/>
<rect width="44.5" height="44.25" transform="translate(220 284.5)" fill="#E8E8E8"/>
<rect width="44.5" height="44.25" transform="translate(131 19)" fill="#E8E8E8"/>
<rect width="44.5" height="44.25" transform="translate(131 107.5)" fill="#E8E8E8"/>
<rect width="44.5" height="44.25" transform="translate(131 196)" fill="#E8E8E8"/>
<rect width="44.5" height="44.25" transform="translate(131 284.5)" fill="#E8E8E8"/>
<rect width="44.5" height="44.25" transform="translate(309 19)" fill="#E8E8E8"/>
<rect width="44.5" height="44.25" transform="translate(309 107.5)" fill="#E8E8E8"/>
<rect width="44.5" height="44.25" transform="translate(309 196)" fill="#E8E8E8"/>
<rect width="44.5" height="44.25" transform="translate(309 284.5)" fill="#E8E8E8"/>
<rect width="44.5" height="44.25" transform="translate(86.5 19)" fill="#333360"/>
<path d="M105.825 24.765C106.435 24.6967 107.04 24.9335 107.44 25.3971L111.223 29.7845C115.567 30.852 118.084 34.1049 119.476 38.1657C120.911 42.35 121.265 47.6621 121.265 53.1094C121.265 54.1277 120.435 54.9532 119.411 54.9532H102.123C101.139 54.9532 100.326 54.1883 100.272 53.2109C100.224 52.3388 100.426 50.8254 101.04 49.2797L101.052 49.2514C99.3055 50.1835 97.3675 49.9602 95.9288 48.9416C94.1804 47.7038 93.2082 45.2806 94.3189 42.8876C95.1199 41.1619 95.9831 40.2482 96.6362 39.5571C97.2462 38.9115 97.5004 38.6276 97.6802 37.9123C98.7706 33.5753 101.014 31.0769 103.423 29.9368C103.388 29.4427 103.416 28.9667 103.477 28.5345C103.629 27.4588 104.007 26.4647 104.392 25.7379C104.678 25.1976 105.214 24.8332 105.825 24.765Z" fill="#333360"/>
<ellipse cx="105.042" cy="36.9766" rx="1.39062" ry="1.38281" fill="#333360"/>
<rect width="44.5" height="44.25" transform="translate(86.5 107.5)" fill="#333360"/>
<rect width="44.5" height="44.25" transform="translate(86.5 196)" fill="#333360"/>
<rect width="44.5" height="44.25" transform="translate(86.5 284.5)" fill="#333360"/>
<rect width="44.5" height="44.25" transform="translate(86.5 63.25)" fill="#E8E8E8"/>
<rect width="44.5" height="44.25" transform="translate(86.5 151.75)" fill="#E8E8E8"/>
<rect width="44.5" height="44.25" transform="translate(86.5 240.25)" fill="#E8E8E8"/>
<rect width="44.5" height="44.25" transform="translate(86.5 328.75)" fill="#E8E8E8"/>
<rect width="44.5" height="44.25" transform="translate(175.5 63.25)" fill="#E8E8E8"/>
<rect width="44.5" height="44.25" transform="translate(175.5 151.75)" fill="#E8E8E8"/>
<rect width="44.5" height="44.25" transform="translate(175.5 240.25)" fill="#E8E8E8"/>
<rect width="44.5" height="44.25" transform="translate(175.5 328.75)" fill="#E8E8E8"/>
<rect width="44.5" height="44.25" transform="translate(264.5 63.25)" fill="#E8E8E8"/>
<rect width="44.5" height="44.25" transform="translate(264.5 151.75)" fill="#E8E8E8"/>
<rect width="44.5" height="44.25" transform="translate(264.5 240.25)" fill="#E8E8E8"/>
<rect width="44.5" height="44.25" transform="translate(264.5 328.75)" fill="#E8E8E8"/>
<rect width="44.5" height="44.25" transform="translate(353.5 63.25)" fill="#E8E8E8"/>
<rect width="44.5" height="44.25" transform="translate(353.5 151.75)" fill="#E8E8E8"/>
<rect width="44.5" height="44.25" transform="translate(353.5 240.25)" fill="#E8E8E8"/>
<rect width="44.5" height="44.25" transform="translate(353.5 328.75)" fill="#E8E8E8"/>
<rect width="44.5" height="44.25" transform="translate(264.5 19)" fill="#333360"/>
<rect width="44.5" height="44.25" transform="translate(264.5 107.5)" fill="#333360"/>
<rect width="44.5" height="44.25" transform="translate(264.5 196)" fill="#333360"/>
<rect width="44.5" height="44.25" transform="translate(264.5 284.5)" fill="#333360"/>
<rect width="44.5" height="44.25" transform="translate(175.5 19)" fill="#333360"/>
<rect width="44.5" height="44.25" transform="translate(175.5 107.5)" fill="#333360"/>
<rect width="44.5" height="44.25" transform="translate(175.5 196)" fill="#333360"/>
<rect width="44.5" height="44.25" transform="translate(175.5 284.5)" fill="#333360"/>
<rect width="44.5" height="44.25" transform="translate(353.5 19)" fill="#333360"/>
<rect width="44.5" height="44.25" transform="translate(353.5 107.5)" fill="#333360"/>
<rect width="44.5" height="44.25" transform="translate(353.5 196)" fill="#333360"/>
<rect width="44.5" height="44.25" transform="translate(353.5 284.5)" fill="#333360"/>
<path fill-rule="evenodd" clip-rule="evenodd" d="M283.939 290.786C283.97 289.791 284.792 289 285.796 289H288.584C289.587 289 290.41 289.791 290.441 290.786L290.458 291.305H291.371C292.398 291.305 293.23 292.13 293.23 293.148V294.267C295.255 293.812 297.442 294.116 299.298 295.65C303.153 298.837 302.798 305.519 298.223 309.174C297.119 310.056 296.251 310.787 295.654 311.54C295.518 311.712 295.401 311.878 295.303 312.041L297.186 312.294C298.108 312.418 298.795 313.198 298.795 314.121V317.578C298.795 318.596 297.963 319.422 296.937 319.422H277.443C276.417 319.422 275.585 318.596 275.585 317.578V314.121C275.585 313.198 276.272 312.418 277.194 312.294L279.077 312.041C278.979 311.878 278.862 311.712 278.726 311.54C278.129 310.787 277.261 310.056 276.157 309.174C271.582 305.519 271.227 298.837 275.082 295.65C276.938 294.116 279.125 293.812 281.15 294.267V293.148C281.15 292.13 281.982 291.305 283.009 291.305H283.922L283.939 290.786Z" fill="#34364C"/>
<path fill-rule="evenodd" clip-rule="evenodd" d="M285.796 290.844H288.584L288.656 293.148H291.371V295.914H288.743L288.871 299.045C288.922 298.986 288.974 298.927 289.028 298.87C291.567 296.194 295.33 294.77 298.108 297.066C300.895 299.371 300.895 304.672 297.057 307.738C294.883 309.474 292.936 311.148 293.032 313.597L296.937 314.121V317.578H277.443V314.121L281.348 313.597C281.444 311.148 279.497 309.474 277.322 307.738C273.484 304.672 273.484 299.371 276.272 297.066C279.05 294.77 282.813 296.194 285.351 298.87C285.405 298.927 285.458 298.986 285.509 299.045L285.636 295.914H283.008V293.148H285.723L285.796 290.844ZM283.17 301.433C284.874 304.201 285.099 307.438 285.099 308.845C284.245 308.846 281.026 307.441 279.322 305.135C278.095 303.474 277.775 301.011 278.827 300.054C279.879 299.098 282.105 299.703 283.17 301.433ZM291.209 301.433C289.506 304.201 289.28 307.438 289.28 308.845C290.134 308.846 293.353 307.441 295.057 305.135C296.284 303.474 296.604 301.011 295.552 300.054C294.501 299.098 292.274 299.703 291.209 301.433Z" fill="#E8E8E8"/>
<path d="M104.079 72.3047C104.418 72.3047 104.735 72.3945 105.009 72.5513C105.282 72.3945 105.599 72.3047 105.938 72.3047H111.048C111.387 72.3047 111.704 72.3945 111.978 72.5513C112.251 72.3945 112.568 72.3047 112.907 72.3047H117.553C118.579 72.3047 119.411 73.1302 119.411 74.1484V78.2969C119.411 78.8772 119.136 79.4237 118.668 79.7719L115.8 81.9056L116.612 89.1558C116.827 91.0752 117.728 92.0491 119.039 93.7844C119.281 94.1035 119.411 94.4917 119.411 94.8906V98.5781C119.411 99.5964 118.579 100.422 117.553 100.422H99.4336C98.4072 100.422 97.5752 99.5964 97.5752 98.5781V94.8906C97.5752 94.4917 97.7056 94.1035 97.9469 93.7844C99.2587 92.0491 100.159 91.0752 100.374 89.1558L101.186 81.9056L98.3185 79.7719C97.8506 79.4237 97.5752 78.8772 97.5752 78.2969V74.1484C97.5752 73.1302 98.4072 72.3047 99.4336 72.3047H104.079Z" fill="#E8E8E8"/>
<path d="M99.4336 74.1484H104.08V76.9141H105.938V74.1484H111.048V76.9141H112.907V74.1484H117.553V78.2969L113.836 81.0625L114.765 89.3594H102.221L103.15 81.0625L99.4336 78.2969V74.1484Z" fill="#34364C"/>
<path d="M102.221 91.2031H114.765L117.553 94.8906V98.5781H99.4336V94.8906L102.221 91.2031Z" fill="#34364C"/>
<path fill-rule="evenodd" clip-rule="evenodd" d="M149.939 113.786C149.97 112.791 150.792 112 151.796 112H154.584C155.587 112 156.41 112.791 156.441 113.786L156.458 114.305H157.371C158.398 114.305 159.23 115.13 159.23 116.148V117.267C161.255 116.812 163.442 117.116 165.298 118.65C169.153 121.837 168.798 128.519 164.223 132.174C163.119 133.056 162.251 133.787 161.654 134.54C161.518 134.712 161.401 134.878 161.303 135.041L163.186 135.294C164.108 135.418 164.795 136.198 164.795 137.121V140.578C164.795 141.596 163.963 142.422 162.937 142.422H143.443C142.417 142.422 141.585 141.596 141.585 140.578V137.121C141.585 136.198 142.272 135.418 143.194 135.294L145.077 135.041C144.979 134.878 144.862 134.712 144.726 134.54C144.129 133.787 143.261 133.056 142.157 132.174C137.582 128.519 137.227 121.837 141.082 118.65C142.938 117.116 145.125 116.812 147.15 117.267V116.148C147.15 115.13 147.982 114.305 149.009 114.305H149.922L149.939 113.786Z" fill="#E8E8E8"/>
<path fill-rule="evenodd" clip-rule="evenodd" d="M151.796 113.844H154.584L154.656 116.148H157.371V118.914H154.743L154.871 122.045C154.922 121.986 154.974 121.927 155.028 121.87C157.567 119.194 161.33 117.77 164.108 120.066C166.895 122.371 166.895 127.672 163.057 130.738C160.883 132.474 158.936 134.148 159.032 136.597L162.937 137.121V140.578H143.443V137.121L147.348 136.597C147.444 134.148 145.497 132.474 143.322 130.738C139.484 127.672 139.484 122.371 142.272 120.066C145.05 117.77 148.813 119.194 151.351 121.87C151.405 121.927 151.458 121.986 151.509 122.045L151.636 118.914H149.008V116.148H151.723L151.796 113.844ZM149.17 124.433C150.874 127.201 151.099 130.438 151.099 131.845C150.245 131.846 147.026 130.441 145.322 128.135C144.095 126.474 143.775 124.011 144.827 123.054C145.879 122.098 148.105 122.703 149.17 124.433ZM157.209 124.433C155.506 127.201 155.28 130.438 155.28 131.845C156.134 131.846 159.353 130.441 161.057 128.135C162.284 126.474 162.604 124.011 161.552 123.054C160.501 122.098 158.274 122.703 157.209 124.433Z" fill="#34364C"/>
<path d="M191.736 130.957C191.514 131.257 191.249 131.57 190.941 131.892C189.853 133.027 188.518 133.961 187.656 134.449L187.512 134.532C186.933 134.86 186.575 135.471 186.575 136.132V140.578C186.575 141.596 187.407 142.422 188.434 142.422H206.553C207.579 142.422 208.411 141.596 208.411 140.578V136.132C208.411 135.471 208.054 134.86 207.475 134.532L207.33 134.449C206.468 133.961 205.134 133.027 204.045 131.892C203.737 131.57 203.472 131.257 203.251 130.957C204.066 130.762 204.672 130.033 204.672 129.164V126.163C204.672 125.564 204.379 125.002 203.886 124.657L203.096 124.104C203.552 123.226 203.809 122.23 203.809 121.175C203.809 117.635 200.917 114.766 197.349 114.766C193.782 114.766 190.889 117.635 190.889 121.175C190.889 122.289 191.177 123.338 191.681 124.251L191.101 124.657C190.607 125.002 190.314 125.564 190.314 126.163V129.164C190.314 130.033 190.92 130.762 191.736 130.957Z" fill="#E8E8E8"/>
<path d="M201.951 121.175C201.951 122.499 201.383 123.691 200.475 124.525L202.814 126.163V129.164H200.524C200.635 130.556 201.535 131.948 202.699 133.162C203.934 134.451 205.421 135.491 206.408 136.05L206.553 136.132V140.578H188.434V136.132L188.579 136.05C189.566 135.491 191.052 134.451 192.288 133.162C193.452 131.948 194.351 130.556 194.462 129.164H192.172V126.163L194.35 124.638C193.369 123.801 192.748 122.56 192.748 121.175C192.748 118.653 194.808 116.609 197.349 116.609C199.891 116.609 201.951 118.653 201.951 121.175Z" fill="#34364C"/>
<path d="M146.736 175.957C146.514 176.257 146.249 176.57 145.941 176.892C144.853 178.027 143.518 178.961 142.656 179.449L142.512 179.532C141.933 179.86 141.575 180.471 141.575 181.132V185.578C141.575 186.596 142.407 187.422 143.434 187.422H161.553C162.579 187.422 163.411 186.596 163.411 185.578V181.132C163.411 180.471 163.054 179.86 162.475 179.532L162.33 179.449C161.468 178.961 160.134 178.027 159.045 176.892C158.737 176.57 158.472 176.257 158.251 175.957C159.066 175.762 159.672 175.033 159.672 174.164V171.163C159.672 170.564 159.379 170.002 158.886 169.657L158.096 169.104C158.552 168.226 158.809 167.23 158.809 166.175C158.809 162.635 155.917 159.766 152.349 159.766C148.782 159.766 145.889 162.635 145.889 166.175C145.889 167.289 146.177 168.338 146.681 169.251L146.101 169.657C145.607 170.002 145.314 170.564 145.314 171.163V174.164C145.314 175.033 145.92 175.762 146.736 175.957Z" fill="#E8E8E8"/>
<path d="M156.951 166.175C156.951 167.499 156.383 168.691 155.475 169.525L157.814 171.163V174.164H155.524C155.635 175.556 156.535 176.948 157.699 178.162C158.934 179.451 160.421 180.491 161.408 181.05L161.553 181.132V185.578H143.434V181.132L143.579 181.05C144.566 180.491 146.052 179.451 147.288 178.162C148.452 176.948 149.351 175.556 149.462 174.164H147.172V171.163L149.35 169.638C148.369 168.801 147.748 167.56 147.748 166.175C147.748 163.653 149.808 161.609 152.349 161.609C154.891 161.609 156.951 163.653 156.951 166.175Z" fill="#34364C"/>
<path d="M372.079 27.3047C372.418 27.3047 372.735 27.3945 373.009 27.5513C373.282 27.3945 373.599 27.3047 373.938 27.3047H379.048C379.387 27.3047 379.704 27.3945 379.978 27.5513C380.251 27.3945 380.568 27.3047 380.907 27.3047H385.553C386.579 27.3047 387.411 28.1302 387.411 29.1484V33.2969C387.411 33.8772 387.136 34.4237 386.668 34.7719L383.8 36.9056L384.612 44.1558C384.827 46.0752 385.728 47.0491 387.039 48.7844C387.281 49.1035 387.411 49.4917 387.411 49.8906V53.5781C387.411 54.5964 386.579 55.4219 385.553 55.4219H367.434C366.407 55.4219 365.575 54.5964 365.575 53.5781V49.8906C365.575 49.4917 365.706 49.1035 365.947 48.7844C367.259 47.0491 368.159 46.0752 368.374 44.1558L369.186 36.9056L366.319 34.7719C365.851 34.4237 365.575 33.8772 365.575 33.2969V29.1484C365.575 28.1302 366.407 27.3047 367.434 27.3047H372.079Z" fill="#E8E8E8"/>
<path d="M367.434 29.1484H372.08V31.9141H373.938V29.1484H379.048V31.9141H380.907V29.1484H385.553V33.2969L381.836 36.0625L382.765 44.3594H370.221L371.15 36.0625L367.434 33.2969V29.1484Z" fill="#34364C"/>
<path d="M370.221 46.2031H382.765L385.553 49.8906V53.5781H367.434V49.8906L370.221 46.2031Z" fill="#34364C"/>
<path d="M324.736 85.957C324.514 86.2573 324.249 86.57 323.941 86.8917C322.853 88.027 321.518 88.961 320.656 89.4494L320.512 89.5316C319.933 89.8598 319.575 90.4708 319.575 91.1324V95.5781C319.575 96.5964 320.407 97.4219 321.434 97.4219H339.553C340.579 97.4219 341.411 96.5964 341.411 95.5781V91.1324C341.411 90.4708 341.054 89.8599 340.475 89.5316L340.33 89.4494C339.468 88.961 338.134 88.027 337.045 86.8917C336.737 86.57 336.472 86.2573 336.251 85.957C337.066 85.7621 337.672 85.0335 337.672 84.1644V81.1632C337.672 80.5641 337.379 80.0024 336.886 79.6569L336.096 79.1041C336.552 78.2262 336.809 77.2299 336.809 76.1749C336.809 72.6351 333.917 69.7656 330.349 69.7656C326.782 69.7656 323.889 72.6351 323.889 76.1749C323.889 77.2893 324.177 78.3378 324.681 79.2506L324.101 79.6569C323.607 80.0024 323.314 80.5641 323.314 81.1632V84.1644C323.314 85.0335 323.92 85.7621 324.736 85.957Z" fill="#E8E8E8"/>
<path d="M334.951 76.1749C334.951 77.499 334.383 78.6914 333.475 79.5254L335.814 81.1632V84.1644H333.524C333.635 85.5556 334.535 86.9479 335.699 88.1623C336.934 89.4511 338.421 90.4906 339.408 91.0502L339.553 91.1324V95.5781H321.434V91.1324L321.579 91.0502C322.566 90.4906 324.052 89.4511 325.288 88.1623C326.452 86.9479 327.351 85.5556 327.462 84.1644H325.172V81.1632L327.35 79.6378C326.369 78.8005 325.748 77.5597 325.748 76.1749C325.748 73.6534 327.808 71.6094 330.349 71.6094C332.891 71.6094 334.951 73.6534 334.951 76.1749Z" fill="#34364C"/>
<path d="M280.736 218.957C280.514 219.257 280.249 219.57 279.941 219.892C278.853 221.027 277.518 221.961 276.656 222.449L276.512 222.532C275.933 222.86 275.575 223.471 275.575 224.132V228.578C275.575 229.596 276.407 230.422 277.434 230.422H295.553C296.579 230.422 297.411 229.596 297.411 228.578V224.132C297.411 223.471 297.054 222.86 296.475 222.532L296.33 222.449C295.468 221.961 294.134 221.027 293.045 219.892C292.737 219.57 292.472 219.257 292.251 218.957C293.066 218.762 293.672 218.033 293.672 217.164V214.163C293.672 213.564 293.379 213.002 292.886 212.657L292.096 212.104C292.552 211.226 292.809 210.23 292.809 209.175C292.809 205.635 289.917 202.766 286.349 202.766C282.782 202.766 279.889 205.635 279.889 209.175C279.889 210.289 280.177 211.338 280.681 212.251L280.101 212.657C279.607 213.002 279.314 213.564 279.314 214.163V217.164C279.314 218.033 279.92 218.762 280.736 218.957Z" fill="#E8E8E8"/>
<path d="M290.951 209.175C290.951 210.499 290.383 211.691 289.475 212.525L291.814 214.163V217.164H289.524C289.635 218.556 290.535 219.948 291.699 221.162C292.934 222.451 294.421 223.491 295.408 224.05L295.553 224.132V228.578H277.434V224.132L277.579 224.05C278.566 223.491 280.052 222.451 281.288 221.162C282.452 219.948 283.351 218.556 283.462 217.164H281.172V214.163L283.35 212.638C282.369 211.801 281.748 210.56 281.748 209.175C281.748 206.653 283.808 204.609 286.349 204.609C288.891 204.609 290.951 206.653 290.951 209.175Z" fill="#34364C"/>
<path d="M102.736 130.957C102.514 131.257 102.249 131.57 101.941 131.892C100.853 133.027 99.5179 133.961 98.6565 134.449L98.5116 134.532C97.9325 134.86 97.5752 135.471 97.5752 136.132V140.578C97.5752 141.596 98.4072 142.422 99.4336 142.422H117.553C118.579 142.422 119.411 141.596 119.411 140.578V136.132C119.411 135.471 119.054 134.86 118.475 134.532L118.33 134.449C117.468 133.961 116.134 133.027 115.045 131.892C114.737 131.57 114.472 131.257 114.251 130.957C115.066 130.762 115.672 130.033 115.672 129.164V126.163C115.672 125.564 115.379 125.002 114.886 124.657L114.096 124.104C114.552 123.226 114.809 122.23 114.809 121.175C114.809 117.635 111.917 114.766 108.349 114.766C104.782 114.766 101.889 117.635 101.889 121.175C101.889 122.289 102.177 123.338 102.681 124.251L102.101 124.657C101.607 125.002 101.314 125.564 101.314 126.163V129.164C101.314 130.033 101.92 130.762 102.736 130.957Z" fill="#E8E8E8"/>
<path d="M112.951 121.175C112.951 122.499 112.383 123.691 111.475 124.525L113.814 126.163V129.164H111.524C111.635 130.556 112.535 131.948 113.699 133.162C114.934 134.451 116.421 135.491 117.408 136.05L117.553 136.132V140.578H99.4336V136.132L99.5785 136.05C100.566 135.491 102.052 134.451 103.288 133.162C104.452 131.948 105.351 130.556 105.462 129.164H103.172V126.163L105.35 124.638C104.369 123.801 103.748 122.56 103.748 121.175C103.748 118.653 105.808 116.609 108.349 116.609C110.891 116.609 112.951 118.653 112.951 121.175Z" fill="#34364C"/>
<path d="M412.706 44.6738C412.706 45.2051 412.583 45.6523 412.337 46.0156C412.091 46.3789 411.755 46.6543 411.329 46.8418C410.907 47.0254 410.431 47.1172 409.899 47.1172C409.368 47.1172 408.89 47.0254 408.464 46.8418C408.038 46.6543 407.702 46.3789 407.456 46.0156C407.21 45.6523 407.087 45.2051 407.087 44.6738C407.087 44.3223 407.155 44.0039 407.292 43.7188C407.429 43.4297 407.622 43.1816 407.872 42.9746C408.126 42.7637 408.423 42.6016 408.763 42.4883C409.106 42.375 409.481 42.3184 409.888 42.3184C410.427 42.3184 410.909 42.418 411.335 42.6172C411.761 42.8164 412.095 43.0918 412.337 43.4434C412.583 43.7949 412.706 44.2051 412.706 44.6738ZM411.288 44.6035C411.288 44.3184 411.23 44.0684 411.112 43.8535C410.995 43.6387 410.831 43.4727 410.62 43.3555C410.409 43.2383 410.165 43.1797 409.888 43.1797C409.606 43.1797 409.362 43.2383 409.155 43.3555C408.948 43.4727 408.786 43.6387 408.669 43.8535C408.556 44.0684 408.499 44.3184 408.499 44.6035C408.499 44.8926 408.556 45.1426 408.669 45.3535C408.782 45.5605 408.944 45.7188 409.155 45.8281C409.366 45.9375 409.614 45.9922 409.899 45.9922C410.185 45.9922 410.431 45.9375 410.638 45.8281C410.845 45.7188 411.005 45.5605 411.118 45.3535C411.231 45.1426 411.288 44.8926 411.288 44.6035ZM412.513 40.7129C412.513 41.1387 412.399 41.5176 412.173 41.8496C411.95 42.1816 411.642 42.4434 411.247 42.6348C410.853 42.8223 410.403 42.916 409.899 42.916C409.392 42.916 408.938 42.8223 408.54 42.6348C408.146 42.4434 407.835 42.1816 407.608 41.8496C407.386 41.5176 407.274 41.1387 407.274 40.7129C407.274 40.2051 407.386 39.7773 407.608 39.4297C407.835 39.0781 408.146 38.8105 408.54 38.627C408.935 38.4434 409.386 38.3516 409.894 38.3516C410.401 38.3516 410.853 38.4434 411.247 38.627C411.642 38.8105 411.95 39.0781 412.173 39.4297C412.399 39.7773 412.513 40.2051 412.513 40.7129ZM411.101 40.7598C411.101 40.5059 411.05 40.2832 410.948 40.0918C410.851 39.8965 410.712 39.7441 410.532 39.6348C410.353 39.5254 410.14 39.4707 409.894 39.4707C409.647 39.4707 409.435 39.5234 409.255 39.6289C409.075 39.7344 408.937 39.8828 408.839 40.0742C408.741 40.2656 408.692 40.4941 408.692 40.7598C408.692 41.0215 408.741 41.25 408.839 41.4453C408.937 41.6367 409.075 41.7871 409.255 41.8965C409.438 42.0059 409.653 42.0605 409.899 42.0605C410.146 42.0605 410.358 42.0059 410.538 41.8965C410.718 41.7871 410.856 41.6367 410.954 41.4453C411.052 41.25 411.101 41.0215 411.101 40.7598Z" fill="#000039"/>
<path d="M412.794 82.7188V83.4922L409.384 91.25H407.896L411.3 83.8438H406.882V82.7188H412.794Z" fill="#000039"/>
<path d="M411.394 126.916H411.569V128.07H411.47C410.966 128.07 410.53 128.148 410.163 128.305C409.8 128.461 409.501 128.676 409.267 128.949C409.032 129.223 408.856 129.543 408.739 129.91C408.626 130.273 408.569 130.66 408.569 131.07V132.412C408.569 132.752 408.606 133.053 408.681 133.314C408.755 133.572 408.858 133.789 408.991 133.965C409.128 134.137 409.284 134.268 409.46 134.357C409.636 134.447 409.825 134.492 410.028 134.492C410.239 134.492 410.431 134.449 410.603 134.363C410.774 134.273 410.921 134.15 411.042 133.994C411.163 133.838 411.255 133.652 411.317 133.438C411.38 133.223 411.411 132.988 411.411 132.734C411.411 132.492 411.38 132.266 411.317 132.055C411.259 131.84 411.171 131.652 411.054 131.492C410.937 131.328 410.79 131.201 410.614 131.111C410.442 131.018 410.243 130.971 410.017 130.971C409.735 130.971 409.48 131.037 409.249 131.17C409.022 131.303 408.839 131.477 408.698 131.691C408.562 131.902 408.487 132.127 408.476 132.365L407.937 132.189C407.968 131.826 408.048 131.5 408.177 131.211C408.31 130.922 408.483 130.676 408.698 130.473C408.913 130.27 409.161 130.115 409.442 130.01C409.728 129.9 410.04 129.846 410.38 129.846C410.794 129.846 411.153 129.924 411.458 130.08C411.763 130.236 412.015 130.449 412.214 130.719C412.417 130.984 412.567 131.289 412.665 131.633C412.767 131.973 412.817 132.328 412.817 132.699C412.817 133.109 412.755 133.492 412.63 133.848C412.505 134.199 412.321 134.508 412.079 134.773C411.841 135.039 411.55 135.246 411.206 135.395C410.866 135.543 410.48 135.617 410.046 135.617C409.589 135.617 409.181 135.529 408.821 135.354C408.466 135.178 408.163 134.936 407.913 134.627C407.667 134.318 407.48 133.963 407.351 133.561C407.222 133.158 407.157 132.732 407.157 132.283V131.697C407.157 131.049 407.239 130.438 407.403 129.863C407.567 129.285 407.819 128.775 408.159 128.334C408.503 127.893 408.942 127.547 409.478 127.297C410.013 127.043 410.651 126.916 411.394 126.916Z" fill="#000039"/>
<path d="M408.61 175.783L407.485 175.508L407.948 171.219H412.548V172.414H409.12L408.886 174.506C409.019 174.428 409.202 174.352 409.437 174.277C409.671 174.199 409.938 174.16 410.239 174.16C410.642 174.16 411.001 174.227 411.317 174.359C411.638 174.488 411.909 174.678 412.132 174.928C412.355 175.174 412.524 175.475 412.642 175.83C412.759 176.182 412.817 176.578 412.817 177.02C412.817 177.414 412.759 177.783 412.642 178.127C412.528 178.471 412.356 178.773 412.126 179.035C411.896 179.297 411.605 179.502 411.253 179.65C410.905 179.795 410.493 179.867 410.017 179.867C409.661 179.867 409.319 179.816 408.991 179.715C408.667 179.609 408.376 179.455 408.118 179.252C407.86 179.045 407.653 178.791 407.497 178.49C407.341 178.186 407.251 177.836 407.228 177.441H408.61C408.646 177.719 408.722 177.955 408.839 178.15C408.96 178.342 409.12 178.488 409.319 178.59C409.519 178.691 409.749 178.742 410.011 178.742C410.249 178.742 410.454 178.701 410.626 178.619C410.798 178.533 410.94 178.412 411.054 178.256C411.171 178.096 411.257 177.908 411.312 177.693C411.37 177.479 411.399 177.24 411.399 176.979C411.399 176.729 411.366 176.5 411.3 176.293C411.237 176.086 411.142 175.906 411.013 175.754C410.888 175.602 410.73 175.484 410.538 175.402C410.347 175.316 410.126 175.273 409.876 175.273C409.54 175.273 409.282 175.322 409.103 175.42C408.927 175.518 408.763 175.639 408.61 175.783Z" fill="#000039"/>
<path d="M413.005 220.959V222.084H406.853L406.806 221.234L410.485 215.469H411.616L410.392 217.566L408.276 220.959H413.005ZM411.938 215.469V224H410.526V215.469H411.938Z" fill="#000039"/>
<path d="M408.786 263.346H409.63C409.958 263.346 410.23 263.289 410.444 263.176C410.663 263.062 410.825 262.906 410.931 262.707C411.036 262.508 411.089 262.279 411.089 262.021C411.089 261.752 411.04 261.521 410.942 261.33C410.849 261.135 410.704 260.984 410.509 260.879C410.317 260.773 410.073 260.721 409.776 260.721C409.526 260.721 409.3 260.771 409.097 260.873C408.897 260.971 408.739 261.111 408.622 261.295C408.505 261.475 408.446 261.689 408.446 261.939H407.028C407.028 261.486 407.147 261.084 407.386 260.732C407.624 260.381 407.948 260.105 408.358 259.906C408.772 259.703 409.237 259.602 409.753 259.602C410.304 259.602 410.784 259.693 411.194 259.877C411.608 260.057 411.931 260.326 412.161 260.686C412.392 261.045 412.507 261.49 412.507 262.021C412.507 262.264 412.45 262.51 412.337 262.76C412.224 263.01 412.056 263.238 411.833 263.445C411.61 263.648 411.333 263.814 411.001 263.943C410.669 264.068 410.284 264.131 409.847 264.131H408.786V263.346ZM408.786 264.447V263.674H409.847C410.347 263.674 410.772 263.732 411.124 263.85C411.48 263.967 411.769 264.129 411.991 264.336C412.214 264.539 412.376 264.771 412.478 265.033C412.583 265.295 412.636 265.572 412.636 265.865C412.636 266.264 412.563 266.619 412.419 266.932C412.278 267.24 412.077 267.502 411.815 267.717C411.554 267.932 411.247 268.094 410.896 268.203C410.548 268.312 410.169 268.367 409.759 268.367C409.392 268.367 409.04 268.316 408.704 268.215C408.368 268.113 408.067 267.963 407.802 267.764C407.536 267.561 407.325 267.309 407.169 267.008C407.017 266.703 406.94 266.352 406.94 265.953H408.353C408.353 266.207 408.411 266.432 408.528 266.627C408.649 266.818 408.817 266.969 409.032 267.078C409.251 267.188 409.501 267.242 409.782 267.242C410.079 267.242 410.335 267.189 410.55 267.084C410.765 266.979 410.929 266.822 411.042 266.615C411.159 266.408 411.218 266.158 411.218 265.865C411.218 265.533 411.153 265.264 411.024 265.057C410.896 264.85 410.712 264.697 410.474 264.6C410.235 264.498 409.954 264.447 409.63 264.447H408.786Z" fill="#000039"/>
<path d="M412.847 311.375V312.5H407.128V311.533L409.905 308.504C410.21 308.16 410.45 307.863 410.626 307.613C410.802 307.363 410.925 307.139 410.995 306.939C411.069 306.736 411.106 306.539 411.106 306.348C411.106 306.078 411.056 305.842 410.954 305.639C410.856 305.432 410.712 305.27 410.521 305.152C410.329 305.031 410.097 304.971 409.823 304.971C409.507 304.971 409.241 305.039 409.026 305.176C408.812 305.312 408.649 305.502 408.54 305.744C408.431 305.982 408.376 306.256 408.376 306.564H406.964C406.964 306.068 407.077 305.615 407.304 305.205C407.53 304.791 407.858 304.463 408.288 304.221C408.718 303.975 409.235 303.852 409.841 303.852C410.411 303.852 410.896 303.947 411.294 304.139C411.692 304.33 411.995 304.602 412.202 304.953C412.413 305.305 412.519 305.721 412.519 306.201C412.519 306.467 412.476 306.73 412.39 306.992C412.304 307.254 412.181 307.516 412.021 307.777C411.864 308.035 411.679 308.295 411.464 308.557C411.249 308.814 411.013 309.076 410.755 309.342L408.909 311.375H412.847Z" fill="#000039"/>
<path d="M410.983 348.189V356.75H409.571V349.865L407.48 350.574V349.408L410.813 348.189H410.983Z" fill="#000039"/>
<path d="M32.7061 44.6738C32.7061 45.2051 32.583 45.6523 32.3369 46.0156C32.0908 46.3789 31.7549 46.6543 31.3291 46.8418C30.9072 47.0254 30.4307 47.1172 29.8994 47.1172C29.3682 47.1172 28.8897 47.0254 28.4639 46.8418C28.0381 46.6543 27.7022 46.3789 27.4561 46.0156C27.21 45.6523 27.0869 45.2051 27.0869 44.6738C27.0869 44.3223 27.1553 44.0039 27.292 43.7188C27.4287 43.4297 27.6221 43.1816 27.8721 42.9746C28.126 42.7637 28.4229 42.6016 28.7627 42.4883C29.1065 42.375 29.4815 42.3184 29.8877 42.3184C30.4268 42.3184 30.9092 42.418 31.335 42.6172C31.7608 42.8164 32.0947 43.0918 32.3369 43.4434C32.583 43.7949 32.7061 44.2051 32.7061 44.6738ZM31.2881 44.6035C31.2881 44.3184 31.2295 44.0684 31.1123 43.8535C30.9951 43.6387 30.8311 43.4727 30.6201 43.3555C30.4092 43.2383 30.1651 43.1797 29.8877 43.1797C29.6065 43.1797 29.3623 43.2383 29.1553 43.3555C28.9483 43.4727 28.7861 43.6387 28.669 43.8535C28.5557 44.0684 28.499 44.3184 28.499 44.6035C28.499 44.8926 28.5557 45.1426 28.669 45.3535C28.7822 45.5605 28.9444 45.7188 29.1553 45.8281C29.3662 45.9375 29.6143 45.9922 29.8994 45.9922C30.1846 45.9922 30.4307 45.9375 30.6377 45.8281C30.8447 45.7188 31.0049 45.5605 31.1182 45.3535C31.2315 45.1426 31.2881 44.8926 31.2881 44.6035ZM32.5127 40.7129C32.5127 41.1387 32.3994 41.5176 32.1729 41.8496C31.9502 42.1816 31.6416 42.4434 31.2471 42.6348C30.8526 42.8223 30.4033 42.916 29.8994 42.916C29.3916 42.916 28.9385 42.8223 28.5401 42.6348C28.1455 42.4434 27.835 42.1816 27.6084 41.8496C27.3858 41.5176 27.2744 41.1387 27.2744 40.7129C27.2744 40.2051 27.3858 39.7773 27.6084 39.4297C27.835 39.0781 28.1455 38.8105 28.5401 38.627C28.9346 38.4434 29.3858 38.3516 29.8936 38.3516C30.4014 38.3516 30.8526 38.4434 31.2471 38.627C31.6416 38.8105 31.9502 39.0781 32.1729 39.4297C32.3994 39.7773 32.5127 40.2051 32.5127 40.7129ZM31.1006 40.7598C31.1006 40.5059 31.0498 40.2832 30.9483 40.0918C30.8506 39.8965 30.7119 39.7441 30.5322 39.6348C30.3526 39.5254 30.1397 39.4707 29.8936 39.4707C29.6475 39.4707 29.4346 39.5234 29.2549 39.6289C29.0752 39.7344 28.9365 39.8828 28.8389 40.0742C28.7412 40.2656 28.6924 40.4941 28.6924 40.7598C28.6924 41.0215 28.7412 41.25 28.8389 41.4453C28.9365 41.6367 29.0752 41.7871 29.2549 41.8965C29.4385 42.0059 29.6533 42.0605 29.8994 42.0605C30.1455 42.0605 30.3584 42.0059 30.5381 41.8965C30.7178 41.7871 30.8565 41.6367 30.9541 41.4453C31.0518 41.25 31.1006 41.0215 31.1006 40.7598Z" fill="#000039"/>
<path d="M32.794 82.7188V83.4922L29.3838 91.25H27.8955L31.2998 83.8438H26.8819V82.7188H32.794Z" fill="#000039"/>
<path d="M31.3936 126.916H31.5694V128.07H31.4697C30.9658 128.07 30.5303 128.148 30.1631 128.305C29.7998 128.461 29.501 128.676 29.2666 128.949C29.0322 129.223 28.8565 129.543 28.7393 129.91C28.626 130.273 28.5694 130.66 28.5694 131.07V132.412C28.5694 132.752 28.6065 133.053 28.6807 133.314C28.7549 133.572 28.8584 133.789 28.9912 133.965C29.1279 134.137 29.2842 134.268 29.46 134.357C29.6358 134.447 29.8252 134.492 30.0283 134.492C30.2393 134.492 30.4307 134.449 30.6026 134.363C30.7744 134.273 30.9209 134.15 31.042 133.994C31.1631 133.838 31.2549 133.652 31.3174 133.438C31.3799 133.223 31.4111 132.988 31.4111 132.734C31.4111 132.492 31.3799 132.266 31.3174 132.055C31.2588 131.84 31.1709 131.652 31.0537 131.492C30.9365 131.328 30.7901 131.201 30.6143 131.111C30.4424 131.018 30.2432 130.971 30.0166 130.971C29.7354 130.971 29.4795 131.037 29.249 131.17C29.0225 131.303 28.8389 131.477 28.6983 131.691C28.5615 131.902 28.4873 132.127 28.4756 132.365L27.9365 132.189C27.9678 131.826 28.0479 131.5 28.1768 131.211C28.3096 130.922 28.4834 130.676 28.6983 130.473C28.9131 130.27 29.1611 130.115 29.4424 130.01C29.7276 129.9 30.0401 129.846 30.3799 129.846C30.794 129.846 31.1533 129.924 31.458 130.08C31.7627 130.236 32.0147 130.449 32.2139 130.719C32.417 130.984 32.5674 131.289 32.6651 131.633C32.7666 131.973 32.8174 132.328 32.8174 132.699C32.8174 133.109 32.7549 133.492 32.6299 133.848C32.5049 134.199 32.3213 134.508 32.0791 134.773C31.8408 135.039 31.5498 135.246 31.2061 135.395C30.8662 135.543 30.4795 135.617 30.0459 135.617C29.5889 135.617 29.1807 135.529 28.8213 135.354C28.4658 135.178 28.1631 134.936 27.9131 134.627C27.667 134.318 27.4795 133.963 27.3506 133.561C27.2217 133.158 27.1572 132.732 27.1572 132.283V131.697C27.1572 131.049 27.2393 130.438 27.4033 129.863C27.5674 129.285 27.8194 128.775 28.1592 128.334C28.5029 127.893 28.9424 127.547 29.4776 127.297C30.0127 127.043 30.6514 126.916 31.3936 126.916Z" fill="#000039"/>
<path d="M28.6104 175.783L27.4854 175.508L27.9483 171.219H32.5479V172.414H29.1201L28.8858 174.506C29.0186 174.428 29.2022 174.352 29.4365 174.277C29.6709 174.199 29.9385 174.16 30.2393 174.16C30.6416 174.16 31.001 174.227 31.3174 174.359C31.6377 174.488 31.9092 174.678 32.1319 174.928C32.3545 175.174 32.5244 175.475 32.6416 175.83C32.7588 176.182 32.8174 176.578 32.8174 177.02C32.8174 177.414 32.7588 177.783 32.6416 178.127C32.5283 178.471 32.3565 178.773 32.126 179.035C31.8955 179.297 31.6045 179.502 31.2529 179.65C30.9053 179.795 30.4932 179.867 30.0166 179.867C29.6611 179.867 29.3194 179.816 28.9912 179.715C28.667 179.609 28.376 179.455 28.1182 179.252C27.8604 179.045 27.6533 178.791 27.4971 178.49C27.3408 178.186 27.251 177.836 27.2276 177.441H28.6104C28.6455 177.719 28.7217 177.955 28.8389 178.15C28.96 178.342 29.1201 178.488 29.3194 178.59C29.5186 178.691 29.749 178.742 30.0108 178.742C30.249 178.742 30.4541 178.701 30.626 178.619C30.7979 178.533 30.9404 178.412 31.0537 178.256C31.1709 178.096 31.2569 177.908 31.3115 177.693C31.3701 177.479 31.3994 177.24 31.3994 176.979C31.3994 176.729 31.3662 176.5 31.2998 176.293C31.2373 176.086 31.1416 175.906 31.0127 175.754C30.8877 175.602 30.7295 175.484 30.5381 175.402C30.3467 175.316 30.126 175.273 29.876 175.273C29.5401 175.273 29.2822 175.322 29.1026 175.42C28.9268 175.518 28.7627 175.639 28.6104 175.783Z" fill="#000039"/>
<path d="M33.0049 220.959V222.084H26.8526L26.8057 221.234L30.4854 215.469H31.6162L30.3916 217.566L28.2764 220.959H33.0049ZM31.9385 215.469V224H30.5264V215.469H31.9385Z" fill="#000039"/>
<path d="M28.7861 263.346H29.6299C29.958 263.346 30.2295 263.289 30.4444 263.176C30.6631 263.062 30.8252 262.906 30.9307 262.707C31.0361 262.508 31.0889 262.279 31.0889 262.021C31.0889 261.752 31.0401 261.521 30.9424 261.33C30.8486 261.135 30.7041 260.984 30.5088 260.879C30.3174 260.773 30.0733 260.721 29.7764 260.721C29.5264 260.721 29.2998 260.771 29.0967 260.873C28.8975 260.971 28.7393 261.111 28.6221 261.295C28.5049 261.475 28.4463 261.689 28.4463 261.939H27.0283C27.0283 261.486 27.1475 261.084 27.3858 260.732C27.624 260.381 27.9483 260.105 28.3584 259.906C28.7725 259.703 29.2373 259.602 29.7529 259.602C30.3037 259.602 30.7842 259.693 31.1944 259.877C31.6084 260.057 31.9307 260.326 32.1611 260.686C32.3916 261.045 32.5069 261.49 32.5069 262.021C32.5069 262.264 32.4502 262.51 32.3369 262.76C32.2236 263.01 32.0557 263.238 31.833 263.445C31.6104 263.648 31.333 263.814 31.001 263.943C30.669 264.068 30.2842 264.131 29.8467 264.131H28.7861V263.346ZM28.7861 264.447V263.674H29.8467C30.3467 263.674 30.7725 263.732 31.124 263.85C31.4795 263.967 31.7686 264.129 31.9912 264.336C32.2139 264.539 32.376 264.771 32.4776 265.033C32.583 265.295 32.6358 265.572 32.6358 265.865C32.6358 266.264 32.5635 266.619 32.419 266.932C32.2783 267.24 32.0772 267.502 31.8154 267.717C31.5537 267.932 31.2471 268.094 30.8955 268.203C30.5479 268.312 30.169 268.367 29.7588 268.367C29.3916 268.367 29.0401 268.316 28.7041 268.215C28.3682 268.113 28.0674 267.963 27.8018 267.764C27.5361 267.561 27.3252 267.309 27.169 267.008C27.0166 266.703 26.9404 266.352 26.9404 265.953H28.3526C28.3526 266.207 28.4111 266.432 28.5283 266.627C28.6494 266.818 28.8174 266.969 29.0322 267.078C29.251 267.188 29.501 267.242 29.7822 267.242C30.0791 267.242 30.335 267.189 30.5498 267.084C30.7647 266.979 30.9287 266.822 31.042 266.615C31.1592 266.408 31.2178 266.158 31.2178 265.865C31.2178 265.533 31.1533 265.264 31.0244 265.057C30.8955 264.85 30.7119 264.697 30.4736 264.6C30.2354 264.498 29.9541 264.447 29.6299 264.447H28.7861Z" fill="#000039"/>
<path d="M32.8467 311.375V312.5H27.1279V311.533L29.9053 308.504C30.21 308.16 30.4502 307.863 30.626 307.613C30.8018 307.363 30.9248 307.139 30.9951 306.939C31.0694 306.736 31.1065 306.539 31.1065 306.348C31.1065 306.078 31.0557 305.842 30.9541 305.639C30.8565 305.432 30.7119 305.27 30.5205 305.152C30.3291 305.031 30.0967 304.971 29.8233 304.971C29.5069 304.971 29.2412 305.039 29.0264 305.176C28.8115 305.312 28.6494 305.502 28.5401 305.744C28.4307 305.982 28.376 306.256 28.376 306.564H26.9639C26.9639 306.068 27.0772 305.615 27.3037 305.205C27.5303 304.791 27.8584 304.463 28.2881 304.221C28.7178 303.975 29.2354 303.852 29.8408 303.852C30.4111 303.852 30.8955 303.947 31.294 304.139C31.6924 304.33 31.9951 304.602 32.2022 304.953C32.4131 305.305 32.5186 305.721 32.5186 306.201C32.5186 306.467 32.4756 306.73 32.3897 306.992C32.3037 307.254 32.1807 307.516 32.0205 307.777C31.8643 308.035 31.6787 308.295 31.4639 308.557C31.249 308.814 31.0127 309.076 30.7549 309.342L28.9092 311.375H32.8467Z" fill="#000039"/>
<path d="M30.9834 348.189V356.75H29.5713V349.865L27.4795 350.574V349.408L30.8135 348.189H30.9834Z" fill="#000039"/>
<path d="M67.5234 382.605L64.9746 390H63.4336L66.6445 381.469H67.6289L67.5234 382.605ZM69.6562 390L67.1016 382.605L66.9902 381.469H67.9805L71.2031 390H69.6562ZM69.5332 386.836V388.002H64.8926V386.836H69.5332Z" fill="#000039"/>
<path d="M112.213 386.145H110.039L110.027 385.072H111.926C112.246 385.072 112.518 385.025 112.74 384.932C112.967 384.834 113.139 384.695 113.256 384.516C113.373 384.332 113.432 384.111 113.432 383.854C113.432 383.568 113.377 383.336 113.268 383.156C113.158 382.977 112.99 382.846 112.764 382.764C112.541 382.682 112.256 382.641 111.908 382.641H110.484V390H109.014V381.469H111.908C112.377 381.469 112.795 381.514 113.162 381.604C113.533 381.693 113.848 381.834 114.105 382.025C114.367 382.213 114.564 382.451 114.697 382.74C114.834 383.029 114.902 383.373 114.902 383.771C114.902 384.123 114.818 384.445 114.65 384.738C114.482 385.027 114.234 385.264 113.906 385.447C113.578 385.631 113.17 385.74 112.682 385.775L112.213 386.145ZM112.148 390H109.576L110.238 388.834H112.148C112.48 388.834 112.758 388.779 112.98 388.67C113.203 388.557 113.369 388.402 113.479 388.207C113.592 388.008 113.648 387.775 113.648 387.51C113.648 387.232 113.6 386.992 113.502 386.789C113.404 386.582 113.25 386.424 113.039 386.314C112.828 386.201 112.553 386.145 112.213 386.145H110.561L110.572 385.072H112.723L113.057 385.477C113.525 385.492 113.91 385.596 114.211 385.787C114.516 385.979 114.742 386.227 114.891 386.531C115.039 386.836 115.113 387.164 115.113 387.516C115.113 388.059 114.994 388.514 114.756 388.881C114.521 389.248 114.184 389.527 113.742 389.719C113.301 389.906 112.77 390 112.148 390Z" fill="#000039"/>
<path d="M158.549 387.223H160.014C159.967 387.781 159.811 388.279 159.545 388.717C159.279 389.15 158.906 389.492 158.426 389.742C157.945 389.992 157.361 390.117 156.674 390.117C156.146 390.117 155.672 390.023 155.25 389.836C154.828 389.645 154.467 389.375 154.166 389.027C153.865 388.676 153.635 388.252 153.475 387.756C153.318 387.26 153.24 386.705 153.24 386.092V385.383C153.24 384.77 153.32 384.215 153.48 383.719C153.645 383.223 153.879 382.799 154.184 382.447C154.488 382.092 154.854 381.82 155.279 381.633C155.709 381.445 156.191 381.352 156.727 381.352C157.406 381.352 157.98 381.477 158.449 381.727C158.918 381.977 159.281 382.322 159.539 382.764C159.801 383.205 159.961 383.711 160.02 384.281H158.555C158.516 383.914 158.43 383.6 158.297 383.338C158.168 383.076 157.977 382.877 157.723 382.74C157.469 382.6 157.137 382.529 156.727 382.529C156.391 382.529 156.098 382.592 155.848 382.717C155.598 382.842 155.389 383.025 155.221 383.268C155.053 383.51 154.926 383.809 154.84 384.164C154.758 384.516 154.717 384.918 154.717 385.371V386.092C154.717 386.521 154.754 386.912 154.828 387.264C154.906 387.611 155.023 387.91 155.18 388.16C155.34 388.41 155.543 388.604 155.789 388.74C156.035 388.877 156.33 388.945 156.674 388.945C157.092 388.945 157.43 388.879 157.688 388.746C157.949 388.613 158.146 388.42 158.279 388.166C158.416 387.908 158.506 387.594 158.549 387.223Z" fill="#000039"/>
<path d="M200.613 390H198.791L198.803 388.834H200.613C201.141 388.834 201.582 388.719 201.938 388.488C202.297 388.258 202.566 387.928 202.746 387.498C202.93 387.068 203.021 386.557 203.021 385.963V385.5C203.021 385.039 202.969 384.631 202.863 384.275C202.762 383.92 202.609 383.621 202.406 383.379C202.207 383.137 201.961 382.953 201.668 382.828C201.379 382.703 201.045 382.641 200.666 382.641H198.756V381.469H200.666C201.232 381.469 201.75 381.564 202.219 381.756C202.688 381.943 203.092 382.215 203.432 382.57C203.775 382.926 204.039 383.352 204.223 383.848C204.406 384.344 204.498 384.898 204.498 385.512V385.963C204.498 386.576 204.406 387.131 204.223 387.627C204.039 388.123 203.775 388.549 203.432 388.904C203.088 389.256 202.678 389.527 202.201 389.719C201.729 389.906 201.199 390 200.613 390ZM199.605 381.469V390H198.135V381.469H199.605Z" fill="#000039"/>
<path d="M248.871 388.834V390H244.342V388.834H248.871ZM244.758 381.469V390H243.287V381.469H244.758ZM248.279 385.031V386.18H244.342V385.031H248.279ZM248.842 381.469V382.641H244.342V381.469H248.842Z" fill="#000039"/>
<path d="M289.471 381.469V390H288V381.469H289.471ZM292.951 385.201V386.367H289.096V385.201H292.951ZM293.438 381.469V382.641H289.096V381.469H293.438Z" fill="#000039"/>
<path d="M338.391 385.641V388.898C338.27 389.059 338.08 389.234 337.822 389.426C337.568 389.613 337.23 389.775 336.809 389.912C336.387 390.049 335.861 390.117 335.232 390.117C334.697 390.117 334.207 390.027 333.762 389.848C333.316 389.664 332.932 389.396 332.607 389.045C332.287 388.693 332.039 388.266 331.863 387.762C331.688 387.254 331.6 386.676 331.6 386.027V385.436C331.6 384.791 331.68 384.217 331.84 383.713C332.004 383.205 332.238 382.775 332.543 382.424C332.848 382.072 333.215 381.807 333.645 381.627C334.078 381.443 334.568 381.352 335.115 381.352C335.814 381.352 336.393 381.469 336.85 381.703C337.311 381.934 337.666 382.254 337.916 382.664C338.166 383.074 338.324 383.543 338.391 384.07H336.949C336.902 383.773 336.811 383.508 336.674 383.273C336.541 383.039 336.35 382.855 336.1 382.723C335.854 382.586 335.533 382.518 335.139 382.518C334.799 382.518 334.5 382.582 334.242 382.711C333.984 382.84 333.77 383.029 333.598 383.279C333.43 383.529 333.303 383.834 333.217 384.193C333.131 384.553 333.088 384.963 333.088 385.424V386.027C333.088 386.496 333.137 386.912 333.234 387.275C333.336 387.639 333.48 387.945 333.668 388.195C333.859 388.445 334.092 388.635 334.365 388.764C334.639 388.889 334.947 388.951 335.291 388.951C335.627 388.951 335.902 388.924 336.117 388.869C336.332 388.811 336.502 388.742 336.627 388.664C336.756 388.582 336.855 388.504 336.926 388.43V386.736H335.15V385.641H338.391Z" fill="#000039"/>
<path d="M381.932 385.031V386.197H377.402V385.031H381.932ZM377.766 381.469V390H376.295V381.469H377.766ZM383.062 381.469V390H381.598V381.469H383.062Z" fill="#000039"/>
<path d="M59.1875 114.305C59.529 114.305 59.8492 114.394 60.125 114.551C60.4008 114.394 60.721 114.305 61.0625 114.305H66.2188C66.5603 114.305 66.8805 114.394 67.1563 114.551C67.432 114.394 67.7522 114.305 68.0938 114.305H72.7812C73.8168 114.305 74.6562 115.13 74.6562 116.148V120.297C74.6562 120.877 74.3784 121.424 73.9062 121.772L71.0131 123.906L71.8323 131.156C72.0492 133.075 72.9577 134.049 74.2812 135.784C74.5247 136.104 74.6562 136.492 74.6562 136.891V140.578C74.6562 141.596 73.8168 142.422 72.7812 142.422H54.5C53.4645 142.422 52.625 141.596 52.625 140.578V136.891C52.625 136.492 52.7566 136.104 53 135.784C54.3235 134.049 55.2321 133.075 55.449 131.156L56.2682 123.906L53.375 121.772C52.9029 121.424 52.625 120.877 52.625 120.297V116.148C52.625 115.13 53.4645 114.305 54.5 114.305H59.1875Z" fill="#34364C"/>
<path d="M54.5 116.148H59.1875V118.914H61.0625V116.148H66.2188V118.914H68.0938V116.148H72.7812V120.297L69.0312 123.062L69.9688 131.359H57.3125L58.25 123.062L54.5 120.297V116.148Z" fill="#E8E8E8"/>
<path d="M57.3125 133.203H69.9688L72.7812 136.891V140.578H54.5V136.891L57.3125 133.203Z" fill="#E8E8E8"/>
<path d="M237.188 336.305C237.529 336.305 237.849 336.394 238.125 336.551C238.401 336.394 238.721 336.305 239.062 336.305H244.219C244.56 336.305 244.88 336.394 245.156 336.551C245.432 336.394 245.752 336.305 246.094 336.305H250.781C251.817 336.305 252.656 337.13 252.656 338.148V342.297C252.656 342.877 252.378 343.424 251.906 343.772L249.013 345.906L249.832 353.156C250.049 355.075 250.958 356.049 252.281 357.784C252.525 358.104 252.656 358.492 252.656 358.891V362.578C252.656 363.596 251.817 364.422 250.781 364.422H232.5C231.464 364.422 230.625 363.596 230.625 362.578V358.891C230.625 358.492 230.757 358.104 231 357.784C232.324 356.049 233.232 355.075 233.449 353.156L234.268 345.906L231.375 343.772C230.903 343.424 230.625 342.877 230.625 342.297V338.148C230.625 337.13 231.464 336.305 232.5 336.305H237.188Z" fill="#34364C"/>
<path d="M232.5 338.148H237.188V340.914H239.062V338.148H244.219V340.914H246.094V338.148H250.781V342.297L247.031 345.062L247.969 353.359H235.313L236.25 345.062L232.5 342.297V338.148Z" fill="#E8E8E8"/>
<path d="M235.312 355.203H247.969L250.781 358.891V362.578H232.5V358.891L235.312 355.203Z" fill="#E8E8E8"/>
<path d="M144.438 294.609C144.438 295.064 144.512 295.502 144.65 295.912L143.724 296.339C142.957 295.557 141.88 295.07 140.688 295.07C138.358 295.07 136.469 296.928 136.469 299.219C136.469 301.261 137.97 302.959 139.946 303.303L142.169 310.798C142.215 310.954 142.282 311.104 142.369 311.243L143.65 313.304L143.642 313.306C142.746 313.461 142.094 314.227 142.094 315.121V318.578C142.094 319.596 142.933 320.422 143.969 320.422L161.817 320.422C162.315 320.422 162.792 320.228 163.143 319.882C163.495 319.536 163.692 319.067 163.692 318.578V315.121C163.692 314.226 163.038 313.46 162.141 313.305L162.103 313.299L163.381 311.243C163.468 311.104 163.535 310.954 163.581 310.798L165.804 303.303C167.78 302.959 169.281 301.261 169.281 299.219C169.281 296.928 167.392 295.07 165.062 295.07C163.869 295.07 162.791 295.558 162.023 296.342L161.099 295.916C161.238 295.505 161.312 295.066 161.312 294.609C161.312 292.318 159.424 290.461 157.094 290.461C154.764 290.461 152.875 292.318 152.875 294.609C152.875 292.318 150.986 290.461 148.656 290.461C146.326 290.461 144.438 292.318 144.438 294.609Z" fill="#34364C"/>
<path d="M149.498 296.761C150.376 296.429 151 295.591 151 294.609C151 293.337 149.951 292.305 148.656 292.305C147.362 292.305 146.312 293.337 146.312 294.609C146.312 295.786 147.209 296.756 148.366 296.897L147.321 305.211L142.282 300.908C142.743 300.487 143.031 299.886 143.031 299.219C143.031 297.946 141.982 296.914 140.688 296.914C139.393 296.914 138.344 297.946 138.344 299.219C138.344 300.492 139.393 301.523 140.688 301.523C140.915 301.523 141.136 301.491 141.344 301.432L143.969 310.281L146.683 314.649L143.969 315.121V318.578L161.817 318.578V315.121L159.068 314.647L161.781 310.281L164.406 301.432C164.614 301.491 164.835 301.523 165.062 301.523C166.357 301.523 167.406 300.492 167.406 299.219C167.406 297.946 166.357 296.914 165.062 296.914C163.768 296.914 162.719 297.946 162.719 299.219C162.719 299.886 163.007 300.487 163.468 300.908L158.429 305.211L157.384 296.897C158.541 296.756 159.438 295.786 159.438 294.609C159.438 293.337 158.388 292.305 157.094 292.305C155.799 292.305 154.75 293.337 154.75 294.609C154.75 295.591 155.374 296.429 156.252 296.761L152.875 304.289L149.498 296.761Z" fill="#E8E8E8"/>
<path d="M322.438 205.609C322.438 206.064 322.512 206.502 322.65 206.912L321.724 207.339C320.957 206.557 319.88 206.07 318.688 206.07C316.358 206.07 314.469 207.928 314.469 210.219C314.469 212.261 315.97 213.959 317.946 214.303L320.169 221.798C320.215 221.954 320.282 222.104 320.369 222.243L321.65 224.304L321.642 224.306C320.746 224.461 320.094 225.227 320.094 226.121V229.578C320.094 230.596 320.933 231.422 321.969 231.422L339.817 231.422C340.315 231.422 340.792 231.228 341.143 230.882C341.495 230.536 341.692 230.067 341.692 229.578V226.121C341.692 225.226 341.038 224.46 340.141 224.305L340.103 224.299L341.381 222.243C341.468 222.104 341.535 221.954 341.581 221.798L343.804 214.303C345.78 213.959 347.281 212.261 347.281 210.219C347.281 207.928 345.392 206.07 343.062 206.07C341.869 206.07 340.791 206.558 340.023 207.342L339.099 206.916C339.238 206.505 339.312 206.066 339.312 205.609C339.312 203.318 337.424 201.461 335.094 201.461C332.764 201.461 330.875 203.318 330.875 205.609C330.875 203.318 328.986 201.461 326.656 201.461C324.326 201.461 322.438 203.318 322.438 205.609Z" fill="#E8E8E8"/>
<path d="M327.498 207.761C328.376 207.429 329 206.591 329 205.609C329 204.337 327.951 203.305 326.656 203.305C325.362 203.305 324.312 204.337 324.312 205.609C324.312 206.786 325.209 207.756 326.366 207.897L325.321 216.211L320.282 211.908C320.743 211.487 321.031 210.886 321.031 210.219C321.031 208.946 319.982 207.914 318.688 207.914C317.393 207.914 316.344 208.946 316.344 210.219C316.344 211.492 317.393 212.523 318.688 212.523C318.915 212.523 319.136 212.491 319.344 212.432L321.969 221.281L324.683 225.649L321.969 226.121V229.578L339.817 229.578V226.121L337.068 225.647L339.781 221.281L342.406 212.432C342.614 212.491 342.835 212.523 343.062 212.523C344.357 212.523 345.406 211.492 345.406 210.219C345.406 208.946 344.357 207.914 343.062 207.914C341.768 207.914 340.719 208.946 340.719 210.219C340.719 210.886 341.007 211.487 341.468 211.908L336.429 216.211L335.384 207.897C336.541 207.756 337.438 206.786 337.438 205.609C337.438 204.337 336.388 203.305 335.094 203.305C333.799 203.305 332.75 204.337 332.75 205.609C332.75 206.591 333.374 207.429 334.252 207.761L330.875 215.289L327.498 207.761Z" fill="#34364C"/>
</svg>
