<svg width="34" height="34" viewBox="0 0 34 34" fill="none" xmlns="http://www.w3.org/2000/svg">
<path d="M8.4375 4.85938C8.4375 5.31448 8.51195 5.75235 8.64954 6.16191L7.72401 6.58883C6.95673 5.80675 5.87989 5.32032 4.6875 5.32032C2.35755 5.32032 0.46875 7.17764 0.46875 9.46876C0.46875 11.5111 1.96959 13.2087 3.94589 13.5533L6.16875 21.0475C6.21515 21.2039 6.28243 21.3536 6.36885 21.4927L7.64999 23.5542L7.64212 23.5555C6.7465 23.7113 6.09375 24.4767 6.09375 25.3711V28.8281C6.09375 29.8464 6.93322 30.6719 7.96875 30.6719L25.8173 30.6719C26.3146 30.6719 26.7915 30.4776 27.1431 30.1319C27.4948 29.7861 27.6923 29.3171 27.6923 28.8281V25.3711C27.6923 24.4757 27.0381 23.7097 26.1412 23.5551L26.1035 23.5486L27.3812 21.4927C27.4676 21.3536 27.5348 21.2039 27.5812 21.0475L29.8041 13.5533C31.7804 13.2087 33.2812 11.5111 33.2812 9.46876C33.2812 7.17764 31.3925 5.32032 29.0625 5.32032C27.8686 5.32032 26.7906 5.80798 26.0231 6.59178L25.0992 6.16563C25.2376 5.755 25.3125 5.31585 25.3125 4.85938C25.3125 2.56826 23.4237 0.710938 21.0938 0.710938C18.7638 0.710938 16.875 2.56826 16.875 4.85938C16.875 2.56826 14.9862 0.710938 12.6562 0.710938C10.3263 0.710938 8.4375 2.56826 8.4375 4.85938Z" fill="#34364C"/>
<path d="M13.4976 7.01113C14.3764 6.67867 15 5.84064 15 4.85938C15 3.58653 13.9507 2.55469 12.6562 2.55469C11.3618 2.55469 10.3125 3.58653 10.3125 4.85938C10.3125 6.03562 11.2086 7.00606 12.3661 7.14658L11.3209 15.4609L6.28228 11.1577C6.743 10.7368 7.03125 10.1359 7.03125 9.46875C7.03125 8.19591 5.98192 7.16407 4.6875 7.16407C3.39308 7.16407 2.34375 8.19591 2.34375 9.46875C2.34375 10.7416 3.39308 11.7734 4.6875 11.7734C4.91536 11.7734 5.13563 11.7415 5.34392 11.6818L7.96875 20.5313L10.6831 24.8989L7.96875 25.3711V28.8281L25.8173 28.8281V25.3711L23.0681 24.897L25.7812 20.5313L28.4061 11.6818C28.6144 11.7415 28.8346 11.7734 29.0625 11.7734C30.3569 11.7734 31.4062 10.7416 31.4062 9.46875C31.4062 8.19591 30.3569 7.16407 29.0625 7.16407C27.7681 7.16407 26.7188 8.19591 26.7188 9.46875C26.7188 10.1359 27.007 10.7368 27.4677 11.1577L22.4291 15.4609L21.3839 7.14658C22.5414 7.00606 23.4375 6.03562 23.4375 4.85938C23.4375 3.58653 22.3882 2.55469 21.0938 2.55469C19.7993 2.55469 18.75 3.58653 18.75 4.85938C18.75 5.84064 19.3736 6.67867 20.2524 7.01113L16.875 14.5391L13.4976 7.01113Z" fill="#E8E8E8"/>
</svg>
