<svg width="440" height="425" viewBox="0 0 440 425" fill="none" xmlns="http://www.w3.org/2000/svg">
<rect width="440" height="400" rx="10" fill="white"/>
<rect width="356" height="354" transform="translate(42 19)" fill="#E8E8E8"/>
<rect width="44.5" height="44.25" transform="translate(42 19)" fill="#E8E8E8"/>
<rect width="44.5" height="44.25" transform="translate(42 107.5)" fill="#E8E8E8"/>
<rect width="44.5" height="44.25" transform="translate(42 196)" fill="#E8E8E8"/>
<rect width="44.5" height="44.25" transform="translate(42 284.5)" fill="#E8E8E8"/>
<rect width="44.5" height="44.25" transform="translate(42 63.25)" fill="#333360"/>
<rect width="44.5" height="44.25" transform="translate(42 151.75)" fill="#333360"/>
<rect width="44.5" height="44.25" transform="translate(42 240.25)" fill="#333360"/>
<rect width="44.5" height="44.25" transform="translate(42 328.75)" fill="#333360"/>
<rect width="44.5" height="44.25" transform="translate(131 63.25)" fill="#333360"/>
<rect width="44.5" height="44.25" transform="translate(131 151.75)" fill="#333360"/>
<rect width="44.5" height="44.25" transform="translate(131 240.25)" fill="#333360"/>
<rect width="44.5" height="44.25" transform="translate(131 328.75)" fill="#333360"/>
<rect width="44.5" height="44.25" transform="translate(220 63.25)" fill="#333360"/>
<rect width="44.5" height="44.25" transform="translate(220 151.75)" fill="#333360"/>
<rect width="44.5" height="44.25" transform="translate(220 240.25)" fill="#333360"/>
<rect width="44.5" height="44.25" transform="translate(220 328.75)" fill="#333360"/>
<rect width="44.5" height="44.25" transform="translate(309 63.25)" fill="#333360"/>
<rect width="44.5" height="44.25" transform="translate(309 151.75)" fill="#333360"/>
<rect width="44.5" height="44.25" transform="translate(309 240.25)" fill="#333360"/>
<rect width="44.5" height="44.25" transform="translate(309 328.75)" fill="#333360"/>
<rect width="44.5" height="44.25" transform="translate(220 19)" fill="#E8E8E8"/>
<rect width="44.5" height="44.25" transform="translate(220 107.5)" fill="#E8E8E8"/>
<rect width="44.5" height="44.25" transform="translate(220 196)" fill="#E8E8E8"/>
<rect width="44.5" height="44.25" transform="translate(220 284.5)" fill="#E8E8E8"/>
<rect width="44.5" height="44.25" transform="translate(131 19)" fill="#E8E8E8"/>
<rect width="44.5" height="44.25" transform="translate(131 107.5)" fill="#E8E8E8"/>
<rect width="44.5" height="44.25" transform="translate(131 196)" fill="#E8E8E8"/>
<rect width="44.5" height="44.25" transform="translate(131 284.5)" fill="#E8E8E8"/>
<rect width="44.5" height="44.25" transform="translate(309 19)" fill="#E8E8E8"/>
<rect width="44.5" height="44.25" transform="translate(309 107.5)" fill="#E8E8E8"/>
<rect width="44.5" height="44.25" transform="translate(309 196)" fill="#E8E8E8"/>
<rect width="44.5" height="44.25" transform="translate(309 284.5)" fill="#E8E8E8"/>
<rect width="44.5" height="44.25" transform="translate(86.5 19)" fill="#333360"/>
<path d="M105.825 24.765C106.435 24.6967 107.04 24.9335 107.44 25.3971L111.223 29.7845C115.567 30.852 118.084 34.1049 119.476 38.1657C120.911 42.35 121.266 47.6621 121.266 53.1094C121.266 54.1277 120.435 54.9532 119.411 54.9532H102.124C101.139 54.9532 100.326 54.1883 100.272 53.2109C100.224 52.3388 100.426 50.8254 101.041 49.2797L101.052 49.2514C99.3057 50.1835 97.3676 49.9602 95.929 48.9416C94.1805 47.7038 93.2084 45.2806 94.3191 42.8876C95.12 41.1619 95.9833 40.2482 96.6363 39.5571C97.2463 38.9115 97.5005 38.6276 97.6804 37.9123C98.7707 33.5753 101.014 31.0769 103.423 29.9368C103.388 29.4427 103.416 28.9667 103.477 28.5345C103.629 27.4588 104.007 26.4647 104.392 25.7379C104.678 25.1976 105.215 24.8332 105.825 24.765Z" fill="#333360"/>
<ellipse cx="105.042" cy="36.9766" rx="1.39062" ry="1.38281" fill="#333360"/>
<rect width="44.5" height="44.25" transform="translate(86.5 107.5)" fill="#333360"/>
<rect width="44.5" height="44.25" transform="translate(86.5 196)" fill="#333360"/>
<rect width="44.5" height="44.25" transform="translate(86.5 284.5)" fill="#333360"/>
<rect width="44.5" height="44.25" transform="translate(86.5 63.25)" fill="#E8E8E8"/>
<rect width="44.5" height="44.25" transform="translate(86.5 151.75)" fill="#E8E8E8"/>
<rect width="44.5" height="44.25" transform="translate(86.5 240.25)" fill="#E8E8E8"/>
<rect width="44.5" height="44.25" transform="translate(86.5 328.75)" fill="#E8E8E8"/>
<rect width="44.5" height="44.25" transform="translate(175.5 63.25)" fill="#E8E8E8"/>
<rect width="44.5" height="44.25" transform="translate(175.5 151.75)" fill="#E8E8E8"/>
<rect width="44.5" height="44.25" transform="translate(175.5 240.25)" fill="#E8E8E8"/>
<rect width="44.5" height="44.25" transform="translate(175.5 328.75)" fill="#E8E8E8"/>
<rect width="44.5" height="44.25" transform="translate(264.5 63.25)" fill="#E8E8E8"/>
<rect width="44.5" height="44.25" transform="translate(264.5 151.75)" fill="#E8E8E8"/>
<rect width="44.5" height="44.25" transform="translate(264.5 240.25)" fill="#E8E8E8"/>
<rect width="44.5" height="44.25" transform="translate(264.5 328.75)" fill="#E8E8E8"/>
<rect width="44.5" height="44.25" transform="translate(353.5 63.25)" fill="#E8E8E8"/>
<rect width="44.5" height="44.25" transform="translate(353.5 151.75)" fill="#E8E8E8"/>
<rect width="44.5" height="44.25" transform="translate(353.5 240.25)" fill="#E8E8E8"/>
<rect width="44.5" height="44.25" transform="translate(353.5 328.75)" fill="#E8E8E8"/>
<rect width="44.5" height="44.25" transform="translate(264.5 19)" fill="#333360"/>
<rect width="44.5" height="44.25" transform="translate(264.5 107.5)" fill="#333360"/>
<rect width="44.5" height="44.25" transform="translate(264.5 196)" fill="#333360"/>
<rect width="44.5" height="44.25" transform="translate(264.5 284.5)" fill="#333360"/>
<rect width="44.5" height="44.25" transform="translate(175.5 19)" fill="#333360"/>
<rect width="44.5" height="44.25" transform="translate(175.5 107.5)" fill="#333360"/>
<rect width="44.5" height="44.25" transform="translate(175.5 196)" fill="#333360"/>
<rect width="44.5" height="44.25" transform="translate(175.5 284.5)" fill="#333360"/>
<rect width="44.5" height="44.25" transform="translate(353.5 19)" fill="#333360"/>
<rect width="44.5" height="44.25" transform="translate(353.5 107.5)" fill="#333360"/>
<rect width="44.5" height="44.25" transform="translate(353.5 196)" fill="#333360"/>
<rect width="44.5" height="44.25" transform="translate(353.5 284.5)" fill="#333360"/>
<path d="M101.866 308.957C101.645 309.257 101.38 309.57 101.072 309.892C99.9834 311.027 98.6487 311.961 97.7872 312.449L97.6423 312.532C97.0633 312.86 96.706 313.471 96.706 314.132V318.578C96.706 319.596 97.538 320.422 98.5643 320.422H116.683C117.71 320.422 118.542 319.596 118.542 318.578V314.132C118.542 313.471 118.184 312.86 117.605 312.532L117.461 312.449C116.599 311.961 115.264 311.027 114.176 309.892C113.868 309.57 113.603 309.257 113.381 308.957C114.197 308.762 114.803 308.033 114.803 307.164V304.163C114.803 303.564 114.51 303.002 114.016 302.657L113.227 302.104C113.682 301.226 113.94 300.23 113.94 299.175C113.94 295.635 111.048 292.766 107.48 292.766C103.912 292.766 101.02 295.635 101.02 299.175C101.02 300.289 101.307 301.338 101.812 302.251L101.232 302.657C100.738 303.002 100.445 303.564 100.445 304.163V307.164C100.445 308.033 101.051 308.762 101.866 308.957Z" fill="#34364C"/>
<path d="M112.082 299.175C112.082 300.499 111.514 301.691 110.606 302.525L112.945 304.163V307.164H110.655C110.766 308.556 111.665 309.948 112.829 311.162C114.065 312.451 115.551 313.491 116.539 314.05L116.683 314.132V318.578H98.5643V314.132L98.7093 314.05C99.6964 313.491 101.183 312.451 102.418 311.162C103.583 309.948 104.482 308.556 104.593 307.164H102.303V304.163L104.481 302.638C103.5 301.801 102.878 300.56 102.878 299.175C102.878 296.653 104.939 294.609 107.48 294.609C110.022 294.609 112.082 296.653 112.082 299.175Z" fill="#E8E8E8"/>
<path d="M281.261 308.957C281.039 309.257 280.775 309.57 280.466 309.892C279.378 311.027 278.043 311.961 277.182 312.449L277.037 312.532C276.458 312.86 276.101 313.471 276.101 314.132V318.578C276.101 319.596 276.933 320.422 277.959 320.422H296.078C297.104 320.422 297.936 319.596 297.936 318.578V314.132C297.936 313.471 297.579 312.86 297 312.532L296.855 312.449C295.994 311.961 294.659 311.027 293.571 309.892C293.262 309.57 292.998 309.257 292.776 308.957C293.592 308.762 294.198 308.033 294.198 307.164V304.163C294.198 303.564 293.904 303.002 293.411 302.657L292.622 302.104C293.077 301.226 293.335 300.23 293.335 299.175C293.335 295.635 290.442 292.766 286.875 292.766C283.307 292.766 280.415 295.635 280.415 299.175C280.415 300.289 280.702 301.338 281.206 302.251L280.626 302.657C280.133 303.002 279.839 303.564 279.839 304.163V307.164C279.839 308.033 280.445 308.762 281.261 308.957Z" fill="#34364C"/>
<path d="M291.476 299.175C291.476 300.499 290.908 301.691 290.001 302.525L292.339 304.163V307.164H290.05C290.16 308.556 291.06 309.948 292.224 311.162C293.459 312.451 294.946 313.491 295.933 314.05L296.078 314.132V318.578H277.959V314.132L278.104 314.05C279.091 313.491 280.577 312.451 281.813 311.162C282.977 309.948 283.877 308.556 283.987 307.164H281.698V304.163L283.876 302.638C282.894 301.801 282.273 300.56 282.273 299.175C282.273 296.653 284.333 294.609 286.875 294.609C289.416 294.609 291.476 296.653 291.476 299.175Z" fill="#E8E8E8"/>
<path d="M325.862 308.957C325.64 309.257 325.376 309.57 325.067 309.892C323.979 311.027 322.644 311.961 321.783 312.449L321.638 312.532C321.059 312.86 320.701 313.471 320.701 314.132V318.578C320.701 319.596 321.533 320.422 322.56 320.422H340.679C341.705 320.422 342.537 319.596 342.537 318.578V314.132C342.537 313.471 342.18 312.86 341.601 312.532L341.456 312.449C340.595 311.961 339.26 311.027 338.171 309.892C337.863 309.57 337.599 309.257 337.377 308.957C338.192 308.762 338.798 308.033 338.798 307.164V304.163C338.798 303.564 338.505 303.002 338.012 302.657L337.222 302.104C337.678 301.226 337.936 300.23 337.936 299.175C337.936 295.635 335.043 292.766 331.476 292.766C327.908 292.766 325.015 295.635 325.015 299.175C325.015 300.289 325.303 301.338 325.807 302.251L325.227 302.657C324.734 303.002 324.44 303.564 324.44 304.163V307.164C324.44 308.033 325.046 308.762 325.862 308.957Z" fill="#34364C"/>
<path d="M336.077 299.175C336.077 300.499 335.509 301.691 334.601 302.525L336.94 304.163V307.164H334.651C334.761 308.556 335.661 309.948 336.825 311.162C338.06 312.451 339.547 313.491 340.534 314.05L340.679 314.132V318.578H322.56V314.132L322.705 314.05C323.692 313.491 325.178 312.451 326.414 311.162C327.578 309.948 328.478 308.556 328.588 307.164H326.299V304.163L328.477 302.638C327.495 301.801 326.874 300.56 326.874 299.175C326.874 296.653 328.934 294.609 331.476 294.609C334.017 294.609 336.077 296.653 336.077 299.175Z" fill="#E8E8E8"/>
<path d="M99.4935 73.6094C99.4935 74.0645 99.5673 74.5024 99.7037 74.9119L98.7864 75.3388C98.0259 74.5568 96.9586 74.0703 95.7768 74.0703C93.4675 74.0703 91.5955 75.9276 91.5955 78.2188C91.5955 80.2611 93.083 81.9587 95.0418 82.3033L97.2449 89.7975C97.2909 89.9539 97.3576 90.1036 97.4432 90.2427L98.713 92.3042L98.7052 92.3055C97.8175 92.4613 97.1706 93.2267 97.1706 94.1211V97.5781C97.1706 98.5964 98.0026 99.4219 99.0289 99.4219L116.719 99.4219C117.212 99.4219 117.685 99.2276 118.033 98.8819C118.382 98.5361 118.578 98.0671 118.578 97.5781V94.1211C118.578 93.2257 117.929 92.4597 117.04 92.3051L117.003 92.2986L118.269 90.2427C118.355 90.1036 118.422 89.9539 118.467 89.7975L120.671 82.3033C122.629 81.9587 124.117 80.2611 124.117 78.2188C124.117 75.9276 122.245 74.0703 119.936 74.0703C118.752 74.0703 117.684 74.558 116.923 75.3418L116.007 74.9156C116.145 74.505 116.219 74.0659 116.219 73.6094C116.219 71.3183 114.347 69.4609 112.038 69.4609C109.728 69.4609 107.856 71.3183 107.856 73.6094C107.856 71.3183 105.984 69.4609 103.675 69.4609C101.366 69.4609 99.4935 71.3183 99.4935 73.6094Z" fill="#34364C"/>
<path d="M104.509 75.7611C105.38 75.4287 105.998 74.5906 105.998 73.6094C105.998 72.3365 104.958 71.3047 103.675 71.3047C102.392 71.3047 101.352 72.3365 101.352 73.6094C101.352 74.7856 102.24 75.7561 103.387 75.8966L102.351 84.2109L97.3574 79.9077C97.8141 79.4868 98.0998 78.8859 98.0998 78.2188C98.0998 76.9459 97.0597 75.9141 95.7768 75.9141C94.4939 75.9141 93.4538 76.9459 93.4538 78.2188C93.4538 79.4916 94.4939 80.5234 95.7768 80.5234C96.0026 80.5234 96.2209 80.4915 96.4274 80.4318L99.0289 89.2813L101.719 93.6489L99.0289 94.1211V97.5781L116.719 97.5781V94.1211L113.994 93.647L116.683 89.2813L119.285 80.4318C119.491 80.4915 119.71 80.5234 119.936 80.5234C121.219 80.5234 122.259 79.4916 122.259 78.2188C122.259 76.9459 121.219 75.9141 119.936 75.9141C118.653 75.9141 117.613 76.9459 117.613 78.2188C117.613 78.8859 117.898 79.4868 118.355 79.9077L113.361 84.2109L112.325 75.8966C113.472 75.7561 114.36 74.7856 114.36 73.6094C114.36 72.3365 113.32 71.3047 112.038 71.3047C110.755 71.3047 109.715 72.3365 109.715 73.6094C109.715 74.5906 110.333 75.4287 111.204 75.7611L107.856 83.2891L104.509 75.7611Z" fill="#E8E8E8"/>
<path fill-rule="evenodd" clip-rule="evenodd" d="M327.083 336.786C327.114 335.791 327.937 335 328.94 335H331.728C332.732 335 333.554 335.791 333.585 336.786L333.602 337.305H334.515C335.542 337.305 336.374 338.13 336.374 339.148V340.267C338.4 339.812 340.586 340.116 342.442 341.65C346.297 344.837 345.942 351.519 341.367 355.174C340.263 356.056 339.395 356.787 338.798 357.54C338.662 357.712 338.545 357.878 338.447 358.041L340.33 358.294C341.252 358.418 341.939 359.198 341.939 360.121V363.578C341.939 364.596 341.107 365.422 340.081 365.422H320.587C319.561 365.422 318.729 364.596 318.729 363.578V360.121C318.729 359.198 319.416 358.418 320.338 358.294L322.222 358.041C322.123 357.878 322.007 357.712 321.87 357.54C321.273 356.787 320.406 356.056 319.301 355.174C314.726 351.519 314.371 344.837 318.226 341.65C320.082 340.116 322.269 339.812 324.294 340.267V339.148C324.294 338.13 325.126 337.305 326.153 337.305H327.067L327.083 336.786Z" fill="#34364C"/>
<path fill-rule="evenodd" clip-rule="evenodd" d="M328.94 336.844H331.728L331.8 339.148H334.515V341.914H331.888L332.015 345.045C332.066 344.986 332.119 344.927 332.173 344.87C334.711 342.194 338.474 340.77 341.252 343.066C344.04 345.371 344.04 350.672 340.201 353.738C338.027 355.474 336.08 357.148 336.176 359.597L340.081 360.121V363.578H320.587V360.121L324.492 359.597C324.588 357.148 322.641 355.474 320.467 353.738C316.629 350.672 316.629 345.371 319.416 343.066C322.194 340.77 325.957 342.194 328.496 344.87C328.55 344.927 328.602 344.986 328.653 345.045L328.781 341.914H326.153V339.148H328.868L328.94 336.844ZM326.314 347.433C328.018 350.201 328.243 353.438 328.243 354.845C327.39 354.846 324.171 353.441 322.467 351.135C321.24 349.474 320.92 347.011 321.971 346.054C323.023 345.098 325.25 345.703 326.314 347.433ZM334.354 347.433C332.65 350.201 332.425 353.438 332.425 354.845C333.279 354.846 336.497 353.441 338.202 351.135C339.429 349.474 339.749 347.011 338.697 346.054C337.645 345.098 335.418 345.703 334.354 347.433Z" fill="#E8E8E8"/>
<path d="M282.605 27.3047C282.943 27.3047 283.261 27.3945 283.534 27.5513C283.807 27.3945 284.125 27.3047 284.463 27.3047H289.574C289.912 27.3047 290.23 27.3945 290.503 27.5513C290.776 27.3945 291.094 27.3047 291.432 27.3047H296.078C297.104 27.3047 297.936 28.1302 297.936 29.1484V33.2969C297.936 33.8772 297.661 34.4237 297.193 34.7719L294.326 36.9056L295.137 44.1558C295.352 46.0752 296.253 47.0491 297.565 48.7844C297.806 49.1035 297.936 49.4917 297.936 49.8906V53.5781C297.936 54.5964 297.104 55.4219 296.078 55.4219H277.959C276.933 55.4219 276.101 54.5964 276.101 53.5781V49.8906C276.101 49.4917 276.231 49.1035 276.472 48.7844C277.784 47.0491 278.684 46.0752 278.899 44.1558L279.711 36.9056L276.844 34.7719C276.376 34.4237 276.101 33.8772 276.101 33.2969V29.1484C276.101 28.1302 276.933 27.3047 277.959 27.3047H282.605Z" fill="#E8E8E8"/>
<path d="M277.959 29.1484H282.605V31.9141H284.463V29.1484H289.574V31.9141H291.432V29.1484H296.078V33.2969L292.361 36.0625L293.29 44.3594H280.746L281.676 36.0625L277.959 33.2969V29.1484Z" fill="#34364C"/>
<path d="M280.746 46.2031H293.29L296.078 49.8906V53.5781H277.959V49.8906L280.746 46.2031Z" fill="#34364C"/>
<path d="M99.4935 162.609C99.4935 163.064 99.5673 163.502 99.7037 163.912L98.7864 164.339C98.0259 163.557 96.9586 163.07 95.7768 163.07C93.4675 163.07 91.5955 164.928 91.5955 167.219C91.5955 169.261 93.083 170.959 95.0418 171.303L97.2449 178.798C97.2909 178.954 97.3576 179.104 97.4432 179.243L98.713 181.304L98.7052 181.306C97.8175 181.461 97.1706 182.227 97.1706 183.121V186.578C97.1706 187.596 98.0026 188.422 99.0289 188.422L116.719 188.422C117.212 188.422 117.685 188.228 118.033 187.882C118.382 187.536 118.578 187.067 118.578 186.578V183.121C118.578 182.226 117.929 181.46 117.04 181.305L117.003 181.299L118.269 179.243C118.355 179.104 118.422 178.954 118.467 178.798L120.671 171.303C122.629 170.959 124.117 169.261 124.117 167.219C124.117 164.928 122.245 163.07 119.936 163.07C118.752 163.07 117.684 163.558 116.923 164.342L116.007 163.916C116.145 163.505 116.219 163.066 116.219 162.609C116.219 160.318 114.347 158.461 112.038 158.461C109.728 158.461 107.856 160.318 107.856 162.609C107.856 160.318 105.984 158.461 103.675 158.461C101.366 158.461 99.4935 160.318 99.4935 162.609Z" fill="#E8E8E8"/>
<path d="M104.509 164.761C105.38 164.429 105.998 163.591 105.998 162.609C105.998 161.337 104.958 160.305 103.675 160.305C102.392 160.305 101.352 161.337 101.352 162.609C101.352 163.786 102.24 164.756 103.387 164.897L102.351 173.211L97.3574 168.908C97.8141 168.487 98.0998 167.886 98.0998 167.219C98.0998 165.946 97.0597 164.914 95.7768 164.914C94.4939 164.914 93.4538 165.946 93.4538 167.219C93.4538 168.492 94.4939 169.523 95.7768 169.523C96.0026 169.523 96.2209 169.491 96.4274 169.432L99.0289 178.281L101.719 182.649L99.0289 183.121V186.578L116.719 186.578V183.121L113.994 182.647L116.683 178.281L119.285 169.432C119.491 169.491 119.71 169.523 119.936 169.523C121.219 169.523 122.259 168.492 122.259 167.219C122.259 165.946 121.219 164.914 119.936 164.914C118.653 164.914 117.613 165.946 117.613 167.219C117.613 167.886 117.898 168.487 118.355 168.908L113.361 173.211L112.325 164.897C113.472 164.756 114.36 163.786 114.36 162.609C114.36 161.337 113.32 160.305 112.038 160.305C110.755 160.305 109.715 161.337 109.715 162.609C109.715 163.591 110.333 164.429 111.204 164.761L107.856 172.289L104.509 164.761Z" fill="#34364C"/>
<path fill-rule="evenodd" clip-rule="evenodd" d="M327.083 25.7862C327.114 24.7908 327.937 24 328.94 24H331.728C332.732 24 333.554 24.7908 333.585 25.7862L333.602 26.3047H334.515C335.542 26.3047 336.374 27.1302 336.374 28.1484V29.2667C338.4 28.8119 340.586 29.1157 342.442 30.65C346.297 33.8374 345.942 40.5191 341.367 44.1738C340.263 45.0558 339.395 45.7869 338.798 46.5403C338.662 46.7122 338.545 46.8785 338.447 47.0413L340.33 47.294C341.252 47.4177 341.939 48.1983 341.939 49.1211V52.5781C341.939 53.5964 341.107 54.4219 340.081 54.4219H320.587C319.561 54.4219 318.729 53.5964 318.729 52.5781V49.1211C318.729 48.1983 319.416 47.4177 320.338 47.294L322.222 47.0413C322.123 46.8785 322.007 46.7122 321.87 46.5403C321.273 45.7869 320.406 45.0557 319.301 44.1738C314.726 40.5191 314.371 33.8374 318.226 30.65C320.082 29.1157 322.269 28.8119 324.294 29.2667V28.1484C324.294 27.1302 325.126 26.3047 326.153 26.3047H327.067L327.083 25.7862Z" fill="#E8E8E8"/>
<path fill-rule="evenodd" clip-rule="evenodd" d="M328.94 25.8438H331.728L331.8 28.1484H334.515V30.9141H331.888L332.015 34.0452C332.066 33.9857 332.119 33.9273 332.173 33.8703C334.711 31.1939 338.474 29.7697 341.252 32.0664C344.04 34.3711 344.04 39.6719 340.201 42.7376C338.027 44.4743 336.08 46.1485 336.176 48.5971L340.081 49.1211V52.5781H320.587V49.1211L324.492 48.5971C324.588 46.1485 322.641 44.4743 320.467 42.7376C316.629 39.6719 316.629 34.3711 319.416 32.0664C322.194 29.7697 325.957 31.1939 328.496 33.8703C328.55 33.9273 328.602 33.9857 328.653 34.0452L328.781 30.9141H326.153V28.1484H328.868L328.94 25.8438ZM326.314 36.4329C328.018 39.2013 328.243 42.4375 328.243 43.8448C327.39 43.8464 324.171 42.4414 322.467 40.135C321.24 38.4745 320.92 36.0109 321.971 35.0544C323.023 34.098 325.25 34.7027 326.314 36.4329ZM334.354 36.4329C332.65 39.2013 332.425 42.4375 332.425 43.8448C333.279 43.8464 336.497 42.4414 338.202 40.135C339.429 38.4745 339.749 36.0109 338.697 35.0544C337.645 34.098 335.418 34.7027 334.354 36.4329Z" fill="#34364C"/>
<path d="M58.2566 87.957C58.0349 88.2573 57.7703 88.57 57.4619 88.8917C56.3736 90.027 55.0388 90.961 54.1774 91.4494L54.0325 91.5316C53.4535 91.8598 53.0961 92.4708 53.0961 93.1324V97.5781C53.0961 98.5964 53.9281 99.4219 54.9545 99.4219H73.0736C74.0999 99.4219 74.932 98.5964 74.932 97.5781V93.1324C74.932 92.4708 74.5746 91.8599 73.9956 91.5316L73.8507 91.4494C72.9893 90.961 71.6545 90.027 70.5662 88.8917C70.2578 88.57 69.9932 88.2573 69.7715 87.957C70.5871 87.7621 71.1931 87.0335 71.1931 86.1644V83.1632C71.1931 82.5641 70.8997 82.0024 70.4064 81.6569L69.6171 81.1041C70.0725 80.2262 70.3303 79.2299 70.3303 78.1749C70.3303 74.6351 67.438 71.7656 63.8702 71.7656C60.3025 71.7656 57.4102 74.6351 57.4102 78.1749C57.4102 79.2893 57.6976 80.3378 58.2018 81.2506L57.6217 81.6569C57.1284 82.0024 56.835 82.5641 56.835 83.1632V86.1644C56.835 87.0335 57.441 87.7621 58.2566 87.957Z" fill="#E8E8E8"/>
<path d="M68.4719 78.1749C68.4719 79.499 67.9038 80.6914 66.9961 81.5254L69.3347 83.1632V86.1644H67.0453C67.1557 87.5556 68.0554 88.9479 69.2196 90.1623C70.4551 91.4511 71.9415 92.4906 72.9287 93.0502L73.0736 93.1324V97.5781H54.9545V93.1324L55.0994 93.0502C56.0866 92.4906 57.573 91.4511 58.8085 90.1623C59.9727 88.9479 60.8724 87.5556 60.9828 86.1644H58.6934V83.1632L60.8714 81.6378C59.8901 80.8005 59.2686 79.5597 59.2686 78.1749C59.2686 75.6534 61.3288 73.6094 63.8703 73.6094C66.4117 73.6094 68.4719 75.6534 68.4719 78.1749Z" fill="#34364C"/>
<path d="M101.866 130.957C101.645 131.257 101.38 131.57 101.072 131.892C99.9834 133.027 98.6487 133.961 97.7872 134.449L97.6423 134.532C97.0633 134.86 96.706 135.471 96.706 136.132V140.578C96.706 141.596 97.538 142.422 98.5643 142.422H116.683C117.71 142.422 118.542 141.596 118.542 140.578V136.132C118.542 135.471 118.184 134.86 117.605 134.532L117.461 134.449C116.599 133.961 115.264 133.027 114.176 131.892C113.868 131.57 113.603 131.257 113.381 130.957C114.197 130.762 114.803 130.033 114.803 129.164V126.163C114.803 125.564 114.51 125.002 114.016 124.657L113.227 124.104C113.682 123.226 113.94 122.23 113.94 121.175C113.94 117.635 111.048 114.766 107.48 114.766C103.912 114.766 101.02 117.635 101.02 121.175C101.02 122.289 101.307 123.338 101.812 124.251L101.232 124.657C100.738 125.002 100.445 125.564 100.445 126.163V129.164C100.445 130.033 101.051 130.762 101.866 130.957Z" fill="#E8E8E8"/>
<path d="M112.082 121.175C112.082 122.499 111.514 123.691 110.606 124.525L112.945 126.163V129.164H110.655C110.766 130.556 111.665 131.948 112.829 133.162C114.065 134.451 115.551 135.491 116.539 136.05L116.683 136.132V140.578H98.5643V136.132L98.7093 136.05C99.6964 135.491 101.183 134.451 102.418 133.162C103.583 131.948 104.482 130.556 104.593 129.164H102.303V126.163L104.481 124.638C103.5 123.801 102.878 122.56 102.878 121.175C102.878 118.653 104.939 116.609 107.48 116.609C110.022 116.609 112.082 118.653 112.082 121.175Z" fill="#34364C"/>
<path d="M281.261 130.957C281.039 131.257 280.775 131.57 280.466 131.892C279.378 133.027 278.043 133.961 277.182 134.449L277.037 134.532C276.458 134.86 276.101 135.471 276.101 136.132V140.578C276.101 141.596 276.933 142.422 277.959 142.422H296.078C297.104 142.422 297.936 141.596 297.936 140.578V136.132C297.936 135.471 297.579 134.86 297 134.532L296.855 134.449C295.994 133.961 294.659 133.027 293.571 131.892C293.262 131.57 292.998 131.257 292.776 130.957C293.592 130.762 294.198 130.033 294.198 129.164V126.163C294.198 125.564 293.904 125.002 293.411 124.657L292.622 124.104C293.077 123.226 293.335 122.23 293.335 121.175C293.335 117.635 290.442 114.766 286.875 114.766C283.307 114.766 280.415 117.635 280.415 121.175C280.415 122.289 280.702 123.338 281.206 124.251L280.626 124.657C280.133 125.002 279.839 125.564 279.839 126.163V129.164C279.839 130.033 280.445 130.762 281.261 130.957Z" fill="#E8E8E8"/>
<path d="M291.476 121.175C291.476 122.499 290.908 123.691 290.001 124.525L292.339 126.163V129.164H290.05C290.16 130.556 291.06 131.948 292.224 133.162C293.459 134.451 294.946 135.491 295.933 136.05L296.078 136.132V140.578H277.959V136.132L278.104 136.05C279.091 135.491 280.577 134.451 281.813 133.162C282.977 131.948 283.877 130.556 283.987 129.164H281.698V126.163L283.876 124.638C282.894 123.801 282.273 122.56 282.273 121.175C282.273 118.653 284.333 116.609 286.875 116.609C289.416 116.609 291.476 118.653 291.476 121.175Z" fill="#34364C"/>
<path d="M235.669 176.957C235.447 177.257 235.183 177.57 234.874 177.892C233.786 179.027 232.451 179.961 231.59 180.449L231.445 180.532C230.866 180.86 230.509 181.471 230.509 182.132V186.578C230.509 187.596 231.341 188.422 232.367 188.422H250.486C251.513 188.422 252.345 187.596 252.345 186.578V182.132C252.345 181.471 251.987 180.86 251.408 180.532L251.263 180.449C250.402 179.961 249.067 179.027 247.979 177.892C247.67 177.57 247.406 177.257 247.184 176.957C248 176.762 248.606 176.033 248.606 175.164V172.163C248.606 171.564 248.312 171.002 247.819 170.657L247.03 170.104C247.485 169.226 247.743 168.23 247.743 167.175C247.743 163.635 244.851 160.766 241.283 160.766C237.715 160.766 234.823 163.635 234.823 167.175C234.823 168.289 235.11 169.338 235.614 170.251L235.034 170.657C234.541 171.002 234.248 171.564 234.248 172.163V175.164C234.248 176.033 234.854 176.762 235.669 176.957Z" fill="#E8E8E8"/>
<path d="M245.884 167.175C245.884 168.499 245.316 169.691 244.409 170.525L246.747 172.163V175.164H244.458C244.568 176.556 245.468 177.948 246.632 179.162C247.868 180.451 249.354 181.491 250.341 182.05L250.486 182.132V186.578H232.367V182.132L232.512 182.05C233.499 181.491 234.986 180.451 236.221 179.162C237.385 177.948 238.285 176.556 238.395 175.164H236.106V172.163L238.284 170.638C237.303 169.801 236.681 168.56 236.681 167.175C236.681 164.653 238.741 162.609 241.283 162.609C243.824 162.609 245.884 164.653 245.884 167.175Z" fill="#34364C"/>
<path d="M412.706 44.6738C412.706 45.2051 412.583 45.6523 412.337 46.0156C412.091 46.3789 411.755 46.6543 411.329 46.8418C410.907 47.0254 410.431 47.1172 409.899 47.1172C409.368 47.1172 408.89 47.0254 408.464 46.8418C408.038 46.6543 407.702 46.3789 407.456 46.0156C407.21 45.6523 407.087 45.2051 407.087 44.6738C407.087 44.3223 407.155 44.0039 407.292 43.7188C407.429 43.4297 407.622 43.1816 407.872 42.9746C408.126 42.7637 408.423 42.6016 408.763 42.4883C409.106 42.375 409.481 42.3184 409.888 42.3184C410.427 42.3184 410.909 42.418 411.335 42.6172C411.761 42.8164 412.095 43.0918 412.337 43.4434C412.583 43.7949 412.706 44.2051 412.706 44.6738ZM411.288 44.6035C411.288 44.3184 411.23 44.0684 411.112 43.8535C410.995 43.6387 410.831 43.4727 410.62 43.3555C410.409 43.2383 410.165 43.1797 409.888 43.1797C409.606 43.1797 409.362 43.2383 409.155 43.3555C408.948 43.4727 408.786 43.6387 408.669 43.8535C408.556 44.0684 408.499 44.3184 408.499 44.6035C408.499 44.8926 408.556 45.1426 408.669 45.3535C408.782 45.5605 408.944 45.7188 409.155 45.8281C409.366 45.9375 409.614 45.9922 409.899 45.9922C410.185 45.9922 410.431 45.9375 410.638 45.8281C410.845 45.7188 411.005 45.5605 411.118 45.3535C411.231 45.1426 411.288 44.8926 411.288 44.6035ZM412.513 40.7129C412.513 41.1387 412.399 41.5176 412.173 41.8496C411.95 42.1816 411.642 42.4434 411.247 42.6348C410.853 42.8223 410.403 42.916 409.899 42.916C409.392 42.916 408.938 42.8223 408.54 42.6348C408.146 42.4434 407.835 42.1816 407.608 41.8496C407.386 41.5176 407.274 41.1387 407.274 40.7129C407.274 40.2051 407.386 39.7773 407.608 39.4297C407.835 39.0781 408.146 38.8105 408.54 38.627C408.935 38.4434 409.386 38.3516 409.894 38.3516C410.401 38.3516 410.853 38.4434 411.247 38.627C411.642 38.8105 411.95 39.0781 412.173 39.4297C412.399 39.7773 412.513 40.2051 412.513 40.7129ZM411.101 40.7598C411.101 40.5059 411.05 40.2832 410.948 40.0918C410.851 39.8965 410.712 39.7441 410.532 39.6348C410.353 39.5254 410.14 39.4707 409.894 39.4707C409.647 39.4707 409.435 39.5234 409.255 39.6289C409.075 39.7344 408.937 39.8828 408.839 40.0742C408.741 40.2656 408.692 40.4941 408.692 40.7598C408.692 41.0215 408.741 41.25 408.839 41.4453C408.937 41.6367 409.075 41.7871 409.255 41.8965C409.438 42.0059 409.653 42.0605 409.899 42.0605C410.146 42.0605 410.358 42.0059 410.538 41.8965C410.718 41.7871 410.856 41.6367 410.954 41.4453C411.052 41.25 411.101 41.0215 411.101 40.7598Z" fill="#000039"/>
<path d="M412.794 82.7188V83.4922L409.384 91.25H407.896L411.3 83.8438H406.882V82.7188H412.794Z" fill="#000039"/>
<path d="M411.394 126.916H411.569V128.07H411.47C410.966 128.07 410.53 128.148 410.163 128.305C409.8 128.461 409.501 128.676 409.267 128.949C409.032 129.223 408.856 129.543 408.739 129.91C408.626 130.273 408.569 130.66 408.569 131.07V132.412C408.569 132.752 408.606 133.053 408.681 133.314C408.755 133.572 408.858 133.789 408.991 133.965C409.128 134.137 409.284 134.268 409.46 134.357C409.636 134.447 409.825 134.492 410.028 134.492C410.239 134.492 410.431 134.449 410.603 134.363C410.774 134.273 410.921 134.15 411.042 133.994C411.163 133.838 411.255 133.652 411.317 133.438C411.38 133.223 411.411 132.988 411.411 132.734C411.411 132.492 411.38 132.266 411.317 132.055C411.259 131.84 411.171 131.652 411.054 131.492C410.937 131.328 410.79 131.201 410.614 131.111C410.442 131.018 410.243 130.971 410.017 130.971C409.735 130.971 409.48 131.037 409.249 131.17C409.022 131.303 408.839 131.477 408.698 131.691C408.562 131.902 408.487 132.127 408.476 132.365L407.937 132.189C407.968 131.826 408.048 131.5 408.177 131.211C408.31 130.922 408.483 130.676 408.698 130.473C408.913 130.27 409.161 130.115 409.442 130.01C409.728 129.9 410.04 129.846 410.38 129.846C410.794 129.846 411.153 129.924 411.458 130.08C411.763 130.236 412.015 130.449 412.214 130.719C412.417 130.984 412.567 131.289 412.665 131.633C412.767 131.973 412.817 132.328 412.817 132.699C412.817 133.109 412.755 133.492 412.63 133.848C412.505 134.199 412.321 134.508 412.079 134.773C411.841 135.039 411.55 135.246 411.206 135.395C410.866 135.543 410.48 135.617 410.046 135.617C409.589 135.617 409.181 135.529 408.821 135.354C408.466 135.178 408.163 134.936 407.913 134.627C407.667 134.318 407.48 133.963 407.351 133.561C407.222 133.158 407.157 132.732 407.157 132.283V131.697C407.157 131.049 407.239 130.438 407.403 129.863C407.567 129.285 407.819 128.775 408.159 128.334C408.503 127.893 408.942 127.547 409.478 127.297C410.013 127.043 410.651 126.916 411.394 126.916Z" fill="#000039"/>
<path d="M408.61 175.783L407.485 175.508L407.948 171.219H412.548V172.414H409.12L408.886 174.506C409.019 174.428 409.202 174.352 409.437 174.277C409.671 174.199 409.938 174.16 410.239 174.16C410.642 174.16 411.001 174.227 411.317 174.359C411.638 174.488 411.909 174.678 412.132 174.928C412.355 175.174 412.524 175.475 412.642 175.83C412.759 176.182 412.817 176.578 412.817 177.02C412.817 177.414 412.759 177.783 412.642 178.127C412.528 178.471 412.356 178.773 412.126 179.035C411.896 179.297 411.605 179.502 411.253 179.65C410.905 179.795 410.493 179.867 410.017 179.867C409.661 179.867 409.319 179.816 408.991 179.715C408.667 179.609 408.376 179.455 408.118 179.252C407.86 179.045 407.653 178.791 407.497 178.49C407.341 178.186 407.251 177.836 407.228 177.441H408.61C408.646 177.719 408.722 177.955 408.839 178.15C408.96 178.342 409.12 178.488 409.319 178.59C409.519 178.691 409.749 178.742 410.011 178.742C410.249 178.742 410.454 178.701 410.626 178.619C410.798 178.533 410.94 178.412 411.054 178.256C411.171 178.096 411.257 177.908 411.312 177.693C411.37 177.479 411.399 177.24 411.399 176.979C411.399 176.729 411.366 176.5 411.3 176.293C411.237 176.086 411.142 175.906 411.013 175.754C410.888 175.602 410.73 175.484 410.538 175.402C410.347 175.316 410.126 175.273 409.876 175.273C409.54 175.273 409.282 175.322 409.103 175.42C408.927 175.518 408.763 175.639 408.61 175.783Z" fill="#000039"/>
<path d="M413.005 220.959V222.084H406.853L406.806 221.234L410.485 215.469H411.616L410.392 217.566L408.276 220.959H413.005ZM411.938 215.469V224H410.526V215.469H411.938Z" fill="#000039"/>
<path d="M408.786 263.346H409.63C409.958 263.346 410.23 263.289 410.444 263.176C410.663 263.062 410.825 262.906 410.931 262.707C411.036 262.508 411.089 262.279 411.089 262.021C411.089 261.752 411.04 261.521 410.942 261.33C410.849 261.135 410.704 260.984 410.509 260.879C410.317 260.773 410.073 260.721 409.776 260.721C409.526 260.721 409.3 260.771 409.097 260.873C408.897 260.971 408.739 261.111 408.622 261.295C408.505 261.475 408.446 261.689 408.446 261.939H407.028C407.028 261.486 407.147 261.084 407.386 260.732C407.624 260.381 407.948 260.105 408.358 259.906C408.772 259.703 409.237 259.602 409.753 259.602C410.304 259.602 410.784 259.693 411.194 259.877C411.608 260.057 411.931 260.326 412.161 260.686C412.392 261.045 412.507 261.49 412.507 262.021C412.507 262.264 412.45 262.51 412.337 262.76C412.224 263.01 412.056 263.238 411.833 263.445C411.61 263.648 411.333 263.814 411.001 263.943C410.669 264.068 410.284 264.131 409.847 264.131H408.786V263.346ZM408.786 264.447V263.674H409.847C410.347 263.674 410.772 263.732 411.124 263.85C411.48 263.967 411.769 264.129 411.991 264.336C412.214 264.539 412.376 264.771 412.478 265.033C412.583 265.295 412.636 265.572 412.636 265.865C412.636 266.264 412.563 266.619 412.419 266.932C412.278 267.24 412.077 267.502 411.815 267.717C411.554 267.932 411.247 268.094 410.896 268.203C410.548 268.312 410.169 268.367 409.759 268.367C409.392 268.367 409.04 268.316 408.704 268.215C408.368 268.113 408.067 267.963 407.802 267.764C407.536 267.561 407.325 267.309 407.169 267.008C407.017 266.703 406.94 266.352 406.94 265.953H408.353C408.353 266.207 408.411 266.432 408.528 266.627C408.649 266.818 408.817 266.969 409.032 267.078C409.251 267.188 409.501 267.242 409.782 267.242C410.079 267.242 410.335 267.189 410.55 267.084C410.765 266.979 410.929 266.822 411.042 266.615C411.159 266.408 411.218 266.158 411.218 265.865C411.218 265.533 411.153 265.264 411.024 265.057C410.896 264.85 410.712 264.697 410.474 264.6C410.235 264.498 409.954 264.447 409.63 264.447H408.786Z" fill="#000039"/>
<path d="M412.847 311.375V312.5H407.128V311.533L409.905 308.504C410.21 308.16 410.45 307.863 410.626 307.613C410.802 307.363 410.925 307.139 410.995 306.939C411.069 306.736 411.106 306.539 411.106 306.348C411.106 306.078 411.056 305.842 410.954 305.639C410.856 305.432 410.712 305.27 410.521 305.152C410.329 305.031 410.097 304.971 409.823 304.971C409.507 304.971 409.241 305.039 409.026 305.176C408.812 305.312 408.649 305.502 408.54 305.744C408.431 305.982 408.376 306.256 408.376 306.564H406.964C406.964 306.068 407.077 305.615 407.304 305.205C407.53 304.791 407.858 304.463 408.288 304.221C408.718 303.975 409.235 303.852 409.841 303.852C410.411 303.852 410.896 303.947 411.294 304.139C411.692 304.33 411.995 304.602 412.202 304.953C412.413 305.305 412.519 305.721 412.519 306.201C412.519 306.467 412.476 306.73 412.39 306.992C412.304 307.254 412.181 307.516 412.021 307.777C411.864 308.035 411.679 308.295 411.464 308.557C411.249 308.814 411.013 309.076 410.755 309.342L408.909 311.375H412.847Z" fill="#000039"/>
<path d="M410.983 348.189V356.75H409.571V349.865L407.48 350.574V349.408L410.813 348.189H410.983Z" fill="#000039"/>
<path d="M57.2655 263.957C57.0438 264.257 56.7792 264.57 56.4708 264.892C55.3825 266.027 54.0478 266.961 53.1863 267.449L53.0414 267.532C52.4624 267.86 52.105 268.471 52.105 269.132V273.578C52.105 274.596 52.9371 275.422 53.9634 275.422H72.0825C73.1089 275.422 73.9409 274.596 73.9409 273.578V269.132C73.9409 268.471 73.5836 267.86 73.0045 267.532L72.8596 267.449C71.9982 266.961 70.6634 266.027 69.5751 264.892C69.2667 264.57 69.0022 264.257 68.7804 263.957C69.596 263.762 70.202 263.033 70.202 262.164V259.163C70.202 258.564 69.9087 258.002 69.4153 257.657L68.6261 257.104C69.0815 256.226 69.3392 255.23 69.3392 254.175C69.3392 250.635 66.447 247.766 62.8792 247.766C59.3114 247.766 56.4191 250.635 56.4191 254.175C56.4191 255.289 56.7066 256.338 57.2107 257.251L56.6306 257.657C56.1373 258.002 55.8439 258.564 55.8439 259.163V262.164C55.8439 263.033 56.4499 263.762 57.2655 263.957Z" fill="#34364C"/>
<path d="M67.4809 254.175C67.4809 255.499 66.9127 256.691 66.005 257.525L68.3437 259.163V262.164H66.0542C66.1646 263.556 67.0643 264.948 68.2285 266.162C69.464 267.451 70.9505 268.491 71.9376 269.05L72.0825 269.132V273.578H53.9634V269.132L54.1083 269.05C55.0955 268.491 56.5819 267.451 57.8174 266.162C58.9816 264.948 59.8813 263.556 59.9917 262.164H57.7023V259.163L59.8803 257.638C58.899 256.801 58.2775 255.56 58.2775 254.175C58.2775 251.653 60.3377 249.609 62.8792 249.609C65.4206 249.609 67.4809 251.653 67.4809 254.175Z" fill="#E8E8E8"/>
<path d="M146.467 263.957C146.246 264.257 145.981 264.57 145.673 264.892C144.584 266.027 143.25 266.961 142.388 267.449L142.243 267.532C141.664 267.86 141.307 268.471 141.307 269.132V273.578C141.307 274.596 142.139 275.422 143.165 275.422H161.284C162.311 275.422 163.143 274.596 163.143 273.578V269.132C163.143 268.471 162.785 267.86 162.206 267.532L162.061 267.449C161.2 266.961 159.865 266.027 158.777 264.892C158.469 264.57 158.204 264.257 157.982 263.957C158.798 263.762 159.404 263.033 159.404 262.164V259.163C159.404 258.564 159.11 258.002 158.617 257.657L157.828 257.104C158.283 256.226 158.541 255.23 158.541 254.175C158.541 250.635 155.649 247.766 152.081 247.766C148.513 247.766 145.621 250.635 145.621 254.175C145.621 255.289 145.908 256.338 146.413 257.251L145.832 257.657C145.339 258.002 145.046 258.564 145.046 259.163V262.164C145.046 263.033 145.652 263.762 146.467 263.957Z" fill="#34364C"/>
<path d="M156.683 254.175C156.683 255.499 156.114 256.691 155.207 257.525L157.545 259.163V262.164H155.256C155.366 263.556 156.266 264.948 157.43 266.162C158.666 267.451 160.152 268.491 161.139 269.05L161.284 269.132V273.578H143.165V269.132L143.31 269.05C144.297 268.491 145.784 267.451 147.019 266.162C148.183 264.948 149.083 263.556 149.194 262.164H146.904V259.163L149.082 257.638C148.101 256.801 147.479 255.56 147.479 254.175C147.479 251.653 149.54 249.609 152.081 249.609C154.622 249.609 156.683 251.653 156.683 254.175Z" fill="#E8E8E8"/>
<path d="M147.957 297.782C147.77 297.273 147.668 296.724 147.668 296.152C147.668 293.518 149.82 291.383 152.475 291.383C155.13 291.383 157.282 293.518 157.282 296.152C157.282 296.923 157.096 297.655 156.766 298.301C157.24 298.334 157.701 298.546 158.037 298.927C159.862 300.996 161.459 303.946 161.459 307.365C161.459 309.81 160.61 311.621 159.464 312.926L161.641 313.305C162.53 313.46 163.178 314.226 163.178 315.121V318.578C163.178 319.067 162.983 319.536 162.634 319.882C162.286 320.228 161.813 320.422 161.32 320.422L143.63 320.422C142.603 320.422 141.771 319.596 141.771 318.578V315.121C141.771 314.227 142.418 313.461 143.306 313.306L145.27 312.961C144.108 311.653 143.246 309.832 143.246 307.365C143.246 304.697 144.288 302.374 145.51 300.593C146.278 299.474 147.148 298.524 147.957 297.782Z" fill="#34364C"/>
<path d="M153.386 307.121H151.528C151.528 303.736 152.563 300.356 154.853 297.882C155.211 297.397 155.423 296.799 155.423 296.152C155.423 294.536 154.103 293.227 152.475 293.227C150.847 293.227 149.527 294.536 149.527 296.152C149.527 296.949 149.848 297.671 150.369 298.199C148.527 299.502 145.104 302.993 145.104 307.365C145.104 311.777 148.59 313.563 150.419 313.929L143.63 315.121V318.578L161.32 318.578V315.121L154.37 313.912C156.219 313.508 159.6 311.709 159.6 307.365C159.6 304.52 158.264 301.984 156.638 300.141C154.853 301.523 153.386 304.75 153.386 307.121Z" fill="#E8E8E8"/>
<path d="M370.961 119.782C370.775 119.273 370.673 118.724 370.673 118.152C370.673 115.518 372.825 113.383 375.479 113.383C378.134 113.383 380.286 115.518 380.286 118.152C380.286 118.923 380.1 119.655 379.771 120.301C380.245 120.334 380.706 120.546 381.041 120.927C382.866 122.996 384.463 125.946 384.463 129.365C384.463 131.81 383.615 133.621 382.468 134.926L384.645 135.305C385.534 135.46 386.183 136.226 386.183 137.121V140.578C386.183 141.067 385.987 141.536 385.639 141.882C385.29 142.228 384.817 142.422 384.324 142.422L366.634 142.422C365.608 142.422 364.776 141.596 364.776 140.578V137.121C364.776 136.227 365.423 135.461 366.31 135.306L368.274 134.961C367.112 133.653 366.25 131.832 366.25 129.365C366.25 126.697 367.292 124.374 368.514 122.593C369.282 121.474 370.152 120.524 370.961 119.782Z" fill="#34364C"/>
<path d="M376.391 129.121H374.532C374.532 125.736 375.567 122.356 377.857 119.882C378.216 119.397 378.428 118.799 378.428 118.152C378.428 116.536 377.108 115.227 375.479 115.227C373.851 115.227 372.531 116.536 372.531 118.152C372.531 118.949 372.852 119.671 373.373 120.199C371.532 121.502 368.108 124.993 368.108 129.365C368.108 133.777 371.595 135.563 373.424 135.929L366.634 137.121V140.578L384.324 140.578V137.121L377.374 135.912C379.224 135.508 382.605 133.709 382.605 129.365C382.605 126.52 381.269 123.984 379.643 122.141C377.857 123.523 376.391 126.75 376.391 129.121Z" fill="#E8E8E8"/>
<path d="M195.117 158.234C195.729 158.165 196.335 158.402 196.736 158.866L200.527 163.253C204.882 164.321 207.404 167.574 208.8 171.634C210.237 175.819 210.593 181.131 210.593 186.578C210.593 187.596 209.761 188.422 208.735 188.422H191.408C190.421 188.422 189.606 187.657 189.552 186.68C189.504 185.808 189.706 184.294 190.322 182.748L190.334 182.72C188.583 183.652 186.641 183.429 185.199 182.41C183.447 181.173 182.472 178.749 183.585 176.356C184.388 174.631 185.253 173.717 185.908 173.026C186.519 172.38 186.774 172.096 186.954 171.381C188.047 167.044 190.295 164.546 192.71 163.406C192.675 162.911 192.703 162.435 192.764 162.003C192.917 160.928 193.295 159.933 193.681 159.207C193.968 158.666 194.506 158.302 195.117 158.234Z" fill="#34364C"/>
<path fill-rule="evenodd" clip-rule="evenodd" d="M199.522 164.923L195.325 160.066C194.718 161.21 194.129 163.23 194.975 164.688C194.564 164.724 194.172 164.793 193.868 164.914C191.929 165.686 189.803 167.68 188.757 171.828C188.455 173.029 187.91 173.605 187.262 174.288C186.651 174.933 185.949 175.675 185.273 177.129C183.879 180.125 187.64 183.121 190.383 180.4C191.925 178.87 193.273 178.238 194.405 177.708C196.034 176.945 197.214 176.392 197.882 173.672C198.199 174.941 198.072 177.935 195.025 179.761C191.979 181.588 191.344 185.436 191.408 186.578H208.735C208.735 175.738 207.288 166.373 199.522 164.923Z" fill="#E8E8E8"/>
<ellipse cx="194.332" cy="170.445" rx="1.39378" ry="1.38281" fill="#34364C"/>
<path d="M325.224 201.305C325.562 201.305 325.879 201.394 326.153 201.551C326.426 201.394 326.743 201.305 327.082 201.305H332.192C332.531 201.305 332.848 201.394 333.122 201.551C333.395 201.394 333.712 201.305 334.051 201.305H338.697C339.723 201.305 340.555 202.13 340.555 203.148V207.297C340.555 207.877 340.28 208.424 339.812 208.772L336.944 210.906L337.756 218.156C337.971 220.075 338.872 221.049 340.183 222.784C340.425 223.104 340.555 223.492 340.555 223.891V227.578C340.555 228.596 339.723 229.422 338.697 229.422H320.578C319.551 229.422 318.719 228.596 318.719 227.578V223.891C318.719 223.492 318.85 223.104 319.091 222.784C320.403 221.049 321.303 220.075 321.518 218.156L322.33 210.906L319.463 208.772C318.995 208.424 318.719 207.877 318.719 207.297V203.148C318.719 202.13 319.551 201.305 320.578 201.305H325.224Z" fill="#E8E8E8"/>
<path d="M320.578 203.148H325.224V205.914H327.082V203.148H332.192V205.914H334.051V203.148H338.697V207.297L334.98 210.062L335.909 218.359H323.365L324.294 210.062L320.578 207.297V203.148Z" fill="#34364C"/>
<path d="M323.365 220.203H335.909L338.697 223.891V227.578H320.578V223.891L323.365 220.203Z" fill="#34364C"/>
<path d="M32.7061 44.6738C32.7061 45.2051 32.583 45.6523 32.3369 46.0156C32.0908 46.3789 31.7549 46.6543 31.3291 46.8418C30.9072 47.0254 30.4307 47.1172 29.8994 47.1172C29.3682 47.1172 28.8897 47.0254 28.4639 46.8418C28.0381 46.6543 27.7022 46.3789 27.4561 46.0156C27.21 45.6523 27.0869 45.2051 27.0869 44.6738C27.0869 44.3223 27.1553 44.0039 27.292 43.7188C27.4287 43.4297 27.6221 43.1816 27.8721 42.9746C28.126 42.7637 28.4229 42.6016 28.7627 42.4883C29.1065 42.375 29.4815 42.3184 29.8877 42.3184C30.4268 42.3184 30.9092 42.418 31.335 42.6172C31.7608 42.8164 32.0947 43.0918 32.3369 43.4434C32.583 43.7949 32.7061 44.2051 32.7061 44.6738ZM31.2881 44.6035C31.2881 44.3184 31.2295 44.0684 31.1123 43.8535C30.9951 43.6387 30.8311 43.4727 30.6201 43.3555C30.4092 43.2383 30.1651 43.1797 29.8877 43.1797C29.6065 43.1797 29.3623 43.2383 29.1553 43.3555C28.9483 43.4727 28.7861 43.6387 28.669 43.8535C28.5557 44.0684 28.499 44.3184 28.499 44.6035C28.499 44.8926 28.5557 45.1426 28.669 45.3535C28.7822 45.5605 28.9444 45.7188 29.1553 45.8281C29.3662 45.9375 29.6143 45.9922 29.8994 45.9922C30.1846 45.9922 30.4307 45.9375 30.6377 45.8281C30.8447 45.7188 31.0049 45.5605 31.1182 45.3535C31.2315 45.1426 31.2881 44.8926 31.2881 44.6035ZM32.5127 40.7129C32.5127 41.1387 32.3994 41.5176 32.1729 41.8496C31.9502 42.1816 31.6416 42.4434 31.2471 42.6348C30.8526 42.8223 30.4033 42.916 29.8994 42.916C29.3916 42.916 28.9385 42.8223 28.5401 42.6348C28.1455 42.4434 27.835 42.1816 27.6084 41.8496C27.3858 41.5176 27.2744 41.1387 27.2744 40.7129C27.2744 40.2051 27.3858 39.7773 27.6084 39.4297C27.835 39.0781 28.1455 38.8105 28.5401 38.627C28.9346 38.4434 29.3858 38.3516 29.8936 38.3516C30.4014 38.3516 30.8526 38.4434 31.2471 38.627C31.6416 38.8105 31.9502 39.0781 32.1729 39.4297C32.3994 39.7773 32.5127 40.2051 32.5127 40.7129ZM31.1006 40.7598C31.1006 40.5059 31.0498 40.2832 30.9483 40.0918C30.8506 39.8965 30.7119 39.7441 30.5322 39.6348C30.3526 39.5254 30.1397 39.4707 29.8936 39.4707C29.6475 39.4707 29.4346 39.5234 29.2549 39.6289C29.0752 39.7344 28.9365 39.8828 28.8389 40.0742C28.7412 40.2656 28.6924 40.4941 28.6924 40.7598C28.6924 41.0215 28.7412 41.25 28.8389 41.4453C28.9365 41.6367 29.0752 41.7871 29.2549 41.8965C29.4385 42.0059 29.6533 42.0605 29.8994 42.0605C30.1455 42.0605 30.3584 42.0059 30.5381 41.8965C30.7178 41.7871 30.8565 41.6367 30.9541 41.4453C31.0518 41.25 31.1006 41.0215 31.1006 40.7598Z" fill="#000039"/>
<path d="M32.794 82.7188V83.4922L29.3838 91.25H27.8955L31.2998 83.8438H26.8819V82.7188H32.794Z" fill="#000039"/>
<path d="M31.3936 126.916H31.5694V128.07H31.4697C30.9658 128.07 30.5303 128.148 30.1631 128.305C29.7998 128.461 29.501 128.676 29.2666 128.949C29.0322 129.223 28.8565 129.543 28.7393 129.91C28.626 130.273 28.5694 130.66 28.5694 131.07V132.412C28.5694 132.752 28.6065 133.053 28.6807 133.314C28.7549 133.572 28.8584 133.789 28.9912 133.965C29.1279 134.137 29.2842 134.268 29.46 134.357C29.6358 134.447 29.8252 134.492 30.0283 134.492C30.2393 134.492 30.4307 134.449 30.6026 134.363C30.7744 134.273 30.9209 134.15 31.042 133.994C31.1631 133.838 31.2549 133.652 31.3174 133.438C31.3799 133.223 31.4111 132.988 31.4111 132.734C31.4111 132.492 31.3799 132.266 31.3174 132.055C31.2588 131.84 31.1709 131.652 31.0537 131.492C30.9365 131.328 30.7901 131.201 30.6143 131.111C30.4424 131.018 30.2432 130.971 30.0166 130.971C29.7354 130.971 29.4795 131.037 29.249 131.17C29.0225 131.303 28.8389 131.477 28.6983 131.691C28.5615 131.902 28.4873 132.127 28.4756 132.365L27.9365 132.189C27.9678 131.826 28.0479 131.5 28.1768 131.211C28.3096 130.922 28.4834 130.676 28.6983 130.473C28.9131 130.27 29.1611 130.115 29.4424 130.01C29.7276 129.9 30.0401 129.846 30.3799 129.846C30.794 129.846 31.1533 129.924 31.458 130.08C31.7627 130.236 32.0147 130.449 32.2139 130.719C32.417 130.984 32.5674 131.289 32.6651 131.633C32.7666 131.973 32.8174 132.328 32.8174 132.699C32.8174 133.109 32.7549 133.492 32.6299 133.848C32.5049 134.199 32.3213 134.508 32.0791 134.773C31.8408 135.039 31.5498 135.246 31.2061 135.395C30.8662 135.543 30.4795 135.617 30.0459 135.617C29.5889 135.617 29.1807 135.529 28.8213 135.354C28.4658 135.178 28.1631 134.936 27.9131 134.627C27.667 134.318 27.4795 133.963 27.3506 133.561C27.2217 133.158 27.1572 132.732 27.1572 132.283V131.697C27.1572 131.049 27.2393 130.438 27.4033 129.863C27.5674 129.285 27.8194 128.775 28.1592 128.334C28.5029 127.893 28.9424 127.547 29.4776 127.297C30.0127 127.043 30.6514 126.916 31.3936 126.916Z" fill="#000039"/>
<path d="M28.6104 175.783L27.4854 175.508L27.9483 171.219H32.5479V172.414H29.1201L28.8858 174.506C29.0186 174.428 29.2022 174.352 29.4365 174.277C29.6709 174.199 29.9385 174.16 30.2393 174.16C30.6416 174.16 31.001 174.227 31.3174 174.359C31.6377 174.488 31.9092 174.678 32.1319 174.928C32.3545 175.174 32.5244 175.475 32.6416 175.83C32.7588 176.182 32.8174 176.578 32.8174 177.02C32.8174 177.414 32.7588 177.783 32.6416 178.127C32.5283 178.471 32.3565 178.773 32.126 179.035C31.8955 179.297 31.6045 179.502 31.2529 179.65C30.9053 179.795 30.4932 179.867 30.0166 179.867C29.6611 179.867 29.3194 179.816 28.9912 179.715C28.667 179.609 28.376 179.455 28.1182 179.252C27.8604 179.045 27.6533 178.791 27.4971 178.49C27.3408 178.186 27.251 177.836 27.2276 177.441H28.6104C28.6455 177.719 28.7217 177.955 28.8389 178.15C28.96 178.342 29.1201 178.488 29.3194 178.59C29.5186 178.691 29.749 178.742 30.0108 178.742C30.249 178.742 30.4541 178.701 30.626 178.619C30.7979 178.533 30.9404 178.412 31.0537 178.256C31.1709 178.096 31.2569 177.908 31.3115 177.693C31.3701 177.479 31.3994 177.24 31.3994 176.979C31.3994 176.729 31.3662 176.5 31.2998 176.293C31.2373 176.086 31.1416 175.906 31.0127 175.754C30.8877 175.602 30.7295 175.484 30.5381 175.402C30.3467 175.316 30.126 175.273 29.876 175.273C29.5401 175.273 29.2822 175.322 29.1026 175.42C28.9268 175.518 28.7627 175.639 28.6104 175.783Z" fill="#000039"/>
<path d="M33.0049 220.959V222.084H26.8526L26.8057 221.234L30.4854 215.469H31.6162L30.3916 217.566L28.2764 220.959H33.0049ZM31.9385 215.469V224H30.5264V215.469H31.9385Z" fill="#000039"/>
<path d="M28.7861 263.346H29.6299C29.958 263.346 30.2295 263.289 30.4444 263.176C30.6631 263.062 30.8252 262.906 30.9307 262.707C31.0361 262.508 31.0889 262.279 31.0889 262.021C31.0889 261.752 31.0401 261.521 30.9424 261.33C30.8486 261.135 30.7041 260.984 30.5088 260.879C30.3174 260.773 30.0733 260.721 29.7764 260.721C29.5264 260.721 29.2998 260.771 29.0967 260.873C28.8975 260.971 28.7393 261.111 28.6221 261.295C28.5049 261.475 28.4463 261.689 28.4463 261.939H27.0283C27.0283 261.486 27.1475 261.084 27.3858 260.732C27.624 260.381 27.9483 260.105 28.3584 259.906C28.7725 259.703 29.2373 259.602 29.7529 259.602C30.3037 259.602 30.7842 259.693 31.1944 259.877C31.6084 260.057 31.9307 260.326 32.1611 260.686C32.3916 261.045 32.5069 261.49 32.5069 262.021C32.5069 262.264 32.4502 262.51 32.3369 262.76C32.2236 263.01 32.0557 263.238 31.833 263.445C31.6104 263.648 31.333 263.814 31.001 263.943C30.669 264.068 30.2842 264.131 29.8467 264.131H28.7861V263.346ZM28.7861 264.447V263.674H29.8467C30.3467 263.674 30.7725 263.732 31.124 263.85C31.4795 263.967 31.7686 264.129 31.9912 264.336C32.2139 264.539 32.376 264.771 32.4776 265.033C32.583 265.295 32.6358 265.572 32.6358 265.865C32.6358 266.264 32.5635 266.619 32.419 266.932C32.2783 267.24 32.0772 267.502 31.8154 267.717C31.5537 267.932 31.2471 268.094 30.8955 268.203C30.5479 268.312 30.169 268.367 29.7588 268.367C29.3916 268.367 29.0401 268.316 28.7041 268.215C28.3682 268.113 28.0674 267.963 27.8018 267.764C27.5361 267.561 27.3252 267.309 27.169 267.008C27.0166 266.703 26.9404 266.352 26.9404 265.953H28.3526C28.3526 266.207 28.4111 266.432 28.5283 266.627C28.6494 266.818 28.8174 266.969 29.0322 267.078C29.251 267.188 29.501 267.242 29.7822 267.242C30.0791 267.242 30.335 267.189 30.5498 267.084C30.7647 266.979 30.9287 266.822 31.042 266.615C31.1592 266.408 31.2178 266.158 31.2178 265.865C31.2178 265.533 31.1533 265.264 31.0244 265.057C30.8955 264.85 30.7119 264.697 30.4736 264.6C30.2354 264.498 29.9541 264.447 29.6299 264.447H28.7861Z" fill="#000039"/>
<path d="M32.8467 311.375V312.5H27.1279V311.533L29.9053 308.504C30.21 308.16 30.4502 307.863 30.626 307.613C30.8018 307.363 30.9248 307.139 30.9951 306.939C31.0694 306.736 31.1065 306.539 31.1065 306.348C31.1065 306.078 31.0557 305.842 30.9541 305.639C30.8565 305.432 30.7119 305.27 30.5205 305.152C30.3291 305.031 30.0967 304.971 29.8233 304.971C29.5069 304.971 29.2412 305.039 29.0264 305.176C28.8115 305.312 28.6494 305.502 28.5401 305.744C28.4307 305.982 28.376 306.256 28.376 306.564H26.9639C26.9639 306.068 27.0772 305.615 27.3037 305.205C27.5303 304.791 27.8584 304.463 28.2881 304.221C28.7178 303.975 29.2354 303.852 29.8408 303.852C30.4111 303.852 30.8955 303.947 31.294 304.139C31.6924 304.33 31.9951 304.602 32.2022 304.953C32.4131 305.305 32.5186 305.721 32.5186 306.201C32.5186 306.467 32.4756 306.73 32.3897 306.992C32.3037 307.254 32.1807 307.516 32.0205 307.777C31.8643 308.035 31.6787 308.295 31.4639 308.557C31.249 308.814 31.0127 309.076 30.7549 309.342L28.9092 311.375H32.8467Z" fill="#000039"/>
<path d="M30.9834 348.189V356.75H29.5713V349.865L27.4795 350.574V349.408L30.8135 348.189H30.9834Z" fill="#000039"/>
<path d="M67.5234 382.605L64.9746 390H63.4336L66.6445 381.469H67.6289L67.5234 382.605ZM69.6562 390L67.1016 382.605L66.9902 381.469H67.9805L71.2031 390H69.6562ZM69.5332 386.836V388.002H64.8926V386.836H69.5332Z" fill="#000039"/>
<path d="M112.213 386.145H110.039L110.027 385.072H111.926C112.246 385.072 112.518 385.025 112.74 384.932C112.967 384.834 113.139 384.695 113.256 384.516C113.373 384.332 113.432 384.111 113.432 383.854C113.432 383.568 113.377 383.336 113.268 383.156C113.158 382.977 112.99 382.846 112.764 382.764C112.541 382.682 112.256 382.641 111.908 382.641H110.484V390H109.014V381.469H111.908C112.377 381.469 112.795 381.514 113.162 381.604C113.533 381.693 113.848 381.834 114.105 382.025C114.367 382.213 114.564 382.451 114.697 382.74C114.834 383.029 114.902 383.373 114.902 383.771C114.902 384.123 114.818 384.445 114.65 384.738C114.482 385.027 114.234 385.264 113.906 385.447C113.578 385.631 113.17 385.74 112.682 385.775L112.213 386.145ZM112.148 390H109.576L110.238 388.834H112.148C112.48 388.834 112.758 388.779 112.98 388.67C113.203 388.557 113.369 388.402 113.479 388.207C113.592 388.008 113.648 387.775 113.648 387.51C113.648 387.232 113.6 386.992 113.502 386.789C113.404 386.582 113.25 386.424 113.039 386.314C112.828 386.201 112.553 386.145 112.213 386.145H110.561L110.572 385.072H112.723L113.057 385.477C113.525 385.492 113.91 385.596 114.211 385.787C114.516 385.979 114.742 386.227 114.891 386.531C115.039 386.836 115.113 387.164 115.113 387.516C115.113 388.059 114.994 388.514 114.756 388.881C114.521 389.248 114.184 389.527 113.742 389.719C113.301 389.906 112.77 390 112.148 390Z" fill="#000039"/>
<path d="M158.549 387.223H160.014C159.967 387.781 159.811 388.279 159.545 388.717C159.279 389.15 158.906 389.492 158.426 389.742C157.945 389.992 157.361 390.117 156.674 390.117C156.146 390.117 155.672 390.023 155.25 389.836C154.828 389.645 154.467 389.375 154.166 389.027C153.865 388.676 153.635 388.252 153.475 387.756C153.318 387.26 153.24 386.705 153.24 386.092V385.383C153.24 384.77 153.32 384.215 153.48 383.719C153.645 383.223 153.879 382.799 154.184 382.447C154.488 382.092 154.854 381.82 155.279 381.633C155.709 381.445 156.191 381.352 156.727 381.352C157.406 381.352 157.98 381.477 158.449 381.727C158.918 381.977 159.281 382.322 159.539 382.764C159.801 383.205 159.961 383.711 160.02 384.281H158.555C158.516 383.914 158.43 383.6 158.297 383.338C158.168 383.076 157.977 382.877 157.723 382.74C157.469 382.6 157.137 382.529 156.727 382.529C156.391 382.529 156.098 382.592 155.848 382.717C155.598 382.842 155.389 383.025 155.221 383.268C155.053 383.51 154.926 383.809 154.84 384.164C154.758 384.516 154.717 384.918 154.717 385.371V386.092C154.717 386.521 154.754 386.912 154.828 387.264C154.906 387.611 155.023 387.91 155.18 388.16C155.34 388.41 155.543 388.604 155.789 388.74C156.035 388.877 156.33 388.945 156.674 388.945C157.092 388.945 157.43 388.879 157.688 388.746C157.949 388.613 158.146 388.42 158.279 388.166C158.416 387.908 158.506 387.594 158.549 387.223Z" fill="#000039"/>
<path d="M200.613 390H198.791L198.803 388.834H200.613C201.141 388.834 201.582 388.719 201.938 388.488C202.297 388.258 202.566 387.928 202.746 387.498C202.93 387.068 203.021 386.557 203.021 385.963V385.5C203.021 385.039 202.969 384.631 202.863 384.275C202.762 383.92 202.609 383.621 202.406 383.379C202.207 383.137 201.961 382.953 201.668 382.828C201.379 382.703 201.045 382.641 200.666 382.641H198.756V381.469H200.666C201.232 381.469 201.75 381.564 202.219 381.756C202.688 381.943 203.092 382.215 203.432 382.57C203.775 382.926 204.039 383.352 204.223 383.848C204.406 384.344 204.498 384.898 204.498 385.512V385.963C204.498 386.576 204.406 387.131 204.223 387.627C204.039 388.123 203.775 388.549 203.432 388.904C203.088 389.256 202.678 389.527 202.201 389.719C201.729 389.906 201.199 390 200.613 390ZM199.605 381.469V390H198.135V381.469H199.605Z" fill="#000039"/>
<path d="M248.871 388.834V390H244.342V388.834H248.871ZM244.758 381.469V390H243.287V381.469H244.758ZM248.279 385.031V386.18H244.342V385.031H248.279ZM248.842 381.469V382.641H244.342V381.469H248.842Z" fill="#000039"/>
<path d="M289.471 381.469V390H288V381.469H289.471ZM292.951 385.201V386.367H289.096V385.201H292.951ZM293.438 381.469V382.641H289.096V381.469H293.438Z" fill="#000039"/>
<path d="M338.391 385.641V388.898C338.27 389.059 338.08 389.234 337.822 389.426C337.568 389.613 337.23 389.775 336.809 389.912C336.387 390.049 335.861 390.117 335.232 390.117C334.697 390.117 334.207 390.027 333.762 389.848C333.316 389.664 332.932 389.396 332.607 389.045C332.287 388.693 332.039 388.266 331.863 387.762C331.688 387.254 331.6 386.676 331.6 386.027V385.436C331.6 384.791 331.68 384.217 331.84 383.713C332.004 383.205 332.238 382.775 332.543 382.424C332.848 382.072 333.215 381.807 333.645 381.627C334.078 381.443 334.568 381.352 335.115 381.352C335.814 381.352 336.393 381.469 336.85 381.703C337.311 381.934 337.666 382.254 337.916 382.664C338.166 383.074 338.324 383.543 338.391 384.07H336.949C336.902 383.773 336.811 383.508 336.674 383.273C336.541 383.039 336.35 382.855 336.1 382.723C335.854 382.586 335.533 382.518 335.139 382.518C334.799 382.518 334.5 382.582 334.242 382.711C333.984 382.84 333.77 383.029 333.598 383.279C333.43 383.529 333.303 383.834 333.217 384.193C333.131 384.553 333.088 384.963 333.088 385.424V386.027C333.088 386.496 333.137 386.912 333.234 387.275C333.336 387.639 333.48 387.945 333.668 388.195C333.859 388.445 334.092 388.635 334.365 388.764C334.639 388.889 334.947 388.951 335.291 388.951C335.627 388.951 335.902 388.924 336.117 388.869C336.332 388.811 336.502 388.742 336.627 388.664C336.756 388.582 336.855 388.504 336.926 388.43V386.736H335.15V385.641H338.391Z" fill="#000039"/>
<path d="M381.932 385.031V386.197H377.402V385.031H381.932ZM377.766 381.469V390H376.295V381.469H377.766ZM383.062 381.469V390H381.598V381.469H383.062Z" fill="#000039"/>
</svg>
