<svg width="35" height="33" viewBox="0 0 35 33" fill="none" xmlns="http://www.w3.org/2000/svg">
<path d="M18.0153 5.29065C17.9075 5.18747 17.764 5.12988 17.6147 5.12988C17.4654 5.12988 17.3219 5.18747 17.2141 5.29065L3.87649 18.032C3.81985 18.0862 3.77479 18.1513 3.74403 18.2234C3.71327 18.2955 3.69746 18.3731 3.69755 18.4515L3.69537 30.4096C3.69537 31.0245 3.93962 31.6142 4.37439 32.0489C4.80916 32.4837 5.39884 32.728 6.01369 32.728H12.9759C13.2833 32.728 13.5782 32.6058 13.7955 32.3884C14.0129 32.1711 14.1351 31.8762 14.1351 31.5688V21.7159C14.1351 21.5622 14.1961 21.4148 14.3048 21.3061C14.4135 21.1974 14.5609 21.1364 14.7146 21.1364H20.5104C20.6641 21.1364 20.8116 21.1974 20.9203 21.3061C21.0289 21.4148 21.09 21.5622 21.09 21.7159V31.5688C21.09 31.8762 21.2121 32.1711 21.4295 32.3884C21.6469 32.6058 21.9417 32.728 22.2492 32.728H29.2085C29.8233 32.728 30.413 32.4837 30.8478 32.0489C31.2825 31.6142 31.5268 31.0245 31.5268 30.4096V18.4515C31.5269 18.3731 31.5111 18.2955 31.4803 18.2234C31.4496 18.1513 31.4045 18.0862 31.3478 18.032L18.0153 5.29065Z" fill="#000039"/>
<path d="M34.6312 15.6412L29.2121 10.4569V2.5898C29.2121 2.28238 29.09 1.98754 28.8726 1.77015C28.6552 1.55277 28.3604 1.43064 28.0529 1.43064H24.5755C24.268 1.43064 23.9732 1.55277 23.7558 1.77015C23.5384 1.98754 23.4163 2.28238 23.4163 2.5898V4.90812L19.2202 0.895981C18.8275 0.498969 18.2436 0.271484 17.6125 0.271484C16.9837 0.271484 16.4012 0.49897 16.0086 0.896706L0.598985 15.6398C0.148361 16.0745 0.0918523 16.7895 0.501905 17.2604C0.604875 17.3793 0.730956 17.4759 0.872473 17.5445C1.01399 17.6131 1.16798 17.6522 1.32508 17.6594C1.48218 17.6666 1.6391 17.6417 1.78628 17.5863C1.93347 17.5309 2.06785 17.4462 2.18124 17.3372L17.2141 2.97233C17.3219 2.86915 17.4655 2.81156 17.6147 2.81156C17.764 2.81156 17.9075 2.86915 18.0154 2.97233L33.0496 17.3372C33.2711 17.5496 33.5677 17.6655 33.8745 17.6595C34.1813 17.6535 34.4732 17.5262 34.6862 17.3053C35.1311 16.8446 35.0941 16.0839 34.6312 15.6412Z" fill="#000039"/>
</svg>
