<svg width="75" height="75" viewBox="0 0 75 75" fill="none" xmlns="http://www.w3.org/2000/svg">
<path d="M37.3924 6.87988C31.314 6.87988 25.372 8.68234 20.318 12.0593C15.264 15.4363 11.3249 20.2362 8.99876 25.8519C6.67265 31.4676 6.06403 37.647 7.24987 43.6086C8.43571 49.5703 11.3628 55.0464 15.6608 59.3445C19.9589 63.6425 25.435 66.5696 31.3967 67.7554C37.3583 68.9413 43.5377 68.3327 49.1534 66.0065C54.7691 63.6804 59.569 59.7413 62.946 54.6873C66.3229 49.6333 68.1254 43.6913 68.1254 37.6129C68.1254 33.577 67.3305 29.5806 65.786 25.8519C64.2415 22.1232 61.9777 18.7352 59.1239 15.8814C56.2701 13.0276 52.8821 10.7638 49.1534 9.2193C45.4247 7.67482 41.4283 6.87988 37.3924 6.87988ZM46.6123 40.6862H40.4657V46.8328C40.4657 47.6479 40.1419 48.4296 39.5655 49.006C38.9892 49.5823 38.2075 49.9061 37.3924 49.9061C36.5773 49.9061 35.7956 49.5823 35.2192 49.006C34.6429 48.4296 34.3191 47.6479 34.3191 46.8328V40.6862H28.1725C27.3574 40.6862 26.5757 40.3624 25.9993 39.7861C25.423 39.2097 25.0992 38.428 25.0992 37.6129C25.0992 36.7978 25.423 36.0161 25.9993 35.4398C26.5757 34.8634 27.3574 34.5396 28.1725 34.5396H34.3191V28.393C34.3191 27.5779 34.6429 26.7962 35.2192 26.2199C35.7956 25.6435 36.5773 25.3197 37.3924 25.3197C38.2075 25.3197 38.9892 25.6435 39.5655 26.2199C40.1419 26.7962 40.4657 27.5779 40.4657 28.393V34.5396H46.6123C47.4274 34.5396 48.2091 34.8634 48.7854 35.4398C49.3618 36.0161 49.6856 36.7978 49.6856 37.6129C49.6856 38.428 49.3618 39.2097 48.7854 39.7861C48.2091 40.3624 47.4274 40.6862 46.6123 40.6862Z" fill="white"/>
</svg>
